  0
SECTION
  2
HEADER
  9
$ACADVER
  1
AC1024
  9
$ACADMAINTVER
 70
     6
  9
$DWGCODEPAGE
  3
ANSI_1252
  9
$INSBASE
 10
0.0
 20
0.0
 30
0.0
  9
$EXTMIN
 10
1.000000000000000E+20
 20
1.000000000000000E+20
 30
1.000000000000000E+20
  9
$EXTMAX
 10
-1.000000000000000E+20
 20
-1.000000000000000E+20
 30
-1.000000000000000E+20
  9
$LIMMIN
 10
0.0
 20
0.0
  9
$LIMMAX
 10
12.0
 20
9.0
  9
$ORTHOMODE
 70
     0
  9
$REGENMODE
 70
     1
  9
$FILLMODE
 70
     1
  9
$QTEXTMODE
 70
     0
  9
$MIRRTEXT
 70
     1
  9
$LTSCALE
 40
1.0
  9
$ATTMODE
 70
     1
  9
$TEXTSIZE
 40
0.2
  9
$TRACEWID
 40
0.05
  9
$TEXTSTYLE
  7
Standard
  9
$CLAYER
  8
0
  9
$CELTYPE
  6
ByLayer
  9
$CECOLOR
 62
   256
  9
$CELTSCALE
 40
1.0
  9
$DISPSILH
 70
     0
  9
$DIMSCALE
 40
1.0
  9
$DIMASZ
 40
0.18
  9
$DIMEXO
 40
0.0625
  9
$DIMDLI
 40
0.38
  9
$DIMRND
 40
0.0
  9
$DIMDLE
 40
0.0
  9
$DIMEXE
 40
0.18
  9
$DIMTP
 40
0.0
  9
$DIMTM
 40
0.0
  9
$DIMTXT
 40
0.18
  9
$DIMCEN
 40
0.09
  9
$DIMTSZ
 40
0.0
  9
$DIMTOL
 70
     0
  9
$DIMLIM
 70
     0
  9
$DIMTIH
 70
     1
  9
$DIMTOH
 70
     1
  9
$DIMSE1
 70
     0
  9
$DIMSE2
 70
     0
  9
$DIMTAD
 70
     0
  9
$DIMZIN
 70
     0
  9
$DIMBLK
  1

  9
$DIMASO
 70
     1
  9
$DIMSHO
 70
     1
  9
$DIMPOST
  1

  9
$DIMAPOST
  1

  9
$DIMALT
 70
     0
  9
$DIMALTD
 70
     2
  9
$DIMALTF
 40
25.4
  9
$DIMLFAC
 40
1.0
  9
$DIMTOFL
 70
     0
  9
$DIMTVP
 40
0.0
  9
$DIMTIX
 70
     0
  9
$DIMSOXD
 70
     0
  9
$DIMSAH
 70
     0
  9
$DIMBLK1
  1

  9
$DIMBLK2
  1

  9
$DIMSTYLE
  2
Standard
  9
$DIMCLRD
 70
     0
  9
$DIMCLRE
 70
     0
  9
$DIMCLRT
 70
     0
  9
$DIMTFAC
 40
1.0
  9
$DIMGAP
 40
0.09
  9
$DIMJUST
 70
     0
  9
$DIMSD1
 70
     0
  9
$DIMSD2
 70
     0
  9
$DIMTOLJ
 70
     1
  9
$DIMTZIN
 70
     0
  9
$DIMALTZ
 70
     0
  9
$DIMALTTZ
 70
     0
  9
$DIMUPT
 70
     0
  9
$DIMDEC
 70
     4
  9
$DIMTDEC
 70
     4
  9
$DIMALTU
 70
     2
  9
$DIMALTTD
 70
     2
  9
$DIMTXSTY
  7
Standard
  9
$DIMAUNIT
 70
     0
  9
$DIMADEC
 70
     0
  9
$DIMALTRND
 40
0.0
  9
$DIMAZIN
 70
     0
  9
$DIMDSEP
 70
    46
  9
$DIMATFIT
 70
     3
  9
$DIMFRAC
 70
     0
  9
$DIMLDRBLK
  1

  9
$DIMLUNIT
 70
     2
  9
$DIMLWD
 70
    -2
  9
$DIMLWE
 70
    -2
  9
$DIMTMOVE
 70
     0
  9
$DIMFXL
 40
1.0
  9
$DIMFXLON
 70
     0
  9
$DIMJOGANG
 40
0.7853981633974483
  9
$DIMTFILL
 70
     0
  9
$DIMTFILLCLR
 70
     0
  9
$DIMARCSYM
 70
     0
  9
$DIMLTYPE
  6

  9
$DIMLTEX1
  6

  9
$DIMLTEX2
  6

  9
$DIMTXTDIRECTION
 70
     0
  9
$LUNITS
 70
     2
  9
$LUPREC
 70
     4
  9
$SKETCHINC
 40
0.1
  9
$FILLETRAD
 40
0.5
  9
$AUNITS
 70
     0
  9
$AUPREC
 70
     0
  9
$MENU
  1
.
  9
$ELEVATION
 40
0.0
  9
$PELEVATION
 40
0.0
  9
$THICKNESS
 40
0.0
  9
$LIMCHECK
 70
     0
  9
$CHAMFERA
 40
0.5
  9
$CHAMFERB
 40
0.5
  9
$CHAMFERC
 40
1.0
  9
$CHAMFERD
 40
0.0
  9
$SKPOLY
 70
     0
  9
$TDCREATE
 40
2457931.79965147
  9
$TDUCREATE
 40
2457932.091318137
  9
$TDUPDATE
 40
2457931.799651539
  9
$TDUUPDATE
 40
2457932.091318206
  9
$TDINDWG
 40
0.0000000116
  9
$TDUSRTIMER
 40
0.0000000116
  9
$USRTIMER
 70
     1
  9
$ANGBASE
 50
0.0
  9
$ANGDIR
 70
     0
  9
$PDMODE
 70
     0
  9
$PDSIZE
 40
0.0
  9
$PLINEWID
 40
0.0
  9
$SPLFRAME
 70
     0
  9
$SPLINETYPE
 70
     6
  9
$SPLINESEGS
 70
     8
  9
$HANDSEED
  5
4D
  9
$SURFTAB1
 70
     6
  9
$SURFTAB2
 70
     6
  9
$SURFTYPE
 70
     6
  9
$SURFU
 70
     6
  9
$SURFV
 70
     6
  9
$UCSBASE
  2

  9
$UCSNAME
  2

  9
$UCSORG
 10
0.0
 20
0.0
 30
0.0
  9
$UCSXDIR
 10
1.0
 20
0.0
 30
0.0
  9
$UCSYDIR
 10
0.0
 20
1.0
 30
0.0
  9
$UCSORTHOREF
  2

  9
$UCSORTHOVIEW
 70
     0
  9
$UCSORGTOP
 10
0.0
 20
0.0
 30
0.0
  9
$UCSORGBOTTOM
 10
0.0
 20
0.0
 30
0.0
  9
$UCSORGLEFT
 10
0.0
 20
0.0
 30
0.0
  9
$UCSORGRIGHT
 10
0.0
 20
0.0
 30
0.0
  9
$UCSORGFRONT
 10
0.0
 20
0.0
 30
0.0
  9
$UCSORGBACK
 10
0.0
 20
0.0
 30
0.0
  9
$PUCSBASE
  2

  9
$PUCSNAME
  2

  9
$PUCSORG
 10
0.0
 20
0.0
 30
0.0
  9
$PUCSXDIR
 10
1.0
 20
0.0
 30
0.0
  9
$PUCSYDIR
 10
0.0
 20
1.0
 30
0.0
  9
$PUCSORTHOREF
  2

  9
$PUCSORTHOVIEW
 70
     0
  9
$PUCSORGTOP
 10
0.0
 20
0.0
 30
0.0
  9
$PUCSORGBOTTOM
 10
0.0
 20
0.0
 30
0.0
  9
$PUCSORGLEFT
 10
0.0
 20
0.0
 30
0.0
  9
$PUCSORGRIGHT
 10
0.0
 20
0.0
 30
0.0
  9
$PUCSORGFRONT
 10
0.0
 20
0.0
 30
0.0
  9
$PUCSORGBACK
 10
0.0
 20
0.0
 30
0.0
  9
$USERI1
 70
     0
  9
$USERI2
 70
     0
  9
$USERI3
 70
     0
  9
$USERI4
 70
     0
  9
$USERI5
 70
     0
  9
$USERR1
 40
0.0
  9
$USERR2
 40
0.0
  9
$USERR3
 40
0.0
  9
$USERR4
 40
0.0
  9
$USERR5
 40
0.0
  9
$WORLDVIEW
 70
     1
  9
$SHADEDGE
 70
     3
  9
$SHADEDIF
 70
    70
  9
$TILEMODE
 70
     1
  9
$MAXACTVP
 70
    64
  9
$PINSBASE
 10
0.0
 20
0.0
 30
0.0
  9
$PLIMCHECK
 70
     0
  9
$PEXTMIN
 10
1.000000000000000E+20
 20
1.000000000000000E+20
 30
1.000000000000000E+20
  9
$PEXTMAX
 10
-1.000000000000000E+20
 20
-1.000000000000000E+20
 30
-1.000000000000000E+20
  9
$PLIMMIN
 10
0.0
 20
0.0
  9
$PLIMMAX
 10
12.0
 20
9.0
  9
$UNITMODE
 70
     0
  9
$VISRETAIN
 70
     1
  9
$PLINEGEN
 70
     0
  9
$PSLTSCALE
 70
     1
  9
$TREEDEPTH
 70
  3020
  9
$CMLSTYLE
  2
Standard
  9
$CMLJUST
 70
     0
  9
$CMLSCALE
 40
1.0
  9
$PROXYGRAPHICS
 70
     1
  9
$MEASUREMENT
 70
     0
  9
$CELWEIGHT
370
    -1
  9
$ENDCAPS
280
     0
  9
$JOINSTYLE
280
     0
  9
$LWDISPLAY
290
     1
  9
$INSUNITS
 70
     1
  9
$HYPERLINKBASE
  1

  9
$STYLESHEET
  1

  9
$XEDIT
290
     1
  9
$CEPSNTYPE
380
     0
  9
$PSTYLEMODE
290
     1
  9
$FINGERPRINTGUID
  2
{FC4D4799-78A2-499C-877B-B117BEC8187D}
  9
$VERSIONGUID
  2
{FAEB1C32-E019-11D5-929B-00C0DF256EC4}
  9
$EXTNAMES
290
     1
  9
$PSVPSCALE
 40
0.0
  9
$OLESTARTUP
290
     0
  9
$SORTENTS
280
   127
  9
$INDEXCTL
280
     0
  9
$HIDETEXT
280
     1
  9
$XCLIPFRAME
280
     2
  9
$HALOGAP
280
     0
  9
$OBSCOLOR
 70
   257
  9
$OBSLTYPE
280
     0
  9
$INTERSECTIONDISPLAY
280
     0
  9
$INTERSECTIONCOLOR
 70
   257
  9
$DIMASSOC
280
     2
  9
$PROJECTNAME
  1

  9
$CAMERADISPLAY
290
     0
  9
$LENSLENGTH
 40
50.0
  9
$CAMERAHEIGHT
 40
0.0
  9
$STEPSPERSEC
 40
2.0
  9
$STEPSIZE
 40
6.0
  9
$3DDWFPREC
 40
2.0
  9
$PSOLWIDTH
 40
0.25
  9
$PSOLHEIGHT
 40
4.0
  9
$LOFTANG1
 40
1.570796326794897
  9
$LOFTANG2
 40
1.570796326794897
  9
$LOFTMAG1
 40
0.0
  9
$LOFTMAG2
 40
0.0
  9
$LOFTPARAM
 70
     7
  9
$LOFTNORMALS
280
     1
  9
$LATITUDE
 40
37.795
  9
$LONGITUDE
 40
-122.394
  9
$NORTHDIRECTION
 40
0.0
  9
$TIMEZONE
 70
 -8000
  9
$LIGHTGLYPHDISPLAY
280
     1
  9
$TILEMODELIGHTSYNCH
280
     1
  9
$CMATERIAL
347
3C
  9
$SOLIDHIST
280
     1
  9
$SHOWHIST
280
     1
  9
$DWFFRAME
280
     2
  9
$DGNFRAME
280
     2
  9
$REALWORLDSCALE
290
     1
  9
$INTERFERECOLOR
 62
   256
  9
$CSHADOW
280
     0
  9
$SHADOWPLANELOCATION
 40
0.0
  0
ENDSEC
  0
SECTION
  2
CLASSES
  0
CLASS
  1
ACDBDICTIONARYWDFLT
  2
AcDbDictionaryWithDefault
  3
ObjectDBX Classes
 90
        0
 91
        4
280
     0
281
     0
  0
CLASS
  1
VISUALSTYLE
  2
AcDbVisualStyle
  3
ObjectDBX Classes
 90
     4095
 91
        4
280
     0
281
     0
  0
CLASS
  1
MATERIAL
  2
AcDbMaterial
  3
ObjectDBX Classes
 90
     1153
 91
        4
280
     0
281
     0
  0
CLASS
  1
SUN
  2
AcDbSun
  3
SCENEOE
 90
     1024
 91
        4
280
     0
281
     0
  0
ENDSEC
  0
SECTION
  2
TABLES
  0
TABLE
  2
VPORT
  5
8
330
0
100
AcDbSymbolTable
 70
     1
  0
VPORT
  5
29
330
8
100
AcDbSymbolTableRecord
100
AcDbViewportTableRecord
  2
*Active
 70
     0
 10
0.0
 20
0.0
 11
1.0
 21
1.0
 12
0.0
 22
0.0
 13
0.0
 23
0.0
 14
0.5
 24
0.5
 15
0.5
 25
0.5
 16
0.0
 26
0.0
 36
1.0
 17
144.0
 27
-280.0
 37
0.0
 40
560.0
 41
0.5142857142857142
 42
50.0
 43
0.0
 44
0.0
 50
0.0
 51
0.0
 71
     0
 72
   100
 73
     1
 74
     3
 75
     0
 76
     0
 77
     0
 78
     0
281
     0
 65
     1
110
0.0
120
0.0
130
0.0
111
1.0
121
0.0
131
0.0
112
0.0
122
1.0
132
0.0
 79
     0
146
0.0
 60
     3
 61
     5
292
     1
282
     1
141
0.0
142
0.0
 63
   250
361
3F
  0
ENDTAB
  0
TABLE
  2
LTYPE
  5
5
330
0
100
AcDbSymbolTable
 70
     1
  0
LTYPE
  5
14
330
5
100
AcDbSymbolTableRecord
100
AcDbLinetypeTableRecord
  2
ByBlock
 70
     0
  3

 72
    65
 73
     0
 40
0.0
  0
LTYPE
  5
15
330
5
100
AcDbSymbolTableRecord
100
AcDbLinetypeTableRecord
  2
ByLayer
 70
     0
  3

 72
    65
 73
     0
 40
0.0
  0
LTYPE
  5
16
330
5
100
AcDbSymbolTableRecord
100
AcDbLinetypeTableRecord
  2
Continuous
 70
     0
  3
Solid line
 72
    65
 73
     0
 40
0.0
  0
ENDTAB
  0
TABLE
  2
LAYER
  5
2
330
0
100
AcDbSymbolTable
 70
     2
  0
LAYER
  5
10
330
2
100
AcDbSymbolTableRecord
100
AcDbLayerTableRecord
  2
0
 70
     0
 62
     7
  6
Continuous
370
    -3
390
F
347
3E
  0
LAYER
  5
40
330
2
100
AcDbSymbolTableRecord
100
AcDbLayerTableRecord
  2
Layer 1
 70
     0
 62
     7
  6
Continuous
370
    -3
390
F
347
3E
  0
ENDTAB
  0
TABLE
  2
STYLE
  5
3
330
0
100
AcDbSymbolTable
 70
     1
  0
STYLE
  5
11
330
3
100
AcDbSymbolTableRecord
100
AcDbTextStyleTableRecord
  2
Standard
 70
     0
 40
0.0
 41
1.0
 50
0.0
 71
     0
 42
0.2
  3
txt
  4

  0
ENDTAB
  0
TABLE
  2
VIEW
  5
6
330
0
100
AcDbSymbolTable
 70
     0
  0
ENDTAB
  0
TABLE
  2
UCS
  5
7
330
0
100
AcDbSymbolTable
 70
     0
  0
ENDTAB
  0
TABLE
  2
APPID
  5
9
330
0
100
AcDbSymbolTable
 70
     1
  0
APPID
  5
12
330
9
100
AcDbSymbolTableRecord
100
AcDbRegAppTableRecord
  2
ACAD
 70
     0
  0
ENDTAB
  0
TABLE
  2
DIMSTYLE
  5
A
330
0
100
AcDbSymbolTable
 70
     1
100
AcDbDimStyleTable
  0
DIMSTYLE
105
27
330
A
100
AcDbSymbolTableRecord
100
AcDbDimStyleTableRecord
  2
Standard
 70
     0
178
     0
340
11
  0
ENDTAB
  0
TABLE
  2
BLOCK_RECORD
  5
1
330
0
100
AcDbSymbolTable
 70
     2
  0
BLOCK_RECORD
  5
1F
330
1
100
AcDbSymbolTableRecord
100
AcDbBlockTableRecord
  2
*Model_Space
340
22
 70
     0
280
     1
281
     0
  0
BLOCK_RECORD
  5
1B
330
1
100
AcDbSymbolTableRecord
100
AcDbBlockTableRecord
  2
*Paper_Space
340
1E
 70
     0
280
     1
281
     0
  0
BLOCK_RECORD
  5
23
330
1
100
AcDbSymbolTableRecord
100
AcDbBlockTableRecord
  2
*Paper_Space0
340
26
 70
     0
280
     1
281
     0
  0
BLOCK_RECORD
  5
41
330
1
100
AcDbSymbolTableRecord
100
AcDbBlockTableRecord
  2
block 2
340
0
102
{BLKREFS
331
42
102
}
 70
     0
280
     1
281
     0
  0
ENDTAB
  0
ENDSEC
  0
SECTION
  2
BLOCKS
  0
BLOCK
  5
20
330
1F
100
AcDbEntity
  8
0
100
AcDbBlockBegin
  2
*Model_Space
 70
     0
 10
0.0
 20
0.0
 30
0.0
  3
*Model_Space
  1

  0
ENDBLK
  5
21
330
1F
100
AcDbEntity
  8
0
100
AcDbBlockEnd
  0
BLOCK
  5
1C
330
1B
100
AcDbEntity
 67
     1
  8
0
100
AcDbBlockBegin
  2
*Paper_Space
 70
     0
 10
0.0
 20
0.0
 30
0.0
  3
*Paper_Space
  1

  0
ENDBLK
  5
1D
330
1B
100
AcDbEntity
 67
     1
  8
0
100
AcDbBlockEnd
  0
BLOCK
  5
24
330
23
100
AcDbEntity
  8
0
100
AcDbBlockBegin
  2
*Paper_Space0
 70
     0
 10
0.0
 20
0.0
 30
0.0
  3
*Paper_Space0
  1

  0
ENDBLK
  5
25
330
23
100
AcDbEntity
  8
0
100
AcDbBlockEnd
  0
BLOCK
  5
43
330
41
100
AcDbEntity
  8
0
100
AcDbBlockBegin
  2
block 2
 70
     0
 10
0.0
 20
0.0
 30
0.0
  3
block 2
  1

  0
SPLINE
  5
45
330
41
100
AcDbEntity
  8
Layer 1
370
     0
100
AcDbSpline
210
0.0
220
0.0
230
1.0
 70
    11
 71
     3
 72
  1307
 73
  1303
 74
     0
 42
0.0000000001
 43
0.0000000001
 12
1.0
 22
0.0
 32
0.0
 13
1.0
 23
0.0
 33
0.0
 40
0.0
 40
0.0
 40
0.0
 40
0.0
 40
1.0
 40
1.0
 40
1.0
 40
2.0
 40
2.0
 40
2.0
 40
3.0
 40
3.0
 40
3.0
 40
4.0
 40
4.0
 40
4.0
 40
5.0
 40
5.0
 40
5.0
 40
6.0
 40
6.0
 40
6.0
 40
7.0
 40
7.0
 40
7.0
 40
8.0
 40
8.0
 40
8.0
 40
9.0
 40
9.0
 40
9.0
 40
10.0
 40
10.0
 40
10.0
 40
11.0
 40
11.0
 40
11.0
 40
12.0
 40
12.0
 40
12.0
 40
13.0
 40
13.0
 40
13.0
 40
14.0
 40
14.0
 40
14.0
 40
15.0
 40
15.0
 40
15.0
 40
16.0
 40
16.0
 40
16.0
 40
17.0
 40
17.0
 40
17.0
 40
18.0
 40
18.0
 40
18.0
 40
19.0
 40
19.0
 40
19.0
 40
20.0
 40
20.0
 40
20.0
 40
21.0
 40
21.0
 40
21.0
 40
22.0
 40
22.0
 40
22.0
 40
23.0
 40
23.0
 40
23.0
 40
24.0
 40
24.0
 40
24.0
 40
25.0
 40
25.0
 40
25.0
 40
26.0
 40
26.0
 40
26.0
 40
27.0
 40
27.0
 40
27.0
 40
28.0
 40
28.0
 40
28.0
 40
29.0
 40
29.0
 40
29.0
 40
30.0
 40
30.0
 40
30.0
 40
31.0
 40
31.0
 40
31.0
 40
32.0
 40
32.0
 40
32.0
 40
33.0
 40
33.0
 40
33.0
 40
34.0
 40
34.0
 40
34.0
 40
35.0
 40
35.0
 40
35.0
 40
36.0
 40
36.0
 40
36.0
 40
37.0
 40
37.0
 40
37.0
 40
38.0
 40
38.0
 40
38.0
 40
39.0
 40
39.0
 40
39.0
 40
40.0
 40
40.0
 40
40.0
 40
41.0
 40
41.0
 40
41.0
 40
42.0
 40
42.0
 40
42.0
 40
43.0
 40
43.0
 40
43.0
 40
44.0
 40
44.0
 40
44.0
 40
45.0
 40
45.0
 40
45.0
 40
46.0
 40
46.0
 40
46.0
 40
47.0
 40
47.0
 40
47.0
 40
48.0
 40
48.0
 40
48.0
 40
49.0
 40
49.0
 40
49.0
 40
50.0
 40
50.0
 40
50.0
 40
51.0
 40
51.0
 40
51.0
 40
52.0
 40
52.0
 40
52.0
 40
53.0
 40
53.0
 40
53.0
 40
54.0
 40
54.0
 40
54.0
 40
55.0
 40
55.0
 40
55.0
 40
56.0
 40
56.0
 40
56.0
 40
57.0
 40
57.0
 40
57.0
 40
58.0
 40
58.0
 40
58.0
 40
59.0
 40
59.0
 40
59.0
 40
60.0
 40
60.0
 40
60.0
 40
61.0
 40
61.0
 40
61.0
 40
62.0
 40
62.0
 40
62.0
 40
63.0
 40
63.0
 40
63.0
 40
64.0
 40
64.0
 40
64.0
 40
65.0
 40
65.0
 40
65.0
 40
66.0
 40
66.0
 40
66.0
 40
67.0
 40
67.0
 40
67.0
 40
68.0
 40
68.0
 40
68.0
 40
69.0
 40
69.0
 40
69.0
 40
70.0
 40
70.0
 40
70.0
 40
71.0
 40
71.0
 40
71.0
 40
72.0
 40
72.0
 40
72.0
 40
73.0
 40
73.0
 40
73.0
 40
74.0
 40
74.0
 40
74.0
 40
75.0
 40
75.0
 40
75.0
 40
76.0
 40
76.0
 40
76.0
 40
77.0
 40
77.0
 40
77.0
 40
78.0
 40
78.0
 40
78.0
 40
79.0
 40
79.0
 40
79.0
 40
80.0
 40
80.0
 40
80.0
 40
81.0
 40
81.0
 40
81.0
 40
82.0
 40
82.0
 40
82.0
 40
83.0
 40
83.0
 40
83.0
 40
84.0
 40
84.0
 40
84.0
 40
85.0
 40
85.0
 40
85.0
 40
86.0
 40
86.0
 40
86.0
 40
87.0
 40
87.0
 40
87.0
 40
88.0
 40
88.0
 40
88.0
 40
89.0
 40
89.0
 40
89.0
 40
90.0
 40
90.0
 40
90.0
 40
91.0
 40
91.0
 40
91.0
 40
92.0
 40
92.0
 40
92.0
 40
93.0
 40
93.0
 40
93.0
 40
94.0
 40
94.0
 40
94.0
 40
95.0
 40
95.0
 40
95.0
 40
96.0
 40
96.0
 40
96.0
 40
97.0
 40
97.0
 40
97.0
 40
98.0
 40
98.0
 40
98.0
 40
99.0
 40
99.0
 40
99.0
 40
100.0
 40
100.0
 40
100.0
 40
101.0
 40
101.0
 40
101.0
 40
102.0
 40
102.0
 40
102.0
 40
103.0
 40
103.0
 40
103.0
 40
104.0
 40
104.0
 40
104.0
 40
105.0
 40
105.0
 40
105.0
 40
106.0
 40
106.0
 40
106.0
 40
107.0
 40
107.0
 40
107.0
 40
108.0
 40
108.0
 40
108.0
 40
109.0
 40
109.0
 40
109.0
 40
110.0
 40
110.0
 40
110.0
 40
111.0
 40
111.0
 40
111.0
 40
112.0
 40
112.0
 40
112.0
 40
113.0
 40
113.0
 40
113.0
 40
114.0
 40
114.0
 40
114.0
 40
115.0
 40
115.0
 40
115.0
 40
116.0
 40
116.0
 40
116.0
 40
117.0
 40
117.0
 40
117.0
 40
118.0
 40
118.0
 40
118.0
 40
119.0
 40
119.0
 40
119.0
 40
120.0
 40
120.0
 40
120.0
 40
121.0
 40
121.0
 40
121.0
 40
122.0
 40
122.0
 40
122.0
 40
123.0
 40
123.0
 40
123.0
 40
124.0
 40
124.0
 40
124.0
 40
125.0
 40
125.0
 40
125.0
 40
126.0
 40
126.0
 40
126.0
 40
127.0
 40
127.0
 40
127.0
 40
128.0
 40
128.0
 40
128.0
 40
129.0
 40
129.0
 40
129.0
 40
130.0
 40
130.0
 40
130.0
 40
131.0
 40
131.0
 40
131.0
 40
132.0
 40
132.0
 40
132.0
 40
133.0
 40
133.0
 40
133.0
 40
134.0
 40
134.0
 40
134.0
 40
135.0
 40
135.0
 40
135.0
 40
136.0
 40
136.0
 40
136.0
 40
137.0
 40
137.0
 40
137.0
 40
138.0
 40
138.0
 40
138.0
 40
139.0
 40
139.0
 40
139.0
 40
140.0
 40
140.0
 40
140.0
 40
141.0
 40
141.0
 40
141.0
 40
142.0
 40
142.0
 40
142.0
 40
143.0
 40
143.0
 40
143.0
 40
144.0
 40
144.0
 40
144.0
 40
145.0
 40
145.0
 40
145.0
 40
146.0
 40
146.0
 40
146.0
 40
147.0
 40
147.0
 40
147.0
 40
148.0
 40
148.0
 40
148.0
 40
149.0
 40
149.0
 40
149.0
 40
150.0
 40
150.0
 40
150.0
 40
151.0
 40
151.0
 40
151.0
 40
152.0
 40
152.0
 40
152.0
 40
153.0
 40
153.0
 40
153.0
 40
154.0
 40
154.0
 40
154.0
 40
155.0
 40
155.0
 40
155.0
 40
156.0
 40
156.0
 40
156.0
 40
157.0
 40
157.0
 40
157.0
 40
158.0
 40
158.0
 40
158.0
 40
159.0
 40
159.0
 40
159.0
 40
160.0
 40
160.0
 40
160.0
 40
161.0
 40
161.0
 40
161.0
 40
162.0
 40
162.0
 40
162.0
 40
163.0
 40
163.0
 40
163.0
 40
164.0
 40
164.0
 40
164.0
 40
165.0
 40
165.0
 40
165.0
 40
166.0
 40
166.0
 40
166.0
 40
167.0
 40
167.0
 40
167.0
 40
168.0
 40
168.0
 40
168.0
 40
169.0
 40
169.0
 40
169.0
 40
170.0
 40
170.0
 40
170.0
 40
171.0
 40
171.0
 40
171.0
 40
172.0
 40
172.0
 40
172.0
 40
173.0
 40
173.0
 40
173.0
 40
174.0
 40
174.0
 40
174.0
 40
175.0
 40
175.0
 40
175.0
 40
176.0
 40
176.0
 40
176.0
 40
177.0
 40
177.0
 40
177.0
 40
178.0
 40
178.0
 40
178.0
 40
179.0
 40
179.0
 40
179.0
 40
180.0
 40
180.0
 40
180.0
 40
181.0
 40
181.0
 40
181.0
 40
182.0
 40
182.0
 40
182.0
 40
183.0
 40
183.0
 40
183.0
 40
184.0
 40
184.0
 40
184.0
 40
185.0
 40
185.0
 40
185.0
 40
186.0
 40
186.0
 40
186.0
 40
187.0
 40
187.0
 40
187.0
 40
188.0
 40
188.0
 40
188.0
 40
189.0
 40
189.0
 40
189.0
 40
190.0
 40
190.0
 40
190.0
 40
191.0
 40
191.0
 40
191.0
 40
192.0
 40
192.0
 40
192.0
 40
193.0
 40
193.0
 40
193.0
 40
194.0
 40
194.0
 40
194.0
 40
195.0
 40
195.0
 40
195.0
 40
196.0
 40
196.0
 40
196.0
 40
197.0
 40
197.0
 40
197.0
 40
198.0
 40
198.0
 40
198.0
 40
199.0
 40
199.0
 40
199.0
 40
200.0
 40
200.0
 40
200.0
 40
201.0
 40
201.0
 40
201.0
 40
202.0
 40
202.0
 40
202.0
 40
203.0
 40
203.0
 40
203.0
 40
204.0
 40
204.0
 40
204.0
 40
205.0
 40
205.0
 40
205.0
 40
206.0
 40
206.0
 40
206.0
 40
207.0
 40
207.0
 40
207.0
 40
208.0
 40
208.0
 40
208.0
 40
209.0
 40
209.0
 40
209.0
 40
210.0
 40
210.0
 40
210.0
 40
211.0
 40
211.0
 40
211.0
 40
212.0
 40
212.0
 40
212.0
 40
213.0
 40
213.0
 40
213.0
 40
214.0
 40
214.0
 40
214.0
 40
215.0
 40
215.0
 40
215.0
 40
216.0
 40
216.0
 40
216.0
 40
217.0
 40
217.0
 40
217.0
 40
218.0
 40
218.0
 40
218.0
 40
219.0
 40
219.0
 40
219.0
 40
220.0
 40
220.0
 40
220.0
 40
221.0
 40
221.0
 40
221.0
 40
222.0
 40
222.0
 40
222.0
 40
223.0
 40
223.0
 40
223.0
 40
224.0
 40
224.0
 40
224.0
 40
225.0
 40
225.0
 40
225.0
 40
226.0
 40
226.0
 40
226.0
 40
227.0
 40
227.0
 40
227.0
 40
228.0
 40
228.0
 40
228.0
 40
229.0
 40
229.0
 40
229.0
 40
230.0
 40
230.0
 40
230.0
 40
231.0
 40
231.0
 40
231.0
 40
232.0
 40
232.0
 40
232.0
 40
233.0
 40
233.0
 40
233.0
 40
234.0
 40
234.0
 40
234.0
 40
235.0
 40
235.0
 40
235.0
 40
236.0
 40
236.0
 40
236.0
 40
237.0
 40
237.0
 40
237.0
 40
238.0
 40
238.0
 40
238.0
 40
239.0
 40
239.0
 40
239.0
 40
240.0
 40
240.0
 40
240.0
 40
241.0
 40
241.0
 40
241.0
 40
242.0
 40
242.0
 40
242.0
 40
243.0
 40
243.0
 40
243.0
 40
244.0
 40
244.0
 40
244.0
 40
245.0
 40
245.0
 40
245.0
 40
246.0
 40
246.0
 40
246.0
 40
247.0
 40
247.0
 40
247.0
 40
248.0
 40
248.0
 40
248.0
 40
249.0
 40
249.0
 40
249.0
 40
250.0
 40
250.0
 40
250.0
 40
251.0
 40
251.0
 40
251.0
 40
252.0
 40
252.0
 40
252.0
 40
253.0
 40
253.0
 40
253.0
 40
254.0
 40
254.0
 40
254.0
 40
255.0
 40
255.0
 40
255.0
 40
256.0
 40
256.0
 40
256.0
 40
257.0
 40
257.0
 40
257.0
 40
258.0
 40
258.0
 40
258.0
 40
259.0
 40
259.0
 40
259.0
 40
260.0
 40
260.0
 40
260.0
 40
261.0
 40
261.0
 40
261.0
 40
262.0
 40
262.0
 40
262.0
 40
263.0
 40
263.0
 40
263.0
 40
264.0
 40
264.0
 40
264.0
 40
265.0
 40
265.0
 40
265.0
 40
266.0
 40
266.0
 40
266.0
 40
267.0
 40
267.0
 40
267.0
 40
268.0
 40
268.0
 40
268.0
 40
269.0
 40
269.0
 40
269.0
 40
270.0
 40
270.0
 40
270.0
 40
271.0
 40
271.0
 40
271.0
 40
272.0
 40
272.0
 40
272.0
 40
273.0
 40
273.0
 40
273.0
 40
274.0
 40
274.0
 40
274.0
 40
275.0
 40
275.0
 40
275.0
 40
276.0
 40
276.0
 40
276.0
 40
277.0
 40
277.0
 40
277.0
 40
278.0
 40
278.0
 40
278.0
 40
279.0
 40
279.0
 40
279.0
 40
280.0
 40
280.0
 40
280.0
 40
281.0
 40
281.0
 40
281.0
 40
282.0
 40
282.0
 40
282.0
 40
283.0
 40
283.0
 40
283.0
 40
284.0
 40
284.0
 40
284.0
 40
285.0
 40
285.0
 40
285.0
 40
286.0
 40
286.0
 40
286.0
 40
287.0
 40
287.0
 40
287.0
 40
288.0
 40
288.0
 40
288.0
 40
289.0
 40
289.0
 40
289.0
 40
290.0
 40
290.0
 40
290.0
 40
291.0
 40
291.0
 40
291.0
 40
292.0
 40
292.0
 40
292.0
 40
293.0
 40
293.0
 40
293.0
 40
294.0
 40
294.0
 40
294.0
 40
295.0
 40
295.0
 40
295.0
 40
296.0
 40
296.0
 40
296.0
 40
297.0
 40
297.0
 40
297.0
 40
298.0
 40
298.0
 40
298.0
 40
299.0
 40
299.0
 40
299.0
 40
300.0
 40
300.0
 40
300.0
 40
301.0
 40
301.0
 40
301.0
 40
302.0
 40
302.0
 40
302.0
 40
303.0
 40
303.0
 40
303.0
 40
304.0
 40
304.0
 40
304.0
 40
305.0
 40
305.0
 40
305.0
 40
306.0
 40
306.0
 40
306.0
 40
307.0
 40
307.0
 40
307.0
 40
308.0
 40
308.0
 40
308.0
 40
309.0
 40
309.0
 40
309.0
 40
310.0
 40
310.0
 40
310.0
 40
311.0
 40
311.0
 40
311.0
 40
312.0
 40
312.0
 40
312.0
 40
313.0
 40
313.0
 40
313.0
 40
314.0
 40
314.0
 40
314.0
 40
315.0
 40
315.0
 40
315.0
 40
316.0
 40
316.0
 40
316.0
 40
317.0
 40
317.0
 40
317.0
 40
318.0
 40
318.0
 40
318.0
 40
319.0
 40
319.0
 40
319.0
 40
320.0
 40
320.0
 40
320.0
 40
321.0
 40
321.0
 40
321.0
 40
322.0
 40
322.0
 40
322.0
 40
323.0
 40
323.0
 40
323.0
 40
324.0
 40
324.0
 40
324.0
 40
325.0
 40
325.0
 40
325.0
 40
326.0
 40
326.0
 40
326.0
 40
327.0
 40
327.0
 40
327.0
 40
328.0
 40
328.0
 40
328.0
 40
329.0
 40
329.0
 40
329.0
 40
330.0
 40
330.0
 40
330.0
 40
331.0
 40
331.0
 40
331.0
 40
332.0
 40
332.0
 40
332.0
 40
333.0
 40
333.0
 40
333.0
 40
334.0
 40
334.0
 40
334.0
 40
335.0
 40
335.0
 40
335.0
 40
336.0
 40
336.0
 40
336.0
 40
337.0
 40
337.0
 40
337.0
 40
338.0
 40
338.0
 40
338.0
 40
339.0
 40
339.0
 40
339.0
 40
340.0
 40
340.0
 40
340.0
 40
341.0
 40
341.0
 40
341.0
 40
342.0
 40
342.0
 40
342.0
 40
343.0
 40
343.0
 40
343.0
 40
344.0
 40
344.0
 40
344.0
 40
345.0
 40
345.0
 40
345.0
 40
346.0
 40
346.0
 40
346.0
 40
347.0
 40
347.0
 40
347.0
 40
348.0
 40
348.0
 40
348.0
 40
349.0
 40
349.0
 40
349.0
 40
350.0
 40
350.0
 40
350.0
 40
351.0
 40
351.0
 40
351.0
 40
352.0
 40
352.0
 40
352.0
 40
353.0
 40
353.0
 40
353.0
 40
354.0
 40
354.0
 40
354.0
 40
355.0
 40
355.0
 40
355.0
 40
356.0
 40
356.0
 40
356.0
 40
357.0
 40
357.0
 40
357.0
 40
358.0
 40
358.0
 40
358.0
 40
359.0
 40
359.0
 40
359.0
 40
360.0
 40
360.0
 40
360.0
 40
361.0
 40
361.0
 40
361.0
 40
362.0
 40
362.0
 40
362.0
 40
363.0
 40
363.0
 40
363.0
 40
364.0
 40
364.0
 40
364.0
 40
365.0
 40
365.0
 40
365.0
 40
366.0
 40
366.0
 40
366.0
 40
367.0
 40
367.0
 40
367.0
 40
368.0
 40
368.0
 40
368.0
 40
369.0
 40
369.0
 40
369.0
 40
370.0
 40
370.0
 40
370.0
 40
371.0
 40
371.0
 40
371.0
 40
372.0
 40
372.0
 40
372.0
 40
373.0
 40
373.0
 40
373.0
 40
374.0
 40
374.0
 40
374.0
 40
375.0
 40
375.0
 40
375.0
 40
376.0
 40
376.0
 40
376.0
 40
377.0
 40
377.0
 40
377.0
 40
378.0
 40
378.0
 40
378.0
 40
379.0
 40
379.0
 40
379.0
 40
380.0
 40
380.0
 40
380.0
 40
381.0
 40
381.0
 40
381.0
 40
382.0
 40
382.0
 40
382.0
 40
383.0
 40
383.0
 40
383.0
 40
384.0
 40
384.0
 40
384.0
 40
385.0
 40
385.0
 40
385.0
 40
386.0
 40
386.0
 40
386.0
 40
387.0
 40
387.0
 40
387.0
 40
388.0
 40
388.0
 40
388.0
 40
389.0
 40
389.0
 40
389.0
 40
390.0
 40
390.0
 40
390.0
 40
391.0
 40
391.0
 40
391.0
 40
392.0
 40
392.0
 40
392.0
 40
393.0
 40
393.0
 40
393.0
 40
394.0
 40
394.0
 40
394.0
 40
395.0
 40
395.0
 40
395.0
 40
396.0
 40
396.0
 40
396.0
 40
397.0
 40
397.0
 40
397.0
 40
398.0
 40
398.0
 40
398.0
 40
399.0
 40
399.0
 40
399.0
 40
400.0
 40
400.0
 40
400.0
 40
401.0
 40
401.0
 40
401.0
 40
402.0
 40
402.0
 40
402.0
 40
403.0
 40
403.0
 40
403.0
 40
404.0
 40
404.0
 40
404.0
 40
405.0
 40
405.0
 40
405.0
 40
406.0
 40
406.0
 40
406.0
 40
407.0
 40
407.0
 40
407.0
 40
408.0
 40
408.0
 40
408.0
 40
409.0
 40
409.0
 40
409.0
 40
410.0
 40
410.0
 40
410.0
 40
411.0
 40
411.0
 40
411.0
 40
412.0
 40
412.0
 40
412.0
 40
413.0
 40
413.0
 40
413.0
 40
414.0
 40
414.0
 40
414.0
 40
415.0
 40
415.0
 40
415.0
 40
416.0
 40
416.0
 40
416.0
 40
417.0
 40
417.0
 40
417.0
 40
418.0
 40
418.0
 40
418.0
 40
419.0
 40
419.0
 40
419.0
 40
420.0
 40
420.0
 40
420.0
 40
421.0
 40
421.0
 40
421.0
 40
422.0
 40
422.0
 40
422.0
 40
423.0
 40
423.0
 40
423.0
 40
424.0
 40
424.0
 40
424.0
 40
425.0
 40
425.0
 40
425.0
 40
426.0
 40
426.0
 40
426.0
 40
427.0
 40
427.0
 40
427.0
 40
428.0
 40
428.0
 40
428.0
 40
429.0
 40
429.0
 40
429.0
 40
430.0
 40
430.0
 40
430.0
 40
431.0
 40
431.0
 40
431.0
 40
432.0
 40
432.0
 40
432.0
 40
433.0
 40
433.0
 40
433.0
 40
434.0
 40
434.0
 40
434.0
 40
434.0
 10
139.7174304932723
 20
-303.2762146510977
 30
0.0
 10
139.7174304932723
 20
-303.2762146510977
 30
0.0
 10
139.670530493273
 20
-303.3172146500619
 30
0.0
 10
139.6598304932741
 20
-303.3484146492738
 30
0.0
 10
139.6491304932715
 20
-303.3807146484578
 30
0.0
 10
139.6798304932727
 20
-303.4383146470027
 30
0.0
 10
139.6950304932725
 20
-303.4754146460655
 30
0.0
 10
139.7130304932725
 20
-303.5115119831316
 30
0.0
 10
139.733030493273
 20
-303.8416146368145
 30
0.0
 10
139.7282304932723
 20
-303.9041146352356
 30
0.0
 10
139.7223304932741
 20
-303.9666146336567
 30
0.0
 10
139.7057304932714
 20
-304.0086146325957
 30
0.0
 10
139.6950304932725
 20
-304.0828146307213
 30
0.0
 10
139.6857304932728
 20
-304.1551146288948
 30
0.0
 10
139.7130304932725
 20
-304.7986146126386
 30
0.0
 10
139.7282304932723
 20
-305.2645119831323
 30
0.0
 10
139.7433304932729
 20
-305.7293145891272
 30
0.0
 10
139.7682304932714
 20
-306.1902145774839
 30
0.0
 10
139.7633304932715
 20
-306.2215119831326
 30
0.0
 10
139.7599304932737
 20
-306.252714575905
 30
0.0
 10
139.7599304932737
 20
-306.2840145751143
 30
0.0
 10
139.749630493272
 20
-306.3064145745484
 30
0.0
 10
139.7389304932731
 20
-306.3260145740533
 30
0.0
 10
139.7633304932715
 20
-306.3895119831323
 30
0.0
 10
139.7741304932715
 20
-306.4217145716357
 30
0.0
 10
139.7858304932724
 20
-306.4520145708702
 30
0.0
 10
139.7965304932732
 20
-306.5008145696374
 30
0.0
 10
139.7965304932732
 20
-306.531114568872
 30
0.0
 10
139.7965304932732
 20
-306.5633145680586
 30
0.0
 10
139.7799304932723
 20
-306.6033145670481
 30
0.0
 10
139.7858304932724
 20
-306.6668145654439
 30
0.0
 10
139.789730493274
 20
-306.7303145638398
 30
0.0
 10
139.8165304932736
 20
-307.7283145386282
 30
0.0
 10
139.8307304932714
 20
-308.1687145275027
 30
0.0
 10
139.8473304932741
 20
-308.6072145164253
 30
0.0
 10
139.8942304932716
 20
-309.1727119831321
 30
0.0
 10
139.8942304932716
 20
-309.1980119831314
 30
0.0
 10
139.8942304932716
 20
-309.2244119831321
 30
0.0
 10
139.9215304932732
 20
-309.2361119831312
 30
0.0
 10
139.9215304932732
 20
-309.2361119831312
 30
0.0
 10
139.9215304932732
 20
-309.2361119831312
 30
0.0
 10
139.9484304932739
 20
-309.330911983132
 30
0.0
 10
139.9484304932739
 20
-309.330911983132
 30
0.0
 10
139.954730493273
 20
-309.3504119831323
 30
0.0
 10
139.9249304932728
 20
-309.440211983132
 30
0.0
 10
139.9215304932732
 20
-309.502711983132
 30
0.0
 10
139.9157304932723
 20
-309.565211983132
 30
0.0
 10
139.9323304932732
 20
-310.1414119831315
 30
0.0
 10
139.954730493273
 20
-310.6180119831315
 30
0.0
 10
139.9747304932716
 20
-311.0936119831313
 30
0.0
 10
140.0158304932738
 20
-311.9305119831315
 30
0.0
 10
140.0158304932738
 20
-311.961711983131
 30
0.0
 10
140.0158304932738
 20
-311.9930119831315
 30
0.0
 10
140.0407304932723
 20
-311.9930119831315
 30
0.0
 10
140.061730493273
 20
-311.9930119831315
 30
0.0
 10
140.0841304932728
 20
-311.9930119831315
 30
0.0
 10
140.0831304932726
 20
-312.0340119831326
 30
0.0
 10
140.0831304932726
 20
-312.0672119831324
 30
0.0
 10
140.0831304932726
 20
-312.0984119831319
 30
0.0
 10
140.0783304932738
 20
-312.1707119831317
 30
0.0
 10
140.0690304932723
 20
-312.2137119831314
 30
0.0
 10
140.0582304932723
 20
-312.2557119831326
 30
0.0
 10
140.0993304932726
 20
-312.745911983131
 30
0.0
 10
140.1090304932732
 20
-313.0711119831321
 30
0.0
 10
140.1193304932731
 20
-313.394311983131
 30
0.0
 10
140.1725304932734
 20
-314.4930119831315
 30
0.0
 10
140.1725304932734
 20
-314.5203119831313
 30
0.0
 10
140.1725304932734
 20
-314.5477119831321
 30
0.0
 10
140.2716304932728
 20
-314.5564119831324
 30
0.0
 10
140.2716304932728
 20
-314.5564119831324
 30
0.0
 10
140.2716304932728
 20
-314.5564119831324
 30
0.0
 10
140.3024304932733
 20
-314.8445119831322
 30
0.0
 10
140.3234304932739
 20
-315.2312119831313
 30
0.0
 10
140.3449304932728
 20
-315.6199119831326
 30
0.0
 10
140.381030493274
 20
-316.2205119831324
 30
0.0
 10
140.381030493274
 20
-316.2410119831311
 30
0.0
 10
140.381030493274
 20
-316.2625119831318
 30
0.0
 10
140.4391304932724
 20
-316.3416119831327
 30
0.0
 10
140.4391304932724
 20
-316.3416119831327
 30
0.0
 10
140.4391304932724
 20
-316.3416119831327
 30
0.0
 10
140.4391304932724
 20
-316.5496119831314
 30
0.0
 10
140.4391304932724
 20
-316.5496119831314
 30
0.0
 10
140.4391304932724
 20
-316.644311983131
 30
0.0
 10
140.381030493274
 20
-317.0477119831321
 30
0.0
 10
140.3610304932736
 20
-317.1355119831314
 30
0.0
 10
140.3400304932729
 20
-317.2254119831323
 30
0.0
 10
140.3493304932726
 20
-317.2361119831312
 30
0.0
 10
140.3493304932726
 20
-317.2664119831315
 30
0.0
 10
140.3493304932726
 20
-317.2986119831312
 30
0.0
 10
140.4235304932736
 20
-317.495911983131
 30
0.0
 10
140.4391304932724
 20
-317.5643119831311
 30
0.0
 10
140.4552304932731
 20
-317.6326119831319
 30
0.0
 10
140.4484304932739
 20
-317.5965119831326
 30
0.0
 10
140.4552304932731
 20
-317.6844119831312
 30
0.0
 10
140.4591304932728
 20
-317.774211983131
 30
0.0
 10
140.6203304932715
 20
-317.8523119831316
 30
0.0
 10
140.6203304932715
 20
-317.8523119831316
 30
0.0
 10
140.6203304932715
 20
-317.8523119831316
 30
0.0
 10
140.6159304932735
 20
-317.9158119831318
 30
0.0
 10
140.6325304932725
 20
-318.0057119831326
 30
0.0
 10
140.6486304932732
 20
-318.0945119831322
 30
0.0
 10
140.8043304932726
 20
-318.3191119831317
 30
0.0
 10
140.8268304932717
 20
-318.3553119831322
 30
0.0
 10
140.8468304932721
 20
-318.3924119831318
 30
0.0
 10
140.863430493273
 20
-318.4285119831311
 30
0.0
 10
140.8678304932728
 20
-318.4490119831316
 30
0.0
 10
140.8717304932725
 20
-318.4695119831322
 30
0.0
 10
140.9528304932719
 20
-318.3025119831327
 30
0.0
 10
140.9679304932724
 20
-318.2879119831323
 30
0.0
 10
140.9845304932714
 20
-318.2723119831317
 30
0.0
 10
140.9977304932727
 20
-318.2977119831321
 30
0.0
 10
140.9977304932727
 20
-318.2977119831321
 30
0.0
 10
140.9977304932727
 20
-318.2977119831321
 30
0.0
 10
141.131030493274
 20
-318.433411983131
 30
0.0
 10
141.131030493274
 20
-318.433411983131
 30
0.0
 10
141.131030493274
 20
-318.433411983131
 30
0.0
 10
141.1452304932718
 20
-318.4285119831311
 30
0.0
 10
141.1661304932732
 20
-318.2977119831321
 30
0.0
 10
141.1862304932729
 20
-318.166811983132
 30
0.0
 10
141.2653304932719
 20
-318.0145119831323
 30
0.0
 10
141.2711304932727
 20
-317.9939119831324
 30
0.0
 10
141.2770304932728
 20
-317.972511983131
 30
0.0
 10
141.2755304932725
 20
-317.9158119831318
 30
0.0
 10
141.2877304932736
 20
-317.8738119831323
 30
0.0
 10
141.2960304932731
 20
-317.830911983132
 30
0.0
 10
141.3346304932729
 20
-317.8211119831321
 30
0.0
 10
141.3546304932715
 20
-317.8006119831316
 30
0.0
 10
141.3737304932729
 20
-317.7811119831313
 30
0.0
 10
141.3912304932728
 20
-317.7654119831313
 30
0.0
 10
141.4122304932716
 20
-317.7156119831325
 30
0.0
 10
141.4337304932724
 20
-317.6697119831315
 30
0.0
 10
141.4279304932716
 20
-317.6746119831314
 30
0.0
 10
141.4337304932724
 20
-317.6121119831314
 30
0.0
 10
141.437130493272
 20
-317.5506119831316
 30
0.0
 10
141.4845304932714
 20
-317.3299119831318
 30
0.0
 10
141.5011304932723
 20
-317.2830119831324
 30
0.0
 10
141.517230493273
 20
-317.2361119831312
 30
0.0
 10
141.510430493272
 20
-317.1092119831319
 30
0.0
 10
141.4845304932714
 20
-317.0223119831317
 30
0.0
 10
141.4596304932729
 20
-316.9314119831324
 30
0.0
 10
141.3546304932715
 20
-316.4764119831325
 30
0.0
 10
141.3488304932725
 20
-316.4041119831327
 30
0.0
 10
141.3439304932726
 20
-316.331811983131
 30
0.0
 10
141.3654304932716
 20
-316.3201119831319
 30
0.0
 10
141.385430493272
 20
-316.2732119831326
 30
0.0
 10
141.4054304932724
 20
-316.2254119831323
 30
0.0
 10
141.4122304932716
 20
-316.2205119831324
 30
0.0
 10
141.4220304932714
 20
-316.1629119831323
 30
0.0
 10
141.4337304932724
 20
-316.1053119831322
 30
0.0
 10
141.4054304932724
 20
-315.4832119831317
 30
0.0
 10
141.4122304932716
 20
-315.2371119831314
 30
0.0
 10
141.4171304932715
 20
-314.9900119831327
 30
0.0
 10
141.4171304932715
 20
-314.6131119831316
 30
0.0
 10
141.4220304932714
 20
-314.5613119831323
 30
0.0
 10
141.4279304932716
 20
-314.5096119831323
 30
0.0
 10
141.4220304932714
 20
-314.5145119831323
 30
0.0
 10
141.4528304932719
 20
-314.4930119831315
 30
0.0
 10
141.4845304932714
 20
-314.4715119831326
 30
0.0
 10
141.4962304932724
 20
-314.5145119831323
 30
0.0
 10
141.517230493273
 20
-314.5203119831313
 30
0.0
 10
141.5372304932716
 20
-314.5262119831314
 30
0.0
 10
141.4796304932715
 20
-314.0389119831325
 30
0.0
 10
141.4645304932728
 20
-313.5994119831321
 30
0.0
 10
141.4489304932722
 20
-313.1590119831326
 30
0.0
 10
141.4386304932723
 20
-312.2762119831314
 30
0.0
 10
141.4337304932724
 20
-312.2186119831313
 30
0.0
 10
141.4279304932716
 20
-312.1590119831326
 30
0.0
 10
141.4279304932716
 20
-312.1502119831312
 30
0.0
 10
141.4122304932716
 20
-312.1131119831316
 30
0.0
 10
141.3961304932727
 20
-312.0770119831323
 30
0.0
 10
141.4122304932716
 20
-312.0086119831321
 30
0.0
 10
141.4171304932715
 20
-311.9715119831326
 30
0.0
 10
141.4220304932714
 20
-311.9354119831314
 30
0.0
 10
141.4689304932726
 20
-311.9236119831312
 30
0.0
 10
141.4904304932716
 20
-311.9139119831325
 30
0.0
 10
141.510430493272
 20
-311.9031119831325
 30
0.0
 10
141.4845304932714
 20
-311.8045119831313
 30
0.0
 10
141.4796304932715
 20
-311.7586119831321
 30
0.0
 10
141.4738304932725
 20
-311.711711983131
 30
0.0
 10
141.4596304932729
 20
-311.0623119831325
 30
0.0
 10
141.4445304932724
 20
-310.6062119831313
 30
0.0
 10
141.4279304932716
 20
-310.1512119831314
 30
0.0
 10
141.4386304932723
 20
-309.9041119831327
 30
0.0
 10
141.4337304932724
 20
-309.7996119831314
 30
0.0
 10
141.4279304932716
 20
-309.6961119831321
 30
0.0
 10
141.4122304932716
 20
-309.461711983131
 30
0.0
 10
141.4020304932728
 20
-309.4080119831324
 30
0.0
 10
141.3912304932728
 20
-309.3562119831313
 30
0.0
 10
141.3961304932727
 20
-309.3562119831313
 30
0.0
 10
141.3912304932728
 20
-309.3143119831311
 30
0.0
 10
141.385430493272
 20
-309.2713119831315
 30
0.0
 10
141.3912304932728
 20
-309.2664119831315
 30
0.0
 10
141.3912304932728
 20
-309.2361119831312
 30
0.0
 10
141.3912304932728
 20
-309.2029119831313
 30
0.0
 10
141.4528304932719
 20
-309.1727119831321
 30
0.0
 10
141.4528304932719
 20
-309.1727119831321
 30
0.0
 10
141.4528304932719
 20
-309.1727119831321
 30
0.0
 10
141.4645304932728
 20
-308.9891119831318
 30
0.0
 10
141.4445304932724
 20
-308.6229145160287
 30
0.0
 10
141.4220304932714
 20
-308.2557145253049
 30
0.0
 10
141.4445304932724
 20
-307.833814535963
 30
0.0
 10
141.4445304932724
 20
-307.4568145454868
 30
0.0
 10
141.4445304932724
 20
-307.0809145549829
 30
0.0
 10
141.4220304932714
 20
-306.6668145654439
 30
0.0
 10
141.4220304932714
 20
-306.6141145667752
 30
0.0
 10
141.4220304932714
 20
-306.5633145680586
 30
0.0
 10
141.4122304932716
 20
-306.5574145682076
 30
0.0
 10
141.3961304932727
 20
-306.531114568872
 30
0.0
 10
141.3805304932721
 20
-306.5037145695642
 30
0.0
 10
141.385430493272
 20
-306.4314145713906
 30
0.0
 10
141.3961304932727
 20
-306.3895119831323
 30
0.0
 10
141.4064304932726
 20
-306.3484145734874
 30
0.0
 10
141.4054304932724
 20
-306.3533145733636
 30
0.0
 10
141.4489304932722
 20
-306.323014574129
 30
0.0
 10
141.4889304932731
 20
-306.2898145749677
 30
0.0
 10
141.4796304932715
 20
-306.3104145744473
 30
0.0
 10
141.4689304932726
 20
-306.2840145751143
 30
0.0
 10
141.4596304932729
 20
-306.2586145757559
 30
0.0
 10
141.4489304932722
 20
-305.9227145842415
 30
0.0
 10
141.4528304932719
 20
-305.6941145900164
 30
0.0
 10
141.4596304932729
 20
-305.4637145958368
 30
0.0
 10
141.4645304932728
 20
-304.9715119831326
 30
0.0
 10
141.4689304932726
 20
-304.6209146171277
 30
0.0
 10
141.4747304932716
 20
-304.2693146260099
 30
0.0
 10
141.4528304932719
 20
-304.0193146323254
 30
0.0
 10
141.4386304932723
 20
-303.9354146344449
 30
0.0
 10
141.4220304932714
 20
-303.8523146365442
 30
0.0
 10
141.4171304932715
 20
-303.6375119831318
 30
0.0
 10
141.4054304932724
 20
-303.5330146446104
 30
0.0
 10
141.3961304932727
 20
-303.4275119831327
 30
0.0
 10
141.4054304932724
 20
-303.481214645919
 30
0.0
 10
141.4445304932724
 20
-303.4275119831327
 30
0.0
 10
141.4796304932715
 20
-303.3758146485816
 30
0.0
 10
141.4747304932716
 20
-303.3289146497664
 30
0.0
 10
141.4528304932719
 20
-303.2762146510977
 30
0.0
 10
141.4337304932724
 20
-303.222511983131
 30
0.0
 10
141.4122304932716
 20
-302.8465119831326
 30
0.0
 10
141.4122304932716
 20
-302.6805119831315
 30
0.0
 10
141.4122304932716
 20
-302.513511983132
 30
0.0
 10
141.4171304932715
 20
-301.9734146840092
 30
0.0
 10
141.4171304932715
 20
-301.848414687167
 30
0.0
 10
141.4171304932715
 20
-301.7215119831326
 30
0.0
 10
141.4528304932719
 20
-301.638511983132
 30
0.0
 10
141.4528304932719
 20
-301.5916146936543
 30
0.0
 10
141.4528304932719
 20
-301.5447146948391
 30
0.0
 10
141.4171304932715
 20
-301.4393146975017
 30
0.0
 10
141.4020304932728
 20
-301.4090146982671
 30
0.0
 10
141.385430493272
 20
-301.3768146990806
 30
0.0
 10
141.4171304932715
 20
-300.8484147124291
 30
0.0
 10
141.4171304932715
 20
-300.8113147133663
 30
0.0
 10
141.4171304932715
 20
-300.776214714253
 30
0.0
 10
141.4220304932714
 20
-300.7547147147961
 30
0.0
 10
141.4337304932724
 20
-300.7117147158824
 30
0.0
 10
141.4430304932721
 20
-300.6697147169434
 30
0.0
 10
141.4445304932724
 20
-300.656114717287
 30
0.0
 10
141.4489304932722
 20
-300.6229147181257
 30
0.0
 10
141.4528304932719
 20
-300.5916147189164
 30
0.0
 10
141.4171304932715
 20
-300.566214719558
 30
0.0
 10
141.4171304932715
 20
-300.566214719558
 30
0.0
 10
141.4171304932715
 20
-300.566214719558
 30
0.0
 10
141.4337304932724
 20
-300.1531147299938
 30
0.0
 10
141.4337304932724
 20
-300.1277147306355
 30
0.0
 10
141.4337304932724
 20
-300.1014147312999
 30
0.0
 10
141.4386304932723
 20
-300.0945119831322
 30
0.0
 10
141.4489304932722
 20
-300.0643147322371
 30
0.0
 10
141.4596304932729
 20
-300.0320147330531
 30
0.0
 10
141.4489304932722
 20
-300.0271147331769
 30
0.0
 10
141.4337304932724
 20
-299.995914733965
 30
0.0
 10
141.4171304932715
 20
-299.9646147347557
 30
0.0
 10
141.4386304932723
 20
-299.4939147466466
 30
0.0
 10
141.4386304932723
 20
-299.4324147482002
 30
0.0
 10
141.4386304932723
 20
-299.3689147498044
 30
0.0
 10
141.4596304932729
 20
-299.0857147569586
 30
0.0
 10
141.4596304932729
 20
-299.0857147569586
 30
0.0
 10
141.4596304932729
 20
-299.0857147569586
 30
0.0
 10
141.510430493272
 20
-299.1795119831313
 30
0.0
 10
141.5221304932729
 20
-299.2322147532577
 30
0.0
 10
141.5328304932737
 20
-299.2850147519239
 30
0.0
 10
141.6271304932725
 20
-299.545714745338
 30
0.0
 10
141.6481304932731
 20
-299.587714744277
 30
0.0
 10
141.6681304932717
 20
-299.6307147431908
 30
0.0
 10
141.7887304932738
 20
-300.4305119831315
 30
0.0
 10
141.8722304932726
 20
-300.9529147097892
 30
0.0
 10
141.9557304932714
 20
-301.4773146965417
 30
0.0
 10
142.102230493274
 20
-302.3191146752761
 30
0.0
 10
142.1749304932728
 20
-302.7215119831326
 30
0.0
 10
142.249230493273
 20
-303.1258146548971
 30
0.0
 10
142.3317304932716
 20
-303.3123146501857
 30
0.0
 10
142.488430493273
 20
-303.5437146443401
 30
0.0
 10
142.488430493273
 20
-303.5437146443401
 30
0.0
 10
142.772630493273
 20
-303.9568146339043
 30
0.0
 10
142.772630493273
 20
-303.9568146339043
 30
0.0
 10
142.772630493273
 20
-303.9568146339043
 30
0.0
 10
142.8244304932723
 20
-304.0193146323254
 30
0.0
 10
142.8244304932723
 20
-304.0193146323254
 30
0.0
 10
142.8502304932736
 20
-304.0525119831327
 30
0.0
 10
142.9494304932723
 20
-304.1551146288948
 30
0.0
 10
142.976730493272
 20
-304.1824146282052
 30
0.0
 10
143.0011304932723
 20
-304.2078146275635
 30
0.0
 10
143.039230493272
 20
-304.2654146261084
 30
0.0
 10
143.0543304932726
 20
-304.2859146255905
 30
0.0
 10
143.0709304932716
 20
-304.3074146250474
 30
0.0
 10
143.0802304932731
 20
-304.3328146244057
 30
0.0
 10
143.0958304932719
 20
-304.3592146237388
 30
0.0
 10
143.1119304932727
 20
-304.3865119831316
 30
0.0
 10
143.1852304932727
 20
-304.4744146208286
 30
0.0
 10
143.1852304932727
 20
-304.4744146208286
 30
0.0
 10
143.1852304932727
 20
-304.4744146208286
 30
0.0
 10
143.2218304932721
 20
-304.5213146196438
 30
0.0
 10
143.2326304932722
 20
-304.5477146189769
 30
0.0
 10
143.2428304932728
 20
-304.5730146183378
 30
0.0
 10
143.2526304932726
 20
-304.5857146180169
 30
0.0
 10
143.2745304932723
 20
-304.5994146176708
 30
0.0
 10
143.2960304932731
 20
-304.6160146172515
 30
0.0
 10
143.3209304932716
 20
-304.6570146162157
 30
0.0
 10
143.3209304932716
 20
-304.6570146162157
 30
0.0
 10
143.3209304932716
 20
-304.6570146162157
 30
0.0
 10
143.3893304932717
 20
-304.7928146127852
 30
0.0
 10
143.4254304932729
 20
-304.8348146117241
 30
0.0
 10
143.4620304932723
 20
-304.8787146106151
 30
0.0
 10
143.5319304932727
 20
-305.0086146073336
 30
0.0
 10
143.5319304932727
 20
-305.0086146073336
 30
0.0
 10
143.5319304932727
 20
-305.0086146073336
 30
0.0
 10
143.618830493273
 20
-305.1180146045699
 30
0.0
 10
143.6720304932714
 20
-305.1922146026955
 30
0.0
 10
143.7252304932736
 20
-305.2645119831323
 30
0.0
 10
143.8546304932715
 20
-305.4217145968978
 30
0.0
 10
144.329730493273
 20
-305.5262145942579
 30
0.0
 10
144.8068304932731
 20
-305.630714591618
 30
0.0
 10
145.2360304932736
 20
-305.7254145892257
 30
0.0
 10
145.5494304932727
 20
-305.7566145884375
 30
0.0
 10
145.8629304932729
 20
-305.7879145876468
 30
0.0
 10
146.3029304932716
 20
-305.8504145860679
 30
0.0
 10
146.3771304932725
 20
-305.8602145858204
 30
0.0
 10
146.4489304932722
 20
-305.8709145855501
 30
0.0
 10
147.0040304932736
 20
-305.9227145842415
 30
0.0
 10
147.0558304932729
 20
-305.9227145842415
 30
0.0
 10
147.1090304932732
 20
-305.9227145842415
 30
0.0
 10
147.2291304932733
 20
-305.9656145831577
 30
0.0
 10
147.2868304932726
 20
-305.9715119831326
 30
0.0
 10
147.3434304932725
 20
-305.9764145828849
 30
0.0
 10
147.4801304932735
 20
-306.006614582122
 30
0.0
 10
147.7677304932731
 20
-306.0281145815788
 30
0.0
 10
148.0553304932728
 20
-306.0496145810357
 30
0.0
 10
148.5153304932719
 20
-306.1072145795806
 30
0.0
 10
148.6661304932732
 20
-306.1268145790855
 30
0.0
 10
148.8190304932723
 20
-306.1482145785449
 30
0.0
 10
149.0079304932733
 20
-306.2322145764228
 30
0.0
 10
149.0607304932728
 20
-306.2322145764228
 30
0.0
 10
149.1115304932719
 20
-306.2322145764228
 30
0.0
 10
149.3058304932729
 20
-306.2693145754856
 30
0.0
 10
149.5465304932732
 20
-306.2742145753618
 30
0.0
 10
149.7868304932726
 20
-306.2791145752381
 30
0.0
 10
150.006030493274
 20
-306.3064145745484
 30
0.0
 10
150.006030493274
 20
-306.3064145745484
 30
0.0
 10
150.006030493274
 20
-306.3064145745484
 30
0.0
 10
150.0910304932731
 20
-306.3582145732398
 30
0.0
 10
150.2477304932727
 20
-306.3895119831323
 30
0.0
 10
150.4044304932722
 20
-306.4217145716357
 30
0.0
 10
150.4352304932727
 20
-306.405114572055
 30
0.0
 10
150.5812304932733
 20
-306.4100145719312
 30
0.0
 10
150.727230493274
 20
-306.41481457181
 30
0.0
 10
151.1154304932716
 20
-306.447114570994
 30
0.0
 10
151.1471304932729
 20
-306.447114570994
 30
0.0
 10
151.1788304932725
 20
-306.447114570994
 30
0.0
 10
151.2579304932733
 20
-306.4217145716357
 30
0.0
 10
151.5607304932728
 20
-306.3895119831323
 30
0.0
 10
151.863430493273
 20
-306.3582145732398
 30
0.0
 10
152.4201304932722
 20
-306.3416145736592
 30
0.0
 10
152.4494304932723
 20
-306.3416145736592
 30
0.0
 10
152.4811304932737
 20
-306.3416145736592
 30
0.0
 10
152.5270304932728
 20
-306.3416145736592
 30
0.0
 10
152.6286304932728
 20
-306.323014574129
 30
0.0
 10
152.7277304932722
 20
-306.3006145746949
 30
0.0
 10
153.2511304932723
 20
-306.2166145768169
 30
0.0
 10
153.2755304932725
 20
-306.2117145769407
 30
0.0
 10
153.3014304932731
 20
-306.2059145770872
 30
0.0
 10
153.4689304932726
 20
-306.1902145774839
 30
0.0
 10
153.4962304932724
 20
-306.1863145775824
 30
0.0
 10
153.5206304932726
 20
-306.1805119831315
 30
0.0
 10
153.5480304932717
 20
-306.1639145781483
 30
0.0
 10
153.5480304932717
 20
-306.1639145781483
 30
0.0
 10
153.5480304932717
 20
-306.1639145781483
 30
0.0
 10
153.7355304932717
 20
-306.1482145785449
 30
0.0
 10
153.7355304932717
 20
-306.1482145785449
 30
0.0
 10
153.7355304932717
 20
-306.1482145785449
 30
0.0
 10
153.8356304932731
 20
-306.1268145790855
 30
0.0
 10
153.8356304932731
 20
-306.1268145790855
 30
0.0
 10
153.8615304932719
 20
-306.1219145792093
 30
0.0
 10
153.9933304932729
 20
-306.1336145789137
 30
0.0
 10
154.0490304932719
 20
-306.1268145790855
 30
0.0
 10
154.1076304932722
 20
-306.1219145792093
 30
0.0
 10
154.1139304932731
 20
-306.1268145790855
 30
0.0
 10
154.175930493273
 20
-306.1219145792093
 30
0.0
 10
154.238430493273
 20
-306.118914579285
 30
0.0
 10
154.6369304932723
 20
-306.1023145797044
 30
0.0
 10
154.6369304932723
 20
-306.1023145797044
 30
0.0
 10
154.6369304932723
 20
-306.1023145797044
 30
0.0
 10
154.7301304932735
 20
-306.1072145795806
 30
0.0
 10
154.756030493274
 20
-306.1102145795048
 30
0.0
 10
154.7833304932719
 20
-306.1180145793078
 30
0.0
 10
154.8244304932723
 20
-306.1102145795048
 30
0.0
 10
154.8502304932736
 20
-306.1102145795048
 30
0.0
 10
154.8761304932723
 20
-306.1102145795048
 30
0.0
 10
154.9503304932732
 20
-306.1268145790855
 30
0.0
 10
155.0011304932723
 20
-306.1180145793078
 30
0.0
 10
155.0553304932728
 20
-306.1072145795806
 30
0.0
 10
155.368830493273
 20
-306.0965119831326
 30
0.0
 10
155.4347304932726
 20
-306.0916145799747
 30
0.0
 10
155.5045304932719
 20
-306.0857145801237
 30
0.0
 10
155.624630493272
 20
-306.0916145799747
 30
0.0
 10
155.7086304932727
 20
-306.0916145799747
 30
0.0
 10
155.7921304932715
 20
-306.0916145799747
 30
0.0
 10
155.7413304932725
 20
-306.0916145799747
 30
0.0
 10
156.0231304932731
 20
-306.0594145807881
 30
0.0
 10
156.3038304932725
 20
-306.0281145815788
 30
0.0
 10
156.2990304932719
 20
-306.0330145814551
 30
0.0
 10
156.3258304932715
 20
-306.0330145814551
 30
0.0
 10
156.352230493274
 20
-306.0330145814551
 30
0.0
 10
156.352230493274
 20
-306.0281145815788
 30
0.0
 10
156.3839304932735
 20
-306.013511983132
 30
0.0
 10
156.414230493272
 20
-305.996914582367
 30
0.0
 10
156.6349304932737
 20
-306.013511983132
 30
0.0
 10
156.6676304932735
 20
-306.0018145822432
 30
0.0
 10
156.6984304932739
 20
-305.9900145825413
 30
0.0
 10
156.897630493273
 20
-306.0018145822432
 30
0.0
 10
156.9425304932738
 20
-305.996914582367
 30
0.0
 10
156.9909304932735
 20
-305.9930145824655
 30
0.0
 10
157.5328304932737
 20
-305.914814584441
 30
0.0
 10
158.1305304932721
 20
-305.834814586462
 30
0.0
 10
158.726730493272
 20
-305.7566145884375
 30
0.0
 10
160.4288304932725
 20
-305.4090145972186
 30
0.0
 10
161.0739304932722
 20
-305.222511983131
 30
0.0
 10
162.5304304932724
 20
-304.8035119831311
 30
0.0
 10
163.1481304932731
 20
-304.4178146222584
 30
0.0
 10
163.294130493272
 20
-304.1092146300543
 30
0.0
 10
163.7540304932736
 20
-303.1307146547733
 30
0.0
 10
163.3615304932719
 20
-302.1238146802098
 30
0.0
 10
162.7638304932734
 20
-301.3602146994999
 30
0.0
 10
162.1686304932737
 20
-300.5965119831326
 30
0.0
 10
161.2789304932739
 20
-300.1277147306355
 30
0.0
 10
160.6090304932732
 20
-299.8816147368525
 30
0.0
 10
159.9396304932725
 20
-299.6346147430922
 30
0.0
 10
158.6788304932725
 20
-299.425614748372
 30
0.0
 10
157.868830493273
 20
-299.3426147504688
 30
0.0
 10
157.0578304932715
 20
-299.2576147526161
 30
0.0
 10
155.5011304932723
 20
-299.1277147558976
 30
0.0
 10
154.7301304932735
 20
-299.0701147573527
 30
0.0
 10
153.9616304932715
 20
-299.0125119831318
 30
0.0
 10
152.8844304932718
 20
-298.9187147611774
 30
0.0
 10
152.256030493274
 20
-298.8875119831318
 30
0.0
 10
151.6290304932736
 20
-298.8543147628043
 30
0.0
 10
151.1730304932717
 20
-298.8504147629028
 30
0.0
 10
151.153030493273
 20
-298.8504147629028
 30
0.0
 10
151.1315304932723
 20
-298.8504147629028
 30
0.0
 10
151.1212304932724
 20
-298.8240147635697
 30
0.0
 10
151.0997304932716
 20
-298.8143147638148
 30
0.0
 10
151.0787304932728
 20
-298.8025119831327
 30
0.0
 10
150.1744304932727
 20
-298.6570147677885
 30
0.0
 10
149.5524304932733
 20
-298.5457147706002
 30
0.0
 10
148.9288304932725
 20
-298.4363147733638
 30
0.0
 10
147.6525304932729
 20
-298.2791147773351
 30
0.0
 10
147.2975304932734
 20
-298.210714779063
 30
0.0
 10
146.9415304932736
 20
-298.1443147807404
 30
0.0
 10
146.135430493272
 20
-298.0340147835268
 30
0.0
 10
145.3043304932726
 20
-297.9031147868336
 30
0.0
 10
144.4723304932741
 20
-297.7723147901379
 30
0.0
 10
143.7770304932728
 20
-297.7137147916183
 30
0.0
 10
143.6129304932729
 20
-297.6873147922852
 30
0.0
 10
143.4528304932719
 20
-297.6619147929268
 30
0.0
 10
142.9933304932729
 20
-297.5838147948998
 30
0.0
 10
142.9494304932723
 20
-297.5730147951726
 30
0.0
 10
142.9083304932719
 20
-297.5633147954177
 30
0.0
 10
142.5768304932717
 20
-297.4900147972694
 30
0.0
 10
142.4484304932739
 20
-297.4529147982066
 30
0.0
 10
142.3175304932738
 20
-297.4168147991186
 30
0.0
 10
142.2033304932738
 20
-297.4578147980828
 30
0.0
 10
142.2033304932738
 20
-297.4578147980828
 30
0.0
 10
142.2033304932738
 20
-297.4578147980828
 30
0.0
 10
142.2174304932723
 20
-297.2859148024254
 30
0.0
 10
142.231630493272
 20
-297.1932148047672
 30
0.0
 10
142.249230493273
 20
-297.0965119831326
 30
0.0
 10
142.2540304932736
 20
-296.8406148136746
 30
0.0
 10
142.2540304932736
 20
-296.8406148136746
 30
0.0
 10
142.2540304932736
 20
-296.8406148136746
 30
0.0
 10
142.3107304932728
 20
-296.9090148119467
 30
0.0
 10
142.3942304932716
 20
-296.9559148107619
 30
0.0
 10
142.4791304932733
 20
-297.0027148095796
 30
0.0
 10
142.5465304932732
 20
-297.0662148079755
 30
0.0
 10
142.7643304932717
 20
-297.0916148073338
 30
0.0
 10
142.9869304932727
 20
-297.1189148066442
 30
0.0
 10
143.2960304932731
 20
-297.1082148069145
 30
0.0
 10
143.7355304932717
 20
-297.1189148066442
 30
0.0
 10
144.1730304932717
 20
-297.1287148063966
 30
0.0
 10
144.936730493273
 20
-297.2176148041508
 30
0.0
 10
145.0050304932738
 20
-297.2176148041508
 30
0.0
 10
145.0744304932723
 20
-297.2176148041508
 30
0.0
 10
145.414230493272
 20
-297.2430148035091
 30
0.0
 10
145.8795304932719
 20
-297.222511983131
 30
0.0
 10
146.3453304932737
 20
-297.2020148045449
 30
0.0
 10
147.1500304932724
 20
-297.2176148041508
 30
0.0
 10
147.6061304932737
 20
-297.2176148041508
 30
0.0
 10
148.0602304932727
 20
-297.2176148041508
 30
0.0
 10
148.6320304932724
 20
-297.2293148038552
 30
0.0
 10
149.0807304932714
 20
-297.2557148031883
 30
0.0
 10
149.5299304932723
 20
-297.2801148025719
 30
0.0
 10
150.4786304932732
 20
-297.2859148024254
 30
0.0
 10
150.8004304932729
 20
-297.2645119831323
 30
0.0
 10
151.1256304932722
 20
-297.2430148035091
 30
0.0
 10
151.4288304932725
 20
-297.2176148041508
 30
0.0
 10
151.544130493272
 20
-297.2020148045449
 30
0.0
 10
151.6598304932741
 20
-297.1854148049642
 30
0.0
 10
152.0558304932729
 20
-297.1854148049642
 30
0.0
 10
152.2501304932739
 20
-297.1805119831315
 30
0.0
 10
152.443530493274
 20
-297.1746148052371
 30
0.0
 10
153.1828304932715
 20
-297.1551148057297
 30
0.0
 10
153.5021304932725
 20
-297.138511983132
 30
0.0
 10
153.8200304932725
 20
-297.1248148064951
 30
0.0
 10
154.5792304932729
 20
-297.0662148079755
 30
0.0
 10
154.6251304932739
 20
-297.0545119831313
 30
0.0
 10
154.6725304932734
 20
-297.0437148085439
 30
0.0
 10
154.7252304932736
 20
-297.0301148088874
 30
0.0
 10
154.818530493274
 20
-297.018414809183
 30
0.0
 10
154.9118304932726
 20
-297.0086148094306
 30
0.0
 10
155.0387304932738
 20
-297.0086148094306
 30
0.0
 10
155.1178304932728
 20
-296.9920148098499
 30
0.0
 10
155.1954304932733
 20
-296.9754148102693
 30
0.0
 10
155.4328304932715
 20
-296.9402148111585
 30
0.0
 10
155.4620304932723
 20
-296.9295119831313
 30
0.0
 10
155.493830493273
 20
-296.9197148116764
 30
0.0
 10
155.8654304932716
 20
-296.85821481323
 30
0.0
 10
155.9489304932722
 20
-296.8514148134018
 30
0.0
 10
156.0324304932728
 20
-296.8465119831326
 30
0.0
 10
156.0338304932739
 20
-296.8514148134018
 30
0.0
 10
156.0704304932733
 20
-296.8406148136746
 30
0.0
 10
156.108030493273
 20
-296.8299148139449
 30
0.0
 10
156.6393304932717
 20
-296.7264148165596
 30
0.0
 10
156.6676304932735
 20
-296.7146148168576
 30
0.0
 10
156.6915304932736
 20
-296.7049148171027
 30
0.0
 10
156.7340304932732
 20
-296.7098148169789
 30
0.0
 10
156.7765304932727
 20
-296.6990148172517
 30
0.0
 10
156.818530493274
 20
-296.690214817474
 30
0.0
 10
157.1461304932727
 20
-296.5750148203842
 30
0.0
 10
157.1461304932727
 20
-296.5750148203842
 30
0.0
 10
157.1461304932727
 20
-296.5750148203842
 30
0.0
 10
157.2936304932737
 20
-296.5418148212229
 30
0.0
 10
157.3253304932732
 20
-296.5271148215943
 30
0.0
 10
157.3561304932737
 20
-296.5115119831316
 30
0.0
 10
157.397630493273
 20
-296.4734148229509
 30
0.0
 10
157.397630493273
 20
-296.4734148229509
 30
0.0
 10
157.397630493273
 20
-296.4734148229509
 30
0.0
 10
157.4811304932737
 20
-296.4646148231732
 30
0.0
 10
157.4811304932737
 20
-296.4646148231732
 30
0.0
 10
157.5236304932732
 20
-296.4588148233197
 30
0.0
 10
157.5446304932739
 20
-296.4539148234435
 30
0.0
 10
157.5704304932733
 20
-296.4432148237138
 30
0.0
 10
157.5968304932721
 20
-296.4314148240119
 30
0.0
 10
157.7062304932733
 20
-296.4129148244792
 30
0.0
 10
157.743830493273
 20
-296.4070148246283
 30
0.0
 10
157.7804304932724
 20
-296.4002148248001
 30
0.0
 10
157.8278304932719
 20
-296.3650148256893
 30
0.0
 10
157.9054304932724
 20
-296.3445119831322
 30
0.0
 10
157.983030493273
 20
-296.3230148267503
 30
0.0
 10
158.0988304932725
 20
-296.2762148279326
 30
0.0
 10
158.0988304932725
 20
-296.2762148279326
 30
0.0
 10
158.0988304932725
 20
-296.2762148279326
 30
0.0
 10
158.1564304932726
 20
-296.2703148280816
 30
0.0
 10
158.197930493272
 20
-296.2703148280816
 30
0.0
 10
158.2404304932716
 20
-296.2703148280816
 30
0.0
 10
158.6349304932737
 20
-296.2156148294634
 30
0.0
 10
159.0827304932718
 20
-296.1248148317572
 30
0.0
 10
160.2345304932714
 20
-295.8895119831323
 30
0.0
 10
161.039730493274
 20
-295.5447148464118
 30
0.0
 10
161.5626304932739
 20
-295.3143148522322
 30
0.0
 10
163.0255304932725
 20
-294.6590148687865
 30
0.0
 10
163.7174304932723
 20
-294.1697148811472
 30
0.0
 10
164.0416304932733
 20
-293.9480148867478
 30
0.0
 10
165.0446304932739
 20
-293.2576149041888
 30
0.0
 10
165.3590304932732
 20
-292.6121149204955
 30
0.0
 10
165.3981304932731
 20
-292.3201149278721
 30
0.0
 10
165.5431304932717
 20
-291.1961149562667
 30
0.0
 10
164.7687304932733
 20
-290.5193149733641
 30
0.0
 10
164.3175304932738
 20
-290.201014981405
 30
0.0
 10
163.8683304932729
 20
-289.8826149894485
 30
0.0
 10
163.0831304932726
 20
-289.6121149962819
 30
0.0
 10
162.4454304932733
 20
-289.4900149993664
 30
0.0
 10
161.8068304932731
 20
-289.3689150024256
 30
0.0
 10
161.2174304932723
 20
-289.3689150024256
 30
0.0
 10
160.3698304932732
 20
-289.5008149990936
 30
0.0
 10
159.522630493273
 20
-289.630714995812
 30
0.0
 10
158.8317304932716
 20
-289.7791149920631
 30
0.0
 10
158.2448304932732
 20
-289.912914988683
 30
0.0
 10
157.6593304932721
 20
-290.048614985255
 30
0.0
 10
156.6676304932735
 20
-290.2742149795558
 30
0.0
 10
156.3200304932725
 20
-290.3738149770397
 30
0.0
 10
155.9747304932716
 20
-290.4744149744984
 30
0.0
 10
155.3737304932729
 20
-290.6209149707975
 30
0.0
 10
154.7936304932737
 20
-290.7879149665787
 30
0.0
 10
154.2116304932715
 20
-290.9539149623852
 30
0.0
 10
153.6539304932739
 20
-291.1062149585377
 30
0.0
 10
153.2228304932723
 20
-291.2586149546878
 30
0.0
 10
152.7946304932739
 20
-291.4100149508631
 30
0.0
 10
152.7428304932728
 20
-291.4949149487184
 30
0.0
 10
152.7160304932731
 20
-291.5184149481247
 30
0.0
 10
152.6911304932728
 20
-291.545714947435
 30
0.0
 10
152.6744304932727
 20
-291.5418149475336
 30
0.0
 10
152.5861304932732
 20
-291.5047149484708
 30
0.0
 10
152.4967304932725
 20
-291.467614949408
 30
0.0
 10
152.0558304932729
 20
-291.5564149471647
 30
0.0
 10
151.6598304932741
 20
-291.6199149455606
 30
0.0
 10
151.2623304932731
 20
-291.6824149439817
 30
0.0
 10
150.7814304932726
 20
-291.7312149427489
 30
0.0
 10
150.0802304932731
 20
-291.8914149387019
 30
0.0
 10
149.3790304932736
 20
-292.0535119831311
 30
0.0
 10
148.5304304932724
 20
-292.2410149298703
 30
0.0
 10
147.9362304932729
 20
-292.3934149260203
 30
0.0
 10
147.3375304932724
 20
-292.5457149221729
 30
0.0
 10
146.392230493273
 20
-292.7918149159559
 30
0.0
 10
145.9845304932714
 20
-292.9070149130457
 30
0.0
 10
145.5753304932732
 20
-293.0213149101583
 30
0.0
 10
144.8590304932732
 20
-293.2605119831314
 30
0.0
 10
144.4415304932736
 20
-293.4295119831313
 30
0.0
 10
144.2223304932741
 20
-293.5174148976257
 30
0.0
 10
143.8737304932729
 20
-293.6590148940486
 30
0.0
 10
143.5929304932724
 20
-293.7820148909414
 30
0.0
 10
143.335130493273
 20
-293.8924148881524
 30
0.0
 10
143.1437304932733
 20
-293.9871148857601
 30
0.0
 10
143.039230493272
 20
-294.0213148848961
 30
0.0
 10
142.8200304932725
 20
-294.0955119831324
 30
0.0
 10
142.4059304932725
 20
-294.256614878952
 30
0.0
 10
142.4059304932725
 20
-294.256614878952
 30
0.0
 10
142.4059304932725
 20
-294.256614878952
 30
0.0
 10
142.3942304932716
 20
-294.0877148832187
 30
0.0
 10
142.3908304932738
 20
-293.9109148876851
 30
0.0
 10
142.3849304932737
 20
-293.7332148921741
 30
0.0
 10
142.3908304932738
 20
-293.6590148940486
 30
0.0
 10
142.3790304932736
 20
-293.6072148953572
 30
0.0
 10
142.3683304932729
 20
-293.5555119831315
 30
0.0
 10
142.3683304932729
 20
-293.4822148985149
 30
0.0
 10
142.3649304932733
 20
-293.3758149012028
 30
0.0
 10
142.3590304932732
 20
-293.2732149037947
 30
0.0
 10
142.3649304932733
 20
-293.0066149105296
 30
0.0
 10
142.3224304932737
 20
-292.8289149150187
 30
0.0
 10
142.2814304932726
 20
-292.650214919533
 30
0.0
 10
142.039730493274
 20
-292.6033149207178
 30
0.0
 10
142.0089304932735
 20
-292.5926149209881
 30
0.0
 10
141.977230493274
 20
-292.581814921261
 30
0.0
 10
141.981630493272
 20
-292.513511983132
 30
0.0
 10
141.981630493272
 20
-292.4783149238756
 30
0.0
 10
141.981630493272
 20
-292.4402149248381
 30
0.0
 10
141.9664304932739
 20
-292.4266149251816
 30
0.0
 10
141.9406304932727
 20
-292.3719149265635
 30
0.0
 10
141.9132304932718
 20
-292.3201149278721
 30
0.0
 10
141.9406304932727
 20
-292.1697149316715
 30
0.0
 10
141.9288304932725
 20
-292.1053149332984
 30
0.0
 10
141.919130493272
 20
-292.0447149348292
 30
0.0
 10
141.9132304932718
 20
-292.0174149355189
 30
0.0
 10
141.8722304932726
 20
-291.9441149373706
 30
0.0
 10
141.8307304932714
 20
-291.8699149392451
 30
0.0
 10
141.7887304932738
 20
-291.7781149415641
 30
0.0
 10
141.7887304932738
 20
-291.7342149426731
 30
0.0
 10
141.7887304932738
 20
-291.6932149437089
 30
0.0
 10
141.7990304932719
 20
-291.6766149441282
 30
0.0
 10
141.8190304932723
 20
-291.6551149446714
 30
0.0
 10
141.840530493273
 20
-291.6346149451892
 30
0.0
 10
141.8663304932725
 20
-291.6463149448937
 30
0.0
 10
141.9098304932741
 20
-291.6463149448937
 30
0.0
 10
141.9498304932731
 20
-291.6463149448937
 30
0.0
 10
141.9664304932739
 20
-291.6355119831314
 30
0.0
 10
142.0089304932735
 20
-291.6248149454368
 30
0.0
 10
142.0499304932728
 20
-291.6141149457071
 30
0.0
 10
142.0822304932735
 20
-291.6033149459799
 30
0.0
 10
142.1964304932735
 20
-291.589614946326
 30
0.0
 10
142.311730493273
 20
-291.5721149467681
 30
0.0
 10
142.2999304932728
 20
-291.5350149477053
 30
0.0
 10
142.2999304932728
 20
-291.5350149477053
 30
0.0
 10
142.2999304932728
 20
-291.5350149477053
 30
0.0
 10
142.0914304932739
 20
-291.4881149488901
 30
0.0
 10
142.0914304932739
 20
-291.4881149488901
 30
0.0
 10
142.0914304932739
 20
-291.4881149488901
 30
0.0
 10
142.0299304932723
 20
-291.472511983131
 30
0.0
 10
142.0299304932723
 20
-291.4461149499512
 30
0.0
 10
142.0299304932723
 20
-291.4207149505928
 30
0.0
 10
142.0348304932741
 20
-291.4041149510122
 30
0.0
 10
142.039730493274
 20
-291.3797149516286
 30
0.0
 10
142.0465304932732
 20
-291.3523149523207
 30
0.0
 10
141.977230493274
 20
-291.2381149552057
 30
0.0
 10
141.977230493274
 20
-291.2098149559206
 30
0.0
 10
141.977230493274
 20
-291.1863149565143
 30
0.0
 10
141.9498304932731
 20
-291.1590149572039
 30
0.0
 10
141.9498304932731
 20
-291.1590149572039
 30
0.0
 10
141.9498304932731
 20
-291.1590149572039
 30
0.0
 10
142.2814304932726
 20
-290.9432149626555
 30
0.0
 10
142.2814304932726
 20
-290.9432149626555
 30
0.0
 10
142.2814304932726
 20
-290.9432149626555
 30
0.0
 10
142.3390304932727
 20
-290.8914149639641
 30
0.0
 10
142.3165304932736
 20
-290.8914149639641
 30
0.0
 10
142.2951304932722
 20
-290.8914149639641
 30
0.0
 10
141.9288304932725
 20
-291.1365119831316
 30
0.0
 10
141.9288304932725
 20
-291.1365119831316
 30
0.0
 10
141.9288304932725
 20
-291.1365119831316
 30
0.0
 10
141.8390304932727
 20
-291.0437149601166
 30
0.0
 10
141.8390304932727
 20
-291.0437149601166
 30
0.0
 10
141.8390304932727
 20
-291.0437149601166
 30
0.0
 10
141.8722304932726
 20
-291.013511983132
 30
0.0
 10
141.9132304932718
 20
-290.9764149618168
 30
0.0
 10
141.9557304932714
 20
-290.9402149627313
 30
0.0
 10
141.977230493274
 20
-290.9246149631254
 30
0.0
 10
142.0182304932714
 20
-290.9012149637165
 30
0.0
 10
142.0607304932728
 20
-290.8826149641864
 30
0.0
 10
142.0763304932734
 20
-290.8660149646057
 30
0.0
 10
142.102230493274
 20
-290.8504149649998
 30
0.0
 10
142.1290304932736
 20
-290.8348149653939
 30
0.0
 10
142.231630493272
 20
-290.701014968774
 30
0.0
 10
142.2706304932726
 20
-290.6668149696379
 30
0.0
 10
142.693530493274
 20
-290.3055119831315
 30
0.0
 10
142.811730493273
 20
-289.9734149871547
 30
0.0
 10
142.7277304932722
 20
-289.2625119831318
 30
0.0
 10
142.693530493274
 20
-288.9705119831324
 30
0.0
 10
142.4840304932732
 20
-288.6805119831315
 30
0.0
 10
142.3092304932725
 20
-288.534015023517
 30
0.0
 10
142.0558304932729
 20
-288.3230150288473
 30
0.0
 10
141.8097304932726
 20
-288.3172150289938
 30
0.0
 10
141.8097304932726
 20
-288.3172150289938
 30
0.0
 10
141.8097304932726
 20
-288.3172150289938
 30
0.0
 10
141.7887304932738
 20
-288.2703150301786
 30
0.0
 10
141.7887304932738
 20
-288.2703150301786
 30
0.0
 10
141.7887304932738
 20
-288.2703150301786
 30
0.0
 10
141.8048304932727
 20
-288.2029150318813
 30
0.0
 10
141.8048304932727
 20
-288.1756150325709
 30
0.0
 10
141.8048304932727
 20
-288.1512150331873
 30
0.0
 10
141.7887304932738
 20
-288.1287150337557
 30
0.0
 10
141.7887304932738
 20
-288.1287150337557
 30
0.0
 10
141.7887304932738
 20
-288.1287150337557
 30
0.0
 10
141.8356304932731
 20
-288.0926150346677
 30
0.0
 10
141.8507304932718
 20
-288.0721150351856
 30
0.0
 10
141.8663304932725
 20
-288.0516150357034
 30
0.0
 10
141.8390304932727
 20
-288.0447150358777
 30
0.0
 10
141.8390304932727
 20
-288.0447150358777
 30
0.0
 10
141.8390304932727
 20
-288.0447150358777
 30
0.0
 10
141.8663304932725
 20
-287.9734150376789
 30
0.0
 10
141.8663304932725
 20
-287.9734150376789
 30
0.0
 10
141.8663304932725
 20
-287.9734150376789
 30
0.0
 10
141.9240304932719
 20
-287.9461150383686
 30
0.0
 10
141.9723304932741
 20
-287.9666150378507
 30
0.0
 10
142.0182304932714
 20
-287.9891150372823
 30
0.0
 10
142.1598304932741
 20
-288.0818150349405
 30
0.0
 10
142.1598304932741
 20
-288.0818150349405
 30
0.0
 10
142.1598304932741
 20
-288.0818150349405
 30
0.0
 10
142.1349304932737
 20
-288.0447150358777
 30
0.0
 10
142.102230493274
 20
-288.0086150367897
 30
0.0
 10
142.0690304932723
 20
-287.9734150376789
 30
0.0
 10
141.9240304932719
 20
-287.8982150395786
 30
0.0
 10
141.9240304932719
 20
-287.8982150395786
 30
0.0
 10
141.9240304932719
 20
-287.8982150395786
 30
0.0
 10
141.9557304932714
 20
-287.847511983131
 30
0.0
 10
141.9557304932714
 20
-287.847511983131
 30
0.0
 10
141.9557304932714
 20
-287.847511983131
 30
0.0
 10
141.9054304932724
 20
-287.8250150414278
 30
0.0
 10
141.8781304932727
 20
-287.8250150414278
 30
0.0
 10
141.8507304932718
 20
-287.8250150414278
 30
0.0
 10
141.760430493272
 20
-287.9041150394296
 30
0.0
 10
141.760430493272
 20
-287.9041150394296
 30
0.0
 10
141.760430493272
 20
-287.9041150394296
 30
0.0
 10
141.704730493273
 20
-287.7898150423171
 30
0.0
 10
141.6271304932725
 20
-287.7215119831326
 30
0.0
 10
141.5470304932714
 20
-287.6531150457704
 30
0.0
 10
141.385430493272
 20
-287.6531150457704
 30
0.0
 10
141.2096304932729
 20
-287.5965119831326
 30
0.0
 10
141.0304304932724
 20
-287.5379150486806
 30
0.0
 10
140.835130493273
 20
-287.4119150518636
 30
0.0
 10
140.7067304932716
 20
-287.3758150527756
 30
0.0
 10
140.5758304932715
 20
-287.3396150536901
 30
0.0
 10
140.4450304932725
 20
-287.3396150536901
 30
0.0
 10
140.2516304932724
 20
-287.3699150529246
 30
0.0
 10
140.1417304932729
 20
-287.388511983132
 30
0.0
 10
139.9274304932733
 20
-287.4480150509517
 30
0.0
 10
139.7789304932739
 20
-287.4832150500624
 30
0.0
 10
139.6632304932718
 20
-287.5066150494713
 30
0.0
 10
139.5963304932739
 20
-287.5115119831316
 30
0.0
 10
139.5880304932725
 20
-287.5066150494713
 30
0.0
 10
139.5656304932727
 20
-287.4969150497163
 30
0.0
 10
139.5656304932727
 20
-287.4861150499892
 30
0.0
 10
139.5656304932727
 20
-287.463715050555
 30
0.0
 10
139.5656304932727
 20
-287.4432150510729
 30
0.0
 10
139.5324304932728
 20
-287.463715050555
 30
0.0
 10
139.5079304932733
 20
-287.463715050555
 30
0.0
 10
139.4806304932717
 20
-287.463715050555
 30
0.0
 10
139.477230493274
 20
-287.4285119831311
 30
0.0
 10
139.454730493273
 20
-287.3914150523815
 30
0.0
 10
139.4347304932726
 20
-287.3553150532935
 30
0.0
 10
139.4406304932727
 20
-287.3758150527756
 30
0.0
 10
139.3771304932725
 20
-287.3758150527756
 30
0.0
 10
139.3146304932725
 20
-287.3758150527756
 30
0.0
 10
139.2472304932726
 20
-287.3660150530231
 30
0.0
 10
139.1461304932727
 20
-287.3699150529246
 30
0.0
 10
139.0480304932717
 20
-287.3748150528008
 30
0.0
 10
138.9694304932727
 20
-287.4334150513205
 30
0.0
 10
138.9645304932728
 20
-287.4549150507773
 30
0.0
 10
138.9596304932729
 20
-287.4764150502342
 30
0.0
 10
139.0270304932728
 20
-287.4549150507773
 30
0.0
 10
139.0680304932721
 20
-287.4432150510729
 30
0.0
 10
139.1105304932717
 20
-287.4334150513205
 30
0.0
 10
139.2872304932716
 20
-287.4500150509011
 30
0.0
 10
139.3087304932724
 20
-287.4549150507773
 30
0.0
 10
139.3312304932733
 20
-287.4598150506536
 30
0.0
 10
139.329730493273
 20
-287.4861150499892
 30
0.0
 10
139.3414304932739
 20
-287.5174150491985
 30
0.0
 10
139.3512304932738
 20
-287.5486150484103
 30
0.0
 10
139.3771304932725
 20
-287.5965119831326
 30
0.0
 10
139.3629304932729
 20
-287.6268150464348
 30
0.0
 10
139.3463304932739
 20
-287.6590150456213
 30
0.0
 10
139.2355304932717
 20
-287.9734150376789
 30
0.0
 10
139.2355304932717
 20
-287.9734150376789
 30
0.0
 10
139.2355304932717
 20
-287.9734150376789
 30
0.0
 10
139.062130493272
 20
-287.7850150424383
 30
0.0
 10
139.062130493272
 20
-287.7850150424383
 30
0.0
 10
139.062130493272
 20
-287.7850150424383
 30
0.0
 10
139.2145304932728
 20
-287.9988150370373
 30
0.0
 10
139.2145304932728
 20
-287.9988150370373
 30
0.0
 10
139.2145304932728
 20
-287.9988150370373
 30
0.0
 10
139.1945304932724
 20
-288.0574150355569
 30
0.0
 10
139.1945304932724
 20
-288.0574150355569
 30
0.0
 10
139.1945304932724
 20
-288.0574150355569
 30
0.0
 10
139.0997304932716
 20
-288.0672150353093
 30
0.0
 10
138.9752304932736
 20
-288.0721150351856
 30
0.0
 10
138.8488304932725
 20
-288.0770150350618
 30
0.0
 10
138.7018304932717
 20
-288.138511983132
 30
0.0
 10
138.7018304932717
 20
-288.138511983132
 30
0.0
 10
138.7018304932717
 20
-288.138511983132
 30
0.0
 10
138.6696304932739
 20
-288.0613150354584
 30
0.0
 10
138.6344304932718
 20
-288.0408150359763
 30
0.0
 10
138.5978304932723
 20
-288.0203150364941
 30
0.0
 10
138.5919304932722
 20
-288.0350150361228
 30
0.0
 10
138.4943304932731
 20
-288.0721150351856
 30
0.0
 10
138.3942304932716
 20
-288.1102150342231
 30
0.0
 10
138.3092304932725
 20
-288.2234150313634
 30
0.0
 10
138.3092304932725
 20
-288.2234150313634
 30
0.0
 10
138.3092304932725
 20
-288.2234150313634
 30
0.0
 10
138.351730493272
 20
-288.2176150315099
 30
0.0
 10
138.3776304932726
 20
-288.1756150325709
 30
0.0
 10
138.4035304932731
 20
-288.1346150336067
 30
0.0
 10
138.5568304932731
 20
-288.0984150345212
 30
0.0
 10
138.5719304932718
 20
-288.1238150338795
 30
0.0
 10
138.5885304932726
 20
-288.1502150332126
 30
0.0
 10
138.5885304932726
 20
-288.16971503272
 30
0.0
 10
138.5827304932718
 20
-288.1971150320278
 30
0.0
 10
138.5768304932717
 20
-288.2244150313381
 30
0.0
 10
138.5036304932728
 20
-288.2488150307217
 30
0.0
 10
138.3468304932721
 20
-288.4373150259598
 30
0.0
 10
138.1891304932724
 20
-288.6258150211979
 30
0.0
 10
137.9801304932735
 20
-288.9988150117752
 30
0.0
 10
137.9909304932735
 20
-289.5633149975147
 30
0.0
 10
138.0026304932726
 20
-290.1277149832567
 30
0.0
 10
138.4201304932722
 20
-290.5193149733641
 30
0.0
 10
138.4611304932732
 20
-290.5838149717347
 30
0.0
 10
138.5045304932719
 20
-290.6463149701558
 30
0.0
 10
138.5827304932718
 20
-290.7459149676397
 30
0.0
 10
138.5827304932718
 20
-290.7459149676397
 30
0.0
 10
138.5827304932718
 20
-290.7459149676397
 30
0.0
 10
138.5885304932726
 20
-290.9812149616955
 30
0.0
 10
138.5661304932728
 20
-291.0027149611524
 30
0.0
 10
138.5451304932722
 20
-291.0223149606572
 30
0.0
 10
138.2360304932736
 20
-290.5096149736091
 30
0.0
 10
138.2584304932716
 20
-290.5838149717347
 30
0.0
 10
138.2794304932722
 20
-290.6570149698855
 30
0.0
 10
138.5768304932717
 20
-291.069114959475
 30
0.0
 10
138.5768304932717
 20
-291.069114959475
 30
0.0
 10
138.5768304932717
 20
-291.069114959475
 30
0.0
 10
138.5885304932726
 20
-291.2898149538996
 30
0.0
 10
138.5661304932728
 20
-291.3113149533565
 30
0.0
 10
138.5451304932722
 20
-291.3299149528866
 30
0.0
 10
138.210130493273
 20
-290.7137149684531
 30
0.0
 10
138.210130493273
 20
-290.7137149684531
 30
0.0
 10
138.210130493273
 20
-290.7137149684531
 30
0.0
 10
138.3468304932721
 20
-291.027114960536
 30
0.0
 10
138.4201304932722
 20
-291.1365119831316
 30
0.0
 10
138.4928304932728
 20
-291.2488149549354
 30
0.0
 10
138.5451304932722
 20
-291.3738149517776
 30
0.0
 10
138.5451304932722
 20
-291.3738149517776
 30
0.0
 10
138.5451304932722
 20
-291.3738149517776
 30
0.0
 10
138.5451304932722
 20
-291.6033149459799
 30
0.0
 10
138.5451304932722
 20
-291.6033149459799
 30
0.0
 10
138.5451304932722
 20
-291.6033149459799
 30
0.0
 10
138.4469304932718
 20
-291.4637149495065
 30
0.0
 10
138.425930493273
 20
-291.4090149508884
 30
0.0
 10
138.4035304932731
 20
-291.3582149521717
 30
0.0
 10
138.2150304932729
 20
-290.9705119831324
 30
0.0
 10
138.2150304932729
 20
-290.9705119831324
 30
0.0
 10
138.2150304932729
 20
-290.9705119831324
 30
0.0
 10
138.2833304932719
 20
-291.153114957353
 30
0.0
 10
138.3317304932716
 20
-291.2762149542432
 30
0.0
 10
138.3776304932726
 20
-291.3953149512345
 30
0.0
 10
138.4611304932732
 20
-291.5301149478291
 30
0.0
 10
138.4826304932722
 20
-291.5564149471647
 30
0.0
 10
138.5036304932728
 20
-291.5838149464726
 30
0.0
 10
138.5245304932723
 20
-291.6766149441282
 30
0.0
 10
138.5245304932723
 20
-291.6766149441282
 30
0.0
 10
138.5245304932723
 20
-291.6766149441282
 30
0.0
 10
138.4943304932731
 20
-291.6873149438579
 30
0.0
 10
138.4718304932721
 20
-291.6932149437089
 30
0.0
 10
138.4503304932732
 20
-291.6980149435876
 30
0.0
 10
138.4777304932722
 20
-291.7449149424028
 30
0.0
 10
138.4777304932722
 20
-291.7449149424028
 30
0.0
 10
138.4777304932722
 20
-291.7449149424028
 30
0.0
 10
138.4401304932726
 20
-291.7342149426731
 30
0.0
 10
138.3834304932716
 20
-291.723414942946
 30
0.0
 10
138.3268304932717
 20
-291.7146149431683
 30
0.0
 10
138.3893304932717
 20
-291.7547149421553
 30
0.0
 10
138.4201304932722
 20
-291.7811149414883
 30
0.0
 10
138.4503304932732
 20
-291.8064149408492
 30
0.0
 10
138.3468304932721
 20
-291.7781149415641
 30
0.0
 10
138.3258304932715
 20
-291.7664149418597
 30
0.0
 10
138.3043304932726
 20
-291.7547149421553
 30
0.0
 10
138.3317304932716
 20
-291.7879149413166
 30
0.0
 10
138.3585304932731
 20
-291.8084149407987
 30
0.0
 10
138.3834304932716
 20
-291.8279149403061
 30
0.0
 10
138.4826304932722
 20
-291.9031149384064
 30
0.0
 10
138.4826304932722
 20
-291.9031149384064
 30
0.0
 10
138.4826304932722
 20
-291.9031149384064
 30
0.0
 10
138.5143304932717
 20
-291.9686149367517
 30
0.0
 10
138.5402304932722
 20
-292.0066149357917
 30
0.0
 10
138.5661304932728
 20
-292.0447149348292
 30
0.0
 10
138.613430493273
 20
-292.0691149342128
 30
0.0
 10
138.6403304932719
 20
-292.0691149342128
 30
0.0
 10
138.6661304932732
 20
-292.0691149342128
 30
0.0
 10
138.6696304932739
 20
-292.0633149343594
 30
0.0
 10
138.7179304932724
 20
-292.0174149355189
 30
0.0
 10
138.7653304932719
 20
-291.9686149367517
 30
0.0
 10
138.806330493273
 20
-291.9383149375171
 30
0.0
 10
138.8429304932724
 20
-291.8914149387019
 30
0.0
 10
138.8805304932721
 20
-291.8436149399095
 30
0.0
 10
138.8644304932732
 20
-291.8436149399095
 30
0.0
 10
138.8737304932729
 20
-291.7713149417359
 30
0.0
 10
138.8844304932718
 20
-291.6980149435876
 30
0.0
 10
138.9645304932728
 20
-291.5984149461037
 30
0.0
 10
139.010430493272
 20
-291.5184149481247
 30
0.0
 10
139.0578304932715
 20
-291.4412149500749
 30
0.0
 10
139.1320304932724
 20
-291.38361495153
 30
0.0
 10
139.1989304932722
 20
-291.2996149536521
 30
0.0
 10
139.2687304932733
 20
-291.2156149557741
 30
0.0
 10
139.3829304932733
 20
-291.2527149548368
 30
0.0
 10
139.3829304932733
 20
-291.2527149548368
 30
0.0
 10
139.3829304932733
 20
-291.2527149548368
 30
0.0
 10
139.3663304932725
 20
-291.2840149540461
 30
0.0
 10
139.3663304932725
 20
-291.3328149528134
 30
0.0
 10
139.3663304932725
 20
-291.3797149516286
 30
0.0
 10
139.4137304932738
 20
-291.4012149510854
 30
0.0
 10
139.4137304932738
 20
-291.4012149510854
 30
0.0
 10
139.4137304932738
 20
-291.4012149510854
 30
0.0
 10
139.4039304932739
 20
-291.4314149503225
 30
0.0
 10
139.3771304932725
 20
-291.4578149496556
 30
0.0
 10
139.3497304932716
 20
-291.4832149490139
 30
0.0
 10
139.2921304932715
 20
-291.6141149457071
 30
0.0
 10
139.278030493273
 20
-291.6355119831314
 30
0.0
 10
139.2614304932722
 20
-291.6551149446714
 30
0.0
 10
139.1730304932717
 20
-291.6932149437089
 30
0.0
 10
139.1261304932723
 20
-291.723414942946
 30
0.0
 10
139.0787304932728
 20
-291.7547149421553
 30
0.0
 10
139.0070304932724
 20
-291.8602149394901
 30
0.0
 10
138.9596304932729
 20
-291.9383149375171
 30
0.0
 10
138.9113304932725
 20
-292.0174149355189
 30
0.0
 10
138.9113304932725
 20
-292.2410149298703
 30
0.0
 10
138.885430493272
 20
-292.293714928539
 30
0.0
 10
138.8595304932714
 20
-292.347511983131
 30
0.0
 10
138.8488304932725
 20
-292.4148149254797
 30
0.0
 10
138.822930493272
 20
-292.4666149241712
 30
0.0
 10
138.7970304932714
 20
-292.5193149228398
 30
0.0
 10
138.6603304932723
 20
-292.7869149160797
 30
0.0
 10
138.6403304932719
 20
-292.8133149154128
 30
0.0
 10
138.6178304932728
 20
-292.8387149147711
 30
0.0
 10
138.5919304932722
 20
-292.8650149141067
 30
0.0
 10
138.5719304932718
 20
-292.9070149130457
 30
0.0
 10
138.5519304932732
 20
-292.94801491201
 30
0.0
 10
138.4869304932727
 20
-293.2605119831314
 30
0.0
 10
138.4777304932722
 20
-293.3348149022386
 30
0.0
 10
138.4660304932731
 20
-293.4080149003894
 30
0.0
 10
138.4869304932727
 20
-293.7020148929623
 30
0.0
 10
138.4826304932722
 20
-293.7645119831323
 30
0.0
 10
138.4777304932722
 20
-293.8279148897818
 30
0.0
 10
138.4552304932731
 20
-293.8592148889911
 30
0.0
 10
138.4401304932726
 20
-293.9070148877836
 30
0.0
 10
138.425930493273
 20
-293.9529148866241
 30
0.0
 10
138.4318304932731
 20
-294.078914883441
 30
0.0
 10
138.4318304932731
 20
-294.1092148826756
 30
0.0
 10
138.4318304932731
 20
-294.1424148818369
 30
0.0
 10
138.5036304932728
 20
-294.4344148744603
 30
0.0
 10
138.5036304932728
 20
-294.4344148744603
 30
0.0
 10
138.5036304932728
 20
-294.4344148744603
 30
0.0
 10
138.4611304932732
 20
-294.4549148739425
 30
0.0
 10
138.4611304932732
 20
-294.4549148739425
 30
0.0
 10
138.4611304932732
 20
-294.4549148739425
 30
0.0
 10
138.289230493272
 20
-294.4227148747559
 30
0.0
 10
137.9957304932723
 20
-294.3543148764838
 30
0.0
 10
137.7033304932738
 20
-294.288914878136
 30
0.0
 10
137.4049304932723
 20
-294.1561148814908
 30
0.0
 10
136.4420304932719
 20
-293.7898148907443
 30
0.0
 10
135.4801304932735
 20
-293.4236148999953
 30
0.0
 10
134.6847304932726
 20
-293.2254149050023
 30
0.0
 10
134.0827304932718
 20
-293.0838149085794
 30
0.0
 10
133.4826304932722
 20
-292.9441149121085
 30
0.0
 10
132.3248304932731
 20
-292.692214918472
 30
0.0
 10
131.2218304932721
 20
-292.472511983131
 30
0.0
 10
130.1173304932727
 20
-292.2518149295975
 30
0.0
 10
129.3869304932723
 20
-292.1570149319923
 30
0.0
 10
128.8541304932733
 20
-292.0857149337935
 30
0.0
 10
128.3175304932738
 20
-292.0115119831316
 30
0.0
 10
127.6505304932725
 20
-291.9490149372468
 30
0.0
 10
127.6505304932725
 20
-291.9490149372468
 30
0.0
 10
127.6505304932725
 20
-291.9490149372468
 30
0.0
 10
127.5490304932719
 20
-292.0066149357917
 30
0.0
 10
127.5490304932719
 20
-292.0066149357917
 30
0.0
 10
127.5255304932725
 20
-292.0203149354456
 30
0.0
 10
127.5079304932733
 20
-291.959814936974
 30
0.0
 10
127.4713304932739
 20
-291.9334149376409
 30
0.0
 10
127.4347304932726
 20
-291.9080149382826
 30
0.0
 10
126.8585304932731
 20
-291.7068149433653
 30
0.0
 10
126.2619304932723
 20
-291.5262149479277
 30
0.0
 10
125.6666304932733
 20
-291.341614952591
 30
0.0
 10
123.9660304932731
 20
-290.9295119831313
 30
0.0
 10
123.056330493273
 20
-290.7254149681576
 30
0.0
 10
122.1461304932727
 20
-290.5193149733641
 30
0.0
 10
121.1832304932723
 20
-290.3680149771862
 30
0.0
 10
120.3097304932726
 20
-290.2273149807406
 30
0.0
 10
119.7911304932732
 20
-290.1434149828601
 30
0.0
 10
119.2360304932736
 20
-290.1043149838479
 30
0.0
 10
118.767230493273
 20
-290.1258149833047
 30
0.0
 10
118.4464304932735
 20
-290.1395119831323
 30
0.0
 10
118.2213304932739
 20
-290.1727149821199
 30
0.0
 10
117.914730493274
 20
-290.243014980344
 30
0.0
 10
117.4821304932739
 20
-290.3396149779037
 30
0.0
 10
116.8986304932732
 20
-290.5486149726239
 30
0.0
 10
116.4591304932728
 20
-290.7703149670233
 30
0.0
 10
116.2150304932729
 20
-290.8914149639641
 30
0.0
 10
116.0656304932727
 20
-290.9930149613974
 30
0.0
 10
115.8781304932727
 20
-291.1062149585377
 30
0.0
 10
115.6154304932716
 20
-291.265414954516
 30
0.0
 10
115.3253304932732
 20
-291.561314947041
 30
0.0
 10
115.1427304932731
 20
-291.875814939096
 30
0.0
 10
114.9645304932728
 20
-292.1854149312749
 30
0.0
 10
114.8927304932731
 20
-292.5086149231101
 30
0.0
 10
114.8703304932715
 20
-292.7596149167694
 30
0.0
 10
114.7951304932722
 20
-293.5555119831315
 30
0.0
 10
115.1994304932723
 20
-293.8592148889911
 30
0.0
 10
115.6637304932738
 20
-294.2664148787044
 30
0.0
 10
116.1305304932721
 20
-294.6756148683671
 30
0.0
 10
116.2174304932723
 20
-294.7117148674552
 30
0.0
 10
116.7218304932721
 20
-294.9891148604474
 30
0.0
 10
117.2228304932723
 20
-295.2664148534423
 30
0.0
 10
117.5529304932716
 20
-295.4861148478922
 30
0.0
 10
118.0763304932734
 20
-295.7312148417004
 30
0.0
 10
118.5983304932724
 20
-295.9783148354581
 30
0.0
 10
118.9025304932729
 20
-296.1033148323004
 30
0.0
 10
119.5568304932731
 20
-296.3123148270206
 30
0.0
 10
119.8126304932739
 20
-296.3934148249718
 30
0.0
 10
120.0328304932737
 20
-296.4783148228271
 30
0.0
 10
120.2687304932733
 20
-296.5467148210992
 30
0.0
 10
120.635430493272
 20
-296.6551148183607
 30
0.0
 10
120.9913304932725
 20
-296.732214816413
 30
0.0
 10
121.2150304932729
 20
-296.7830148151297
 30
0.0
 10
121.5802304932731
 20
-296.8670148130077
 30
0.0
 10
122.2135304932726
 20
-296.9451148110347
 30
0.0
 10
122.2135304932726
 20
-296.9451148110347
 30
0.0
 10
122.2135304932726
 20
-296.9451148110347
 30
0.0
 10
122.1876304932739
 20
-296.9617148106154
 30
0.0
 10
122.2877304932736
 20
-296.9832148100722
 30
0.0
 10
122.3869304932723
 20
-297.0027148095796
 30
0.0
 10
122.5587304932724
 20
-297.0545119831313
 30
0.0
 10
122.6119304932727
 20
-297.0662148079755
 30
0.0
 10
122.664730493274
 20
-297.0770148077027
 30
0.0
 10
122.9357304932728
 20
-297.1492148058787
 30
0.0
 10
123.1305304932721
 20
-297.1961148046939
 30
0.0
 10
123.3239304932722
 20
-297.2430148035091
 30
0.0
 10
123.8991304932715
 20
-297.3855119831314
 30
0.0
 10
124.443530493274
 20
-297.46861479781
 30
0.0
 10
124.9869304932727
 20
-297.5506147957385
 30
0.0
 10
125.2223304932741
 20
-297.5506147957385
 30
0.0
 10
125.8966304932728
 20
-297.6268147938135
 30
0.0
 10
126.5709304932716
 20
-297.6980147920149
 30
0.0
 10
127.7540304932736
 20
-297.7557147905572
 30
0.0
 10
128.5792304932729
 20
-297.7664147902869
 30
0.0
 10
129.4054304932724
 20
-297.7771147900166
 30
0.0
 10
129.5670304932719
 20
-297.7869147897691
 30
0.0
 10
130.0231304932731
 20
-297.7723147901379
 30
0.0
 10
130.4791304932733
 20
-297.7557147905572
 30
0.0
 10
130.960130493273
 20
-297.7254147913227
 30
0.0
 10
131.6237304932729
 20
-297.6619147929268
 30
0.0
 10
132.2872304932716
 20
-297.6004147944805
 30
0.0
 10
133.0368304932726
 20
-297.5252147963802
 30
0.0
 10
133.3151304932726
 20
-297.4900147972694
 30
0.0
 10
133.5910304932731
 20
-297.4529147982066
 30
0.0
 10
134.1510304932726
 20
-297.4529147982066
 30
0.0
 10
134.579730493273
 20
-297.4422147984769
 30
0.0
 10
135.0089304932735
 20
-297.4324147987245
 30
0.0
 10
136.4279304932716
 20
-297.2859148024254
 30
0.0
 10
137.2013304932734
 20
-297.2596148030898
 30
0.0
 10
137.9743304932726
 20
-297.2332148037567
 30
0.0
 10
138.0499304932728
 20
-297.1551148057297
 30
0.0
 10
138.2008304932715
 20
-297.0301148088874
 30
0.0
 10
138.351730493272
 20
-296.9051148120452
 30
0.0
 10
138.550930493273
 20
-296.6316148189544
 30
0.0
 10
138.550930493273
 20
-296.6316148189544
 30
0.0
 10
138.550930493273
 20
-296.6316148189544
 30
0.0
 10
138.5661304932728
 20
-296.6473148185578
 30
0.0
 10
138.5768304932717
 20
-296.730314816461
 30
0.0
 10
138.5870304932723
 20
-296.814314814339
 30
0.0
 10
138.5768304932717
 20
-296.814314814339
 30
0.0
 10
138.5827304932718
 20
-296.8465119831326
 30
0.0
 10
138.5885304932726
 20
-296.8768148127601
 30
0.0
 10
138.6027304932722
 20
-296.888511983132
 30
0.0
 10
138.5968304932721
 20
-296.9500148109109
 30
0.0
 10
138.5919304932722
 20
-297.013511983132
 30
0.0
 10
138.5919304932722
 20
-297.0232148090618
 30
0.0
 10
138.5919304932722
 20
-297.0486148084201
 30
0.0
 10
138.5919304932722
 20
-297.0770148077027
 30
0.0
 10
138.6818304932731
 20
-297.013511983132
 30
0.0
 10
138.7145304932728
 20
-297.0027148095796
 30
0.0
 10
138.7453304932715
 20
-296.9920148098499
 30
0.0
 10
138.7853304932723
 20
-297.1492148058787
 30
0.0
 10
138.8029304932716
 20
-297.2020148045449
 30
0.0
 10
138.8170304932719
 20
-297.2557148031883
 30
0.0
 10
138.8429304932724
 20
-297.5730147951726
 30
0.0
 10
138.8429304932724
 20
-297.5730147951726
 30
0.0
 10
138.8429304932724
 20
-297.5730147951726
 30
0.0
 10
138.8429304932724
 20
-297.5838147948998
 30
0.0
 10
138.822930493272
 20
-297.5838147948998
 30
0.0
 10
138.8029304932716
 20
-297.5838147948998
 30
0.0
 10
138.7853304932723
 20
-297.5789147950236
 30
0.0
 10
138.7179304932724
 20
-297.546714795837
 30
0.0
 10
138.6495304932723
 20
-297.5154147966277
 30
0.0
 10
138.5885304932726
 20
-297.5691147952712
 30
0.0
 10
138.5661304932728
 20
-297.5936147946522
 30
0.0
 10
138.5451304932722
 20
-297.6189147940131
 30
0.0
 10
138.4777304932722
 20
-297.588714794776
 30
0.0
 10
138.3776304932726
 20
-297.546714795837
 30
0.0
 10
138.2794304932722
 20
-297.50661479685
 30
0.0
 10
137.9015304932727
 20
-297.6355119831314
 30
0.0
 10
137.6032304932723
 20
-297.6951147920881
 30
0.0
 10
137.306330493273
 20
-297.7518147906558
 30
0.0
 10
136.6461304932727
 20
-297.8240147888318
 30
0.0
 10
135.8561304932737
 20
-297.9031147868336
 30
0.0
 10
135.0680304932721
 20
-297.9812147848606
 30
0.0
 10
133.6593304932721
 20
-298.2322147785198
 30
0.0
 10
133.0783304932738
 20
-298.3055119831315
 30
0.0
 10
132.4982304932728
 20
-298.3807147747684
 30
0.0
 10
131.1076304932722
 20
-298.5203147712418
 30
0.0
 10
130.3849304932737
 20
-298.6141147688722
 30
0.0
 10
129.6613304932725
 20
-298.7088147664799
 30
0.0
 10
129.0885304932726
 20
-298.8143147638148
 30
0.0
 10
129.0670304932719
 20
-298.8182147637162
 30
0.0
 10
129.0451304932722
 20
-298.8240147635697
 30
0.0
 10
129.0294304932722
 20
-298.8338147633222
 30
0.0
 10
129.0036304932728
 20
-298.8504147629028
 30
0.0
 10
128.9777304932722
 20
-298.865014762534
 30
0.0
 10
128.988430493273
 20
-298.865014762534
 30
0.0
 10
128.9669304932722
 20
-298.8758147622611
 30
0.0
 10
128.9459304932716
 20
-298.8865119831316
 30
0.0
 10
128.8834304932716
 20
-298.8455119831324
 30
0.0
 10
128.664230493272
 20
-298.8455119831324
 30
0.0
 10
128.4440304932723
 20
-298.8455119831324
 30
0.0
 10
126.8678304932728
 20
-298.9119147613492
 30
0.0
 10
126.2902304932722
 20
-298.9549147602629
 30
0.0
 10
125.7081304932726
 20
-298.9959147592272
 30
0.0
 10
123.8869304932723
 20
-299.1326147557738
 30
0.0
 10
123.3180304932721
 20
-299.1756147546876
 30
0.0
 10
122.749630493272
 20
-299.2156147536771
 30
0.0
 10
121.800930493273
 20
-299.3006147515298
 30
0.0
 10
121.0573304932732
 20
-299.4041147489152
 30
0.0
 10
120.3156304932727
 20
-299.50961474625
 30
0.0
 10
119.8488304932725
 20
-299.6199147434636
 30
0.0
 10
119.3541304932733
 20
-299.7859147392701
 30
0.0
 10
118.8541304932733
 20
-299.953914735026
 30
0.0
 10
118.6207304932723
 20
-300.0320147330531
 30
0.0
 10
117.993830493273
 20
-300.4715119831326
 30
0.0
 10
117.3644304932732
 20
-300.9109147108502
 30
0.0
 10
116.8668304932726
 20
-301.4285119831311
 30
0.0
 10
116.5431304932717
 20
-302.1053146806771
 30
0.0
 10
116.2433304932729
 20
-302.7293146649135
 30
0.0
 10
116.2648304932736
 20
-303.1756146536391
 30
0.0
 10
116.3541304932733
 20
-303.5955119831324
 30
0.0
 10
116.4865304932719
 20
-304.1961146278591
 30
0.0
 10
117.0768304932717
 20
-304.5008146201617
 30
0.0
 10
117.6212304932724
 20
-304.703914615031
 30
0.0
 10
118.1657304932723
 20
-304.908014609875
 30
0.0
 10
118.8883304932715
 20
-305.1082146048175
 30
0.0
 10
119.2843304932721
 20
-305.2029146024252
 30
0.0
 10
119.6828304932715
 20
-305.2977146000303
 30
0.0
 10
120.1686304932737
 20
-305.384614597835
 30
0.0
 10
120.2946304932739
 20
-305.4217145968978
 30
0.0
 10
120.420530493273
 20
-305.4578145959858
 30
0.0
 10
121.2199304932728
 20
-305.6248145917671
 30
0.0
 10
121.5026304932726
 20
-305.6668145907061
 30
0.0
 10
121.7853304932723
 20
-305.7098145896198
 30
0.0
 10
122.4352304932727
 20
-305.8396145863408
 30
0.0
 10
122.7164304932739
 20
-305.8709145855501
 30
0.0
 10
122.9972304932726
 20
-305.9031145847366
 30
0.0
 10
123.2565304932723
 20
-305.9227145842415
 30
0.0
 10
123.3273304932736
 20
-305.9227145842415
 30
0.0
 10
123.4015304932727
 20
-305.9227145842415
 30
0.0
 10
124.3751304932739
 20
-306.0174145818492
 30
0.0
 10
124.715530493273
 20
-306.0398145812833
 30
0.0
 10
125.0553304932728
 20
-306.0594145807881
 30
0.0
 10
125.2804304932724
 20
-306.0398145812833
 30
0.0
 10
125.3156304932727
 20
-306.0330145814551
 30
0.0
 10
125.352230493274
 20
-306.0281145815788
 30
0.0
 10
125.4674304932723
 20
-306.0398145812833
 30
0.0
 10
125.4874304932728
 20
-306.0447145811595
 30
0.0
 10
125.5079304932733
 20
-306.0496145810357
 30
0.0
 10
125.6349304932737
 20
-306.0760145803688
 30
0.0
 10
125.6666304932733
 20
-306.0857145801237
 30
0.0
 10
125.6989304932722
 20
-306.0965119831326
 30
0.0
 10
126.2677304932731
 20
-306.1863145775824
 30
0.0
 10
126.6286304932728
 20
-306.2283145765214
 30
0.0
 10
126.9904304932716
 20
-306.2693145754856
 30
0.0
 10
127.664730493274
 20
-306.3699145729443
 30
0.0
 10
127.6857304932728
 20
-306.3748145728205
 30
0.0
 10
127.7072304932735
 20
-306.3787145727219
 30
0.0
 10
127.8624304932728
 20
-306.4002145721788
 30
0.0
 10
127.9171304932715
 20
-306.405114572055
 30
0.0
 10
127.9699304932728
 20
-306.4100145719312
 30
0.0
 10
128.6383304932715
 20
-306.456814570749
 30
0.0
 10
128.9459304932716
 20
-306.5096145694151
 30
0.0
 10
129.2545304932719
 20
-306.5633145680586
 30
0.0
 10
129.5636304932723
 20
-306.525214569021
 30
0.0
 10
130.045530493273
 20
-306.5203145691448
 30
0.0
 10
130.5265304932727
 20
-306.5154145692686
 30
0.0
 10
131.7296304932715
 20
-306.4520145708702
 30
0.0
 10
132.1119304932727
 20
-306.4354145712896
 30
0.0
 10
132.4913304932725
 20
-306.4217145716357
 30
0.0
 10
133.0109304932739
 20
-306.3787145727219
 30
0.0
 10
133.1417304932729
 20
-306.3582145732398
 30
0.0
 10
133.272630493273
 20
-306.3377145737577
 30
0.0
 10
133.7428304932728
 20
-306.1805119831315
 30
0.0
 10
134.2355304932717
 20
-306.0447145811595
 30
0.0
 10
134.7282304932723
 20
-305.9090145845876
 30
0.0
 10
135.8043304932726
 20
-305.598414592434
 30
0.0
 10
136.3385304932726
 20
-305.478314595468
 30
0.0
 10
136.8737304932729
 20
-305.3582145985019
 30
0.0
 10
137.1373304932731
 20
-305.3064145998105
 30
0.0
 10
137.4357304932728
 20
-305.0398146065454
 30
0.0
 10
137.5700304932725
 20
-304.9207146095541
 30
0.0
 10
137.7716304932728
 20
-304.618014617201
 30
0.0
 10
137.9415304932736
 20
-304.3992146227283
 30
0.0
 10
138.1559304932725
 20
-304.1229146297082
 30
0.0
 10
138.3410304932731
 20
-303.9227146347657
 30
0.0
 10
138.4660304932731
 20
-303.7732146385424
 30
0.0
 10
138.9537304932728
 20
-303.1971146530959
 30
0.0
 10
139.0421304932715
 20
-302.9207146600784
 30
0.0
 10
139.0895304932728
 20
-302.5223146701428
 30
0.0
 10
139.135430493272
 20
-302.1238146802098
 30
0.0
 10
139.1896304932725
 20
-301.4090146982671
 30
0.0
 10
139.2238304932725
 20
-300.8328147128232
 30
0.0
 10
139.2614304932722
 20
-300.2576147273539
 30
0.0
 10
139.3038304932725
 20
-299.8191147384314
 30
0.0
 10
139.3087304932724
 20
-299.7459147402806
 30
0.0
 10
139.3156304932727
 20
-299.671714742155
 30
0.0
 10
139.3146304932725
 20
-299.7078147412431
 30
0.0
 10
139.3414304932739
 20
-299.6453147428219
 30
0.0
 10
139.3663304932725
 20
-299.5828147444008
 30
0.0
 10
139.3864304932722
 20
-299.425614748372
 30
0.0
 10
139.4088304932739
 20
-299.2840147519491
 30
0.0
 10
139.4298304932727
 20
-299.1424147555263
 30
0.0
 10
139.4513304932734
 20
-299.1590147551069
 30
0.0
 10
139.454730493273
 20
-299.0428147580424
 30
0.0
 10
139.4596304932729
 20
-298.9305119831315
 30
0.0
 10
139.4982304932728
 20
-298.9441147605357
 30
0.0
 10
139.4982304932728
 20
-298.9441147605357
 30
0.0
 10
139.4982304932728
 20
-298.9441147605357
 30
0.0
 10
139.5607304932728
 20
-298.9549147602629
 30
0.0
 10
139.5763304932734
 20
-298.9910147593509
 30
0.0
 10
139.5924304932723
 20
-299.0281147584137
 30
0.0
 10
139.5924304932723
 20
-299.1326147557738
 30
0.0
 10
139.5924304932723
 20
-299.2010147540459
 30
0.0
 10
139.5924304932723
 20
-299.2010147540459
 30
0.0
 10
139.5924304932723
 20
-299.347511983131
 30
0.0
 10
139.5924304932723
 20
-299.347511983131
 30
0.0
 10
139.5924304932723
 20
-299.4090147487914
 30
0.0
 10
139.606630493272
 20
-299.4412147479779
 30
0.0
 10
139.6115304932719
 20
-299.467614747311
 30
0.0
 10
139.6173304932727
 20
-299.4949147466214
 30
0.0
 10
139.6388304932734
 20
-299.8260147382571
 30
0.0
 10
139.6173304932727
 20
-299.9656147347305
 30
0.0
 10
139.5963304932739
 20
-300.1072147311534
 30
0.0
 10
139.6632304932718
 20
-300.2205119831324
 30
0.0
 10
139.6632304932718
 20
-300.2205119831324
 30
0.0
 10
139.6632304932718
 20
-300.2205119831324
 30
0.0
 10
139.670530493273
 20
-300.5730147193863
 30
0.0
 10
139.6315304932723
 20
-300.6297147179539
 30
0.0
 10
139.5924304932723
 20
-300.6844147165721
 30
0.0
 10
139.6456304932726
 20
-300.818214713192
 30
0.0
 10
139.6456304932726
 20
-300.818214713192
 30
0.0
 10
139.6456304932726
 20
-300.818214713192
 30
0.0
 10
139.670530493273
 20
-300.8807147116131
 30
0.0
 10
139.670530493273
 20
-300.9275119831327
 30
0.0
 10
139.670530493273
 20
-300.9734147092713
 30
0.0
 10
139.670530493273
 20
-301.5311146951826
 30
0.0
 10
139.6549304932723
 20
-301.6336146925933
 30
0.0
 10
139.6388304932734
 20
-301.7352146900266
 30
0.0
 10
139.670530493273
 20
-301.8221146878313
 30
0.0
 10
139.6857304932728
 20
-301.9002146858584
 30
0.0
 10
139.7023304932736
 20
-301.9793146838601
 30
0.0
 10
139.7174304932723
 20
-303.2762146510977
 30
0.0
 10
139.7174304932723
 20
-303.2762146510977
 30
0.0
  0
HATCH
  5
46
330
41
100
AcDbEntity
  8
Layer 1
 62
     7
420
 16777215
100
AcDbHatch
 10
0.0
 20
0.0
 30
0.0
210
0.0
220
0.0
230
1.0
  2
SOLID
 70
     1
 71
     0
 91
        1
 92
        1
 93
        1
 72
     4
 94
        3
 73
     0
 74
     1
 95
     1307
 96
     1303
 40
0.0
 40
0.0
 40
0.0
 40
0.0
 40
1.0
 40
1.0
 40
1.0
 40
2.0
 40
2.0
 40
2.0
 40
3.0
 40
3.0
 40
3.0
 40
4.0
 40
4.0
 40
4.0
 40
5.0
 40
5.0
 40
5.0
 40
6.0
 40
6.0
 40
6.0
 40
7.0
 40
7.0
 40
7.0
 40
8.0
 40
8.0
 40
8.0
 40
9.0
 40
9.0
 40
9.0
 40
10.0
 40
10.0
 40
10.0
 40
11.0
 40
11.0
 40
11.0
 40
12.0
 40
12.0
 40
12.0
 40
13.0
 40
13.0
 40
13.0
 40
14.0
 40
14.0
 40
14.0
 40
15.0
 40
15.0
 40
15.0
 40
16.0
 40
16.0
 40
16.0
 40
17.0
 40
17.0
 40
17.0
 40
18.0
 40
18.0
 40
18.0
 40
19.0
 40
19.0
 40
19.0
 40
20.0
 40
20.0
 40
20.0
 40
21.0
 40
21.0
 40
21.0
 40
22.0
 40
22.0
 40
22.0
 40
23.0
 40
23.0
 40
23.0
 40
24.0
 40
24.0
 40
24.0
 40
25.0
 40
25.0
 40
25.0
 40
26.0
 40
26.0
 40
26.0
 40
27.0
 40
27.0
 40
27.0
 40
28.0
 40
28.0
 40
28.0
 40
29.0
 40
29.0
 40
29.0
 40
30.0
 40
30.0
 40
30.0
 40
31.0
 40
31.0
 40
31.0
 40
32.0
 40
32.0
 40
32.0
 40
33.0
 40
33.0
 40
33.0
 40
34.0
 40
34.0
 40
34.0
 40
35.0
 40
35.0
 40
35.0
 40
36.0
 40
36.0
 40
36.0
 40
37.0
 40
37.0
 40
37.0
 40
38.0
 40
38.0
 40
38.0
 40
39.0
 40
39.0
 40
39.0
 40
40.0
 40
40.0
 40
40.0
 40
41.0
 40
41.0
 40
41.0
 40
42.0
 40
42.0
 40
42.0
 40
43.0
 40
43.0
 40
43.0
 40
44.0
 40
44.0
 40
44.0
 40
45.0
 40
45.0
 40
45.0
 40
46.0
 40
46.0
 40
46.0
 40
47.0
 40
47.0
 40
47.0
 40
48.0
 40
48.0
 40
48.0
 40
49.0
 40
49.0
 40
49.0
 40
50.0
 40
50.0
 40
50.0
 40
51.0
 40
51.0
 40
51.0
 40
52.0
 40
52.0
 40
52.0
 40
53.0
 40
53.0
 40
53.0
 40
54.0
 40
54.0
 40
54.0
 40
55.0
 40
55.0
 40
55.0
 40
56.0
 40
56.0
 40
56.0
 40
57.0
 40
57.0
 40
57.0
 40
58.0
 40
58.0
 40
58.0
 40
59.0
 40
59.0
 40
59.0
 40
60.0
 40
60.0
 40
60.0
 40
61.0
 40
61.0
 40
61.0
 40
62.0
 40
62.0
 40
62.0
 40
63.0
 40
63.0
 40
63.0
 40
64.0
 40
64.0
 40
64.0
 40
65.0
 40
65.0
 40
65.0
 40
66.0
 40
66.0
 40
66.0
 40
67.0
 40
67.0
 40
67.0
 40
68.0
 40
68.0
 40
68.0
 40
69.0
 40
69.0
 40
69.0
 40
70.0
 40
70.0
 40
70.0
 40
71.0
 40
71.0
 40
71.0
 40
72.0
 40
72.0
 40
72.0
 40
73.0
 40
73.0
 40
73.0
 40
74.0
 40
74.0
 40
74.0
 40
75.0
 40
75.0
 40
75.0
 40
76.0
 40
76.0
 40
76.0
 40
77.0
 40
77.0
 40
77.0
 40
78.0
 40
78.0
 40
78.0
 40
79.0
 40
79.0
 40
79.0
 40
80.0
 40
80.0
 40
80.0
 40
81.0
 40
81.0
 40
81.0
 40
82.0
 40
82.0
 40
82.0
 40
83.0
 40
83.0
 40
83.0
 40
84.0
 40
84.0
 40
84.0
 40
85.0
 40
85.0
 40
85.0
 40
86.0
 40
86.0
 40
86.0
 40
87.0
 40
87.0
 40
87.0
 40
88.0
 40
88.0
 40
88.0
 40
89.0
 40
89.0
 40
89.0
 40
90.0
 40
90.0
 40
90.0
 40
91.0
 40
91.0
 40
91.0
 40
92.0
 40
92.0
 40
92.0
 40
93.0
 40
93.0
 40
93.0
 40
94.0
 40
94.0
 40
94.0
 40
95.0
 40
95.0
 40
95.0
 40
96.0
 40
96.0
 40
96.0
 40
97.0
 40
97.0
 40
97.0
 40
98.0
 40
98.0
 40
98.0
 40
99.0
 40
99.0
 40
99.0
 40
100.0
 40
100.0
 40
100.0
 40
101.0
 40
101.0
 40
101.0
 40
102.0
 40
102.0
 40
102.0
 40
103.0
 40
103.0
 40
103.0
 40
104.0
 40
104.0
 40
104.0
 40
105.0
 40
105.0
 40
105.0
 40
106.0
 40
106.0
 40
106.0
 40
107.0
 40
107.0
 40
107.0
 40
108.0
 40
108.0
 40
108.0
 40
109.0
 40
109.0
 40
109.0
 40
110.0
 40
110.0
 40
110.0
 40
111.0
 40
111.0
 40
111.0
 40
112.0
 40
112.0
 40
112.0
 40
113.0
 40
113.0
 40
113.0
 40
114.0
 40
114.0
 40
114.0
 40
115.0
 40
115.0
 40
115.0
 40
116.0
 40
116.0
 40
116.0
 40
117.0
 40
117.0
 40
117.0
 40
118.0
 40
118.0
 40
118.0
 40
119.0
 40
119.0
 40
119.0
 40
120.0
 40
120.0
 40
120.0
 40
121.0
 40
121.0
 40
121.0
 40
122.0
 40
122.0
 40
122.0
 40
123.0
 40
123.0
 40
123.0
 40
124.0
 40
124.0
 40
124.0
 40
125.0
 40
125.0
 40
125.0
 40
126.0
 40
126.0
 40
126.0
 40
127.0
 40
127.0
 40
127.0
 40
128.0
 40
128.0
 40
128.0
 40
129.0
 40
129.0
 40
129.0
 40
130.0
 40
130.0
 40
130.0
 40
131.0
 40
131.0
 40
131.0
 40
132.0
 40
132.0
 40
132.0
 40
133.0
 40
133.0
 40
133.0
 40
134.0
 40
134.0
 40
134.0
 40
135.0
 40
135.0
 40
135.0
 40
136.0
 40
136.0
 40
136.0
 40
137.0
 40
137.0
 40
137.0
 40
138.0
 40
138.0
 40
138.0
 40
139.0
 40
139.0
 40
139.0
 40
140.0
 40
140.0
 40
140.0
 40
141.0
 40
141.0
 40
141.0
 40
142.0
 40
142.0
 40
142.0
 40
143.0
 40
143.0
 40
143.0
 40
144.0
 40
144.0
 40
144.0
 40
145.0
 40
145.0
 40
145.0
 40
146.0
 40
146.0
 40
146.0
 40
147.0
 40
147.0
 40
147.0
 40
148.0
 40
148.0
 40
148.0
 40
149.0
 40
149.0
 40
149.0
 40
150.0
 40
150.0
 40
150.0
 40
151.0
 40
151.0
 40
151.0
 40
152.0
 40
152.0
 40
152.0
 40
153.0
 40
153.0
 40
153.0
 40
154.0
 40
154.0
 40
154.0
 40
155.0
 40
155.0
 40
155.0
 40
156.0
 40
156.0
 40
156.0
 40
157.0
 40
157.0
 40
157.0
 40
158.0
 40
158.0
 40
158.0
 40
159.0
 40
159.0
 40
159.0
 40
160.0
 40
160.0
 40
160.0
 40
161.0
 40
161.0
 40
161.0
 40
162.0
 40
162.0
 40
162.0
 40
163.0
 40
163.0
 40
163.0
 40
164.0
 40
164.0
 40
164.0
 40
165.0
 40
165.0
 40
165.0
 40
166.0
 40
166.0
 40
166.0
 40
167.0
 40
167.0
 40
167.0
 40
168.0
 40
168.0
 40
168.0
 40
169.0
 40
169.0
 40
169.0
 40
170.0
 40
170.0
 40
170.0
 40
171.0
 40
171.0
 40
171.0
 40
172.0
 40
172.0
 40
172.0
 40
173.0
 40
173.0
 40
173.0
 40
174.0
 40
174.0
 40
174.0
 40
175.0
 40
175.0
 40
175.0
 40
176.0
 40
176.0
 40
176.0
 40
177.0
 40
177.0
 40
177.0
 40
178.0
 40
178.0
 40
178.0
 40
179.0
 40
179.0
 40
179.0
 40
180.0
 40
180.0
 40
180.0
 40
181.0
 40
181.0
 40
181.0
 40
182.0
 40
182.0
 40
182.0
 40
183.0
 40
183.0
 40
183.0
 40
184.0
 40
184.0
 40
184.0
 40
185.0
 40
185.0
 40
185.0
 40
186.0
 40
186.0
 40
186.0
 40
187.0
 40
187.0
 40
187.0
 40
188.0
 40
188.0
 40
188.0
 40
189.0
 40
189.0
 40
189.0
 40
190.0
 40
190.0
 40
190.0
 40
191.0
 40
191.0
 40
191.0
 40
192.0
 40
192.0
 40
192.0
 40
193.0
 40
193.0
 40
193.0
 40
194.0
 40
194.0
 40
194.0
 40
195.0
 40
195.0
 40
195.0
 40
196.0
 40
196.0
 40
196.0
 40
197.0
 40
197.0
 40
197.0
 40
198.0
 40
198.0
 40
198.0
 40
199.0
 40
199.0
 40
199.0
 40
200.0
 40
200.0
 40
200.0
 40
201.0
 40
201.0
 40
201.0
 40
202.0
 40
202.0
 40
202.0
 40
203.0
 40
203.0
 40
203.0
 40
204.0
 40
204.0
 40
204.0
 40
205.0
 40
205.0
 40
205.0
 40
206.0
 40
206.0
 40
206.0
 40
207.0
 40
207.0
 40
207.0
 40
208.0
 40
208.0
 40
208.0
 40
209.0
 40
209.0
 40
209.0
 40
210.0
 40
210.0
 40
210.0
 40
211.0
 40
211.0
 40
211.0
 40
212.0
 40
212.0
 40
212.0
 40
213.0
 40
213.0
 40
213.0
 40
214.0
 40
214.0
 40
214.0
 40
215.0
 40
215.0
 40
215.0
 40
216.0
 40
216.0
 40
216.0
 40
217.0
 40
217.0
 40
217.0
 40
218.0
 40
218.0
 40
218.0
 40
219.0
 40
219.0
 40
219.0
 40
220.0
 40
220.0
 40
220.0
 40
221.0
 40
221.0
 40
221.0
 40
222.0
 40
222.0
 40
222.0
 40
223.0
 40
223.0
 40
223.0
 40
224.0
 40
224.0
 40
224.0
 40
225.0
 40
225.0
 40
225.0
 40
226.0
 40
226.0
 40
226.0
 40
227.0
 40
227.0
 40
227.0
 40
228.0
 40
228.0
 40
228.0
 40
229.0
 40
229.0
 40
229.0
 40
230.0
 40
230.0
 40
230.0
 40
231.0
 40
231.0
 40
231.0
 40
232.0
 40
232.0
 40
232.0
 40
233.0
 40
233.0
 40
233.0
 40
234.0
 40
234.0
 40
234.0
 40
235.0
 40
235.0
 40
235.0
 40
236.0
 40
236.0
 40
236.0
 40
237.0
 40
237.0
 40
237.0
 40
238.0
 40
238.0
 40
238.0
 40
239.0
 40
239.0
 40
239.0
 40
240.0
 40
240.0
 40
240.0
 40
241.0
 40
241.0
 40
241.0
 40
242.0
 40
242.0
 40
242.0
 40
243.0
 40
243.0
 40
243.0
 40
244.0
 40
244.0
 40
244.0
 40
245.0
 40
245.0
 40
245.0
 40
246.0
 40
246.0
 40
246.0
 40
247.0
 40
247.0
 40
247.0
 40
248.0
 40
248.0
 40
248.0
 40
249.0
 40
249.0
 40
249.0
 40
250.0
 40
250.0
 40
250.0
 40
251.0
 40
251.0
 40
251.0
 40
252.0
 40
252.0
 40
252.0
 40
253.0
 40
253.0
 40
253.0
 40
254.0
 40
254.0
 40
254.0
 40
255.0
 40
255.0
 40
255.0
 40
256.0
 40
256.0
 40
256.0
 40
257.0
 40
257.0
 40
257.0
 40
258.0
 40
258.0
 40
258.0
 40
259.0
 40
259.0
 40
259.0
 40
260.0
 40
260.0
 40
260.0
 40
261.0
 40
261.0
 40
261.0
 40
262.0
 40
262.0
 40
262.0
 40
263.0
 40
263.0
 40
263.0
 40
264.0
 40
264.0
 40
264.0
 40
265.0
 40
265.0
 40
265.0
 40
266.0
 40
266.0
 40
266.0
 40
267.0
 40
267.0
 40
267.0
 40
268.0
 40
268.0
 40
268.0
 40
269.0
 40
269.0
 40
269.0
 40
270.0
 40
270.0
 40
270.0
 40
271.0
 40
271.0
 40
271.0
 40
272.0
 40
272.0
 40
272.0
 40
273.0
 40
273.0
 40
273.0
 40
274.0
 40
274.0
 40
274.0
 40
275.0
 40
275.0
 40
275.0
 40
276.0
 40
276.0
 40
276.0
 40
277.0
 40
277.0
 40
277.0
 40
278.0
 40
278.0
 40
278.0
 40
279.0
 40
279.0
 40
279.0
 40
280.0
 40
280.0
 40
280.0
 40
281.0
 40
281.0
 40
281.0
 40
282.0
 40
282.0
 40
282.0
 40
283.0
 40
283.0
 40
283.0
 40
284.0
 40
284.0
 40
284.0
 40
285.0
 40
285.0
 40
285.0
 40
286.0
 40
286.0
 40
286.0
 40
287.0
 40
287.0
 40
287.0
 40
288.0
 40
288.0
 40
288.0
 40
289.0
 40
289.0
 40
289.0
 40
290.0
 40
290.0
 40
290.0
 40
291.0
 40
291.0
 40
291.0
 40
292.0
 40
292.0
 40
292.0
 40
293.0
 40
293.0
 40
293.0
 40
294.0
 40
294.0
 40
294.0
 40
295.0
 40
295.0
 40
295.0
 40
296.0
 40
296.0
 40
296.0
 40
297.0
 40
297.0
 40
297.0
 40
298.0
 40
298.0
 40
298.0
 40
299.0
 40
299.0
 40
299.0
 40
300.0
 40
300.0
 40
300.0
 40
301.0
 40
301.0
 40
301.0
 40
302.0
 40
302.0
 40
302.0
 40
303.0
 40
303.0
 40
303.0
 40
304.0
 40
304.0
 40
304.0
 40
305.0
 40
305.0
 40
305.0
 40
306.0
 40
306.0
 40
306.0
 40
307.0
 40
307.0
 40
307.0
 40
308.0
 40
308.0
 40
308.0
 40
309.0
 40
309.0
 40
309.0
 40
310.0
 40
310.0
 40
310.0
 40
311.0
 40
311.0
 40
311.0
 40
312.0
 40
312.0
 40
312.0
 40
313.0
 40
313.0
 40
313.0
 40
314.0
 40
314.0
 40
314.0
 40
315.0
 40
315.0
 40
315.0
 40
316.0
 40
316.0
 40
316.0
 40
317.0
 40
317.0
 40
317.0
 40
318.0
 40
318.0
 40
318.0
 40
319.0
 40
319.0
 40
319.0
 40
320.0
 40
320.0
 40
320.0
 40
321.0
 40
321.0
 40
321.0
 40
322.0
 40
322.0
 40
322.0
 40
323.0
 40
323.0
 40
323.0
 40
324.0
 40
324.0
 40
324.0
 40
325.0
 40
325.0
 40
325.0
 40
326.0
 40
326.0
 40
326.0
 40
327.0
 40
327.0
 40
327.0
 40
328.0
 40
328.0
 40
328.0
 40
329.0
 40
329.0
 40
329.0
 40
330.0
 40
330.0
 40
330.0
 40
331.0
 40
331.0
 40
331.0
 40
332.0
 40
332.0
 40
332.0
 40
333.0
 40
333.0
 40
333.0
 40
334.0
 40
334.0
 40
334.0
 40
335.0
 40
335.0
 40
335.0
 40
336.0
 40
336.0
 40
336.0
 40
337.0
 40
337.0
 40
337.0
 40
338.0
 40
338.0
 40
338.0
 40
339.0
 40
339.0
 40
339.0
 40
340.0
 40
340.0
 40
340.0
 40
341.0
 40
341.0
 40
341.0
 40
342.0
 40
342.0
 40
342.0
 40
343.0
 40
343.0
 40
343.0
 40
344.0
 40
344.0
 40
344.0
 40
345.0
 40
345.0
 40
345.0
 40
346.0
 40
346.0
 40
346.0
 40
347.0
 40
347.0
 40
347.0
 40
348.0
 40
348.0
 40
348.0
 40
349.0
 40
349.0
 40
349.0
 40
350.0
 40
350.0
 40
350.0
 40
351.0
 40
351.0
 40
351.0
 40
352.0
 40
352.0
 40
352.0
 40
353.0
 40
353.0
 40
353.0
 40
354.0
 40
354.0
 40
354.0
 40
355.0
 40
355.0
 40
355.0
 40
356.0
 40
356.0
 40
356.0
 40
357.0
 40
357.0
 40
357.0
 40
358.0
 40
358.0
 40
358.0
 40
359.0
 40
359.0
 40
359.0
 40
360.0
 40
360.0
 40
360.0
 40
361.0
 40
361.0
 40
361.0
 40
362.0
 40
362.0
 40
362.0
 40
363.0
 40
363.0
 40
363.0
 40
364.0
 40
364.0
 40
364.0
 40
365.0
 40
365.0
 40
365.0
 40
366.0
 40
366.0
 40
366.0
 40
367.0
 40
367.0
 40
367.0
 40
368.0
 40
368.0
 40
368.0
 40
369.0
 40
369.0
 40
369.0
 40
370.0
 40
370.0
 40
370.0
 40
371.0
 40
371.0
 40
371.0
 40
372.0
 40
372.0
 40
372.0
 40
373.0
 40
373.0
 40
373.0
 40
374.0
 40
374.0
 40
374.0
 40
375.0
 40
375.0
 40
375.0
 40
376.0
 40
376.0
 40
376.0
 40
377.0
 40
377.0
 40
377.0
 40
378.0
 40
378.0
 40
378.0
 40
379.0
 40
379.0
 40
379.0
 40
380.0
 40
380.0
 40
380.0
 40
381.0
 40
381.0
 40
381.0
 40
382.0
 40
382.0
 40
382.0
 40
383.0
 40
383.0
 40
383.0
 40
384.0
 40
384.0
 40
384.0
 40
385.0
 40
385.0
 40
385.0
 40
386.0
 40
386.0
 40
386.0
 40
387.0
 40
387.0
 40
387.0
 40
388.0
 40
388.0
 40
388.0
 40
389.0
 40
389.0
 40
389.0
 40
390.0
 40
390.0
 40
390.0
 40
391.0
 40
391.0
 40
391.0
 40
392.0
 40
392.0
 40
392.0
 40
393.0
 40
393.0
 40
393.0
 40
394.0
 40
394.0
 40
394.0
 40
395.0
 40
395.0
 40
395.0
 40
396.0
 40
396.0
 40
396.0
 40
397.0
 40
397.0
 40
397.0
 40
398.0
 40
398.0
 40
398.0
 40
399.0
 40
399.0
 40
399.0
 40
400.0
 40
400.0
 40
400.0
 40
401.0
 40
401.0
 40
401.0
 40
402.0
 40
402.0
 40
402.0
 40
403.0
 40
403.0
 40
403.0
 40
404.0
 40
404.0
 40
404.0
 40
405.0
 40
405.0
 40
405.0
 40
406.0
 40
406.0
 40
406.0
 40
407.0
 40
407.0
 40
407.0
 40
408.0
 40
408.0
 40
408.0
 40
409.0
 40
409.0
 40
409.0
 40
410.0
 40
410.0
 40
410.0
 40
411.0
 40
411.0
 40
411.0
 40
412.0
 40
412.0
 40
412.0
 40
413.0
 40
413.0
 40
413.0
 40
414.0
 40
414.0
 40
414.0
 40
415.0
 40
415.0
 40
415.0
 40
416.0
 40
416.0
 40
416.0
 40
417.0
 40
417.0
 40
417.0
 40
418.0
 40
418.0
 40
418.0
 40
419.0
 40
419.0
 40
419.0
 40
420.0
 40
420.0
 40
420.0
 40
421.0
 40
421.0
 40
421.0
 40
422.0
 40
422.0
 40
422.0
 40
423.0
 40
423.0
 40
423.0
 40
424.0
 40
424.0
 40
424.0
 40
425.0
 40
425.0
 40
425.0
 40
426.0
 40
426.0
 40
426.0
 40
427.0
 40
427.0
 40
427.0
 40
428.0
 40
428.0
 40
428.0
 40
429.0
 40
429.0
 40
429.0
 40
430.0
 40
430.0
 40
430.0
 40
431.0
 40
431.0
 40
431.0
 40
432.0
 40
432.0
 40
432.0
 40
433.0
 40
433.0
 40
433.0
 40
434.0
 40
434.0
 40
434.0
 40
434.0
 10
139.7174304932723
 20
-303.2762146510977
 10
139.7174304932723
 20
-303.2762146510977
 10
139.670530493273
 20
-303.3172146500619
 10
139.6598304932741
 20
-303.3484146492738
 10
139.6491304932715
 20
-303.3807146484578
 10
139.6798304932727
 20
-303.4383146470027
 10
139.6950304932725
 20
-303.4754146460655
 10
139.7130304932725
 20
-303.5115119831316
 10
139.733030493273
 20
-303.8416146368145
 10
139.7282304932723
 20
-303.9041146352356
 10
139.7223304932741
 20
-303.9666146336567
 10
139.7057304932714
 20
-304.0086146325957
 10
139.6950304932725
 20
-304.0828146307213
 10
139.6857304932728
 20
-304.1551146288948
 10
139.7130304932725
 20
-304.7986146126386
 10
139.7282304932723
 20
-305.2645119831323
 10
139.7433304932729
 20
-305.7293145891272
 10
139.7682304932714
 20
-306.1902145774839
 10
139.7633304932715
 20
-306.2215119831326
 10
139.7599304932737
 20
-306.252714575905
 10
139.7599304932737
 20
-306.2840145751143
 10
139.749630493272
 20
-306.3064145745484
 10
139.7389304932731
 20
-306.3260145740533
 10
139.7633304932715
 20
-306.3895119831323
 10
139.7741304932715
 20
-306.4217145716357
 10
139.7858304932724
 20
-306.4520145708702
 10
139.7965304932732
 20
-306.5008145696374
 10
139.7965304932732
 20
-306.531114568872
 10
139.7965304932732
 20
-306.5633145680586
 10
139.7799304932723
 20
-306.6033145670481
 10
139.7858304932724
 20
-306.6668145654439
 10
139.789730493274
 20
-306.7303145638398
 10
139.8165304932736
 20
-307.7283145386282
 10
139.8307304932714
 20
-308.1687145275027
 10
139.8473304932741
 20
-308.6072145164253
 10
139.8942304932716
 20
-309.1727119831321
 10
139.8942304932716
 20
-309.1980119831314
 10
139.8942304932716
 20
-309.2244119831321
 10
139.9215304932732
 20
-309.2361119831312
 10
139.9215304932732
 20
-309.2361119831312
 10
139.9215304932732
 20
-309.2361119831312
 10
139.9484304932739
 20
-309.330911983132
 10
139.9484304932739
 20
-309.330911983132
 10
139.954730493273
 20
-309.3504119831323
 10
139.9249304932728
 20
-309.440211983132
 10
139.9215304932732
 20
-309.502711983132
 10
139.9157304932723
 20
-309.565211983132
 10
139.9323304932732
 20
-310.1414119831315
 10
139.954730493273
 20
-310.6180119831315
 10
139.9747304932716
 20
-311.0936119831313
 10
140.0158304932738
 20
-311.9305119831315
 10
140.0158304932738
 20
-311.961711983131
 10
140.0158304932738
 20
-311.9930119831315
 10
140.0407304932723
 20
-311.9930119831315
 10
140.061730493273
 20
-311.9930119831315
 10
140.0841304932728
 20
-311.9930119831315
 10
140.0831304932726
 20
-312.0340119831326
 10
140.0831304932726
 20
-312.0672119831324
 10
140.0831304932726
 20
-312.0984119831319
 10
140.0783304932738
 20
-312.1707119831317
 10
140.0690304932723
 20
-312.2137119831314
 10
140.0582304932723
 20
-312.2557119831326
 10
140.0993304932726
 20
-312.745911983131
 10
140.1090304932732
 20
-313.0711119831321
 10
140.1193304932731
 20
-313.394311983131
 10
140.1725304932734
 20
-314.4930119831315
 10
140.1725304932734
 20
-314.5203119831313
 10
140.1725304932734
 20
-314.5477119831321
 10
140.2716304932728
 20
-314.5564119831324
 10
140.2716304932728
 20
-314.5564119831324
 10
140.2716304932728
 20
-314.5564119831324
 10
140.3024304932733
 20
-314.8445119831322
 10
140.3234304932739
 20
-315.2312119831313
 10
140.3449304932728
 20
-315.6199119831326
 10
140.381030493274
 20
-316.2205119831324
 10
140.381030493274
 20
-316.2410119831311
 10
140.381030493274
 20
-316.2625119831318
 10
140.4391304932724
 20
-316.3416119831327
 10
140.4391304932724
 20
-316.3416119831327
 10
140.4391304932724
 20
-316.3416119831327
 10
140.4391304932724
 20
-316.5496119831314
 10
140.4391304932724
 20
-316.5496119831314
 10
140.4391304932724
 20
-316.644311983131
 10
140.381030493274
 20
-317.0477119831321
 10
140.3610304932736
 20
-317.1355119831314
 10
140.3400304932729
 20
-317.2254119831323
 10
140.3493304932726
 20
-317.2361119831312
 10
140.3493304932726
 20
-317.2664119831315
 10
140.3493304932726
 20
-317.2986119831312
 10
140.4235304932736
 20
-317.495911983131
 10
140.4391304932724
 20
-317.5643119831311
 10
140.4552304932731
 20
-317.6326119831319
 10
140.4484304932739
 20
-317.5965119831326
 10
140.4552304932731
 20
-317.6844119831312
 10
140.4591304932728
 20
-317.774211983131
 10
140.6203304932715
 20
-317.8523119831316
 10
140.6203304932715
 20
-317.8523119831316
 10
140.6203304932715
 20
-317.8523119831316
 10
140.6159304932735
 20
-317.9158119831318
 10
140.6325304932725
 20
-318.0057119831326
 10
140.6486304932732
 20
-318.0945119831322
 10
140.8043304932726
 20
-318.3191119831317
 10
140.8268304932717
 20
-318.3553119831322
 10
140.8468304932721
 20
-318.3924119831318
 10
140.863430493273
 20
-318.4285119831311
 10
140.8678304932728
 20
-318.4490119831316
 10
140.8717304932725
 20
-318.4695119831322
 10
140.9528304932719
 20
-318.3025119831327
 10
140.9679304932724
 20
-318.2879119831323
 10
140.9845304932714
 20
-318.2723119831317
 10
140.9977304932727
 20
-318.2977119831321
 10
140.9977304932727
 20
-318.2977119831321
 10
140.9977304932727
 20
-318.2977119831321
 10
141.131030493274
 20
-318.433411983131
 10
141.131030493274
 20
-318.433411983131
 10
141.131030493274
 20
-318.433411983131
 10
141.1452304932718
 20
-318.4285119831311
 10
141.1661304932732
 20
-318.2977119831321
 10
141.1862304932729
 20
-318.166811983132
 10
141.2653304932719
 20
-318.0145119831323
 10
141.2711304932727
 20
-317.9939119831324
 10
141.2770304932728
 20
-317.972511983131
 10
141.2755304932725
 20
-317.9158119831318
 10
141.2877304932736
 20
-317.8738119831323
 10
141.2960304932731
 20
-317.830911983132
 10
141.3346304932729
 20
-317.8211119831321
 10
141.3546304932715
 20
-317.8006119831316
 10
141.3737304932729
 20
-317.7811119831313
 10
141.3912304932728
 20
-317.7654119831313
 10
141.4122304932716
 20
-317.7156119831325
 10
141.4337304932724
 20
-317.6697119831315
 10
141.4279304932716
 20
-317.6746119831314
 10
141.4337304932724
 20
-317.6121119831314
 10
141.437130493272
 20
-317.5506119831316
 10
141.4845304932714
 20
-317.3299119831318
 10
141.5011304932723
 20
-317.2830119831324
 10
141.517230493273
 20
-317.2361119831312
 10
141.510430493272
 20
-317.1092119831319
 10
141.4845304932714
 20
-317.0223119831317
 10
141.4596304932729
 20
-316.9314119831324
 10
141.3546304932715
 20
-316.4764119831325
 10
141.3488304932725
 20
-316.4041119831327
 10
141.3439304932726
 20
-316.331811983131
 10
141.3654304932716
 20
-316.3201119831319
 10
141.385430493272
 20
-316.2732119831326
 10
141.4054304932724
 20
-316.2254119831323
 10
141.4122304932716
 20
-316.2205119831324
 10
141.4220304932714
 20
-316.1629119831323
 10
141.4337304932724
 20
-316.1053119831322
 10
141.4054304932724
 20
-315.4832119831317
 10
141.4122304932716
 20
-315.2371119831314
 10
141.4171304932715
 20
-314.9900119831327
 10
141.4171304932715
 20
-314.6131119831316
 10
141.4220304932714
 20
-314.5613119831323
 10
141.4279304932716
 20
-314.5096119831323
 10
141.4220304932714
 20
-314.5145119831323
 10
141.4528304932719
 20
-314.4930119831315
 10
141.4845304932714
 20
-314.4715119831326
 10
141.4962304932724
 20
-314.5145119831323
 10
141.517230493273
 20
-314.5203119831313
 10
141.5372304932716
 20
-314.5262119831314
 10
141.4796304932715
 20
-314.0389119831325
 10
141.4645304932728
 20
-313.5994119831321
 10
141.4489304932722
 20
-313.1590119831326
 10
141.4386304932723
 20
-312.2762119831314
 10
141.4337304932724
 20
-312.2186119831313
 10
141.4279304932716
 20
-312.1590119831326
 10
141.4279304932716
 20
-312.1502119831312
 10
141.4122304932716
 20
-312.1131119831316
 10
141.3961304932727
 20
-312.0770119831323
 10
141.4122304932716
 20
-312.0086119831321
 10
141.4171304932715
 20
-311.9715119831326
 10
141.4220304932714
 20
-311.9354119831314
 10
141.4689304932726
 20
-311.9236119831312
 10
141.4904304932716
 20
-311.9139119831325
 10
141.510430493272
 20
-311.9031119831325
 10
141.4845304932714
 20
-311.8045119831313
 10
141.4796304932715
 20
-311.7586119831321
 10
141.4738304932725
 20
-311.711711983131
 10
141.4596304932729
 20
-311.0623119831325
 10
141.4445304932724
 20
-310.6062119831313
 10
141.4279304932716
 20
-310.1512119831314
 10
141.4386304932723
 20
-309.9041119831327
 10
141.4337304932724
 20
-309.7996119831314
 10
141.4279304932716
 20
-309.6961119831321
 10
141.4122304932716
 20
-309.461711983131
 10
141.4020304932728
 20
-309.4080119831324
 10
141.3912304932728
 20
-309.3562119831313
 10
141.3961304932727
 20
-309.3562119831313
 10
141.3912304932728
 20
-309.3143119831311
 10
141.385430493272
 20
-309.2713119831315
 10
141.3912304932728
 20
-309.2664119831315
 10
141.3912304932728
 20
-309.2361119831312
 10
141.3912304932728
 20
-309.2029119831313
 10
141.4528304932719
 20
-309.1727119831321
 10
141.4528304932719
 20
-309.1727119831321
 10
141.4528304932719
 20
-309.1727119831321
 10
141.4645304932728
 20
-308.9891119831318
 10
141.4445304932724
 20
-308.6229145160287
 10
141.4220304932714
 20
-308.2557145253049
 10
141.4445304932724
 20
-307.833814535963
 10
141.4445304932724
 20
-307.4568145454868
 10
141.4445304932724
 20
-307.0809145549829
 10
141.4220304932714
 20
-306.6668145654439
 10
141.4220304932714
 20
-306.6141145667752
 10
141.4220304932714
 20
-306.5633145680586
 10
141.4122304932716
 20
-306.5574145682076
 10
141.3961304932727
 20
-306.531114568872
 10
141.3805304932721
 20
-306.5037145695642
 10
141.385430493272
 20
-306.4314145713906
 10
141.3961304932727
 20
-306.3895119831323
 10
141.4064304932726
 20
-306.3484145734874
 10
141.4054304932724
 20
-306.3533145733636
 10
141.4489304932722
 20
-306.323014574129
 10
141.4889304932731
 20
-306.2898145749677
 10
141.4796304932715
 20
-306.3104145744473
 10
141.4689304932726
 20
-306.2840145751143
 10
141.4596304932729
 20
-306.2586145757559
 10
141.4489304932722
 20
-305.9227145842415
 10
141.4528304932719
 20
-305.6941145900164
 10
141.4596304932729
 20
-305.4637145958368
 10
141.4645304932728
 20
-304.9715119831326
 10
141.4689304932726
 20
-304.6209146171277
 10
141.4747304932716
 20
-304.2693146260099
 10
141.4528304932719
 20
-304.0193146323254
 10
141.4386304932723
 20
-303.9354146344449
 10
141.4220304932714
 20
-303.8523146365442
 10
141.4171304932715
 20
-303.6375119831318
 10
141.4054304932724
 20
-303.5330146446104
 10
141.3961304932727
 20
-303.4275119831327
 10
141.4054304932724
 20
-303.481214645919
 10
141.4445304932724
 20
-303.4275119831327
 10
141.4796304932715
 20
-303.3758146485816
 10
141.4747304932716
 20
-303.3289146497664
 10
141.4528304932719
 20
-303.2762146510977
 10
141.4337304932724
 20
-303.222511983131
 10
141.4122304932716
 20
-302.8465119831326
 10
141.4122304932716
 20
-302.6805119831315
 10
141.4122304932716
 20
-302.513511983132
 10
141.4171304932715
 20
-301.9734146840092
 10
141.4171304932715
 20
-301.848414687167
 10
141.4171304932715
 20
-301.7215119831326
 10
141.4528304932719
 20
-301.638511983132
 10
141.4528304932719
 20
-301.5916146936543
 10
141.4528304932719
 20
-301.5447146948391
 10
141.4171304932715
 20
-301.4393146975017
 10
141.4020304932728
 20
-301.4090146982671
 10
141.385430493272
 20
-301.3768146990806
 10
141.4171304932715
 20
-300.8484147124291
 10
141.4171304932715
 20
-300.8113147133663
 10
141.4171304932715
 20
-300.776214714253
 10
141.4220304932714
 20
-300.7547147147961
 10
141.4337304932724
 20
-300.7117147158824
 10
141.4430304932721
 20
-300.6697147169434
 10
141.4445304932724
 20
-300.656114717287
 10
141.4489304932722
 20
-300.6229147181257
 10
141.4528304932719
 20
-300.5916147189164
 10
141.4171304932715
 20
-300.566214719558
 10
141.4171304932715
 20
-300.566214719558
 10
141.4171304932715
 20
-300.566214719558
 10
141.4337304932724
 20
-300.1531147299938
 10
141.4337304932724
 20
-300.1277147306355
 10
141.4337304932724
 20
-300.1014147312999
 10
141.4386304932723
 20
-300.0945119831322
 10
141.4489304932722
 20
-300.0643147322371
 10
141.4596304932729
 20
-300.0320147330531
 10
141.4489304932722
 20
-300.0271147331769
 10
141.4337304932724
 20
-299.995914733965
 10
141.4171304932715
 20
-299.9646147347557
 10
141.4386304932723
 20
-299.4939147466466
 10
141.4386304932723
 20
-299.4324147482002
 10
141.4386304932723
 20
-299.3689147498044
 10
141.4596304932729
 20
-299.0857147569586
 10
141.4596304932729
 20
-299.0857147569586
 10
141.4596304932729
 20
-299.0857147569586
 10
141.510430493272
 20
-299.1795119831313
 10
141.5221304932729
 20
-299.2322147532577
 10
141.5328304932737
 20
-299.2850147519239
 10
141.6271304932725
 20
-299.545714745338
 10
141.6481304932731
 20
-299.587714744277
 10
141.6681304932717
 20
-299.6307147431908
 10
141.7887304932738
 20
-300.4305119831315
 10
141.8722304932726
 20
-300.9529147097892
 10
141.9557304932714
 20
-301.4773146965417
 10
142.102230493274
 20
-302.3191146752761
 10
142.1749304932728
 20
-302.7215119831326
 10
142.249230493273
 20
-303.1258146548971
 10
142.3317304932716
 20
-303.3123146501857
 10
142.488430493273
 20
-303.5437146443401
 10
142.488430493273
 20
-303.5437146443401
 10
142.772630493273
 20
-303.9568146339043
 10
142.772630493273
 20
-303.9568146339043
 10
142.772630493273
 20
-303.9568146339043
 10
142.8244304932723
 20
-304.0193146323254
 10
142.8244304932723
 20
-304.0193146323254
 10
142.8502304932736
 20
-304.0525119831327
 10
142.9494304932723
 20
-304.1551146288948
 10
142.976730493272
 20
-304.1824146282052
 10
143.0011304932723
 20
-304.2078146275635
 10
143.039230493272
 20
-304.2654146261084
 10
143.0543304932726
 20
-304.2859146255905
 10
143.0709304932716
 20
-304.3074146250474
 10
143.0802304932731
 20
-304.3328146244057
 10
143.0958304932719
 20
-304.3592146237388
 10
143.1119304932727
 20
-304.3865119831316
 10
143.1852304932727
 20
-304.4744146208286
 10
143.1852304932727
 20
-304.4744146208286
 10
143.1852304932727
 20
-304.4744146208286
 10
143.2218304932721
 20
-304.5213146196438
 10
143.2326304932722
 20
-304.5477146189769
 10
143.2428304932728
 20
-304.5730146183378
 10
143.2526304932726
 20
-304.5857146180169
 10
143.2745304932723
 20
-304.5994146176708
 10
143.2960304932731
 20
-304.6160146172515
 10
143.3209304932716
 20
-304.6570146162157
 10
143.3209304932716
 20
-304.6570146162157
 10
143.3209304932716
 20
-304.6570146162157
 10
143.3893304932717
 20
-304.7928146127852
 10
143.4254304932729
 20
-304.8348146117241
 10
143.4620304932723
 20
-304.8787146106151
 10
143.5319304932727
 20
-305.0086146073336
 10
143.5319304932727
 20
-305.0086146073336
 10
143.5319304932727
 20
-305.0086146073336
 10
143.618830493273
 20
-305.1180146045699
 10
143.6720304932714
 20
-305.1922146026955
 10
143.7252304932736
 20
-305.2645119831323
 10
143.8546304932715
 20
-305.4217145968978
 10
144.329730493273
 20
-305.5262145942579
 10
144.8068304932731
 20
-305.630714591618
 10
145.2360304932736
 20
-305.7254145892257
 10
145.5494304932727
 20
-305.7566145884375
 10
145.8629304932729
 20
-305.7879145876468
 10
146.3029304932716
 20
-305.8504145860679
 10
146.3771304932725
 20
-305.8602145858204
 10
146.4489304932722
 20
-305.8709145855501
 10
147.0040304932736
 20
-305.9227145842415
 10
147.0558304932729
 20
-305.9227145842415
 10
147.1090304932732
 20
-305.9227145842415
 10
147.2291304932733
 20
-305.9656145831577
 10
147.2868304932726
 20
-305.9715119831326
 10
147.3434304932725
 20
-305.9764145828849
 10
147.4801304932735
 20
-306.006614582122
 10
147.7677304932731
 20
-306.0281145815788
 10
148.0553304932728
 20
-306.0496145810357
 10
148.5153304932719
 20
-306.1072145795806
 10
148.6661304932732
 20
-306.1268145790855
 10
148.8190304932723
 20
-306.1482145785449
 10
149.0079304932733
 20
-306.2322145764228
 10
149.0607304932728
 20
-306.2322145764228
 10
149.1115304932719
 20
-306.2322145764228
 10
149.3058304932729
 20
-306.2693145754856
 10
149.5465304932732
 20
-306.2742145753618
 10
149.7868304932726
 20
-306.2791145752381
 10
150.006030493274
 20
-306.3064145745484
 10
150.006030493274
 20
-306.3064145745484
 10
150.006030493274
 20
-306.3064145745484
 10
150.0910304932731
 20
-306.3582145732398
 10
150.2477304932727
 20
-306.3895119831323
 10
150.4044304932722
 20
-306.4217145716357
 10
150.4352304932727
 20
-306.405114572055
 10
150.5812304932733
 20
-306.4100145719312
 10
150.727230493274
 20
-306.41481457181
 10
151.1154304932716
 20
-306.447114570994
 10
151.1471304932729
 20
-306.447114570994
 10
151.1788304932725
 20
-306.447114570994
 10
151.2579304932733
 20
-306.4217145716357
 10
151.5607304932728
 20
-306.3895119831323
 10
151.863430493273
 20
-306.3582145732398
 10
152.4201304932722
 20
-306.3416145736592
 10
152.4494304932723
 20
-306.3416145736592
 10
152.4811304932737
 20
-306.3416145736592
 10
152.5270304932728
 20
-306.3416145736592
 10
152.6286304932728
 20
-306.323014574129
 10
152.7277304932722
 20
-306.3006145746949
 10
153.2511304932723
 20
-306.2166145768169
 10
153.2755304932725
 20
-306.2117145769407
 10
153.3014304932731
 20
-306.2059145770872
 10
153.4689304932726
 20
-306.1902145774839
 10
153.4962304932724
 20
-306.1863145775824
 10
153.5206304932726
 20
-306.1805119831315
 10
153.5480304932717
 20
-306.1639145781483
 10
153.5480304932717
 20
-306.1639145781483
 10
153.5480304932717
 20
-306.1639145781483
 10
153.7355304932717
 20
-306.1482145785449
 10
153.7355304932717
 20
-306.1482145785449
 10
153.7355304932717
 20
-306.1482145785449
 10
153.8356304932731
 20
-306.1268145790855
 10
153.8356304932731
 20
-306.1268145790855
 10
153.8615304932719
 20
-306.1219145792093
 10
153.9933304932729
 20
-306.1336145789137
 10
154.0490304932719
 20
-306.1268145790855
 10
154.1076304932722
 20
-306.1219145792093
 10
154.1139304932731
 20
-306.1268145790855
 10
154.175930493273
 20
-306.1219145792093
 10
154.238430493273
 20
-306.118914579285
 10
154.6369304932723
 20
-306.1023145797044
 10
154.6369304932723
 20
-306.1023145797044
 10
154.6369304932723
 20
-306.1023145797044
 10
154.7301304932735
 20
-306.1072145795806
 10
154.756030493274
 20
-306.1102145795048
 10
154.7833304932719
 20
-306.1180145793078
 10
154.8244304932723
 20
-306.1102145795048
 10
154.8502304932736
 20
-306.1102145795048
 10
154.8761304932723
 20
-306.1102145795048
 10
154.9503304932732
 20
-306.1268145790855
 10
155.0011304932723
 20
-306.1180145793078
 10
155.0553304932728
 20
-306.1072145795806
 10
155.368830493273
 20
-306.0965119831326
 10
155.4347304932726
 20
-306.0916145799747
 10
155.5045304932719
 20
-306.0857145801237
 10
155.624630493272
 20
-306.0916145799747
 10
155.7086304932727
 20
-306.0916145799747
 10
155.7921304932715
 20
-306.0916145799747
 10
155.7413304932725
 20
-306.0916145799747
 10
156.0231304932731
 20
-306.0594145807881
 10
156.3038304932725
 20
-306.0281145815788
 10
156.2990304932719
 20
-306.0330145814551
 10
156.3258304932715
 20
-306.0330145814551
 10
156.352230493274
 20
-306.0330145814551
 10
156.352230493274
 20
-306.0281145815788
 10
156.3839304932735
 20
-306.013511983132
 10
156.414230493272
 20
-305.996914582367
 10
156.6349304932737
 20
-306.013511983132
 10
156.6676304932735
 20
-306.0018145822432
 10
156.6984304932739
 20
-305.9900145825413
 10
156.897630493273
 20
-306.0018145822432
 10
156.9425304932738
 20
-305.996914582367
 10
156.9909304932735
 20
-305.9930145824655
 10
157.5328304932737
 20
-305.914814584441
 10
158.1305304932721
 20
-305.834814586462
 10
158.726730493272
 20
-305.7566145884375
 10
160.4288304932725
 20
-305.4090145972186
 10
161.0739304932722
 20
-305.222511983131
 10
162.5304304932724
 20
-304.8035119831311
 10
163.1481304932731
 20
-304.4178146222584
 10
163.294130493272
 20
-304.1092146300543
 10
163.7540304932736
 20
-303.1307146547733
 10
163.3615304932719
 20
-302.1238146802098
 10
162.7638304932734
 20
-301.3602146994999
 10
162.1686304932737
 20
-300.5965119831326
 10
161.2789304932739
 20
-300.1277147306355
 10
160.6090304932732
 20
-299.8816147368525
 10
159.9396304932725
 20
-299.6346147430922
 10
158.6788304932725
 20
-299.425614748372
 10
157.868830493273
 20
-299.3426147504688
 10
157.0578304932715
 20
-299.2576147526161
 10
155.5011304932723
 20
-299.1277147558976
 10
154.7301304932735
 20
-299.0701147573527
 10
153.9616304932715
 20
-299.0125119831318
 10
152.8844304932718
 20
-298.9187147611774
 10
152.256030493274
 20
-298.8875119831318
 10
151.6290304932736
 20
-298.8543147628043
 10
151.1730304932717
 20
-298.8504147629028
 10
151.153030493273
 20
-298.8504147629028
 10
151.1315304932723
 20
-298.8504147629028
 10
151.1212304932724
 20
-298.8240147635697
 10
151.0997304932716
 20
-298.8143147638148
 10
151.0787304932728
 20
-298.8025119831327
 10
150.1744304932727
 20
-298.6570147677885
 10
149.5524304932733
 20
-298.5457147706002
 10
148.9288304932725
 20
-298.4363147733638
 10
147.6525304932729
 20
-298.2791147773351
 10
147.2975304932734
 20
-298.210714779063
 10
146.9415304932736
 20
-298.1443147807404
 10
146.135430493272
 20
-298.0340147835268
 10
145.3043304932726
 20
-297.9031147868336
 10
144.4723304932741
 20
-297.7723147901379
 10
143.7770304932728
 20
-297.7137147916183
 10
143.6129304932729
 20
-297.6873147922852
 10
143.4528304932719
 20
-297.6619147929268
 10
142.9933304932729
 20
-297.5838147948998
 10
142.9494304932723
 20
-297.5730147951726
 10
142.9083304932719
 20
-297.5633147954177
 10
142.5768304932717
 20
-297.4900147972694
 10
142.4484304932739
 20
-297.4529147982066
 10
142.3175304932738
 20
-297.4168147991186
 10
142.2033304932738
 20
-297.4578147980828
 10
142.2033304932738
 20
-297.4578147980828
 10
142.2033304932738
 20
-297.4578147980828
 10
142.2174304932723
 20
-297.2859148024254
 10
142.231630493272
 20
-297.1932148047672
 10
142.249230493273
 20
-297.0965119831326
 10
142.2540304932736
 20
-296.8406148136746
 10
142.2540304932736
 20
-296.8406148136746
 10
142.2540304932736
 20
-296.8406148136746
 10
142.3107304932728
 20
-296.9090148119467
 10
142.3942304932716
 20
-296.9559148107619
 10
142.4791304932733
 20
-297.0027148095796
 10
142.5465304932732
 20
-297.0662148079755
 10
142.7643304932717
 20
-297.0916148073338
 10
142.9869304932727
 20
-297.1189148066442
 10
143.2960304932731
 20
-297.1082148069145
 10
143.7355304932717
 20
-297.1189148066442
 10
144.1730304932717
 20
-297.1287148063966
 10
144.936730493273
 20
-297.2176148041508
 10
145.0050304932738
 20
-297.2176148041508
 10
145.0744304932723
 20
-297.2176148041508
 10
145.414230493272
 20
-297.2430148035091
 10
145.8795304932719
 20
-297.222511983131
 10
146.3453304932737
 20
-297.2020148045449
 10
147.1500304932724
 20
-297.2176148041508
 10
147.6061304932737
 20
-297.2176148041508
 10
148.0602304932727
 20
-297.2176148041508
 10
148.6320304932724
 20
-297.2293148038552
 10
149.0807304932714
 20
-297.2557148031883
 10
149.5299304932723
 20
-297.2801148025719
 10
150.4786304932732
 20
-297.2859148024254
 10
150.8004304932729
 20
-297.2645119831323
 10
151.1256304932722
 20
-297.2430148035091
 10
151.4288304932725
 20
-297.2176148041508
 10
151.544130493272
 20
-297.2020148045449
 10
151.6598304932741
 20
-297.1854148049642
 10
152.0558304932729
 20
-297.1854148049642
 10
152.2501304932739
 20
-297.1805119831315
 10
152.443530493274
 20
-297.1746148052371
 10
153.1828304932715
 20
-297.1551148057297
 10
153.5021304932725
 20
-297.138511983132
 10
153.8200304932725
 20
-297.1248148064951
 10
154.5792304932729
 20
-297.0662148079755
 10
154.6251304932739
 20
-297.0545119831313
 10
154.6725304932734
 20
-297.0437148085439
 10
154.7252304932736
 20
-297.0301148088874
 10
154.818530493274
 20
-297.018414809183
 10
154.9118304932726
 20
-297.0086148094306
 10
155.0387304932738
 20
-297.0086148094306
 10
155.1178304932728
 20
-296.9920148098499
 10
155.1954304932733
 20
-296.9754148102693
 10
155.4328304932715
 20
-296.9402148111585
 10
155.4620304932723
 20
-296.9295119831313
 10
155.493830493273
 20
-296.9197148116764
 10
155.8654304932716
 20
-296.85821481323
 10
155.9489304932722
 20
-296.8514148134018
 10
156.0324304932728
 20
-296.8465119831326
 10
156.0338304932739
 20
-296.8514148134018
 10
156.0704304932733
 20
-296.8406148136746
 10
156.108030493273
 20
-296.8299148139449
 10
156.6393304932717
 20
-296.7264148165596
 10
156.6676304932735
 20
-296.7146148168576
 10
156.6915304932736
 20
-296.7049148171027
 10
156.7340304932732
 20
-296.7098148169789
 10
156.7765304932727
 20
-296.6990148172517
 10
156.818530493274
 20
-296.690214817474
 10
157.1461304932727
 20
-296.5750148203842
 10
157.1461304932727
 20
-296.5750148203842
 10
157.1461304932727
 20
-296.5750148203842
 10
157.2936304932737
 20
-296.5418148212229
 10
157.3253304932732
 20
-296.5271148215943
 10
157.3561304932737
 20
-296.5115119831316
 10
157.397630493273
 20
-296.4734148229509
 10
157.397630493273
 20
-296.4734148229509
 10
157.397630493273
 20
-296.4734148229509
 10
157.4811304932737
 20
-296.4646148231732
 10
157.4811304932737
 20
-296.4646148231732
 10
157.5236304932732
 20
-296.4588148233197
 10
157.5446304932739
 20
-296.4539148234435
 10
157.5704304932733
 20
-296.4432148237138
 10
157.5968304932721
 20
-296.4314148240119
 10
157.7062304932733
 20
-296.4129148244792
 10
157.743830493273
 20
-296.4070148246283
 10
157.7804304932724
 20
-296.4002148248001
 10
157.8278304932719
 20
-296.3650148256893
 10
157.9054304932724
 20
-296.3445119831322
 10
157.983030493273
 20
-296.3230148267503
 10
158.0988304932725
 20
-296.2762148279326
 10
158.0988304932725
 20
-296.2762148279326
 10
158.0988304932725
 20
-296.2762148279326
 10
158.1564304932726
 20
-296.2703148280816
 10
158.197930493272
 20
-296.2703148280816
 10
158.2404304932716
 20
-296.2703148280816
 10
158.6349304932737
 20
-296.2156148294634
 10
159.0827304932718
 20
-296.1248148317572
 10
160.2345304932714
 20
-295.8895119831323
 10
161.039730493274
 20
-295.5447148464118
 10
161.5626304932739
 20
-295.3143148522322
 10
163.0255304932725
 20
-294.6590148687865
 10
163.7174304932723
 20
-294.1697148811472
 10
164.0416304932733
 20
-293.9480148867478
 10
165.0446304932739
 20
-293.2576149041888
 10
165.3590304932732
 20
-292.6121149204955
 10
165.3981304932731
 20
-292.3201149278721
 10
165.5431304932717
 20
-291.1961149562667
 10
164.7687304932733
 20
-290.5193149733641
 10
164.3175304932738
 20
-290.201014981405
 10
163.8683304932729
 20
-289.8826149894485
 10
163.0831304932726
 20
-289.6121149962819
 10
162.4454304932733
 20
-289.4900149993664
 10
161.8068304932731
 20
-289.3689150024256
 10
161.2174304932723
 20
-289.3689150024256
 10
160.3698304932732
 20
-289.5008149990936
 10
159.522630493273
 20
-289.630714995812
 10
158.8317304932716
 20
-289.7791149920631
 10
158.2448304932732
 20
-289.912914988683
 10
157.6593304932721
 20
-290.048614985255
 10
156.6676304932735
 20
-290.2742149795558
 10
156.3200304932725
 20
-290.3738149770397
 10
155.9747304932716
 20
-290.4744149744984
 10
155.3737304932729
 20
-290.6209149707975
 10
154.7936304932737
 20
-290.7879149665787
 10
154.2116304932715
 20
-290.9539149623852
 10
153.6539304932739
 20
-291.1062149585377
 10
153.2228304932723
 20
-291.2586149546878
 10
152.7946304932739
 20
-291.4100149508631
 10
152.7428304932728
 20
-291.4949149487184
 10
152.7160304932731
 20
-291.5184149481247
 10
152.6911304932728
 20
-291.545714947435
 10
152.6744304932727
 20
-291.5418149475336
 10
152.5861304932732
 20
-291.5047149484708
 10
152.4967304932725
 20
-291.467614949408
 10
152.0558304932729
 20
-291.5564149471647
 10
151.6598304932741
 20
-291.6199149455606
 10
151.2623304932731
 20
-291.6824149439817
 10
150.7814304932726
 20
-291.7312149427489
 10
150.0802304932731
 20
-291.8914149387019
 10
149.3790304932736
 20
-292.0535119831311
 10
148.5304304932724
 20
-292.2410149298703
 10
147.9362304932729
 20
-292.3934149260203
 10
147.3375304932724
 20
-292.5457149221729
 10
146.392230493273
 20
-292.7918149159559
 10
145.9845304932714
 20
-292.9070149130457
 10
145.5753304932732
 20
-293.0213149101583
 10
144.8590304932732
 20
-293.2605119831314
 10
144.4415304932736
 20
-293.4295119831313
 10
144.2223304932741
 20
-293.5174148976257
 10
143.8737304932729
 20
-293.6590148940486
 10
143.5929304932724
 20
-293.7820148909414
 10
143.335130493273
 20
-293.8924148881524
 10
143.1437304932733
 20
-293.9871148857601
 10
143.039230493272
 20
-294.0213148848961
 10
142.8200304932725
 20
-294.0955119831324
 10
142.4059304932725
 20
-294.256614878952
 10
142.4059304932725
 20
-294.256614878952
 10
142.4059304932725
 20
-294.256614878952
 10
142.3942304932716
 20
-294.0877148832187
 10
142.3908304932738
 20
-293.9109148876851
 10
142.3849304932737
 20
-293.7332148921741
 10
142.3908304932738
 20
-293.6590148940486
 10
142.3790304932736
 20
-293.6072148953572
 10
142.3683304932729
 20
-293.5555119831315
 10
142.3683304932729
 20
-293.4822148985149
 10
142.3649304932733
 20
-293.3758149012028
 10
142.3590304932732
 20
-293.2732149037947
 10
142.3649304932733
 20
-293.0066149105296
 10
142.3224304932737
 20
-292.8289149150187
 10
142.2814304932726
 20
-292.650214919533
 10
142.039730493274
 20
-292.6033149207178
 10
142.0089304932735
 20
-292.5926149209881
 10
141.977230493274
 20
-292.581814921261
 10
141.981630493272
 20
-292.513511983132
 10
141.981630493272
 20
-292.4783149238756
 10
141.981630493272
 20
-292.4402149248381
 10
141.9664304932739
 20
-292.4266149251816
 10
141.9406304932727
 20
-292.3719149265635
 10
141.9132304932718
 20
-292.3201149278721
 10
141.9406304932727
 20
-292.1697149316715
 10
141.9288304932725
 20
-292.1053149332984
 10
141.919130493272
 20
-292.0447149348292
 10
141.9132304932718
 20
-292.0174149355189
 10
141.8722304932726
 20
-291.9441149373706
 10
141.8307304932714
 20
-291.8699149392451
 10
141.7887304932738
 20
-291.7781149415641
 10
141.7887304932738
 20
-291.7342149426731
 10
141.7887304932738
 20
-291.6932149437089
 10
141.7990304932719
 20
-291.6766149441282
 10
141.8190304932723
 20
-291.6551149446714
 10
141.840530493273
 20
-291.6346149451892
 10
141.8663304932725
 20
-291.6463149448937
 10
141.9098304932741
 20
-291.6463149448937
 10
141.9498304932731
 20
-291.6463149448937
 10
141.9664304932739
 20
-291.6355119831314
 10
142.0089304932735
 20
-291.6248149454368
 10
142.0499304932728
 20
-291.6141149457071
 10
142.0822304932735
 20
-291.6033149459799
 10
142.1964304932735
 20
-291.589614946326
 10
142.311730493273
 20
-291.5721149467681
 10
142.2999304932728
 20
-291.5350149477053
 10
142.2999304932728
 20
-291.5350149477053
 10
142.2999304932728
 20
-291.5350149477053
 10
142.0914304932739
 20
-291.4881149488901
 10
142.0914304932739
 20
-291.4881149488901
 10
142.0914304932739
 20
-291.4881149488901
 10
142.0299304932723
 20
-291.472511983131
 10
142.0299304932723
 20
-291.4461149499512
 10
142.0299304932723
 20
-291.4207149505928
 10
142.0348304932741
 20
-291.4041149510122
 10
142.039730493274
 20
-291.3797149516286
 10
142.0465304932732
 20
-291.3523149523207
 10
141.977230493274
 20
-291.2381149552057
 10
141.977230493274
 20
-291.2098149559206
 10
141.977230493274
 20
-291.1863149565143
 10
141.9498304932731
 20
-291.1590149572039
 10
141.9498304932731
 20
-291.1590149572039
 10
141.9498304932731
 20
-291.1590149572039
 10
142.2814304932726
 20
-290.9432149626555
 10
142.2814304932726
 20
-290.9432149626555
 10
142.2814304932726
 20
-290.9432149626555
 10
142.3390304932727
 20
-290.8914149639641
 10
142.3165304932736
 20
-290.8914149639641
 10
142.2951304932722
 20
-290.8914149639641
 10
141.9288304932725
 20
-291.1365119831316
 10
141.9288304932725
 20
-291.1365119831316
 10
141.9288304932725
 20
-291.1365119831316
 10
141.8390304932727
 20
-291.0437149601166
 10
141.8390304932727
 20
-291.0437149601166
 10
141.8390304932727
 20
-291.0437149601166
 10
141.8722304932726
 20
-291.013511983132
 10
141.9132304932718
 20
-290.9764149618168
 10
141.9557304932714
 20
-290.9402149627313
 10
141.977230493274
 20
-290.9246149631254
 10
142.0182304932714
 20
-290.9012149637165
 10
142.0607304932728
 20
-290.8826149641864
 10
142.0763304932734
 20
-290.8660149646057
 10
142.102230493274
 20
-290.8504149649998
 10
142.1290304932736
 20
-290.8348149653939
 10
142.231630493272
 20
-290.701014968774
 10
142.2706304932726
 20
-290.6668149696379
 10
142.693530493274
 20
-290.3055119831315
 10
142.811730493273
 20
-289.9734149871547
 10
142.7277304932722
 20
-289.2625119831318
 10
142.693530493274
 20
-288.9705119831324
 10
142.4840304932732
 20
-288.6805119831315
 10
142.3092304932725
 20
-288.534015023517
 10
142.0558304932729
 20
-288.3230150288473
 10
141.8097304932726
 20
-288.3172150289938
 10
141.8097304932726
 20
-288.3172150289938
 10
141.8097304932726
 20
-288.3172150289938
 10
141.7887304932738
 20
-288.2703150301786
 10
141.7887304932738
 20
-288.2703150301786
 10
141.7887304932738
 20
-288.2703150301786
 10
141.8048304932727
 20
-288.2029150318813
 10
141.8048304932727
 20
-288.1756150325709
 10
141.8048304932727
 20
-288.1512150331873
 10
141.7887304932738
 20
-288.1287150337557
 10
141.7887304932738
 20
-288.1287150337557
 10
141.7887304932738
 20
-288.1287150337557
 10
141.8356304932731
 20
-288.0926150346677
 10
141.8507304932718
 20
-288.0721150351856
 10
141.8663304932725
 20
-288.0516150357034
 10
141.8390304932727
 20
-288.0447150358777
 10
141.8390304932727
 20
-288.0447150358777
 10
141.8390304932727
 20
-288.0447150358777
 10
141.8663304932725
 20
-287.9734150376789
 10
141.8663304932725
 20
-287.9734150376789
 10
141.8663304932725
 20
-287.9734150376789
 10
141.9240304932719
 20
-287.9461150383686
 10
141.9723304932741
 20
-287.9666150378507
 10
142.0182304932714
 20
-287.9891150372823
 10
142.1598304932741
 20
-288.0818150349405
 10
142.1598304932741
 20
-288.0818150349405
 10
142.1598304932741
 20
-288.0818150349405
 10
142.1349304932737
 20
-288.0447150358777
 10
142.102230493274
 20
-288.0086150367897
 10
142.0690304932723
 20
-287.9734150376789
 10
141.9240304932719
 20
-287.8982150395786
 10
141.9240304932719
 20
-287.8982150395786
 10
141.9240304932719
 20
-287.8982150395786
 10
141.9557304932714
 20
-287.847511983131
 10
141.9557304932714
 20
-287.847511983131
 10
141.9557304932714
 20
-287.847511983131
 10
141.9054304932724
 20
-287.8250150414278
 10
141.8781304932727
 20
-287.8250150414278
 10
141.8507304932718
 20
-287.8250150414278
 10
141.760430493272
 20
-287.9041150394296
 10
141.760430493272
 20
-287.9041150394296
 10
141.760430493272
 20
-287.9041150394296
 10
141.704730493273
 20
-287.7898150423171
 10
141.6271304932725
 20
-287.7215119831326
 10
141.5470304932714
 20
-287.6531150457704
 10
141.385430493272
 20
-287.6531150457704
 10
141.2096304932729
 20
-287.5965119831326
 10
141.0304304932724
 20
-287.5379150486806
 10
140.835130493273
 20
-287.4119150518636
 10
140.7067304932716
 20
-287.3758150527756
 10
140.5758304932715
 20
-287.3396150536901
 10
140.4450304932725
 20
-287.3396150536901
 10
140.2516304932724
 20
-287.3699150529246
 10
140.1417304932729
 20
-287.388511983132
 10
139.9274304932733
 20
-287.4480150509517
 10
139.7789304932739
 20
-287.4832150500624
 10
139.6632304932718
 20
-287.5066150494713
 10
139.5963304932739
 20
-287.5115119831316
 10
139.5880304932725
 20
-287.5066150494713
 10
139.5656304932727
 20
-287.4969150497163
 10
139.5656304932727
 20
-287.4861150499892
 10
139.5656304932727
 20
-287.463715050555
 10
139.5656304932727
 20
-287.4432150510729
 10
139.5324304932728
 20
-287.463715050555
 10
139.5079304932733
 20
-287.463715050555
 10
139.4806304932717
 20
-287.463715050555
 10
139.477230493274
 20
-287.4285119831311
 10
139.454730493273
 20
-287.3914150523815
 10
139.4347304932726
 20
-287.3553150532935
 10
139.4406304932727
 20
-287.3758150527756
 10
139.3771304932725
 20
-287.3758150527756
 10
139.3146304932725
 20
-287.3758150527756
 10
139.2472304932726
 20
-287.3660150530231
 10
139.1461304932727
 20
-287.3699150529246
 10
139.0480304932717
 20
-287.3748150528008
 10
138.9694304932727
 20
-287.4334150513205
 10
138.9645304932728
 20
-287.4549150507773
 10
138.9596304932729
 20
-287.4764150502342
 10
139.0270304932728
 20
-287.4549150507773
 10
139.0680304932721
 20
-287.4432150510729
 10
139.1105304932717
 20
-287.4334150513205
 10
139.2872304932716
 20
-287.4500150509011
 10
139.3087304932724
 20
-287.4549150507773
 10
139.3312304932733
 20
-287.4598150506536
 10
139.329730493273
 20
-287.4861150499892
 10
139.3414304932739
 20
-287.5174150491985
 10
139.3512304932738
 20
-287.5486150484103
 10
139.3771304932725
 20
-287.5965119831326
 10
139.3629304932729
 20
-287.6268150464348
 10
139.3463304932739
 20
-287.6590150456213
 10
139.2355304932717
 20
-287.9734150376789
 10
139.2355304932717
 20
-287.9734150376789
 10
139.2355304932717
 20
-287.9734150376789
 10
139.062130493272
 20
-287.7850150424383
 10
139.062130493272
 20
-287.7850150424383
 10
139.062130493272
 20
-287.7850150424383
 10
139.2145304932728
 20
-287.9988150370373
 10
139.2145304932728
 20
-287.9988150370373
 10
139.2145304932728
 20
-287.9988150370373
 10
139.1945304932724
 20
-288.0574150355569
 10
139.1945304932724
 20
-288.0574150355569
 10
139.1945304932724
 20
-288.0574150355569
 10
139.0997304932716
 20
-288.0672150353093
 10
138.9752304932736
 20
-288.0721150351856
 10
138.8488304932725
 20
-288.0770150350618
 10
138.7018304932717
 20
-288.138511983132
 10
138.7018304932717
 20
-288.138511983132
 10
138.7018304932717
 20
-288.138511983132
 10
138.6696304932739
 20
-288.0613150354584
 10
138.6344304932718
 20
-288.0408150359763
 10
138.5978304932723
 20
-288.0203150364941
 10
138.5919304932722
 20
-288.0350150361228
 10
138.4943304932731
 20
-288.0721150351856
 10
138.3942304932716
 20
-288.1102150342231
 10
138.3092304932725
 20
-288.2234150313634
 10
138.3092304932725
 20
-288.2234150313634
 10
138.3092304932725
 20
-288.2234150313634
 10
138.351730493272
 20
-288.2176150315099
 10
138.3776304932726
 20
-288.1756150325709
 10
138.4035304932731
 20
-288.1346150336067
 10
138.5568304932731
 20
-288.0984150345212
 10
138.5719304932718
 20
-288.1238150338795
 10
138.5885304932726
 20
-288.1502150332126
 10
138.5885304932726
 20
-288.16971503272
 10
138.5827304932718
 20
-288.1971150320278
 10
138.5768304932717
 20
-288.2244150313381
 10
138.5036304932728
 20
-288.2488150307217
 10
138.3468304932721
 20
-288.4373150259598
 10
138.1891304932724
 20
-288.6258150211979
 10
137.9801304932735
 20
-288.9988150117752
 10
137.9909304932735
 20
-289.5633149975147
 10
138.0026304932726
 20
-290.1277149832567
 10
138.4201304932722
 20
-290.5193149733641
 10
138.4611304932732
 20
-290.5838149717347
 10
138.5045304932719
 20
-290.6463149701558
 10
138.5827304932718
 20
-290.7459149676397
 10
138.5827304932718
 20
-290.7459149676397
 10
138.5827304932718
 20
-290.7459149676397
 10
138.5885304932726
 20
-290.9812149616955
 10
138.5661304932728
 20
-291.0027149611524
 10
138.5451304932722
 20
-291.0223149606572
 10
138.2360304932736
 20
-290.5096149736091
 10
138.2584304932716
 20
-290.5838149717347
 10
138.2794304932722
 20
-290.6570149698855
 10
138.5768304932717
 20
-291.069114959475
 10
138.5768304932717
 20
-291.069114959475
 10
138.5768304932717
 20
-291.069114959475
 10
138.5885304932726
 20
-291.2898149538996
 10
138.5661304932728
 20
-291.3113149533565
 10
138.5451304932722
 20
-291.3299149528866
 10
138.210130493273
 20
-290.7137149684531
 10
138.210130493273
 20
-290.7137149684531
 10
138.210130493273
 20
-290.7137149684531
 10
138.3468304932721
 20
-291.027114960536
 10
138.4201304932722
 20
-291.1365119831316
 10
138.4928304932728
 20
-291.2488149549354
 10
138.5451304932722
 20
-291.3738149517776
 10
138.5451304932722
 20
-291.3738149517776
 10
138.5451304932722
 20
-291.3738149517776
 10
138.5451304932722
 20
-291.6033149459799
 10
138.5451304932722
 20
-291.6033149459799
 10
138.5451304932722
 20
-291.6033149459799
 10
138.4469304932718
 20
-291.4637149495065
 10
138.425930493273
 20
-291.4090149508884
 10
138.4035304932731
 20
-291.3582149521717
 10
138.2150304932729
 20
-290.9705119831324
 10
138.2150304932729
 20
-290.9705119831324
 10
138.2150304932729
 20
-290.9705119831324
 10
138.2833304932719
 20
-291.153114957353
 10
138.3317304932716
 20
-291.2762149542432
 10
138.3776304932726
 20
-291.3953149512345
 10
138.4611304932732
 20
-291.5301149478291
 10
138.4826304932722
 20
-291.5564149471647
 10
138.5036304932728
 20
-291.5838149464726
 10
138.5245304932723
 20
-291.6766149441282
 10
138.5245304932723
 20
-291.6766149441282
 10
138.5245304932723
 20
-291.6766149441282
 10
138.4943304932731
 20
-291.6873149438579
 10
138.4718304932721
 20
-291.6932149437089
 10
138.4503304932732
 20
-291.6980149435876
 10
138.4777304932722
 20
-291.7449149424028
 10
138.4777304932722
 20
-291.7449149424028
 10
138.4777304932722
 20
-291.7449149424028
 10
138.4401304932726
 20
-291.7342149426731
 10
138.3834304932716
 20
-291.723414942946
 10
138.3268304932717
 20
-291.7146149431683
 10
138.3893304932717
 20
-291.7547149421553
 10
138.4201304932722
 20
-291.7811149414883
 10
138.4503304932732
 20
-291.8064149408492
 10
138.3468304932721
 20
-291.7781149415641
 10
138.3258304932715
 20
-291.7664149418597
 10
138.3043304932726
 20
-291.7547149421553
 10
138.3317304932716
 20
-291.7879149413166
 10
138.3585304932731
 20
-291.8084149407987
 10
138.3834304932716
 20
-291.8279149403061
 10
138.4826304932722
 20
-291.9031149384064
 10
138.4826304932722
 20
-291.9031149384064
 10
138.4826304932722
 20
-291.9031149384064
 10
138.5143304932717
 20
-291.9686149367517
 10
138.5402304932722
 20
-292.0066149357917
 10
138.5661304932728
 20
-292.0447149348292
 10
138.613430493273
 20
-292.0691149342128
 10
138.6403304932719
 20
-292.0691149342128
 10
138.6661304932732
 20
-292.0691149342128
 10
138.6696304932739
 20
-292.0633149343594
 10
138.7179304932724
 20
-292.0174149355189
 10
138.7653304932719
 20
-291.9686149367517
 10
138.806330493273
 20
-291.9383149375171
 10
138.8429304932724
 20
-291.8914149387019
 10
138.8805304932721
 20
-291.8436149399095
 10
138.8644304932732
 20
-291.8436149399095
 10
138.8737304932729
 20
-291.7713149417359
 10
138.8844304932718
 20
-291.6980149435876
 10
138.9645304932728
 20
-291.5984149461037
 10
139.010430493272
 20
-291.5184149481247
 10
139.0578304932715
 20
-291.4412149500749
 10
139.1320304932724
 20
-291.38361495153
 10
139.1989304932722
 20
-291.2996149536521
 10
139.2687304932733
 20
-291.2156149557741
 10
139.3829304932733
 20
-291.2527149548368
 10
139.3829304932733
 20
-291.2527149548368
 10
139.3829304932733
 20
-291.2527149548368
 10
139.3663304932725
 20
-291.2840149540461
 10
139.3663304932725
 20
-291.3328149528134
 10
139.3663304932725
 20
-291.3797149516286
 10
139.4137304932738
 20
-291.4012149510854
 10
139.4137304932738
 20
-291.4012149510854
 10
139.4137304932738
 20
-291.4012149510854
 10
139.4039304932739
 20
-291.4314149503225
 10
139.3771304932725
 20
-291.4578149496556
 10
139.3497304932716
 20
-291.4832149490139
 10
139.2921304932715
 20
-291.6141149457071
 10
139.278030493273
 20
-291.6355119831314
 10
139.2614304932722
 20
-291.6551149446714
 10
139.1730304932717
 20
-291.6932149437089
 10
139.1261304932723
 20
-291.723414942946
 10
139.0787304932728
 20
-291.7547149421553
 10
139.0070304932724
 20
-291.8602149394901
 10
138.9596304932729
 20
-291.9383149375171
 10
138.9113304932725
 20
-292.0174149355189
 10
138.9113304932725
 20
-292.2410149298703
 10
138.885430493272
 20
-292.293714928539
 10
138.8595304932714
 20
-292.347511983131
 10
138.8488304932725
 20
-292.4148149254797
 10
138.822930493272
 20
-292.4666149241712
 10
138.7970304932714
 20
-292.5193149228398
 10
138.6603304932723
 20
-292.7869149160797
 10
138.6403304932719
 20
-292.8133149154128
 10
138.6178304932728
 20
-292.8387149147711
 10
138.5919304932722
 20
-292.8650149141067
 10
138.5719304932718
 20
-292.9070149130457
 10
138.5519304932732
 20
-292.94801491201
 10
138.4869304932727
 20
-293.2605119831314
 10
138.4777304932722
 20
-293.3348149022386
 10
138.4660304932731
 20
-293.4080149003894
 10
138.4869304932727
 20
-293.7020148929623
 10
138.4826304932722
 20
-293.7645119831323
 10
138.4777304932722
 20
-293.8279148897818
 10
138.4552304932731
 20
-293.8592148889911
 10
138.4401304932726
 20
-293.9070148877836
 10
138.425930493273
 20
-293.9529148866241
 10
138.4318304932731
 20
-294.078914883441
 10
138.4318304932731
 20
-294.1092148826756
 10
138.4318304932731
 20
-294.1424148818369
 10
138.5036304932728
 20
-294.4344148744603
 10
138.5036304932728
 20
-294.4344148744603
 10
138.5036304932728
 20
-294.4344148744603
 10
138.4611304932732
 20
-294.4549148739425
 10
138.4611304932732
 20
-294.4549148739425
 10
138.4611304932732
 20
-294.4549148739425
 10
138.289230493272
 20
-294.4227148747559
 10
137.9957304932723
 20
-294.3543148764838
 10
137.7033304932738
 20
-294.288914878136
 10
137.4049304932723
 20
-294.1561148814908
 10
136.4420304932719
 20
-293.7898148907443
 10
135.4801304932735
 20
-293.4236148999953
 10
134.6847304932726
 20
-293.2254149050023
 10
134.0827304932718
 20
-293.0838149085794
 10
133.4826304932722
 20
-292.9441149121085
 10
132.3248304932731
 20
-292.692214918472
 10
131.2218304932721
 20
-292.472511983131
 10
130.1173304932727
 20
-292.2518149295975
 10
129.3869304932723
 20
-292.1570149319923
 10
128.8541304932733
 20
-292.0857149337935
 10
128.3175304932738
 20
-292.0115119831316
 10
127.6505304932725
 20
-291.9490149372468
 10
127.6505304932725
 20
-291.9490149372468
 10
127.6505304932725
 20
-291.9490149372468
 10
127.5490304932719
 20
-292.0066149357917
 10
127.5490304932719
 20
-292.0066149357917
 10
127.5255304932725
 20
-292.0203149354456
 10
127.5079304932733
 20
-291.959814936974
 10
127.4713304932739
 20
-291.9334149376409
 10
127.4347304932726
 20
-291.9080149382826
 10
126.8585304932731
 20
-291.7068149433653
 10
126.2619304932723
 20
-291.5262149479277
 10
125.6666304932733
 20
-291.341614952591
 10
123.9660304932731
 20
-290.9295119831313
 10
123.056330493273
 20
-290.7254149681576
 10
122.1461304932727
 20
-290.5193149733641
 10
121.1832304932723
 20
-290.3680149771862
 10
120.3097304932726
 20
-290.2273149807406
 10
119.7911304932732
 20
-290.1434149828601
 10
119.2360304932736
 20
-290.1043149838479
 10
118.767230493273
 20
-290.1258149833047
 10
118.4464304932735
 20
-290.1395119831323
 10
118.2213304932739
 20
-290.1727149821199
 10
117.914730493274
 20
-290.243014980344
 10
117.4821304932739
 20
-290.3396149779037
 10
116.8986304932732
 20
-290.5486149726239
 10
116.4591304932728
 20
-290.7703149670233
 10
116.2150304932729
 20
-290.8914149639641
 10
116.0656304932727
 20
-290.9930149613974
 10
115.8781304932727
 20
-291.1062149585377
 10
115.6154304932716
 20
-291.265414954516
 10
115.3253304932732
 20
-291.561314947041
 10
115.1427304932731
 20
-291.875814939096
 10
114.9645304932728
 20
-292.1854149312749
 10
114.8927304932731
 20
-292.5086149231101
 10
114.8703304932715
 20
-292.7596149167694
 10
114.7951304932722
 20
-293.5555119831315
 10
115.1994304932723
 20
-293.8592148889911
 10
115.6637304932738
 20
-294.2664148787044
 10
116.1305304932721
 20
-294.6756148683671
 10
116.2174304932723
 20
-294.7117148674552
 10
116.7218304932721
 20
-294.9891148604474
 10
117.2228304932723
 20
-295.2664148534423
 10
117.5529304932716
 20
-295.4861148478922
 10
118.0763304932734
 20
-295.7312148417004
 10
118.5983304932724
 20
-295.9783148354581
 10
118.9025304932729
 20
-296.1033148323004
 10
119.5568304932731
 20
-296.3123148270206
 10
119.8126304932739
 20
-296.3934148249718
 10
120.0328304932737
 20
-296.4783148228271
 10
120.2687304932733
 20
-296.5467148210992
 10
120.635430493272
 20
-296.6551148183607
 10
120.9913304932725
 20
-296.732214816413
 10
121.2150304932729
 20
-296.7830148151297
 10
121.5802304932731
 20
-296.8670148130077
 10
122.2135304932726
 20
-296.9451148110347
 10
122.2135304932726
 20
-296.9451148110347
 10
122.2135304932726
 20
-296.9451148110347
 10
122.1876304932739
 20
-296.9617148106154
 10
122.2877304932736
 20
-296.9832148100722
 10
122.3869304932723
 20
-297.0027148095796
 10
122.5587304932724
 20
-297.0545119831313
 10
122.6119304932727
 20
-297.0662148079755
 10
122.664730493274
 20
-297.0770148077027
 10
122.9357304932728
 20
-297.1492148058787
 10
123.1305304932721
 20
-297.1961148046939
 10
123.3239304932722
 20
-297.2430148035091
 10
123.8991304932715
 20
-297.3855119831314
 10
124.443530493274
 20
-297.46861479781
 10
124.9869304932727
 20
-297.5506147957385
 10
125.2223304932741
 20
-297.5506147957385
 10
125.8966304932728
 20
-297.6268147938135
 10
126.5709304932716
 20
-297.6980147920149
 10
127.7540304932736
 20
-297.7557147905572
 10
128.5792304932729
 20
-297.7664147902869
 10
129.4054304932724
 20
-297.7771147900166
 10
129.5670304932719
 20
-297.7869147897691
 10
130.0231304932731
 20
-297.7723147901379
 10
130.4791304932733
 20
-297.7557147905572
 10
130.960130493273
 20
-297.7254147913227
 10
131.6237304932729
 20
-297.6619147929268
 10
132.2872304932716
 20
-297.6004147944805
 10
133.0368304932726
 20
-297.5252147963802
 10
133.3151304932726
 20
-297.4900147972694
 10
133.5910304932731
 20
-297.4529147982066
 10
134.1510304932726
 20
-297.4529147982066
 10
134.579730493273
 20
-297.4422147984769
 10
135.0089304932735
 20
-297.4324147987245
 10
136.4279304932716
 20
-297.2859148024254
 10
137.2013304932734
 20
-297.2596148030898
 10
137.9743304932726
 20
-297.2332148037567
 10
138.0499304932728
 20
-297.1551148057297
 10
138.2008304932715
 20
-297.0301148088874
 10
138.351730493272
 20
-296.9051148120452
 10
138.550930493273
 20
-296.6316148189544
 10
138.550930493273
 20
-296.6316148189544
 10
138.550930493273
 20
-296.6316148189544
 10
138.5661304932728
 20
-296.6473148185578
 10
138.5768304932717
 20
-296.730314816461
 10
138.5870304932723
 20
-296.814314814339
 10
138.5768304932717
 20
-296.814314814339
 10
138.5827304932718
 20
-296.8465119831326
 10
138.5885304932726
 20
-296.8768148127601
 10
138.6027304932722
 20
-296.888511983132
 10
138.5968304932721
 20
-296.9500148109109
 10
138.5919304932722
 20
-297.013511983132
 10
138.5919304932722
 20
-297.0232148090618
 10
138.5919304932722
 20
-297.0486148084201
 10
138.5919304932722
 20
-297.0770148077027
 10
138.6818304932731
 20
-297.013511983132
 10
138.7145304932728
 20
-297.0027148095796
 10
138.7453304932715
 20
-296.9920148098499
 10
138.7853304932723
 20
-297.1492148058787
 10
138.8029304932716
 20
-297.2020148045449
 10
138.8170304932719
 20
-297.2557148031883
 10
138.8429304932724
 20
-297.5730147951726
 10
138.8429304932724
 20
-297.5730147951726
 10
138.8429304932724
 20
-297.5730147951726
 10
138.8429304932724
 20
-297.5838147948998
 10
138.822930493272
 20
-297.5838147948998
 10
138.8029304932716
 20
-297.5838147948998
 10
138.7853304932723
 20
-297.5789147950236
 10
138.7179304932724
 20
-297.546714795837
 10
138.6495304932723
 20
-297.5154147966277
 10
138.5885304932726
 20
-297.5691147952712
 10
138.5661304932728
 20
-297.5936147946522
 10
138.5451304932722
 20
-297.6189147940131
 10
138.4777304932722
 20
-297.588714794776
 10
138.3776304932726
 20
-297.546714795837
 10
138.2794304932722
 20
-297.50661479685
 10
137.9015304932727
 20
-297.6355119831314
 10
137.6032304932723
 20
-297.6951147920881
 10
137.306330493273
 20
-297.7518147906558
 10
136.6461304932727
 20
-297.8240147888318
 10
135.8561304932737
 20
-297.9031147868336
 10
135.0680304932721
 20
-297.9812147848606
 10
133.6593304932721
 20
-298.2322147785198
 10
133.0783304932738
 20
-298.3055119831315
 10
132.4982304932728
 20
-298.3807147747684
 10
131.1076304932722
 20
-298.5203147712418
 10
130.3849304932737
 20
-298.6141147688722
 10
129.6613304932725
 20
-298.7088147664799
 10
129.0885304932726
 20
-298.8143147638148
 10
129.0670304932719
 20
-298.8182147637162
 10
129.0451304932722
 20
-298.8240147635697
 10
129.0294304932722
 20
-298.8338147633222
 10
129.0036304932728
 20
-298.8504147629028
 10
128.9777304932722
 20
-298.865014762534
 10
128.988430493273
 20
-298.865014762534
 10
128.9669304932722
 20
-298.8758147622611
 10
128.9459304932716
 20
-298.8865119831316
 10
128.8834304932716
 20
-298.8455119831324
 10
128.664230493272
 20
-298.8455119831324
 10
128.4440304932723
 20
-298.8455119831324
 10
126.8678304932728
 20
-298.9119147613492
 10
126.2902304932722
 20
-298.9549147602629
 10
125.7081304932726
 20
-298.9959147592272
 10
123.8869304932723
 20
-299.1326147557738
 10
123.3180304932721
 20
-299.1756147546876
 10
122.749630493272
 20
-299.2156147536771
 10
121.800930493273
 20
-299.3006147515298
 10
121.0573304932732
 20
-299.4041147489152
 10
120.3156304932727
 20
-299.50961474625
 10
119.8488304932725
 20
-299.6199147434636
 10
119.3541304932733
 20
-299.7859147392701
 10
118.8541304932733
 20
-299.953914735026
 10
118.6207304932723
 20
-300.0320147330531
 10
117.993830493273
 20
-300.4715119831326
 10
117.3644304932732
 20
-300.9109147108502
 10
116.8668304932726
 20
-301.4285119831311
 10
116.5431304932717
 20
-302.1053146806771
 10
116.2433304932729
 20
-302.7293146649135
 10
116.2648304932736
 20
-303.1756146536391
 10
116.3541304932733
 20
-303.5955119831324
 10
116.4865304932719
 20
-304.1961146278591
 10
117.0768304932717
 20
-304.5008146201617
 10
117.6212304932724
 20
-304.703914615031
 10
118.1657304932723
 20
-304.908014609875
 10
118.8883304932715
 20
-305.1082146048175
 10
119.2843304932721
 20
-305.2029146024252
 10
119.6828304932715
 20
-305.2977146000303
 10
120.1686304932737
 20
-305.384614597835
 10
120.2946304932739
 20
-305.4217145968978
 10
120.420530493273
 20
-305.4578145959858
 10
121.2199304932728
 20
-305.6248145917671
 10
121.5026304932726
 20
-305.6668145907061
 10
121.7853304932723
 20
-305.7098145896198
 10
122.4352304932727
 20
-305.8396145863408
 10
122.7164304932739
 20
-305.8709145855501
 10
122.9972304932726
 20
-305.9031145847366
 10
123.2565304932723
 20
-305.9227145842415
 10
123.3273304932736
 20
-305.9227145842415
 10
123.4015304932727
 20
-305.9227145842415
 10
124.3751304932739
 20
-306.0174145818492
 10
124.715530493273
 20
-306.0398145812833
 10
125.0553304932728
 20
-306.0594145807881
 10
125.2804304932724
 20
-306.0398145812833
 10
125.3156304932727
 20
-306.0330145814551
 10
125.352230493274
 20
-306.0281145815788
 10
125.4674304932723
 20
-306.0398145812833
 10
125.4874304932728
 20
-306.0447145811595
 10
125.5079304932733
 20
-306.0496145810357
 10
125.6349304932737
 20
-306.0760145803688
 10
125.6666304932733
 20
-306.0857145801237
 10
125.6989304932722
 20
-306.0965119831326
 10
126.2677304932731
 20
-306.1863145775824
 10
126.6286304932728
 20
-306.2283145765214
 10
126.9904304932716
 20
-306.2693145754856
 10
127.664730493274
 20
-306.3699145729443
 10
127.6857304932728
 20
-306.3748145728205
 10
127.7072304932735
 20
-306.3787145727219
 10
127.8624304932728
 20
-306.4002145721788
 10
127.9171304932715
 20
-306.405114572055
 10
127.9699304932728
 20
-306.4100145719312
 10
128.6383304932715
 20
-306.456814570749
 10
128.9459304932716
 20
-306.5096145694151
 10
129.2545304932719
 20
-306.5633145680586
 10
129.5636304932723
 20
-306.525214569021
 10
130.045530493273
 20
-306.5203145691448
 10
130.5265304932727
 20
-306.5154145692686
 10
131.7296304932715
 20
-306.4520145708702
 10
132.1119304932727
 20
-306.4354145712896
 10
132.4913304932725
 20
-306.4217145716357
 10
133.0109304932739
 20
-306.3787145727219
 10
133.1417304932729
 20
-306.3582145732398
 10
133.272630493273
 20
-306.3377145737577
 10
133.7428304932728
 20
-306.1805119831315
 10
134.2355304932717
 20
-306.0447145811595
 10
134.7282304932723
 20
-305.9090145845876
 10
135.8043304932726
 20
-305.598414592434
 10
136.3385304932726
 20
-305.478314595468
 10
136.8737304932729
 20
-305.3582145985019
 10
137.1373304932731
 20
-305.3064145998105
 10
137.4357304932728
 20
-305.0398146065454
 10
137.5700304932725
 20
-304.9207146095541
 10
137.7716304932728
 20
-304.618014617201
 10
137.9415304932736
 20
-304.3992146227283
 10
138.1559304932725
 20
-304.1229146297082
 10
138.3410304932731
 20
-303.9227146347657
 10
138.4660304932731
 20
-303.7732146385424
 10
138.9537304932728
 20
-303.1971146530959
 10
139.0421304932715
 20
-302.9207146600784
 10
139.0895304932728
 20
-302.5223146701428
 10
139.135430493272
 20
-302.1238146802098
 10
139.1896304932725
 20
-301.4090146982671
 10
139.2238304932725
 20
-300.8328147128232
 10
139.2614304932722
 20
-300.2576147273539
 10
139.3038304932725
 20
-299.8191147384314
 10
139.3087304932724
 20
-299.7459147402806
 10
139.3156304932727
 20
-299.671714742155
 10
139.3146304932725
 20
-299.7078147412431
 10
139.3414304932739
 20
-299.6453147428219
 10
139.3663304932725
 20
-299.5828147444008
 10
139.3864304932722
 20
-299.425614748372
 10
139.4088304932739
 20
-299.2840147519491
 10
139.4298304932727
 20
-299.1424147555263
 10
139.4513304932734
 20
-299.1590147551069
 10
139.454730493273
 20
-299.0428147580424
 10
139.4596304932729
 20
-298.9305119831315
 10
139.4982304932728
 20
-298.9441147605357
 10
139.4982304932728
 20
-298.9441147605357
 10
139.4982304932728
 20
-298.9441147605357
 10
139.5607304932728
 20
-298.9549147602629
 10
139.5763304932734
 20
-298.9910147593509
 10
139.5924304932723
 20
-299.0281147584137
 10
139.5924304932723
 20
-299.1326147557738
 10
139.5924304932723
 20
-299.2010147540459
 10
139.5924304932723
 20
-299.2010147540459
 10
139.5924304932723
 20
-299.347511983131
 10
139.5924304932723
 20
-299.347511983131
 10
139.5924304932723
 20
-299.4090147487914
 10
139.606630493272
 20
-299.4412147479779
 10
139.6115304932719
 20
-299.467614747311
 10
139.6173304932727
 20
-299.4949147466214
 10
139.6388304932734
 20
-299.8260147382571
 10
139.6173304932727
 20
-299.9656147347305
 10
139.5963304932739
 20
-300.1072147311534
 10
139.6632304932718
 20
-300.2205119831324
 10
139.6632304932718
 20
-300.2205119831324
 10
139.6632304932718
 20
-300.2205119831324
 10
139.670530493273
 20
-300.5730147193863
 10
139.6315304932723
 20
-300.6297147179539
 10
139.5924304932723
 20
-300.6844147165721
 10
139.6456304932726
 20
-300.818214713192
 10
139.6456304932726
 20
-300.818214713192
 10
139.6456304932726
 20
-300.818214713192
 10
139.670530493273
 20
-300.8807147116131
 10
139.670530493273
 20
-300.9275119831327
 10
139.670530493273
 20
-300.9734147092713
 10
139.670530493273
 20
-301.5311146951826
 10
139.6549304932723
 20
-301.6336146925933
 10
139.6388304932734
 20
-301.7352146900266
 10
139.670530493273
 20
-301.8221146878313
 10
139.6857304932728
 20
-301.9002146858584
 10
139.7023304932736
 20
-301.9793146838601
 10
139.7174304932723
 20
-303.2762146510977
 10
139.7174304932723
 20
-303.2762146510977
 97
        0
 97
        0
 75
     2
 76
     1
 98
        0
  0
SPLINE
  5
47
330
41
100
AcDbEntity
  8
Layer 1
370
     0
100
AcDbSpline
210
0.0
220
0.0
230
1.0
 70
    11
 71
     3
 72
    17
 73
    13
 74
     0
 42
0.0000000001
 43
0.0000000001
 12
1.0
 22
0.0
 32
0.0
 13
1.0
 23
0.0
 33
0.0
 40
0.0
 40
0.0
 40
0.0
 40
0.0
 40
1.0
 40
1.0
 40
1.0
 40
2.0
 40
2.0
 40
2.0
 40
3.0
 40
3.0
 40
3.0
 40
4.0
 40
4.0
 40
4.0
 40
4.0
 10
138.7994304932727
 20
-290.8895119831323
 30
0.0
 10
138.7994304932727
 20
-290.8895119831323
 30
0.0
 10
138.8463304932739
 20
-290.897314963815
 30
0.0
 10
138.8463304932739
 20
-290.897314963815
 30
0.0
 10
138.8463304932739
 20
-290.897314963815
 30
0.0
 10
138.8370304932723
 20
-290.9764149618168
 30
0.0
 10
138.806330493273
 20
-291.0223149606572
 30
0.0
 10
138.7760304932726
 20
-291.069114959475
 30
0.0
 10
138.7521304932725
 20
-291.0945119831322
 30
0.0
 10
138.7521304932725
 20
-291.0945119831322
 30
0.0
 10
138.7521304932725
 20
-291.0945119831322
 30
0.0
 10
138.7994304932727
 20
-290.8895119831323
 30
0.0
 10
138.7994304932727
 20
-290.8895119831323
 30
0.0
  0
HATCH
  5
48
330
41
100
AcDbEntity
  8
Layer 1
 62
     7
420
 16777215
100
AcDbHatch
 10
0.0
 20
0.0
 30
0.0
210
0.0
220
0.0
230
1.0
  2
SOLID
 70
     1
 71
     0
 91
        1
 92
        1
 93
        1
 72
     4
 94
        3
 73
     0
 74
     1
 95
       17
 96
       13
 40
0.0
 40
0.0
 40
0.0
 40
0.0
 40
1.0
 40
1.0
 40
1.0
 40
2.0
 40
2.0
 40
2.0
 40
3.0
 40
3.0
 40
3.0
 40
4.0
 40
4.0
 40
4.0
 40
4.0
 10
138.7994304932727
 20
-290.8895119831323
 10
138.7994304932727
 20
-290.8895119831323
 10
138.8463304932739
 20
-290.897314963815
 10
138.8463304932739
 20
-290.897314963815
 10
138.8463304932739
 20
-290.897314963815
 10
138.8370304932723
 20
-290.9764149618168
 10
138.806330493273
 20
-291.0223149606572
 10
138.7760304932726
 20
-291.069114959475
 10
138.7521304932725
 20
-291.0945119831322
 10
138.7521304932725
 20
-291.0945119831322
 10
138.7521304932725
 20
-291.0945119831322
 10
138.7994304932727
 20
-290.8895119831323
 10
138.7994304932727
 20
-290.8895119831323
 97
        0
 97
        0
 75
     2
 76
     1
 98
        0
  0
SPLINE
  5
49
330
41
100
AcDbEntity
  8
Layer 1
370
     0
100
AcDbSpline
210
0.0
220
0.0
230
1.0
 70
    11
 71
     3
 72
    47
 73
    43
 74
     0
 42
0.0000000001
 43
0.0000000001
 12
1.0
 22
0.0
 32
0.0
 13
1.0
 23
0.0
 33
0.0
 40
0.0
 40
0.0
 40
0.0
 40
0.0
 40
1.0
 40
1.0
 40
1.0
 40
2.0
 40
2.0
 40
2.0
 40
3.0
 40
3.0
 40
3.0
 40
4.0
 40
4.0
 40
4.0
 40
5.0
 40
5.0
 40
5.0
 40
6.0
 40
6.0
 40
6.0
 40
7.0
 40
7.0
 40
7.0
 40
8.0
 40
8.0
 40
8.0
 40
9.0
 40
9.0
 40
9.0
 40
10.0
 40
10.0
 40
10.0
 40
11.0
 40
11.0
 40
11.0
 40
12.0
 40
12.0
 40
12.0
 40
13.0
 40
13.0
 40
13.0
 40
14.0
 40
14.0
 40
14.0
 40
14.0
 10
138.8937304932733
 20
-290.9207149632239
 30
0.0
 10
138.8937304932733
 20
-290.9207149632239
 30
0.0
 10
138.9645304932728
 20
-290.897314963815
 30
0.0
 10
138.9953304932715
 20
-290.897314963815
 30
0.0
 10
138.9953304932715
 20
-290.897314963815
 30
0.0
 10
139.0270304932728
 20
-290.897314963815
 30
0.0
 10
139.0270304932728
 20
-290.897314963815
 30
0.0
 10
139.0270304932728
 20
-290.897314963815
 30
0.0
 10
139.1989304932722
 20
-290.9129149634209
 30
0.0
 10
139.3532304932723
 20
-290.8709149644819
 30
0.0
 10
139.4889304932731
 20
-290.8318149654697
 30
0.0
 10
139.606630493272
 20
-290.7342149679353
 30
0.0
 10
139.606630493272
 20
-290.7342149679353
 30
0.0
 10
139.606630493272
 20
-290.7342149679353
 30
0.0
 10
139.5607304932728
 20
-290.8504149649998
 30
0.0
 10
139.545530493273
 20
-290.8826149641864
 30
0.0
 10
139.5289304932739
 20
-290.9129149634209
 30
0.0
 10
139.4415304932736
 20
-290.9295119831313
 30
0.0
 10
139.4039304932739
 20
-290.9432149626555
 30
0.0
 10
139.3629304932729
 20
-290.9598149622361
 30
0.0
 10
139.3571304932739
 20
-290.9598149622361
 30
0.0
 10
139.3571304932739
 20
-290.9598149622361
 30
0.0
 10
139.3571304932739
 20
-290.9598149622361
 30
0.0
 10
139.3629304932729
 20
-290.9529149624104
 30
0.0
 10
139.3170304932719
 20
-290.9695119831322
 30
0.0
 10
139.2697304932735
 20
-290.983214961645
 30
0.0
 10
139.2872304932716
 20
-290.9695119831322
 30
0.0
 10
139.2296304932715
 20
-290.9910149614479
 30
0.0
 10
139.1764304932731
 20
-291.0145119831323
 30
0.0
 10
139.1671304932715
 20
-291.0145119831323
 30
0.0
 10
139.1671304932715
 20
-291.0145119831323
 30
0.0
 10
139.1671304932715
 20
-291.0145119831323
 30
0.0
 10
138.9786304932732
 20
-291.0076149610286
 30
0.0
 10
138.9572304932735
 20
-291.1082149584872
 30
0.0
 10
138.931330493273
 20
-291.2098149559206
 30
0.0
 10
138.7760304932726
 20
-291.4158149507166
 30
0.0
 10
138.7760304932726
 20
-291.4158149507166
 30
0.0
 10
138.7760304932726
 20
-291.4158149507166
 30
0.0
 10
138.7677304932731
 20
-291.1414149576485
 30
0.0
 10
138.7677304932731
 20
-291.1414149576485
 30
0.0
 10
138.7677304932731
 20
-291.1414149576485
 30
0.0
 10
138.8937304932733
 20
-290.9207149632239
 30
0.0
 10
138.8937304932733
 20
-290.9207149632239
 30
0.0
  0
HATCH
  5
4A
330
41
100
AcDbEntity
  8
Layer 1
 62
     7
420
 16777215
100
AcDbHatch
 10
0.0
 20
0.0
 30
0.0
210
0.0
220
0.0
230
1.0
  2
SOLID
 70
     1
 71
     0
 91
        1
 92
        1
 93
        1
 72
     4
 94
        3
 73
     0
 74
     1
 95
       47
 96
       43
 40
0.0
 40
0.0
 40
0.0
 40
0.0
 40
1.0
 40
1.0
 40
1.0
 40
2.0
 40
2.0
 40
2.0
 40
3.0
 40
3.0
 40
3.0
 40
4.0
 40
4.0
 40
4.0
 40
5.0
 40
5.0
 40
5.0
 40
6.0
 40
6.0
 40
6.0
 40
7.0
 40
7.0
 40
7.0
 40
8.0
 40
8.0
 40
8.0
 40
9.0
 40
9.0
 40
9.0
 40
10.0
 40
10.0
 40
10.0
 40
11.0
 40
11.0
 40
11.0
 40
12.0
 40
12.0
 40
12.0
 40
13.0
 40
13.0
 40
13.0
 40
14.0
 40
14.0
 40
14.0
 40
14.0
 10
138.8937304932733
 20
-290.9207149632239
 10
138.8937304932733
 20
-290.9207149632239
 10
138.9645304932728
 20
-290.897314963815
 10
138.9953304932715
 20
-290.897314963815
 10
138.9953304932715
 20
-290.897314963815
 10
139.0270304932728
 20
-290.897314963815
 10
139.0270304932728
 20
-290.897314963815
 10
139.0270304932728
 20
-290.897314963815
 10
139.1989304932722
 20
-290.9129149634209
 10
139.3532304932723
 20
-290.8709149644819
 10
139.4889304932731
 20
-290.8318149654697
 10
139.606630493272
 20
-290.7342149679353
 10
139.606630493272
 20
-290.7342149679353
 10
139.606630493272
 20
-290.7342149679353
 10
139.5607304932728
 20
-290.8504149649998
 10
139.545530493273
 20
-290.8826149641864
 10
139.5289304932739
 20
-290.9129149634209
 10
139.4415304932736
 20
-290.9295119831313
 10
139.4039304932739
 20
-290.9432149626555
 10
139.3629304932729
 20
-290.9598149622361
 10
139.3571304932739
 20
-290.9598149622361
 10
139.3571304932739
 20
-290.9598149622361
 10
139.3571304932739
 20
-290.9598149622361
 10
139.3629304932729
 20
-290.9529149624104
 10
139.3170304932719
 20
-290.9695119831322
 10
139.2697304932735
 20
-290.983214961645
 10
139.2872304932716
 20
-290.9695119831322
 10
139.2296304932715
 20
-290.9910149614479
 10
139.1764304932731
 20
-291.0145119831323
 10
139.1671304932715
 20
-291.0145119831323
 10
139.1671304932715
 20
-291.0145119831323
 10
139.1671304932715
 20
-291.0145119831323
 10
138.9786304932732
 20
-291.0076149610286
 10
138.9572304932735
 20
-291.1082149584872
 10
138.931330493273
 20
-291.2098149559206
 10
138.7760304932726
 20
-291.4158149507166
 10
138.7760304932726
 20
-291.4158149507166
 10
138.7760304932726
 20
-291.4158149507166
 10
138.7677304932731
 20
-291.1414149576485
 10
138.7677304932731
 20
-291.1414149576485
 10
138.7677304932731
 20
-291.1414149576485
 10
138.8937304932733
 20
-290.9207149632239
 10
138.8937304932733
 20
-290.9207149632239
 97
        0
 97
        0
 75
     2
 76
     1
 98
        0
  0
ENDBLK
  5
44
330
41
100
AcDbEntity
  8
0
100
AcDbBlockEnd
  0
ENDSEC
  0
SECTION
  2
ENTITIES
  0
INSERT
  5
42
330
1F
100
AcDbEntity
  8
Layer 1
100
AcDbBlockReference
  2
block 2
 10
0.0
 20
0.0
 30
0.0
  0
ENDSEC
  0
SECTION
  2
OBJECTS
  0
DICTIONARY
  5
C
330
0
100
AcDbDictionary
281
     1
  3
ACAD_GROUP
350
D
  3
ACAD_LAYOUT
350
1A
  3
ACAD_MATERIAL
350
3B
  3
ACAD_MLEADERSTYLE
350
4C
  3
ACAD_MLINESTYLE
350
17
  3
ACAD_PLOTSETTINGS
350
19
  3
ACAD_PLOTSTYLENAME
350
E
  3
ACAD_TABLESTYLE
350
4B
  3
ACAD_VISUALSTYLE
350
2A
  0
SUN
  5
3F
330
29
100
AcDbSun
 90
        1
290
     0
 63
     7
421
 16777215
 40
1.0
291
     1
 91
  2455826
 92
 54000000
292
     0
 70
     2
 71
   256
280
     1
  0
DICTIONARY
  5
D
102
{ACAD_REACTORS
330
C
102
}
330
C
100
AcDbDictionary
281
     1
  0
DICTIONARY
  5
1A
102
{ACAD_REACTORS
330
C
102
}
330
C
100
AcDbDictionary
281
     1
  3
Layout1
350
1E
  3
Layout2
350
26
  3
Model
350
22
  0
DICTIONARY
  5
3B
102
{ACAD_REACTORS
330
C
102
}
330
C
100
AcDbDictionary
281
     1
  3
ByBlock
350
3D
  3
ByLayer
350
3C
  3
Global
350
3E
  0
DICTIONARY
  5
4C
102
{ACAD_REACTORS
330
C
102
}
330
C
100
AcDbDictionary
281
     1
  0
DICTIONARY
  5
17
102
{ACAD_REACTORS
330
C
102
}
330
C
100
AcDbDictionary
281
     1
  3
Standard
350
18
  0
DICTIONARY
  5
19
102
{ACAD_REACTORS
330
C
102
}
330
C
100
AcDbDictionary
281
     1
  0
ACDBDICTIONARYWDFLT
  5
E
102
{ACAD_REACTORS
330
C
102
}
330
C
100
AcDbDictionary
281
     1
  3
Normal
350
F
100
AcDbDictionaryWithDefault
340
F
  0
DICTIONARY
  5
4B
102
{ACAD_REACTORS
330
C
102
}
330
C
100
AcDbDictionary
281
     1
  0
DICTIONARY
  5
2A
102
{ACAD_REACTORS
330
C
102
}
330
C
100
AcDbDictionary
281
     1
  3
2dWireframe
350
2F
  3
3D Hidden
350
31
  3
3dWireframe
350
30
  3
Basic
350
32
  3
Brighten
350
36
  3
ColorChange
350
3A
  3
Conceptual
350
34
  3
Dim
350
35
  3
Facepattern
350
39
  3
Flat
350
2B
  3
FlatWithEdges
350
2C
  3
Gouraud
350
2D
  3
GouraudWithEdges
350
2E
  3
Linepattern
350
38
  3
Realistic
350
33
  3
Thicken
350
37
  0
LAYOUT
  5
1E
102
{ACAD_REACTORS
330
1A
102
}
330
1A
100
AcDbPlotSettings
  1

  2
none_device
  4

  6

 40
0.0
 41
0.0
 42
0.0
 43
0.0
 44
0.0
 45
0.0
 46
0.0
 47
0.0
 48
0.0
 49
0.0
140
0.0
141
0.0
142
1.0
143
1.0
 70
   688
 72
     0
 73
     0
 74
     5
  7

 75
    16
 76
     0
 77
     2
 78
   300
147
1.0
148
0.0
149
0.0
100
AcDbLayout
  1
Layout1
 70
     1
 71
     1
 10
0.0
 20
0.0
 11
12.0
 21
9.0
 12
0.0
 22
0.0
 32
0.0
 14
1.000000000000000E+20
 24
1.000000000000000E+20
 34
1.000000000000000E+20
 15
-1.000000000000000E+20
 25
-1.000000000000000E+20
 35
-1.000000000000000E+20
146
0.0
 13
0.0
 23
0.0
 33
0.0
 16
1.0
 26
0.0
 36
0.0
 17
0.0
 27
1.0
 37
0.0
 76
     0
330
1B
  0
LAYOUT
  5
26
102
{ACAD_REACTORS
330
1A
102
}
330
1A
100
AcDbPlotSettings
  1

  2
none_device
  4

  6

 40
0.0
 41
0.0
 42
0.0
 43
0.0
 44
0.0
 45
0.0
 46
0.0
 47
0.0
 48
0.0
 49
0.0
140
0.0
141
0.0
142
1.0
143
1.0
 70
   688
 72
     0
 73
     0
 74
     5
  7

 75
    16
 76
     0
 77
     2
 78
   300
147
1.0
148
0.0
149
0.0
100
AcDbLayout
  1
Layout2
 70
     1
 71
     2
 10
0.0
 20
0.0
 11
0.0
 21
0.0
 12
0.0
 22
0.0
 32
0.0
 14
0.0
 24
0.0
 34
0.0
 15
0.0
 25
0.0
 35
0.0
146
0.0
 13
0.0
 23
0.0
 33
0.0
 16
1.0
 26
0.0
 36
0.0
 17
0.0
 27
1.0
 37
0.0
 76
     0
330
23
  0
LAYOUT
  5
22
102
{ACAD_REACTORS
330
1A
102
}
330
1A
100
AcDbPlotSettings
  1

  2
none_device
  4

  6

 40
0.0
 41
0.0
 42
0.0
 43
0.0
 44
0.0
 45
0.0
 46
0.0
 47
0.0
 48
0.0
 49
0.0
140
0.0
141
0.0
142
1.0
143
1.0
 70
  1712
 72
     0
 73
     0
 74
     0
  7

 75
     0
 76
     0
 77
     2
 78
   300
147
1.0
148
0.0
149
0.0
100
AcDbLayout
  1
Model
 70
     1
 71
     0
 10
0.0
 20
0.0
 11
12.0
 21
9.0
 12
0.0
 22
0.0
 32
0.0
 14
1.000000000000000E+20
 24
1.000000000000000E+20
 34
1.000000000000000E+20
 15
-1.000000000000000E+20
 25
-1.000000000000000E+20
 35
-1.000000000000000E+20
146
0.0
 13
0.0
 23
0.0
 33
0.0
 16
1.0
 26
0.0
 36
0.0
 17
0.0
 27
1.0
 37
0.0
 76
     0
330
1F
331
29
  0
MATERIAL
  5
3D
102
{ACAD_REACTORS
330
3B
102
}
330
3B
100
AcDbMaterial
  1
ByBlock
 72
     1
 94
      127
  0
MATERIAL
  5
3C
102
{ACAD_REACTORS
330
3B
102
}
330
3B
100
AcDbMaterial
  1
ByLayer
 72
     1
 94
      127
  0
MATERIAL
  5
3E
102
{ACAD_REACTORS
330
3B
102
}
330
3B
100
AcDbMaterial
  1
Global
 72
     1
 94
      127
  0
MLINESTYLE
  5
18
102
{ACAD_REACTORS
330
17
102
}
330
17
100
AcDbMlineStyle
  2
Standard
 70
     0
  3

 62
   256
 51
90.0
 52
90.0
 71
     2
 49
0.5
 62
   256
  6
BYLAYER
 49
-0.5
 62
   256
  6
BYLAYER
  0
ACDBPLACEHOLDER
  5
F
102
{ACAD_REACTORS
330
E
102
}
330
E
  0
VISUALSTYLE
  5
2F
102
{ACAD_REACTORS
330
2A
102
}
330
2A
100
AcDbVisualStyle
  2
2dWireframe
 70
     4
177
     2
291
     0
 71
     0
176
     1
 72
     2
176
     1
 73
     0
176
     1
 90
        0
176
     1
 40
-0.6
176
     1
 41
-30.0
176
     1
 62
     5
 63
     7
421
 16777215
176
     1
 74
     1
176
     1
 91
        4
176
     1
 64
     7
176
     1
 65
   257
176
     1
 75
     1
176
     1
175
     1
176
     1
 42
1.0
176
     1
 92
        0
176
     1
 66
   257
176
     1
 43
1.0
176
     1
 76
     1
176
     1
 77
     6
176
     1
 78
     2
176
     1
 67
     7
176
     1
 79
     5
176
     1
170
     0
176
     1
171
     0
176
     1
290
     0
176
     1
 93
        1
176
     1
 44
0.0
176
     1
173
     0
176
     1
  0
VISUALSTYLE
  5
31
102
{ACAD_REACTORS
330
2A
102
}
330
2A
100
AcDbVisualStyle
  2
3D Hidden
 70
     6
177
     2
291
     0
 71
     1
176
     1
 72
     2
176
     1
 73
     2
176
     1
 90
        0
176
     1
 40
-0.6
176
     1
 41
-30.0
176
     1
 62
     5
 63
     7
421
 16777215
176
     1
 74
     2
176
     1
 91
        2
176
     1
 64
     7
176
     1
 65
   257
176
     1
 75
     2
176
     1
175
     1
176
     1
 42
40.0
176
     1
 92
        0
176
     1
 66
   257
176
     1
 43
1.0
176
     1
 76
     1
176
     1
 77
     6
176
     1
 78
     2
176
     1
 67
     7
176
     1
 79
     3
176
     1
170
     0
176
     1
171
     0
176
     1
290
     0
176
     1
 93
        1
176
     1
 44
0.0
176
     1
173
     0
176
     1
  0
VISUALSTYLE
  5
30
102
{ACAD_REACTORS
330
2A
102
}
330
2A
100
AcDbVisualStyle
  2
3dWireframe
 70
     5
177
     2
291
     0
 71
     0
176
     1
 72
     2
176
     1
 73
     0
176
     1
 90
        0
176
     1
 40
-0.6
176
     1
 41
-30.0
176
     1
 62
     5
 63
     7
421
 16777215
176
     1
 74
     1
176
     1
 91
        4
176
     1
 64
     7
176
     1
 65
   257
176
     1
 75
     1
176
     1
175
     1
176
     1
 42
1.0
176
     1
 92
        0
176
     1
 66
   257
176
     1
 43
1.0
176
     1
 76
     1
176
     1
 77
     6
176
     1
 78
     2
176
     1
 67
     7
176
     1
 79
     5
176
     1
170
     0
176
     1
171
     0
176
     1
290
     0
176
     1
 93
        1
176
     1
 44
0.0
176
     1
173
     0
176
     1
  0
VISUALSTYLE
  5
32
102
{ACAD_REACTORS
330
2A
102
}
330
2A
100
AcDbVisualStyle
  2
Basic
 70
     7
177
     2
291
     1
 71
     1
176
     1
 72
     0
176
     1
 73
     1
176
     1
 90
        0
176
     1
 40
-0.6
176
     1
 41
-30.0
176
     1
 62
     5
 63
     7
421
 16777215
176
     1
 74
     0
176
     1
 91
        4
176
     1
 64
     7
176
     1
 65
   257
176
     1
 75
     1
176
     1
175
     1
176
     1
 42
1.0
176
     1
 92
        8
176
     1
 66
     7
176
     1
 43
1.0
176
     1
 76
     1
176
     1
 77
     6
176
     1
 78
     2
176
     1
 67
     7
176
     1
 79
     5
176
     1
170
     0
176
     1
171
     0
176
     1
290
     0
176
     1
 93
        1
176
     1
 44
0.0
176
     1
173
     0
176
     1
  0
VISUALSTYLE
  5
36
102
{ACAD_REACTORS
330
2A
102
}
330
2A
100
AcDbVisualStyle
  2
Brighten
 70
    12
177
     2
291
     1
 71
     2
176
     1
 72
     2
176
     1
 73
     0
176
     1
 90
        0
176
     1
 40
-0.6
176
     1
 41
-30.0
176
     1
 62
     5
 63
     7
421
 16777215
176
     1
 74
     1
176
     1
 91
        4
176
     1
 64
     7
176
     1
 65
   257
176
     1
 75
     1
176
     1
175
     1
176
     1
 42
1.0
176
     1
 92
        8
176
     1
 66
     7
176
     1
 43
1.0
176
     1
 76
     1
176
     1
 77
     6
176
     1
 78
     2
176
     1
 67
     7
176
     1
 79
     5
176
     1
170
     0
176
     1
171
     0
176
     1
290
     0
176
     1
 93
        1
176
     1
 44
50.0
176
     1
173
     0
176
     1
  0
VISUALSTYLE
  5
3A
102
{ACAD_REACTORS
330
2A
102
}
330
2A
100
AcDbVisualStyle
  2
ColorChange
 70
    16
177
     2
291
     1
 71
     2
176
     1
 72
     2
176
     1
 73
     3
176
     1
 90
        0
176
     1
 40
-0.6
176
     1
 41
-30.0
176
     1
 62
     5
 63
     8
421
  8421504
176
     1
 74
     1
176
     1
 91
        4
176
     1
 64
     7
176
     1
 65
   257
176
     1
 75
     1
176
     1
175
     1
176
     1
 42
1.0
176
     1
 92
        8
176
     1
 66
     8
424
  8421504
176
     1
 43
1.0
176
     1
 76
     1
176
     1
 77
     6
176
     1
 78
     2
176
     1
 67
     7
176
     1
 79
     5
176
     1
170
     0
176
     1
171
     0
176
     1
290
     0
176
     1
 93
        1
176
     1
 44
0.0
176
     1
173
     0
176
     1
  0
VISUALSTYLE
  5
34
102
{ACAD_REACTORS
330
2A
102
}
330
2A
100
AcDbVisualStyle
  2
Conceptual
 70
     9
177
     2
291
     0
 71
     3
176
     1
 72
     2
176
     1
 73
     0
176
     1
 90
        0
176
     1
 40
-0.6
176
     1
 41
-30.0
176
     1
 62
     5
 63
     7
421
 16777215
176
     1
 74
     2
176
     1
 91
        2
176
     1
 64
     7
176
     1
 65
   257
176
     1
 75
     1
176
     1
175
     1
176
     1
 42
40.0
176
     1
 92
        8
176
     1
 66
     7
176
     1
 43
1.0
176
     1
 76
     1
176
     1
 77
     6
176
     1
 78
     2
176
     1
 67
     7
176
     1
 79
     3
176
     1
170
     0
176
     1
171
     0
176
     1
290
     0
176
     1
 93
        1
176
     1
 44
0.0
176
     1
173
     0
176
     1
  0
VISUALSTYLE
  5
35
102
{ACAD_REACTORS
330
2A
102
}
330
2A
100
AcDbVisualStyle
  2
Dim
 70
    11
177
     2
291
     1
 71
     2
176
     1
 72
     2
176
     1
 73
     0
176
     1
 90
        0
176
     1
 40
-0.6
176
     1
 41
-30.0
176
     1
 62
     5
 63
     7
421
 16777215
176
     1
 74
     1
176
     1
 91
        4
176
     1
 64
     7
176
     1
 65
   257
176
     1
 75
     1
176
     1
175
     1
176
     1
 42
1.0
176
     1
 92
        8
176
     1
 66
     7
176
     1
 43
1.0
176
     1
 76
     1
176
     1
 77
     6
176
     1
 78
     2
176
     1
 67
     7
176
     1
 79
     5
176
     1
170
     0
176
     1
171
     0
176
     1
290
     0
176
     1
 93
        1
176
     1
 44
-50.0
176
     1
173
     0
176
     1
  0
VISUALSTYLE
  5
39
102
{ACAD_REACTORS
330
2A
102
}
330
2A
100
AcDbVisualStyle
  2
Facepattern
 70
    15
177
     2
291
     1
 71
     2
176
     1
 72
     2
176
     1
 73
     0
176
     1
 90
        0
176
     1
 40
-0.6
176
     1
 41
-30.0
176
     1
 62
     5
 63
     7
421
 16777215
176
     1
 74
     1
176
     1
 91
        4
176
     1
 64
     7
176
     1
 65
   257
176
     1
 75
     1
176
     1
175
     1
176
     1
 42
1.0
176
     1
 92
        8
176
     1
 66
     7
176
     1
 43
1.0
176
     1
 76
     1
176
     1
 77
     6
176
     1
 78
     2
176
     1
 67
     7
176
     1
 79
     5
176
     1
170
     0
176
     1
171
     0
176
     1
290
     0
176
     1
 93
        1
176
     1
 44
0.0
176
     1
173
     0
176
     1
  0
VISUALSTYLE
  5
2B
102
{ACAD_REACTORS
330
2A
102
}
330
2A
100
AcDbVisualStyle
  2
Flat
 70
     0
177
     2
291
     1
 71
     2
176
     1
 72
     1
176
     1
 73
     1
176
     1
 90
        2
176
     1
 40
-0.6
176
     1
 41
30.0
176
     1
 62
     5
 63
     7
421
 16777215
176
     1
 74
     0
176
     1
 91
        4
176
     1
 64
     7
176
     1
 65
   257
176
     1
 75
     1
176
     1
175
     1
176
     1
 42
1.0
176
     1
 92
        8
176
     1
 66
     7
176
     1
 43
1.0
176
     1
 76
     1
176
     1
 77
     6
176
     1
 78
     2
176
     1
 67
     7
176
     1
 79
     5
176
     1
170
     0
176
     1
171
     0
176
     1
290
     0
176
     1
 93
       13
176
     1
 44
0.0
176
     1
173
     0
176
     1
  0
VISUALSTYLE
  5
2C
102
{ACAD_REACTORS
330
2A
102
}
330
2A
100
AcDbVisualStyle
  2
FlatWithEdges
 70
     1
177
     2
291
     1
 71
     2
176
     1
 72
     1
176
     1
 73
     1
176
     1
 90
        2
176
     1
 40
-0.6
176
     1
 41
30.0
176
     1
 62
     5
 63
     7
421
 16777215
176
     1
 74
     1
176
     1
 91
        4
176
     1
 64
     7
176
     1
 65
   257
176
     1
 75
     1
176
     1
175
     1
176
     1
 42
1.0
176
     1
 92
        0
176
     1
 66
   257
176
     1
 43
1.0
176
     1
 76
     1
176
     1
 77
     6
176
     1
 78
     2
176
     1
 67
     7
176
     1
 79
     5
176
     1
170
     0
176
     1
171
     0
176
     1
290
     0
176
     1
 93
       13
176
     1
 44
0.0
176
     1
173
     0
176
     1
  0
VISUALSTYLE
  5
2D
102
{ACAD_REACTORS
330
2A
102
}
330
2A
100
AcDbVisualStyle
  2
Gouraud
 70
     2
177
     2
291
     1
 71
     2
176
     1
 72
     2
176
     1
 73
     1
176
     1
 90
        2
176
     1
 40
-0.6
176
     1
 41
30.0
176
     1
 62
     5
 63
     7
421
 16777215
176
     1
 74
     0
176
     1
 91
        4
176
     1
 64
     7
176
     1
 65
   257
176
     1
 75
     1
176
     1
175
     1
176
     1
 42
1.0
176
     1
 92
        0
176
     1
 66
     7
176
     1
 43
1.0
176
     1
 76
     1
176
     1
 77
     6
176
     1
 78
     2
176
     1
 67
     7
176
     1
 79
     5
176
     1
170
     0
176
     1
171
     0
176
     1
290
     0
176
     1
 93
       13
176
     1
 44
0.0
176
     1
173
     0
176
     1
  0
VISUALSTYLE
  5
2E
102
{ACAD_REACTORS
330
2A
102
}
330
2A
100
AcDbVisualStyle
  2
GouraudWithEdges
 70
     3
177
     2
291
     1
 71
     2
176
     1
 72
     2
176
     1
 73
     1
176
     1
 90
        2
176
     1
 40
-0.6
176
     1
 41
30.0
176
     1
 62
     5
 63
     7
421
 16777215
176
     1
 74
     1
176
     1
 91
        4
176
     1
 64
     7
176
     1
 65
   257
176
     1
 75
     1
176
     1
175
     1
176
     1
 42
1.0
176
     1
 92
        0
176
     1
 66
   257
176
     1
 43
1.0
176
     1
 76
     1
176
     1
 77
     6
176
     1
 78
     2
176
     1
 67
     7
176
     1
 79
     5
176
     1
170
     0
176
     1
171
     0
176
     1
290
     0
176
     1
 93
       13
176
     1
 44
0.0
176
     1
173
     0
176
     1
  0
VISUALSTYLE
  5
38
102
{ACAD_REACTORS
330
2A
102
}
330
2A
100
AcDbVisualStyle
  2
Linepattern
 70
    14
177
     2
291
     1
 71
     2
176
     1
 72
     2
176
     1
 73
     0
176
     1
 90
        0
176
     1
 40
-0.6
176
     1
 41
-30.0
176
     1
 62
     5
 63
     7
421
 16777215
176
     1
 74
     1
176
     1
 91
        4
176
     1
 64
     7
176
     1
 65
   257
176
     1
 75
     7
176
     1
175
     7
176
     1
 42
1.0
176
     1
 92
        8
176
     1
 66
     7
176
     1
 43
1.0
176
     1
 76
     1
176
     1
 77
     6
176
     1
 78
     2
176
     1
 67
     7
176
     1
 79
     5
176
     1
170
     0
176
     1
171
     0
176
     1
290
     0
176
     1
 93
        1
176
     1
 44
0.0
176
     1
173
     0
176
     1
  0
VISUALSTYLE
  5
33
102
{ACAD_REACTORS
330
2A
102
}
330
2A
100
AcDbVisualStyle
  2
Realistic
 70
     8
177
     2
291
     0
 71
     2
176
     1
 72
     2
176
     1
 73
     0
176
     1
 90
        0
176
     1
 40
-0.6
176
     1
 41
-30.0
176
     1
 62
     5
 63
     7
421
 16777215
176
     1
 74
     1
176
     1
 91
        0
176
     1
 64
     7
176
     1
 65
   257
176
     1
 75
     1
176
     1
175
     1
176
     1
 42
1.0
176
     1
 92
        8
176
     1
 66
     8
424
  7895160
176
     1
 43
1.0
176
     1
 76
     1
176
     1
 77
     6
176
     1
 78
     2
176
     1
 67
     7
176
     1
 79
     5
176
     1
170
     0
176
     1
171
     0
176
     1
290
     0
176
     1
 93
       13
176
     1
 44
0.0
176
     1
173
     0
176
     1
  0
VISUALSTYLE
  5
37
102
{ACAD_REACTORS
330
2A
102
}
330
2A
100
AcDbVisualStyle
  2
Thicken
 70
    13
177
     2
291
     1
 71
     2
176
     1
 72
     2
176
     1
 73
     0
176
     1
 90
        0
176
     1
 40
-0.6
176
     1
 41
-30.0
176
     1
 62
     5
 63
     7
421
 16777215
176
     1
 74
     1
176
     1
 91
        4
176
     1
 64
     7
176
     1
 65
   257
176
     1
 75
     1
176
     1
175
     1
176
     1
 42
1.0
176
     1
 92
       12
176
     1
 66
     7
176
     1
 43
1.0
176
     1
 76
     1
176
     1
 77
     6
176
     1
 78
     2
176
     1
 67
     7
176
     1
 79
     5
176
     1
170
     0
176
     1
171
     0
176
     1
290
     0
176
     1
 93
        1
176
     1
 44
0.0
176
     1
173
     0
176
     1
  0
ENDSEC
  0
EOF
