  0
SECTION
  2
HEADER
  9
$ACADVER
  1
AC1024
  9
$ACADMAINTVER
 70
     6
  9
$DWGCODEPAGE
  3
ANSI_1252
  9
$INSBASE
 10
0.0
 20
0.0
 30
0.0
  9
$EXTMIN
 10
1.000000000000000E+20
 20
1.000000000000000E+20
 30
1.000000000000000E+20
  9
$EXTMAX
 10
-1.000000000000000E+20
 20
-1.000000000000000E+20
 30
-1.000000000000000E+20
  9
$LIMMIN
 10
0.0
 20
0.0
  9
$LIMMAX
 10
12.0
 20
9.0
  9
$ORTHOMODE
 70
     0
  9
$REGENMODE
 70
     1
  9
$FILLMODE
 70
     1
  9
$QTEXTMODE
 70
     0
  9
$MIRRTEXT
 70
     1
  9
$LTSCALE
 40
1.0
  9
$ATTMODE
 70
     1
  9
$TEXTSIZE
 40
0.2
  9
$TRACEWID
 40
0.05
  9
$TEXTSTYLE
  7
Standard
  9
$CLAYER
  8
0
  9
$CELTYPE
  6
ByLayer
  9
$CECOLOR
 62
   256
  9
$CELTSCALE
 40
1.0
  9
$DISPSILH
 70
     0
  9
$DIMSCALE
 40
1.0
  9
$DIMASZ
 40
0.18
  9
$DIMEXO
 40
0.0625
  9
$DIMDLI
 40
0.38
  9
$DIMRND
 40
0.0
  9
$DIMDLE
 40
0.0
  9
$DIMEXE
 40
0.18
  9
$DIMTP
 40
0.0
  9
$DIMTM
 40
0.0
  9
$DIMTXT
 40
0.18
  9
$DIMCEN
 40
0.09
  9
$DIMTSZ
 40
0.0
  9
$DIMTOL
 70
     0
  9
$DIMLIM
 70
     0
  9
$DIMTIH
 70
     1
  9
$DIMTOH
 70
     1
  9
$DIMSE1
 70
     0
  9
$DIMSE2
 70
     0
  9
$DIMTAD
 70
     0
  9
$DIMZIN
 70
     0
  9
$DIMBLK
  1

  9
$DIMASO
 70
     1
  9
$DIMSHO
 70
     1
  9
$DIMPOST
  1

  9
$DIMAPOST
  1

  9
$DIMALT
 70
     0
  9
$DIMALTD
 70
     2
  9
$DIMALTF
 40
25.4
  9
$DIMLFAC
 40
1.0
  9
$DIMTOFL
 70
     0
  9
$DIMTVP
 40
0.0
  9
$DIMTIX
 70
     0
  9
$DIMSOXD
 70
     0
  9
$DIMSAH
 70
     0
  9
$DIMBLK1
  1

  9
$DIMBLK2
  1

  9
$DIMSTYLE
  2
Standard
  9
$DIMCLRD
 70
     0
  9
$DIMCLRE
 70
     0
  9
$DIMCLRT
 70
     0
  9
$DIMTFAC
 40
1.0
  9
$DIMGAP
 40
0.09
  9
$DIMJUST
 70
     0
  9
$DIMSD1
 70
     0
  9
$DIMSD2
 70
     0
  9
$DIMTOLJ
 70
     1
  9
$DIMTZIN
 70
     0
  9
$DIMALTZ
 70
     0
  9
$DIMALTTZ
 70
     0
  9
$DIMUPT
 70
     0
  9
$DIMDEC
 70
     4
  9
$DIMTDEC
 70
     4
  9
$DIMALTU
 70
     2
  9
$DIMALTTD
 70
     2
  9
$DIMTXSTY
  7
Standard
  9
$DIMAUNIT
 70
     0
  9
$DIMADEC
 70
     0
  9
$DIMALTRND
 40
0.0
  9
$DIMAZIN
 70
     0
  9
$DIMDSEP
 70
    46
  9
$DIMATFIT
 70
     3
  9
$DIMFRAC
 70
     0
  9
$DIMLDRBLK
  1

  9
$DIMLUNIT
 70
     2
  9
$DIMLWD
 70
    -2
  9
$DIMLWE
 70
    -2
  9
$DIMTMOVE
 70
     0
  9
$DIMFXL
 40
1.0
  9
$DIMFXLON
 70
     0
  9
$DIMJOGANG
 40
0.7853981633974483
  9
$DIMTFILL
 70
     0
  9
$DIMTFILLCLR
 70
     0
  9
$DIMARCSYM
 70
     0
  9
$DIMLTYPE
  6

  9
$DIMLTEX1
  6

  9
$DIMLTEX2
  6

  9
$DIMTXTDIRECTION
 70
     0
  9
$LUNITS
 70
     2
  9
$LUPREC
 70
     4
  9
$SKETCHINC
 40
0.1
  9
$FILLETRAD
 40
0.5
  9
$AUNITS
 70
     0
  9
$AUPREC
 70
     0
  9
$MENU
  1
.
  9
$ELEVATION
 40
0.0
  9
$PELEVATION
 40
0.0
  9
$THICKNESS
 40
0.0
  9
$LIMCHECK
 70
     0
  9
$CHAMFERA
 40
0.5
  9
$CHAMFERB
 40
0.5
  9
$CHAMFERC
 40
1.0
  9
$CHAMFERD
 40
0.0
  9
$SKPOLY
 70
     0
  9
$TDCREATE
 40
2457931.800128195
  9
$TDUCREATE
 40
2457932.091794861
  9
$TDUPDATE
 40
2457931.800128252
  9
$TDUUPDATE
 40
2457932.091794919
  9
$TDINDWG
 40
0.0000000116
  9
$TDUSRTIMER
 40
0.0000000116
  9
$USRTIMER
 70
     1
  9
$ANGBASE
 50
0.0
  9
$ANGDIR
 70
     0
  9
$PDMODE
 70
     0
  9
$PDSIZE
 40
0.0
  9
$PLINEWID
 40
0.0
  9
$SPLFRAME
 70
     0
  9
$SPLINETYPE
 70
     6
  9
$SPLINESEGS
 70
     8
  9
$HANDSEED
  5
45
  9
$SURFTAB1
 70
     6
  9
$SURFTAB2
 70
     6
  9
$SURFTYPE
 70
     6
  9
$SURFU
 70
     6
  9
$SURFV
 70
     6
  9
$UCSBASE
  2

  9
$UCSNAME
  2

  9
$UCSORG
 10
0.0
 20
0.0
 30
0.0
  9
$UCSXDIR
 10
1.0
 20
0.0
 30
0.0
  9
$UCSYDIR
 10
0.0
 20
1.0
 30
0.0
  9
$UCSORTHOREF
  2

  9
$UCSORTHOVIEW
 70
     0
  9
$UCSORGTOP
 10
0.0
 20
0.0
 30
0.0
  9
$UCSORGBOTTOM
 10
0.0
 20
0.0
 30
0.0
  9
$UCSORGLEFT
 10
0.0
 20
0.0
 30
0.0
  9
$UCSORGRIGHT
 10
0.0
 20
0.0
 30
0.0
  9
$UCSORGFRONT
 10
0.0
 20
0.0
 30
0.0
  9
$UCSORGBACK
 10
0.0
 20
0.0
 30
0.0
  9
$PUCSBASE
  2

  9
$PUCSNAME
  2

  9
$PUCSORG
 10
0.0
 20
0.0
 30
0.0
  9
$PUCSXDIR
 10
1.0
 20
0.0
 30
0.0
  9
$PUCSYDIR
 10
0.0
 20
1.0
 30
0.0
  9
$PUCSORTHOREF
  2

  9
$PUCSORTHOVIEW
 70
     0
  9
$PUCSORGTOP
 10
0.0
 20
0.0
 30
0.0
  9
$PUCSORGBOTTOM
 10
0.0
 20
0.0
 30
0.0
  9
$PUCSORGLEFT
 10
0.0
 20
0.0
 30
0.0
  9
$PUCSORGRIGHT
 10
0.0
 20
0.0
 30
0.0
  9
$PUCSORGFRONT
 10
0.0
 20
0.0
 30
0.0
  9
$PUCSORGBACK
 10
0.0
 20
0.0
 30
0.0
  9
$USERI1
 70
     0
  9
$USERI2
 70
     0
  9
$USERI3
 70
     0
  9
$USERI4
 70
     0
  9
$USERI5
 70
     0
  9
$USERR1
 40
0.0
  9
$USERR2
 40
0.0
  9
$USERR3
 40
0.0
  9
$USERR4
 40
0.0
  9
$USERR5
 40
0.0
  9
$WORLDVIEW
 70
     1
  9
$SHADEDGE
 70
     3
  9
$SHADEDIF
 70
    70
  9
$TILEMODE
 70
     1
  9
$MAXACTVP
 70
    64
  9
$PINSBASE
 10
0.0
 20
0.0
 30
0.0
  9
$PLIMCHECK
 70
     0
  9
$PEXTMIN
 10
1.000000000000000E+20
 20
1.000000000000000E+20
 30
1.000000000000000E+20
  9
$PEXTMAX
 10
-1.000000000000000E+20
 20
-1.000000000000000E+20
 30
-1.000000000000000E+20
  9
$PLIMMIN
 10
0.0
 20
0.0
  9
$PLIMMAX
 10
12.0
 20
9.0
  9
$UNITMODE
 70
     0
  9
$VISRETAIN
 70
     1
  9
$PLINEGEN
 70
     0
  9
$PSLTSCALE
 70
     1
  9
$TREEDEPTH
 70
  3020
  9
$CMLSTYLE
  2
Standard
  9
$CMLJUST
 70
     0
  9
$CMLSCALE
 40
1.0
  9
$PROXYGRAPHICS
 70
     1
  9
$MEASUREMENT
 70
     0
  9
$CELWEIGHT
370
    -1
  9
$ENDCAPS
280
     0
  9
$JOINSTYLE
280
     0
  9
$LWDISPLAY
290
     1
  9
$INSUNITS
 70
     1
  9
$HYPERLINKBASE
  1

  9
$STYLESHEET
  1

  9
$XEDIT
290
     1
  9
$CEPSNTYPE
380
     0
  9
$PSTYLEMODE
290
     1
  9
$FINGERPRINTGUID
  2
{7E8A064D-9B9B-49EF-A8ED-65D81B245FA8}
  9
$VERSIONGUID
  2
{FAEB1C32-E019-11D5-929B-00C0DF256EC4}
  9
$EXTNAMES
290
     1
  9
$PSVPSCALE
 40
0.0
  9
$OLESTARTUP
290
     0
  9
$SORTENTS
280
   127
  9
$INDEXCTL
280
     0
  9
$HIDETEXT
280
     1
  9
$XCLIPFRAME
280
     2
  9
$HALOGAP
280
     0
  9
$OBSCOLOR
 70
   257
  9
$OBSLTYPE
280
     0
  9
$INTERSECTIONDISPLAY
280
     0
  9
$INTERSECTIONCOLOR
 70
   257
  9
$DIMASSOC
280
     2
  9
$PROJECTNAME
  1

  9
$CAMERADISPLAY
290
     0
  9
$LENSLENGTH
 40
50.0
  9
$CAMERAHEIGHT
 40
0.0
  9
$STEPSPERSEC
 40
2.0
  9
$STEPSIZE
 40
6.0
  9
$3DDWFPREC
 40
2.0
  9
$PSOLWIDTH
 40
0.25
  9
$PSOLHEIGHT
 40
4.0
  9
$LOFTANG1
 40
1.570796326794897
  9
$LOFTANG2
 40
1.570796326794897
  9
$LOFTMAG1
 40
0.0
  9
$LOFTMAG2
 40
0.0
  9
$LOFTPARAM
 70
     7
  9
$LOFTNORMALS
280
     1
  9
$LATITUDE
 40
37.795
  9
$LONGITUDE
 40
-122.394
  9
$NORTHDIRECTION
 40
0.0
  9
$TIMEZONE
 70
 -8000
  9
$LIGHTGLYPHDISPLAY
280
     1
  9
$TILEMODELIGHTSYNCH
280
     1
  9
$CMATERIAL
347
3C
  9
$SOLIDHIST
280
     1
  9
$SHOWHIST
280
     1
  9
$DWFFRAME
280
     2
  9
$DGNFRAME
280
     2
  9
$REALWORLDSCALE
290
     1
  9
$INTERFERECOLOR
 62
   256
  9
$CSHADOW
280
     0
  9
$SHADOWPLANELOCATION
 40
0.0
  0
ENDSEC
  0
SECTION
  2
CLASSES
  0
CLASS
  1
ACDBDICTIONARYWDFLT
  2
AcDbDictionaryWithDefault
  3
ObjectDBX Classes
 90
        0
 91
        4
280
     0
281
     0
  0
CLASS
  1
VISUALSTYLE
  2
AcDbVisualStyle
  3
ObjectDBX Classes
 90
     4095
 91
        4
280
     0
281
     0
  0
CLASS
  1
MATERIAL
  2
AcDbMaterial
  3
ObjectDBX Classes
 90
     1153
 91
        4
280
     0
281
     0
  0
CLASS
  1
SUN
  2
AcDbSun
  3
SCENEOE
 90
     1024
 91
        4
280
     0
281
     0
  0
ENDSEC
  0
SECTION
  2
TABLES
  0
TABLE
  2
VPORT
  5
8
330
0
100
AcDbSymbolTable
 70
     1
  0
VPORT
  5
29
330
8
100
AcDbSymbolTableRecord
100
AcDbViewportTableRecord
  2
*Active
 70
     0
 10
0.0
 20
0.0
 11
1.0
 21
1.0
 12
0.0
 22
0.0
 13
0.0
 23
0.0
 14
0.5
 24
0.5
 15
0.5
 25
0.5
 16
0.0
 26
0.0
 36
1.0
 17
144.0
 27
-280.0
 37
0.0
 40
560.0
 41
0.5142857142857142
 42
50.0
 43
0.0
 44
0.0
 50
0.0
 51
0.0
 71
     0
 72
   100
 73
     1
 74
     3
 75
     0
 76
     0
 77
     0
 78
     0
281
     0
 65
     1
110
0.0
120
0.0
130
0.0
111
1.0
121
0.0
131
0.0
112
0.0
122
1.0
132
0.0
 79
     0
146
0.0
 60
     3
 61
     5
292
     1
282
     1
141
0.0
142
0.0
 63
   250
361
3F
  0
ENDTAB
  0
TABLE
  2
LTYPE
  5
5
330
0
100
AcDbSymbolTable
 70
     1
  0
LTYPE
  5
14
330
5
100
AcDbSymbolTableRecord
100
AcDbLinetypeTableRecord
  2
ByBlock
 70
     0
  3

 72
    65
 73
     0
 40
0.0
  0
LTYPE
  5
15
330
5
100
AcDbSymbolTableRecord
100
AcDbLinetypeTableRecord
  2
ByLayer
 70
     0
  3

 72
    65
 73
     0
 40
0.0
  0
LTYPE
  5
16
330
5
100
AcDbSymbolTableRecord
100
AcDbLinetypeTableRecord
  2
Continuous
 70
     0
  3
Solid line
 72
    65
 73
     0
 40
0.0
  0
ENDTAB
  0
TABLE
  2
LAYER
  5
2
330
0
100
AcDbSymbolTable
 70
     2
  0
LAYER
  5
10
330
2
100
AcDbSymbolTableRecord
100
AcDbLayerTableRecord
  2
0
 70
     0
 62
     7
  6
Continuous
370
    -3
390
F
347
3E
  0
LAYER
  5
40
330
2
100
AcDbSymbolTableRecord
100
AcDbLayerTableRecord
  2
Layer 1
 70
     0
 62
     7
  6
Continuous
370
    -3
390
F
347
3E
  0
ENDTAB
  0
TABLE
  2
STYLE
  5
3
330
0
100
AcDbSymbolTable
 70
     1
  0
STYLE
  5
11
330
3
100
AcDbSymbolTableRecord
100
AcDbTextStyleTableRecord
  2
Standard
 70
     0
 40
0.0
 41
1.0
 50
0.0
 71
     0
 42
0.2
  3
txt
  4

  0
ENDTAB
  0
TABLE
  2
VIEW
  5
6
330
0
100
AcDbSymbolTable
 70
     0
  0
ENDTAB
  0
TABLE
  2
UCS
  5
7
330
0
100
AcDbSymbolTable
 70
     0
  0
ENDTAB
  0
TABLE
  2
APPID
  5
9
330
0
100
AcDbSymbolTable
 70
     1
  0
APPID
  5
12
330
9
100
AcDbSymbolTableRecord
100
AcDbRegAppTableRecord
  2
ACAD
 70
     0
  0
ENDTAB
  0
TABLE
  2
DIMSTYLE
  5
A
330
0
100
AcDbSymbolTable
 70
     1
100
AcDbDimStyleTable
  0
DIMSTYLE
105
27
330
A
100
AcDbSymbolTableRecord
100
AcDbDimStyleTableRecord
  2
Standard
 70
     0
178
     0
340
11
  0
ENDTAB
  0
TABLE
  2
BLOCK_RECORD
  5
1
330
0
100
AcDbSymbolTable
 70
     1
  0
BLOCK_RECORD
  5
1F
330
1
100
AcDbSymbolTableRecord
100
AcDbBlockTableRecord
  2
*Model_Space
340
22
 70
     0
280
     1
281
     0
  0
BLOCK_RECORD
  5
1B
330
1
100
AcDbSymbolTableRecord
100
AcDbBlockTableRecord
  2
*Paper_Space
340
1E
 70
     0
280
     1
281
     0
  0
BLOCK_RECORD
  5
23
330
1
100
AcDbSymbolTableRecord
100
AcDbBlockTableRecord
  2
*Paper_Space0
340
26
 70
     0
280
     1
281
     0
  0
ENDTAB
  0
ENDSEC
  0
SECTION
  2
BLOCKS
  0
BLOCK
  5
20
330
1F
100
AcDbEntity
  8
0
100
AcDbBlockBegin
  2
*Model_Space
 70
     0
 10
0.0
 20
0.0
 30
0.0
  3
*Model_Space
  1

  0
ENDBLK
  5
21
330
1F
100
AcDbEntity
  8
0
100
AcDbBlockEnd
  0
BLOCK
  5
1C
330
1B
100
AcDbEntity
 67
     1
  8
0
100
AcDbBlockBegin
  2
*Paper_Space
 70
     0
 10
0.0
 20
0.0
 30
0.0
  3
*Paper_Space
  1

  0
ENDBLK
  5
1D
330
1B
100
AcDbEntity
 67
     1
  8
0
100
AcDbBlockEnd
  0
BLOCK
  5
24
330
23
100
AcDbEntity
  8
0
100
AcDbBlockBegin
  2
*Paper_Space0
 70
     0
 10
0.0
 20
0.0
 30
0.0
  3
*Paper_Space0
  1

  0
ENDBLK
  5
25
330
23
100
AcDbEntity
  8
0
100
AcDbBlockEnd
  0
ENDSEC
  0
SECTION
  2
ENTITIES
  0
SPLINE
  5
41
330
1F
100
AcDbEntity
  8
Layer 1
370
     0
100
AcDbSpline
210
0.0
220
0.0
230
1.0
 70
    11
 71
     3
 72
   611
 73
   607
 74
     0
 42
0.0000000001
 43
0.0000000001
 12
1.0
 22
0.0
 32
0.0
 13
1.0
 23
0.0
 33
0.0
 40
0.0
 40
0.0
 40
0.0
 40
0.0
 40
1.0
 40
1.0
 40
1.0
 40
2.0
 40
2.0
 40
2.0
 40
3.0
 40
3.0
 40
3.0
 40
4.0
 40
4.0
 40
4.0
 40
5.0
 40
5.0
 40
5.0
 40
6.0
 40
6.0
 40
6.0
 40
7.0
 40
7.0
 40
7.0
 40
8.0
 40
8.0
 40
8.0
 40
9.0
 40
9.0
 40
9.0
 40
10.0
 40
10.0
 40
10.0
 40
11.0
 40
11.0
 40
11.0
 40
12.0
 40
12.0
 40
12.0
 40
13.0
 40
13.0
 40
13.0
 40
14.0
 40
14.0
 40
14.0
 40
15.0
 40
15.0
 40
15.0
 40
16.0
 40
16.0
 40
16.0
 40
17.0
 40
17.0
 40
17.0
 40
18.0
 40
18.0
 40
18.0
 40
19.0
 40
19.0
 40
19.0
 40
20.0
 40
20.0
 40
20.0
 40
21.0
 40
21.0
 40
21.0
 40
22.0
 40
22.0
 40
22.0
 40
23.0
 40
23.0
 40
23.0
 40
24.0
 40
24.0
 40
24.0
 40
25.0
 40
25.0
 40
25.0
 40
26.0
 40
26.0
 40
26.0
 40
27.0
 40
27.0
 40
27.0
 40
28.0
 40
28.0
 40
28.0
 40
29.0
 40
29.0
 40
29.0
 40
30.0
 40
30.0
 40
30.0
 40
31.0
 40
31.0
 40
31.0
 40
32.0
 40
32.0
 40
32.0
 40
33.0
 40
33.0
 40
33.0
 40
34.0
 40
34.0
 40
34.0
 40
35.0
 40
35.0
 40
35.0
 40
36.0
 40
36.0
 40
36.0
 40
37.0
 40
37.0
 40
37.0
 40
38.0
 40
38.0
 40
38.0
 40
39.0
 40
39.0
 40
39.0
 40
40.0
 40
40.0
 40
40.0
 40
41.0
 40
41.0
 40
41.0
 40
42.0
 40
42.0
 40
42.0
 40
43.0
 40
43.0
 40
43.0
 40
44.0
 40
44.0
 40
44.0
 40
45.0
 40
45.0
 40
45.0
 40
46.0
 40
46.0
 40
46.0
 40
47.0
 40
47.0
 40
47.0
 40
48.0
 40
48.0
 40
48.0
 40
49.0
 40
49.0
 40
49.0
 40
50.0
 40
50.0
 40
50.0
 40
51.0
 40
51.0
 40
51.0
 40
52.0
 40
52.0
 40
52.0
 40
53.0
 40
53.0
 40
53.0
 40
54.0
 40
54.0
 40
54.0
 40
55.0
 40
55.0
 40
55.0
 40
56.0
 40
56.0
 40
56.0
 40
57.0
 40
57.0
 40
57.0
 40
58.0
 40
58.0
 40
58.0
 40
59.0
 40
59.0
 40
59.0
 40
60.0
 40
60.0
 40
60.0
 40
61.0
 40
61.0
 40
61.0
 40
62.0
 40
62.0
 40
62.0
 40
63.0
 40
63.0
 40
63.0
 40
64.0
 40
64.0
 40
64.0
 40
65.0
 40
65.0
 40
65.0
 40
66.0
 40
66.0
 40
66.0
 40
67.0
 40
67.0
 40
67.0
 40
68.0
 40
68.0
 40
68.0
 40
69.0
 40
69.0
 40
69.0
 40
70.0
 40
70.0
 40
70.0
 40
71.0
 40
71.0
 40
71.0
 40
72.0
 40
72.0
 40
72.0
 40
73.0
 40
73.0
 40
73.0
 40
74.0
 40
74.0
 40
74.0
 40
75.0
 40
75.0
 40
75.0
 40
76.0
 40
76.0
 40
76.0
 40
77.0
 40
77.0
 40
77.0
 40
78.0
 40
78.0
 40
78.0
 40
79.0
 40
79.0
 40
79.0
 40
80.0
 40
80.0
 40
80.0
 40
81.0
 40
81.0
 40
81.0
 40
82.0
 40
82.0
 40
82.0
 40
83.0
 40
83.0
 40
83.0
 40
84.0
 40
84.0
 40
84.0
 40
85.0
 40
85.0
 40
85.0
 40
86.0
 40
86.0
 40
86.0
 40
87.0
 40
87.0
 40
87.0
 40
88.0
 40
88.0
 40
88.0
 40
89.0
 40
89.0
 40
89.0
 40
90.0
 40
90.0
 40
90.0
 40
91.0
 40
91.0
 40
91.0
 40
92.0
 40
92.0
 40
92.0
 40
93.0
 40
93.0
 40
93.0
 40
94.0
 40
94.0
 40
94.0
 40
95.0
 40
95.0
 40
95.0
 40
96.0
 40
96.0
 40
96.0
 40
97.0
 40
97.0
 40
97.0
 40
98.0
 40
98.0
 40
98.0
 40
99.0
 40
99.0
 40
99.0
 40
100.0
 40
100.0
 40
100.0
 40
101.0
 40
101.0
 40
101.0
 40
102.0
 40
102.0
 40
102.0
 40
103.0
 40
103.0
 40
103.0
 40
104.0
 40
104.0
 40
104.0
 40
105.0
 40
105.0
 40
105.0
 40
106.0
 40
106.0
 40
106.0
 40
107.0
 40
107.0
 40
107.0
 40
108.0
 40
108.0
 40
108.0
 40
109.0
 40
109.0
 40
109.0
 40
110.0
 40
110.0
 40
110.0
 40
111.0
 40
111.0
 40
111.0
 40
112.0
 40
112.0
 40
112.0
 40
113.0
 40
113.0
 40
113.0
 40
114.0
 40
114.0
 40
114.0
 40
115.0
 40
115.0
 40
115.0
 40
116.0
 40
116.0
 40
116.0
 40
117.0
 40
117.0
 40
117.0
 40
118.0
 40
118.0
 40
118.0
 40
119.0
 40
119.0
 40
119.0
 40
120.0
 40
120.0
 40
120.0
 40
121.0
 40
121.0
 40
121.0
 40
122.0
 40
122.0
 40
122.0
 40
123.0
 40
123.0
 40
123.0
 40
124.0
 40
124.0
 40
124.0
 40
125.0
 40
125.0
 40
125.0
 40
126.0
 40
126.0
 40
126.0
 40
127.0
 40
127.0
 40
127.0
 40
128.0
 40
128.0
 40
128.0
 40
129.0
 40
129.0
 40
129.0
 40
130.0
 40
130.0
 40
130.0
 40
131.0
 40
131.0
 40
131.0
 40
132.0
 40
132.0
 40
132.0
 40
133.0
 40
133.0
 40
133.0
 40
134.0
 40
134.0
 40
134.0
 40
135.0
 40
135.0
 40
135.0
 40
136.0
 40
136.0
 40
136.0
 40
137.0
 40
137.0
 40
137.0
 40
138.0
 40
138.0
 40
138.0
 40
139.0
 40
139.0
 40
139.0
 40
140.0
 40
140.0
 40
140.0
 40
141.0
 40
141.0
 40
141.0
 40
142.0
 40
142.0
 40
142.0
 40
143.0
 40
143.0
 40
143.0
 40
144.0
 40
144.0
 40
144.0
 40
145.0
 40
145.0
 40
145.0
 40
146.0
 40
146.0
 40
146.0
 40
147.0
 40
147.0
 40
147.0
 40
148.0
 40
148.0
 40
148.0
 40
149.0
 40
149.0
 40
149.0
 40
150.0
 40
150.0
 40
150.0
 40
151.0
 40
151.0
 40
151.0
 40
152.0
 40
152.0
 40
152.0
 40
153.0
 40
153.0
 40
153.0
 40
154.0
 40
154.0
 40
154.0
 40
155.0
 40
155.0
 40
155.0
 40
156.0
 40
156.0
 40
156.0
 40
157.0
 40
157.0
 40
157.0
 40
158.0
 40
158.0
 40
158.0
 40
159.0
 40
159.0
 40
159.0
 40
160.0
 40
160.0
 40
160.0
 40
161.0
 40
161.0
 40
161.0
 40
162.0
 40
162.0
 40
162.0
 40
163.0
 40
163.0
 40
163.0
 40
164.0
 40
164.0
 40
164.0
 40
165.0
 40
165.0
 40
165.0
 40
166.0
 40
166.0
 40
166.0
 40
167.0
 40
167.0
 40
167.0
 40
168.0
 40
168.0
 40
168.0
 40
169.0
 40
169.0
 40
169.0
 40
170.0
 40
170.0
 40
170.0
 40
171.0
 40
171.0
 40
171.0
 40
172.0
 40
172.0
 40
172.0
 40
173.0
 40
173.0
 40
173.0
 40
174.0
 40
174.0
 40
174.0
 40
175.0
 40
175.0
 40
175.0
 40
176.0
 40
176.0
 40
176.0
 40
177.0
 40
177.0
 40
177.0
 40
178.0
 40
178.0
 40
178.0
 40
179.0
 40
179.0
 40
179.0
 40
180.0
 40
180.0
 40
180.0
 40
181.0
 40
181.0
 40
181.0
 40
182.0
 40
182.0
 40
182.0
 40
183.0
 40
183.0
 40
183.0
 40
184.0
 40
184.0
 40
184.0
 40
185.0
 40
185.0
 40
185.0
 40
186.0
 40
186.0
 40
186.0
 40
187.0
 40
187.0
 40
187.0
 40
188.0
 40
188.0
 40
188.0
 40
189.0
 40
189.0
 40
189.0
 40
190.0
 40
190.0
 40
190.0
 40
191.0
 40
191.0
 40
191.0
 40
192.0
 40
192.0
 40
192.0
 40
193.0
 40
193.0
 40
193.0
 40
194.0
 40
194.0
 40
194.0
 40
195.0
 40
195.0
 40
195.0
 40
196.0
 40
196.0
 40
196.0
 40
197.0
 40
197.0
 40
197.0
 40
198.0
 40
198.0
 40
198.0
 40
199.0
 40
199.0
 40
199.0
 40
200.0
 40
200.0
 40
200.0
 40
201.0
 40
201.0
 40
201.0
 40
202.0
 40
202.0
 40
202.0
 40
202.0
 10
139.4709695592865
 20
-310.8312685890924
 30
0.0
 10
138.444669585213
 20
-312.827364517796
 30
0.0
 10
138.3137695885198
 20
-316.7824684387524
 30
0.0
 10
138.8244695756184
 20
-317.2179684277507
 30
0.0
 10
138.9504695724354
 20
-317.3234684250856
 30
0.0
 10
139.093069568833
 20
-317.3624684241004
 30
0.0
 10
139.2180695656753
 20
-317.3253645177956
 30
0.0
 10
141.2185695151384
 20
-318.1261684048077
 30
0.0
 10
144.9646694205039
 20
-318.3038684003186
 30
0.0
 10
149.6540693020397
 20
-320.0011683574412
 30
0.0
 10
149.8523692970302
 20
-320.4992683448581
 30
0.0
 10
150.6013692781089
 20
-321.1495683284302
 30
0.0
 10
150.9187692700907
 20
-321.260968325616
 30
0.0
 10
151.2380692620245
 20
-321.3683645177953
 30
0.0
 10
151.3757692585459
 20
-321.6554683156501
 30
0.0
 10
151.4324692571136
 20
-321.9015683094331
 30
0.0
 10
151.4939692555599
 20
-322.1456683032666
 30
0.0
 10
151.7907692480621
 20
-322.3097682991211
 30
0.0
 10
152.006669242608
 20
-322.4054682967035
 30
0.0
 10
152.2224692371565
 20
-322.5050682941874
 30
0.0
 10
152.2497692364668
 20
-322.7042682891552
 30
0.0
 10
152.2810692356761
 20
-322.952364517796
 30
0.0
 10
152.3152692348121
 20
-323.202364517796
 30
0.0
 10
152.7517692237852
 20
-323.7765682620666
 30
0.0
 10
153.4363692064908
 20
-324.2179682509159
 30
0.0
 10
153.6784692003748
 20
-324.3742682469674
 30
0.0
 10
154.2927691848563
 20
-324.3058682486953
 30
0.0
 10
153.9314691939835
 20
-324.1261682532349
 30
0.0
 10
153.1863692128063
 20
-323.7550682626097
 30
0.0
 10
153.4431767639126
 20
-323.1281682784465
 30
0.0
 10
153.0622692159413
 20
-322.9249682835798
 30
0.0
 10
153.8122691969947
 20
-323.2316682758319
 30
0.0
 10
153.2478692112527
 20
-322.3078682991691
 30
0.0
 10
152.660969226079
 20
-322.1945683020313
 30
0.0
 10
152.4284692319525
 20
-322.1476683032161
 30
0.0
 10
152.4324692318514
 20
-321.9953645177957
 30
0.0
 10
152.344569234072
 20
-321.7042683144173
 30
0.0
 10
152.254669236343
 20
-321.4113645177949
 30
0.0
 10
152.2253692370832
 20
-321.3917683223117
 30
0.0
 10
151.8083692476175
 20
-321.09296832986
 30
0.0
 10
151.3884692582251
 20
-320.7921683374589
 30
0.0
 10
151.3640692588415
 20
-320.9660683330658
 30
0.0
 10
151.2800692609635
 20
-320.7218683392348
 30
0.0
 10
151.1970692630603
 20
-320.4816683453028
 30
0.0
 10
151.114069265157
 20
-320.4152683469802
 30
0.0
 10
150.6452692769999
 20
-320.1242683543314
 30
0.0
 10
150.1755692888655
 20
-319.8312683617332
 30
0.0
 10
150.0398692922936
 20
-319.9249683593662
 30
0.0
 10
150.1404692897522
 20
-319.46206837106
 30
0.0
 10
150.2419692871881
 20
-319.0011683827033
 30
0.0
 10
150.1511767639131
 20
-319.1066683800382
 30
0.0
 10
148.742969325056
 20
-318.9308683844793
 30
0.0
 10
146.2917693869786
 20
-318.6261683921766
 30
0.0
 10
141.6081767639134
 20
-316.4855684462527
 30
0.0
 10
139.5691767639128
 20
-316.688668441122
 30
0.0
 10
139.5740695566819
 20
-316.6203645177957
 30
0.0
 10
139.5798695565354
 20
-316.5499684446258
 30
0.0
 10
139.5769695566087
 20
-316.4679684466973
 30
0.0
 10
139.3855695614438
 20
-314.8312684880439
 30
0.0
 10
140.4885695335797
 20
-314.2628685024029
 30
0.0
 10
140.4338695349616
 20
-312.0187685590936
 30
0.0
 10
140.3933695359847
 20
-311.6730685678267
 30
0.0
 10
140.4338695349616
 20
-311.3429685761657
 30
0.0
 10
140.4743695339384
 20
-311.05976858332
 30
0.0
 10
140.6072695305811
 20
-310.9386685863792
 30
0.0
 10
140.7898695259682
 20
-310.6828685928413
 30
0.0
 10
140.80206952566
 20
-310.2140686046841
 30
0.0
 10
141.1130695178035
 20
-310.1984686050782
 30
0.0
 10
141.5041767639123
 20
-310.0226686095193
 30
0.0
 10
141.5515695067261
 20
-310.0089686098654
 30
0.0
 10
141.6745695036188
 20
-310.3292686017739
 30
0.0
 10
142.0246694947746
 20
-310.7824685903252
 30
0.0
 10
142.1574694914198
 20
-310.6886685926947
 30
0.0
 10
142.9431767639126
 20
-312.5695685451792
 30
0.0
 10
145.32306941145
 20
-315.0831684816803
 30
0.0
 10
146.1013693917885
 20
-315.0910684814808
 30
0.0
 10
146.223469388704
 20
-315.0910684814808
 30
0.0
 10
146.3210693862384
 20
-315.0636684821729
 30
0.0
 10
146.3904693844852
 20
-315.0128684834563
 30
0.0
 10
148.5652693295451
 20
-315.1281684805435
 30
0.0
 10
152.1159692398469
 20
-314.3351685005764
 30
0.0
 10
156.8894691192581
 20
-314.641768492831
 30
0.0
 10
157.2185691109444
 20
-315.0656684821224
 30
0.0
 10
157.4304691055913
 20
-315.8097684633249
 30
0.0
 10
157.729269098043
 20
-315.9601684595254
 30
0.0
 10
158.0320690903936
 20
-316.110568455726
 30
0.0
 10
158.1325690878548
 20
-316.4113645177949
 30
0.0
 10
158.1570690872359
 20
-316.6613645177949
 30
0.0
 10
158.1824690865942
 20
-316.9132684354481
 30
0.0
 10
158.4577690796395
 20
-317.1144684303654
 30
0.0
 10
158.6579690745821
 20
-317.2394684272076
 30
0.0
 10
158.8601767639138
 20
-317.3644684240498
 30
0.0
 10
158.8601767639138
 20
-317.5656684189671
 30
0.0
 10
158.8601767639138
 20
-317.8156684126516
 30
0.0
 10
158.8601767639138
 20
-318.067568406288
 30
0.0
 10
159.2175690604454
 20
-318.6925683904992
 30
0.0
 10
159.8386690447551
 20
-319.221868377128
 30
0.0
 10
160.0593690391797
 20
-319.4074683724393
 30
0.0
 10
160.6745690236385
 20
-319.4230683720452
 30
0.0
 10
160.3396690320988
 20
-319.1945683778176
 30
0.0
 10
159.6521767639133
 20
-318.7316683895115
 30
0.0
 10
159.9880690409809
 20
-318.1417684044136
 30
0.0
 10
159.6365690498606
 20
-317.8917684107291
 30
0.0
 10
160.3396690320988
 20
-318.2921684006142
 30
0.0
 10
159.9021767639133
 20
-317.3019684256287
 30
0.0
 10
159.3357690574594
 20
-317.1144684303654
 30
0.0
 10
159.1111767639122
 20
-317.0382684322904
 30
0.0
 10
159.1355690625169
 20
-316.8859684361378
 30
0.0
 10
159.0866690637522
 20
-316.5870684436886
 30
0.0
 10
159.0349690650582
 20
-316.2843645177945
 30
0.0
 10
159.0095690656999
 20
-316.2589684519771
 30
0.0
 10
158.6325690752237
 20
-315.9093645177945
 30
0.0
 10
158.2566690847198
 20
-315.5597684696404
 30
0.0
 10
158.4333690802559
 20
-315.5831684690493
 30
0.0
 10
158.3825690815393
 20
-315.3331684753648
 30
0.0
 10
158.33186908282
 20
-315.0812684817283
 30
0.0
 10
158.2566690847198
 20
-315.0050684836533
 30
0.0
 10
157.8318690954511
 20
-314.6554684924849
 30
0.0
 10
157.405069106233
 20
-314.3038685013671
 30
0.0
 10
157.237069110477
 20
-314.4581684974692
 30
0.0
 10
157.2048691112905
 20
-313.98746850936
 30
0.0
 10
157.1745691120559
 20
-313.5187685212004
 30
0.0
 10
157.2829691093175
 20
-313.6984685166608
 30
0.0
 10
155.8816691447173
 20
-313.9269685108884
 30
0.0
 10
153.4021767639133
 20
-314.323468500872
 30
0.0
 10
148.1784693393165
 20
-313.5460685205107
 30
0.0
 10
146.3552693853744
 20
-314.3761684995407
 30
0.0
 10
146.303469386683
 20
-314.2941685016121
 30
0.0
 10
146.2380693883351
 20
-314.2081685037847
 30
0.0
 10
146.1560693904066
 20
-314.1144685061518
 30
0.0
 10
144.6394694287192
 20
-312.9718685350163
 30
0.0
 10
145.1394694160881
 20
-312.0812685575147
 30
0.0
 10
143.0407694691057
 20
-310.1124686072508
 30
0.0
 10
143.0398694691285
 20
-310.1105686072988
 30
0.0
 10
143.037869469179
 20
-310.1105686072988
 30
0.0
 10
143.0368694692042
 20
-310.1085686073493
 30
0.0
 10
143.0407694691057
 20
-310.0050686099639
 30
0.0
 10
142.9890694704118
 20
-309.8429686140589
 30
0.0
 10
142.8152694748023
 20
-309.6105686199298
 30
0.0
 10
144.592569429904
 20
-308.9894686356201
 30
0.0
 10
144.5241767639127
 20
-308.6906686431685
 30
0.0
 10
144.5241767639127
 20
-308.6906686431685
 30
0.0
 10
144.5241767639127
 20
-308.6906686431685
 30
0.0
 10
144.8601767639138
 20
-308.8605686388764
 30
0.0
 10
145.5368694060489
 20
-309.0304686345844
 30
0.0
 10
145.9021767639133
 20
-309.1222686322653
 30
0.0
 10
146.2204693887797
 20
-309.0597686338442
 30
0.0
 10
146.5700693799481
 20
-308.8781686384318
 30
0.0
 10
149.7429692997939
 20
-314.3019685014151
 30
0.0
 10
155.0671767639124
 20
-313.2980685267758
 30
0.0
 10
158.7351767639138
 20
-311.6652685680237
 30
0.0
 10
159.5681767639126
 20
-311.2980685773
 30
0.0
 10
160.3318690322958
 20
-311.1027685822337
 30
0.0
 10
160.8464690192959
 20
-310.5988685949633
 30
0.0
 10
160.9187690174695
 20
-310.5265685967897
 30
0.0
 10
161.0700690136473
 20
-310.4347685991088
 30
0.0
 10
161.1589690114015
 20
-310.3859686003416
 30
0.0
 10
161.3493690065916
 20
-310.2765686031053
 30
0.0
 10
161.5603690012613
 20
-310.2589686035499
 30
0.0
 10
162.1111767639122
 20
-309.9210686120859
 30
0.0
 10
162.2224689845352
 20
-309.8507686138619
 30
0.0
 10
162.7068689722983
 20
-309.4503645177956
 30
0.0
 10
162.8113689696584
 20
-309.3859686256037
 30
0.0
 10
163.1267689616907
 20
-309.1945686304389
 30
0.0
 10
163.2829689577447
 20
-309.1788686308355
 30
0.0
 10
163.5320689514519
 20
-309.0265686346829
 30
0.0
 10
163.6638689481224
 20
-308.9445686367544
 30
0.0
 10
163.8386689437066
 20
-308.6574686440072
 30
0.0
 10
163.9558689407459
 20
-308.602768645389
 30
0.0
 10
164.5271767639133
 20
-308.3312686522477
 30
0.0
 10
164.7077689217513
 20
-307.8976686632013
 30
0.0
 10
165.0700689125988
 20
-307.6007686707017
 30
0.0
 10
165.2175689088726
 20
-307.458168674304
 30
0.0
 10
165.2146689089459
 20
-307.0714686840729
 30
0.0
 10
165.0417689133137
 20
-306.9288686876753
 30
0.0
 10
164.6833689223677
 20
-306.6320686951731
 30
0.0
 10
164.5222689264374
 20
-306.4757686991215
 30
0.0
 10
163.9558689407459
 20
-306.0656687094815
 30
0.0
 10
163.8493689434363
 20
-305.987468711457
 30
0.0
 10
163.6638689481224
 20
-305.7218687181667
 30
0.0
 10
163.5320689514519
 20
-305.6398687202382
 30
0.0
 10
163.2829689577447
 20
-305.4855687241361
 30
0.0
 10
163.1267689616907
 20
-305.4718687244822
 30
0.0
 10
162.8113689696584
 20
-305.2804687293174
 30
0.0
 10
162.7068689722983
 20
-305.2160687309442
 30
0.0
 10
162.3503689813042
 20
-304.9035687388387
 30
0.0
 10
162.2390689841159
 20
-304.8370687405186
 30
0.0
 10
161.6872689980555
 20
-304.4953645177957
 30
0.0
 10
161.3493690065916
 20
-304.3898687518158
 30
0.0
 10
161.1589690114015
 20
-304.2804687545795
 30
0.0
 10
161.0700690136473
 20
-304.2296687558628
 30
0.0
 10
160.9187690174695
 20
-304.1378687581819
 30
0.0
 10
160.8464690192959
 20
-304.0675687599578
 30
0.0
 10
160.3318690322958
 20
-303.5636687726874
 30
0.0
 10
159.362069056795
 20
-303.2726687800387
 30
0.0
 10
158.5300690778131
 20
-302.9035687893629
 30
0.0
 10
154.8884691698076
 20
-301.2824688303153
 30
0.0
 10
149.0222693180003
 20
-300.2228688570831
 30
0.0
 10
146.5427693806378
 20
-305.4894687240376
 30
0.0
 10
146.2058693891486
 20
-305.3175687283801
 30
0.0
 10
145.893369397043
 20
-305.26096872981
 30
0.0
 10
145.5368694060489
 20
-305.3527687274909
 30
0.0
 10
144.8601767639138
 20
-305.5187687232974
 30
0.0
 10
144.5241767639127
 20
-305.6886687190054
 30
0.0
 10
144.5241767639127
 20
-305.6886687190054
 30
0.0
 10
144.5241767639127
 20
-305.6886687190054
 30
0.0
 10
144.592569429904
 20
-305.4796687242851
 30
0.0
 10
142.825969474532
 20
-304.8937687390862
 30
0.0
 10
142.90996947241
 20
-304.7335687431332
 30
0.0
 10
142.9343694717936
 20
-304.5519687477208
 30
0.0
 10
142.9402694716446
 20
-304.4191687510756
 30
0.0
 10
143.0310694693508
 20
-304.3781687521114
 30
0.0
 10
143.1277694669079
 20
-304.3175687536423
 30
0.0
 10
143.2331767639134
 20
-304.2199687561078
 30
0.0
 10
145.0124694192964
 20
-302.5460687983941
 30
0.0
 10
144.9021767639133
 20
-300.814668842133
 30
0.0
 10
146.4187693837703
 20
-299.6691688710707
 30
0.0
 10
148.1120693409939
 20
-300.6017688475113
 30
0.0
 10
153.5398692038762
 20
-299.7687688685546
 30
0.0
 10
156.0788691397356
 20
-300.1788688581946
 30
0.0
 10
157.481269104308
 20
-300.4035688525182
 30
0.0
 10
156.962669117409
 20
-300.5792688480797
 30
0.0
 10
157.1921767639124
 20
-300.1652688585382
 30
0.0
 10
157.4197691058616
 20
-299.7531688689487
 30
0.0
 10
157.5046691037169
 20
-299.9660688635704
 30
0.0
 10
158.0388690902219
 20
-299.8312688669757
 30
0.0
 10
158.5759690766536
 20
-299.6945688704291
 30
0.0
 10
158.6745690741627
 20
-299.6574688713663
 30
0.0
 10
158.8279690702875
 20
-299.4513645177958
 30
0.0
 10
158.9802690664401
 20
-299.2453645177957
 30
0.0
 10
158.8103690707321
 20
-299.1954688830374
 30
0.0
 10
159.3025690582981
 20
-299.0363645177949
 30
0.0
 10
159.7907690459651
 20
-298.8790688910303
 30
0.0
 10
159.8240690451239
 20
-298.8663645177949
 30
0.0
 10
159.9988690407081
 20
-298.6163645177949
 30
0.0
 10
160.1726690363175
 20
-298.365468904005
 30
0.0
 10
160.212669035307
 20
-298.2199689076806
 30
0.0
 10
160.4509690292871
 20
-298.2472689069909
 30
0.0
 10
161.0417690143622
 20
-298.317568905215
 30
0.0
 10
161.8601767639138
 20
-297.6085689231259
 30
0.0
 10
161.0534690140666
 20
-297.671068921547
 30
0.0
 10
161.47926900331
 20
-297.5949689234694
 30
0.0
 10
161.4245690046919
 20
-296.9181689405668
 30
0.0
 10
162.2458689839441
 20
-296.7902689437979
 30
0.0
 10
162.6452689738544
 20
-296.7277689453767
 30
0.0
 10
162.0818689880871
 20
-296.4777689516923
 30
0.0
 10
161.8015689951681
 20
-296.5538689497698
 30
0.0
 10
161.0154690150266
 20
-296.7667689443915
 30
0.0
 10
160.4236690299767
 20
-297.1808689339305
 30
0.0
 10
160.3181767639126
 20
-297.4083645177961
 30
0.0
 10
160.2116690353323
 20
-297.6359689224337
 30
0.0
 10
160.1247690375276
 20
-297.8156689178941
 30
0.0
 10
159.8904690434465
 20
-297.8449689171539
 30
0.0
 10
159.6550690493932
 20
-297.8742689164137
 30
0.0
 10
159.3181767639126
 20
-297.9367689148348
 30
0.0
 10
159.190269061135
 20
-298.153568909358
 30
0.0
 10
159.0603690644166
 20
-298.3703645177957
 30
0.0
 10
158.8435690698934
 20
-298.5988688981088
 30
0.0
 10
158.5046690784548
 20
-298.6066688979117
 30
0.0
 10
158.1677690869656
 20
-298.6163645177949
 30
0.0
 10
157.5115691035426
 20
-299.0167688875517
 30
0.0
 10
157.1843691118083
 20
-299.4386688768936
 30
0.0
 10
152.464669231038
 20
-299.7433645177953
 30
0.0
 10
148.9431767639126
 20
-298.971868888686
 30
0.0
 10
146.7624693750877
 20
-299.0685688862432
 30
0.0
 10
146.7165693762472
 20
-299.0050688878473
 30
0.0
 10
146.5876693795035
 20
-298.9913645177949
 30
0.0
 10
146.3962693843387
 20
-298.9913645177949
 30
0.0
 10
145.3689694102904
 20
-298.9992688879938
 30
0.0
 10
143.1843694654781
 20
-301.2677688306867
 30
0.0
 10
142.2141767639132
 20
-303.7550687678522
 30
0.0
 10
142.2077694901491
 20
-303.7726687674076
 30
0.0
 10
142.2019694902956
 20
-303.7960687668165
 30
0.0
 10
142.1980694903941
 20
-303.8175687662733
 30
0.0
 10
142.0017694953531
 20
-303.8703645177957
 30
0.0
 10
141.6882695032727
 20
-304.2238687560093
 30
0.0
 10
141.5295695072818
 20
-304.4913645177949
 30
0.0
 10
141.360176763912
 20
-304.444568750434
 30
0.0
 10
141.0823695185791
 20
-304.3488687528516
 30
0.0
 10
140.714669527868
 20
-304.2726687547765
 30
0.0
 10
140.7551767639125
 20
-303.7335687683953
 30
0.0
 10
140.437769534863
 20
-303.5636687726874
 30
0.0
 10
140.3396695373413
 20
-303.5285687735741
 30
0.0
 10
140.1858695412266
 20
-303.2765687799401
 30
0.0
 10
139.9338695475926
 20
-302.9386687884762
 30
0.0
 10
139.8430695498864
 20
-302.4660688004151
 30
0.0
 10
139.100869568636
 20
-299.7765688683576
 30
0.0
 10
138.4861767639122
 20
-300.5831688479811
 30
0.0
 10
138.3366695879413
 20
-298.691568895767
 30
0.0
 10
138.2927695890503
 20
-298.5304688998367
 30
0.0
 10
138.2370695904574
 20
-298.395668903242
 30
0.0
 10
138.1760695919984
 20
-298.2785689062002
 30
0.0
 10
140.1838695412771
 20
-298.1837689085951
 30
0.0
 10
144.8777694226992
 20
-295.8639689671982
 30
0.0
 10
147.3523693601855
 20
-295.3771689794958
 30
0.0
 10
148.7449693250055
 20
-295.1007689864782
 30
0.0
 10
148.2693693370202
 20
-295.0241689884133
 30
0.0
 10
148.4529693323821
 20
-294.7345689957292
 30
0.0
 10
148.6365693277439
 20
-294.4450690030426
 30
0.0
 10
148.6697693269052
 20
-294.7814689945444
 30
0.0
 10
149.1345693151634
 20
-294.5900689993796
 30
0.0
 10
149.5984693034443
 20
-294.3986690042148
 30
0.0
 10
149.6843693012743
 20
-294.353769005349
 30
0.0
 10
149.7937692985106
 20
-294.1486690105303
 30
0.0
 10
149.9050692956989
 20
-293.9435690157115
 30
0.0
 10
149.7449692997434
 20
-293.9196690163153
 30
0.0
 10
150.1657692891131
 20
-293.7150690214839
 30
0.0
 10
150.585769278503
 20
-293.5089690266905
 30
0.0
 10
150.6140692777881
 20
-293.4948690270467
 30
0.0
 10
150.7380692746556
 20
-293.2462690333268
 30
0.0
 10
150.8620692715231
 20
-292.9982690395918
 30
0.0
 10
150.8796692710785
 20
-292.8605690430704
 30
0.0
 10
151.0974692655764
 20
-292.8556690431942
 30
0.0
 10
151.6374692519348
 20
-292.8414690435529
 30
0.0
 10
152.2829692356281
 20
-292.0983645177948
 30
0.0
 10
151.5652692537587
 20
-292.2589690582681
 30
0.0
 10
151.9372692443612
 20
-292.1359690613754
 30
0.0
 10
151.8015692477893
 20
-291.5343645177963
 30
0.0
 10
152.5232692295576
 20
-291.3146690821231
 30
0.0
 10
152.874769220678
 20
-291.2052690848868
 30
0.0
 10
152.3357692342943
 20
-291.0534690887216
 30
0.0
 10
152.0935692404128
 20
-291.158869086059
 30
0.0
 10
151.4148692575582
 20
-291.4508690786824
 30
0.0
 10
150.9353692696714
 20
-291.9005690673221
 30
0.0
 10
150.867969271374
 20
-292.1188690618073
 30
0.0
 10
150.8025692730262
 20
-292.3375690562825
 30
0.0
 10
150.74976927436
 20
-292.5104690519147
 30
0.0
 10
150.5417692796145
 20
-292.5661690505076
 30
0.0
 10
150.333769284869
 20
-292.6232690490651
 30
0.0
 10
150.0398692922936
 20
-292.7223645177946
 30
0.0
 10
149.9509692945394
 20
-292.932869041244
 30
0.0
 10
149.8620692967852
 20
-293.1452690358783
 30
0.0
 10
149.6960693009787
 20
-293.3800690299468
 30
0.0
 10
149.3943693086003
 20
-293.4313645177954
 30
0.0
 10
149.0925693162244
 20
-293.4821690273675
 30
0.0
 10
148.4128693333951
 20
-294.3248690060791
 30
0.0
 10
147.9353693454577
 20
-294.5363645177949
 30
0.0
 10
144.4802694327409
 20
-295.7619689697749
 30
0.0
 10
139.5207695580284
 20
-296.5968689486836
 30
0.0
 10
137.7116696037301
 20
-297.8253645177956
 30
0.0
 10
137.5940696067009
 20
-297.8048689181669
 30
0.0
 10
137.4841767639118
 20
-297.8507689170074
 30
0.0
 10
137.4016696115614
 20
-297.9806689137258
 30
0.0
 10
137.0744696198271
 20
-298.5021689005516
 30
0.0
 10
137.9216695984251
 20
-302.2179688066826
 30
0.0
 10
139.3591767639118
 20
-303.6691687700222
 30
0.0
 10
139.365969561939
 20
-303.7003645177956
 30
0.0
 10
139.3777695616409
 20
-303.7335687683953
 30
0.0
 10
139.3894695613453
 20
-303.7648687676046
 30
0.0
 10
139.3240695629975
 20
-303.8488687654826
 30
0.0
 10
139.2795695641216
 20
-303.9386687632141
 30
0.0
 10
139.2536695647759
 20
-304.028568760943
 30
0.0
 10
138.5813695817596
 20
-304.0011687616352
 30
0.0
 10
138.3415695878175
 20
-304.0929687593161
 30
0.0
 10
138.0295695956993
 20
-304.2531687552691
 30
0.0
 10
138.1887695916776
 20
-303.3937687769794
 30
0.0
 10
137.6902696042707
 20
-303.1495687831484
 30
0.0
 10
137.6902696042707
 20
-303.1495687831484
 30
0.0
 10
136.973969622366
 20
-301.2579688309343
 30
0.0
 10
130.5188697854355
 20
-297.4601689268748
 30
0.0
 10
129.5852698090202
 20
-297.4181689279358
 30
0.0
 10
129.4831767639134
 20
-296.9992689385181
 30
0.0
 10
129.2068698185794
 20
-296.444568952531
 30
0.0
 10
128.6853698317536
 20
-295.8810689667662
 30
0.0
 10
128.6413698328652
 20
-295.8327689679863
 30
0.0
 10
128.6218698333578
 20
-295.9840689641642
 30
0.0
 10
128.5730698345906
 20
-295.9308689655081
 30
0.0
 10
128.4065698387967
 20
-295.7462689701715
 30
0.0
 10
127.9919698492704
 20
-295.0807689869835
 30
0.0
 10
127.8279698534134
 20
-294.9171689911163
 30
0.0
 10
127.7722698548205
 20
-294.8634689924729
 30
0.0
 10
127.762469855068
 20
-295.1442689853793
 30
0.0
 10
127.7077698564499
 20
-295.0905689867359
 30
0.0
 10
127.1159698714
 20
-294.4957690017618
 30
0.0
 10
126.5422698858929
 20
-293.6876690221761
 30
0.0
 10
126.8005698793677
 20
-294.2189690087544
 30
0.0
 10
126.347469890814
 20
-293.6320690235807
 30
0.0
 10
126.8005698793677
 20
-294.2189690087544
 30
0.0
 10
126.0710698977964
 20
-293.5983645177948
 30
0.0
 10
125.855269903248
 20
-293.4186690289716
 30
0.0
 10
125.763469905567
 20
-293.3034690318818
 30
0.0
 10
125.7243699065548
 20
-293.2394690334986
 30
0.0
 10
125.7307699063931
 20
-293.2711690326978
 30
0.0
 10
125.7341767639118
 20
-293.3126690316494
 30
0.0
 10
125.7190699066887
 20
-293.3683645177953
 30
0.0
 10
124.9328699265498
 20
-293.1320690362118
 30
0.0
 10
125.3342699164095
 20
-291.446969078781
 30
0.0
 10
124.8923699275729
 20
-292.1129690619564
 30
0.0
 10
124.4953699376019
 20
-292.7145690467587
 30
0.0
 10
124.6081767639134
 20
-293.5636690253086
 30
0.0
 10
125.4656699130901
 20
-293.8151690189552
 30
0.0
 10
125.4656699130901
 20
-293.8151690189552
 30
0.0
 10
125.0334699240084
 20
-293.8620690177704
 30
0.0
 10
125.5012699121908
 20
-294.0841690121597
 30
0.0
 10
125.6799699076764
 20
-294.168669010025
 30
0.0
 10
126.1325698962428
 20
-294.3629690051166
 30
0.0
 10
126.4402698884696
 20
-294.39766900424
 30
0.0
 10
126.1291767639123
 20
-294.37866900472
 30
0.0
 10
126.8122698790721
 20
-294.5836689995413
 30
0.0
 10
127.1916698694877
 20
-294.9498689902903
 30
0.0
 10
127.2488698680427
 20
-295.0055689888832
 30
0.0
 10
126.9499698755935
 20
-295.051968987711
 30
0.0
 10
127.0056698741864
 20
-295.1115689862054
 30
0.0
 10
127.2405698682524
 20
-295.3576689799884
 30
0.0
 10
127.785469854487
 20
-295.6290689731322
 30
0.0
 10
128.0764698471357
 20
-295.9264689656193
 30
0.0
 10
128.140469845519
 20
-295.9918689639671
 30
0.0
 10
127.8191767639128
 20
-295.8869689666171
 30
0.0
 10
127.8728698522791
 20
-295.954268964917
 30
0.0
 10
128.1892698442862
 20
-296.3419689551229
 30
0.0
 10
128.7268698307053
 20
-296.8703645177957
 30
0.0
 10
128.9441767639128
 20
-297.2394689324501
 30
0.0
 10
129.3728698143859
 20
-298.2238689075821
 30
0.0
 10
129.8845698014593
 20
-298.3087689054373
 30
0.0
 10
132.7907697280425
 20
-299.9367688643106
 30
0.0
 10
136.2849696397716
 20
-301.8937688148726
 30
0.0
 10
137.0212696211711
 20
-302.9542687880821
 30
0.0
 10
136.8415696257107
 20
-303.4894687745618
 30
0.0
 10
136.6452696306696
 20
-304.0812687596117
 30
0.0
 10
137.1618696176192
 20
-304.3312687532962
 30
0.0
 10
137.3132696137945
 20
-304.5734687471777
 30
0.0
 10
135.9470696483077
 20
-304.9152687385431
 30
0.0
 10
134.7414696787637
 20
-306.2374687051415
 30
0.0
 10
134.2229696918621
 20
-306.8800686889081
 30
0.0
 10
134.1047696948481
 20
-305.4581687248283
 30
0.0
 10
133.5490697088862
 20
-304.9074687387401
 30
0.0
 10
132.6506697315817
 20
-304.1613645177949
 30
0.0
 10
131.2087697680072
 20
-302.9699687876855
 30
0.0
 10
128.1252698459029
 20
-304.2335687557643
 30
0.0
 10
127.3122698664411
 20
-304.5890687467836
 30
0.0
 10
127.2634698676738
 20
-304.6124687461925
 30
0.0
 10
127.2126698689572
 20
-304.6359687455988
 30
0.0
 10
127.1614698702506
 20
-304.6593645177945
 30
0.0
 10
127.0920698720038
 20
-304.5968687465866
 30
0.0
 10
126.9499698755935
 20
-304.4913645177949
 30
0.0
 10
126.7785698799235
 20
-304.4913645177949
 30
0.0
 10
126.5344698860899
 20
-304.4913645177949
 30
0.0
 10
126.3948698896165
 20
-304.4894687492997
 30
0.0
 10
126.3948698896165
 20
-304.4894687492997
 30
0.0
 10
124.5422699364171
 20
-303.6476687705654
 30
0.0
 10
122.6765699835487
 20
-303.0128687866018
 30
0.0
 10
121.4909700134995
 20
-301.9103645177947
 30
0.0
 10
121.4016700157554
 20
-301.827364517796
 30
0.0
 10
121.1106700231066
 20
-301.7081688195613
 30
0.0
 10
121.1106700231066
 20
-301.7081688195613
 30
0.0
 10
121.1106700231066
 20
-301.7081688195613
 30
0.0
 10
116.8196701315064
 20
-300.6007688475365
 30
0.0
 10
114.812770182205
 20
-301.5343645177945
 30
0.0
 10
113.8581767639134
 20
-301.9777688127506
 30
0.0
 10
114.5505701888287
 20
-302.7609687929653
 30
0.0
 10
115.2087701722012
 20
-302.6222687964691
 30
0.0
 10
117.7868701070729
 20
-302.0890688099389
 30
0.0
 10
119.9314700528957
 20
-301.8156688168456
 30
0.0
 10
120.9084700282147
 20
-302.0890688099389
 30
0.0
 10
120.9084700282147
 20
-302.0890688099389
 30
0.0
 10
121.3576700168669
 20
-302.3468688034263
 30
0.0
 10
121.6179700102912
 20
-302.5460687983941
 30
0.0
 10
122.6765699835487
 20
-303.3507687780657
 30
0.0
 10
124.1184699471232
 20
-303.9015687641513
 30
0.0
 10
126.1081767639134
 20
-304.6730687446616
 30
0.0
 10
126.1081767639134
 20
-304.6730687446616
 30
0.0
 10
126.0613698980414
 20
-304.9953645177957
 30
0.0
 10
126.2107698942673
 20
-305.1613645177949
 30
0.0
 10
125.8313699038517
 20
-305.3917687265057
 30
0.0
 10
125.4826699126606
 20
-305.6652687195965
 30
0.0
 10
125.2282699190873
 20
-305.9992687111589
 30
0.0
 10
125.099869922331
 20
-305.987468711457
 30
0.0
 10
124.7717699306195
 20
-305.9581687121972
 30
0.0
 10
124.6091767639118
 20
-306.0050687110124
 30
0.0
 10
124.4079699398098
 20
-306.0617687095801
 30
0.0
 10
124.0700699483459
 20
-306.6320686951731
 30
0.0
 10
124.0700699483459
 20
-306.6320686951731
 30
0.0
 10
124.0700699483459
 20
-306.6320686951731
 30
0.0
 10
124.435869939105
 20
-306.4328687002053
 30
0.0
 10
124.8747699280175
 20
-306.702364517796
 30
0.0
 10
124.8332699290659
 20
-306.8605686894007
 30
0.0
 10
124.8113699296191
 20
-307.0245686852577
 30
0.0
 10
124.8113699296191
 20
-307.202364517796
 30
0.0
 10
124.8113699296191
 20
-307.3761686763755
 30
0.0
 10
124.8376699289547
 20
-307.5382686722805
 30
0.0
 10
124.8840699277825
 20
-307.6945686683321
 30
0.0
 10
124.441176763914
 20
-307.9738686612764
 30
0.0
 10
124.0700699483459
 20
-307.7706686664096
 30
0.0
 10
124.0700699483459
 20
-307.7706686664096
 30
0.0
 10
124.0700699483459
 20
-307.7706686664096
 30
0.0
 10
124.4079699398098
 20
-308.3410686520001
 30
0.0
 10
124.6091767639118
 20
-308.3976686505703
 30
0.0
 10
124.8000699299046
 20
-308.452364517796
 30
0.0
 10
125.225869919148
 20
-308.4054686503732
 30
0.0
 10
125.2732699179505
 20
-308.3995686505223
 30
0.0
 10
125.5134699118826
 20
-308.6847686433175
 30
0.0
 10
125.8240699040362
 20
-308.9308686371005
 30
0.0
 10
126.160469895538
 20
-309.1417686317727
 30
0.0
 10
126.0735698977333
 20
-309.3136686274302
 30
0.0
 10
126.1081767639134
 20
-309.5538686213622
 30
0.0
 10
126.1081767639134
 20
-309.5538686213622
 30
0.0
 10
124.3723699407092
 20
-310.2179686045856
 30
0.0
 10
122.5090699877801
 20
-311.1495685810514
 30
0.0
 10
121.4485700145706
 20
-311.954268560723
 30
0.0
 10
121.1867700211842
 20
-312.1535685556883
 30
0.0
 10
120.9084700282147
 20
-312.4113645177949
 30
0.0
 10
120.9084700282147
 20
-312.4113645177949
 30
0.0
 10
119.9314700528957
 20
-312.6867685422185
 30
0.0
 10
117.7868701070729
 20
-312.4113645177949
 30
0.0
 10
115.2087701722012
 20
-311.8781685626454
 30
0.0
 10
114.5505701888287
 20
-311.7413645177949
 30
0.0
 10
113.8581767639134
 20
-312.522668546364
 30
0.0
 10
114.812770182205
 20
-312.9679685351148
 30
0.0
 10
116.8196701315064
 20
-313.9015685115301
 30
0.0
 10
121.1106700231066
 20
-312.7921685395559
 30
0.0
 10
121.1106700231066
 20
-312.7921685395559
 30
0.0
 10
121.1106700231066
 20
-312.7921685395559
 30
0.0
 10
121.4109700155204
 20
-312.682868542317
 30
0.0
 10
121.4909700134995
 20
-312.5910685446361
 30
0.0
 10
122.6716699836725
 20
-311.2316685789774
 30
0.0
 10
124.8386699289294
 20
-310.5128685971358
 30
0.0
 10
126.3948698896165
 20
-309.7394686166735
 30
0.0
 10
126.3948698896165
 20
-309.7394686166735
 30
0.0
 10
126.5344698860899
 20
-309.7374686167241
 30
0.0
 10
126.7785698799235
 20
-309.7374686167241
 30
0.0
 10
126.934869875975
 20
-309.7374686167241
 30
0.0
 10
127.0344698734589
 20
-309.6886686179569
 30
0.0
 10
127.091069872029
 20
-309.6535686188436
 30
0.0
 10
127.1662698701293
 20
-309.6906686179063
 30
0.0
 10
127.2395698682776
 20
-309.7277686169691
 30
0.0
 10
127.3122698664411
 20
-309.7628686160824
 30
0.0
 10
128.4924698366267
 20
-310.3292686017739
 30
0.0
 10
131.425069762543
 20
-311.4542685733541
 30
0.0
 10
132.5115697350957
 20
-310.5519685961481
 30
0.0
 10
133.5017697100811
 20
-309.7296686169211
 30
0.0
 10
134.2082696922334
 20
-309.3859686256037
 30
0.0
 10
134.2424696913695
 20
-307.6183645177953
 30
0.0
 10
134.7488696785767
 20
-308.2413645177949
 30
0.0
 10
135.8562696506015
 20
-309.4464686240754
 30
0.0
 10
137.1252696185438
 20
-309.8507686138619
 30
0.0
 10
136.9953696218254
 20
-309.9152686122325
 30
0.0
 10
136.6853696296566
 20
-310.1281686068542
 30
0.0
 10
136.6941767639128
 20
-310.6886685926947
 30
0.0
 10
136.7009696292625
 20
-311.2531685784343
 30
0.0
 10
135.8811767639127
 20
-312.1691685552942
 30
0.0
 10
132.1140697451374
 20
-313.5265685210034
 30
0.0
 10
128.9773698243771
 20
-314.6554684924849
 30
0.0
 10
128.458769837478
 20
-314.6554684924849
 30
0.0
 10
127.8747698522311
 20
-315.5519684698374
 30
0.0
 10
127.6008698591504
 20
-315.8820684614984
 30
0.0
 10
126.9885698746184
 20
-316.2843645177945
 30
0.0
 10
126.6155698840412
 20
-316.6163645177949
 30
0.0
 10
126.5500698856958
 20
-316.6710684415666
 30
0.0
 10
126.8855698772204
 20
-316.6222684427994
 30
0.0
 10
126.8103698791201
 20
-316.6749684414681
 30
0.0
 10
126.4743698876082
 20
-316.9210684352511
 30
0.0
 10
125.8928699022981
 20
-317.0988684307595
 30
0.0
 10
125.6228699091189
 20
-317.3019684256287
 30
0.0
 10
125.5559699108089
 20
-317.3546684242974
 30
0.0
 10
125.8406699036168
 20
-317.4484684219278
 30
0.0
 10
125.7771767639133
 20
-317.4933645177953
 30
0.0
 10
125.3425699161999
 20
-317.7921684132452
 30
0.0
 10
124.6355699340602
 20
-317.8839684109262
 30
0.0
 10
124.9450699262416
 20
-317.9152684101355
 30
0.0
 10
124.6355699340602
 20
-317.8976684105801
 30
0.0
 10
124.1594699460875
 20
-318.0148684076194
 30
0.0
 10
123.9660699509732
 20
-318.0695684062375
 30
0.0
 10
123.4690699635285
 20
-318.2120684026377
 30
0.0
 10
123.8865699529815
 20
-318.327364517796
 30
0.0
 10
123.8865699529815
 20
-318.327364517796
 30
0.0
 10
123.0002699753713
 20
-318.4347683970118
 30
0.0
 10
122.7492699817121
 20
-319.2550683762893
 30
0.0
 10
123.0422699743103
 20
-319.9113645177949
 30
0.0
 10
123.3684699660698
 20
-320.6437683412078
 30
0.0
 10
122.8489699791935
 20
-318.8390683867983
 30
0.0
 10
123.661469958668
 20
-318.7355683894129
 30
0.0
 10
123.6833699581148
 20
-319.0226683821602
 30
0.0
 10
123.4997699627529
 20
-319.135968379298
 30
0.0
 10
124.1550699461986
 20
-318.7453645177957
 30
0.0
 10
124.977869925413
 20
-318.2550684015514
 30
0.0
 10
124.4333699391682
 20
-318.7589683888218
 30
0.0
 10
124.977869925413
 20
-318.2550684015514
 30
0.0
 10
124.6355699340602
 20
-318.7355683894129
 30
0.0
 10
125.3342699164095
 20
-318.0324684071747
 30
0.0
 10
126.0163698991782
 20
-317.5460684194622
 30
0.0
 10
126.0774698976347
 20
-317.5011684205965
 30
0.0
 10
126.0417698985366
 20
-317.7785684135888
 30
0.0
 10
126.1037698969703
 20
-317.7355684146751
 30
0.0
 10
126.2932698921832
 20
-317.6007684180804
 30
0.0
 10
126.8122698790721
 20
-317.012868432932
 30
0.0
 10
127.0075698741384
 20
-316.85856843683
 30
0.0
 10
127.0647698726934
 20
-316.8136684379642
 30
0.0
 10
127.0574698728778
 20
-316.9660684341143
 30
0.0
 10
127.1096698715592
 20
-316.9249684351526
 30
0.0
 10
127.7165698562276
 20
-316.4581684469449
 30
0.0
 10
128.3650698398451
 20
-315.8097684633249
 30
0.0
 10
128.5364698355152
 20
-315.4132684733413
 30
0.0
 10
128.9997698238112
 20
-315.8917684612534
 30
0.0
 10
137.2932696142998
 20
-312.4288685487336
 30
0.0
 10
137.3191767639128
 20
-311.128168581592
 30
0.0
 10
137.3191767639128
 20
-311.128168581592
 30
0.0
 10
138.0456695952926
 20
-311.3449685761152
 30
0.0
 10
137.9890695967224
 20
-310.1320686067556
 30
0.0
 10
137.9890695967224
 20
-310.1320686067556
 30
0.0
 10
137.9870695967729
 20
-310.1183645177953
 30
0.0
 10
137.9870695967729
 20
-310.1105686072988
 30
0.0
 10
138.3366695879413
 20
-310.2863645177949
 30
0.0
 10
138.5793695818102
 20
-310.5128685971358
 30
0.0
 10
139.3718695617899
 20
-310.4660685983181
 30
0.0
 10
139.3835695614944
 20
-310.567568595754
 30
0.0
 10
139.4143695607163
 20
-310.729668591659
 30
0.0
 10
139.4709695592865
 20
-310.8312685890924
 30
0.0
  0
HATCH
  5
42
330
1F
100
AcDbEntity
  8
Layer 1
 62
     7
420
 16777215
100
AcDbHatch
 10
0.0
 20
0.0
 30
0.0
210
0.0
220
0.0
230
1.0
  2
SOLID
 70
     1
 71
     0
 91
        1
 92
        1
 93
        1
 72
     4
 94
        3
 73
     0
 74
     1
 95
      611
 96
      607
 40
0.0
 40
0.0
 40
0.0
 40
0.0
 40
1.0
 40
1.0
 40
1.0
 40
2.0
 40
2.0
 40
2.0
 40
3.0
 40
3.0
 40
3.0
 40
4.0
 40
4.0
 40
4.0
 40
5.0
 40
5.0
 40
5.0
 40
6.0
 40
6.0
 40
6.0
 40
7.0
 40
7.0
 40
7.0
 40
8.0
 40
8.0
 40
8.0
 40
9.0
 40
9.0
 40
9.0
 40
10.0
 40
10.0
 40
10.0
 40
11.0
 40
11.0
 40
11.0
 40
12.0
 40
12.0
 40
12.0
 40
13.0
 40
13.0
 40
13.0
 40
14.0
 40
14.0
 40
14.0
 40
15.0
 40
15.0
 40
15.0
 40
16.0
 40
16.0
 40
16.0
 40
17.0
 40
17.0
 40
17.0
 40
18.0
 40
18.0
 40
18.0
 40
19.0
 40
19.0
 40
19.0
 40
20.0
 40
20.0
 40
20.0
 40
21.0
 40
21.0
 40
21.0
 40
22.0
 40
22.0
 40
22.0
 40
23.0
 40
23.0
 40
23.0
 40
24.0
 40
24.0
 40
24.0
 40
25.0
 40
25.0
 40
25.0
 40
26.0
 40
26.0
 40
26.0
 40
27.0
 40
27.0
 40
27.0
 40
28.0
 40
28.0
 40
28.0
 40
29.0
 40
29.0
 40
29.0
 40
30.0
 40
30.0
 40
30.0
 40
31.0
 40
31.0
 40
31.0
 40
32.0
 40
32.0
 40
32.0
 40
33.0
 40
33.0
 40
33.0
 40
34.0
 40
34.0
 40
34.0
 40
35.0
 40
35.0
 40
35.0
 40
36.0
 40
36.0
 40
36.0
 40
37.0
 40
37.0
 40
37.0
 40
38.0
 40
38.0
 40
38.0
 40
39.0
 40
39.0
 40
39.0
 40
40.0
 40
40.0
 40
40.0
 40
41.0
 40
41.0
 40
41.0
 40
42.0
 40
42.0
 40
42.0
 40
43.0
 40
43.0
 40
43.0
 40
44.0
 40
44.0
 40
44.0
 40
45.0
 40
45.0
 40
45.0
 40
46.0
 40
46.0
 40
46.0
 40
47.0
 40
47.0
 40
47.0
 40
48.0
 40
48.0
 40
48.0
 40
49.0
 40
49.0
 40
49.0
 40
50.0
 40
50.0
 40
50.0
 40
51.0
 40
51.0
 40
51.0
 40
52.0
 40
52.0
 40
52.0
 40
53.0
 40
53.0
 40
53.0
 40
54.0
 40
54.0
 40
54.0
 40
55.0
 40
55.0
 40
55.0
 40
56.0
 40
56.0
 40
56.0
 40
57.0
 40
57.0
 40
57.0
 40
58.0
 40
58.0
 40
58.0
 40
59.0
 40
59.0
 40
59.0
 40
60.0
 40
60.0
 40
60.0
 40
61.0
 40
61.0
 40
61.0
 40
62.0
 40
62.0
 40
62.0
 40
63.0
 40
63.0
 40
63.0
 40
64.0
 40
64.0
 40
64.0
 40
65.0
 40
65.0
 40
65.0
 40
66.0
 40
66.0
 40
66.0
 40
67.0
 40
67.0
 40
67.0
 40
68.0
 40
68.0
 40
68.0
 40
69.0
 40
69.0
 40
69.0
 40
70.0
 40
70.0
 40
70.0
 40
71.0
 40
71.0
 40
71.0
 40
72.0
 40
72.0
 40
72.0
 40
73.0
 40
73.0
 40
73.0
 40
74.0
 40
74.0
 40
74.0
 40
75.0
 40
75.0
 40
75.0
 40
76.0
 40
76.0
 40
76.0
 40
77.0
 40
77.0
 40
77.0
 40
78.0
 40
78.0
 40
78.0
 40
79.0
 40
79.0
 40
79.0
 40
80.0
 40
80.0
 40
80.0
 40
81.0
 40
81.0
 40
81.0
 40
82.0
 40
82.0
 40
82.0
 40
83.0
 40
83.0
 40
83.0
 40
84.0
 40
84.0
 40
84.0
 40
85.0
 40
85.0
 40
85.0
 40
86.0
 40
86.0
 40
86.0
 40
87.0
 40
87.0
 40
87.0
 40
88.0
 40
88.0
 40
88.0
 40
89.0
 40
89.0
 40
89.0
 40
90.0
 40
90.0
 40
90.0
 40
91.0
 40
91.0
 40
91.0
 40
92.0
 40
92.0
 40
92.0
 40
93.0
 40
93.0
 40
93.0
 40
94.0
 40
94.0
 40
94.0
 40
95.0
 40
95.0
 40
95.0
 40
96.0
 40
96.0
 40
96.0
 40
97.0
 40
97.0
 40
97.0
 40
98.0
 40
98.0
 40
98.0
 40
99.0
 40
99.0
 40
99.0
 40
100.0
 40
100.0
 40
100.0
 40
101.0
 40
101.0
 40
101.0
 40
102.0
 40
102.0
 40
102.0
 40
103.0
 40
103.0
 40
103.0
 40
104.0
 40
104.0
 40
104.0
 40
105.0
 40
105.0
 40
105.0
 40
106.0
 40
106.0
 40
106.0
 40
107.0
 40
107.0
 40
107.0
 40
108.0
 40
108.0
 40
108.0
 40
109.0
 40
109.0
 40
109.0
 40
110.0
 40
110.0
 40
110.0
 40
111.0
 40
111.0
 40
111.0
 40
112.0
 40
112.0
 40
112.0
 40
113.0
 40
113.0
 40
113.0
 40
114.0
 40
114.0
 40
114.0
 40
115.0
 40
115.0
 40
115.0
 40
116.0
 40
116.0
 40
116.0
 40
117.0
 40
117.0
 40
117.0
 40
118.0
 40
118.0
 40
118.0
 40
119.0
 40
119.0
 40
119.0
 40
120.0
 40
120.0
 40
120.0
 40
121.0
 40
121.0
 40
121.0
 40
122.0
 40
122.0
 40
122.0
 40
123.0
 40
123.0
 40
123.0
 40
124.0
 40
124.0
 40
124.0
 40
125.0
 40
125.0
 40
125.0
 40
126.0
 40
126.0
 40
126.0
 40
127.0
 40
127.0
 40
127.0
 40
128.0
 40
128.0
 40
128.0
 40
129.0
 40
129.0
 40
129.0
 40
130.0
 40
130.0
 40
130.0
 40
131.0
 40
131.0
 40
131.0
 40
132.0
 40
132.0
 40
132.0
 40
133.0
 40
133.0
 40
133.0
 40
134.0
 40
134.0
 40
134.0
 40
135.0
 40
135.0
 40
135.0
 40
136.0
 40
136.0
 40
136.0
 40
137.0
 40
137.0
 40
137.0
 40
138.0
 40
138.0
 40
138.0
 40
139.0
 40
139.0
 40
139.0
 40
140.0
 40
140.0
 40
140.0
 40
141.0
 40
141.0
 40
141.0
 40
142.0
 40
142.0
 40
142.0
 40
143.0
 40
143.0
 40
143.0
 40
144.0
 40
144.0
 40
144.0
 40
145.0
 40
145.0
 40
145.0
 40
146.0
 40
146.0
 40
146.0
 40
147.0
 40
147.0
 40
147.0
 40
148.0
 40
148.0
 40
148.0
 40
149.0
 40
149.0
 40
149.0
 40
150.0
 40
150.0
 40
150.0
 40
151.0
 40
151.0
 40
151.0
 40
152.0
 40
152.0
 40
152.0
 40
153.0
 40
153.0
 40
153.0
 40
154.0
 40
154.0
 40
154.0
 40
155.0
 40
155.0
 40
155.0
 40
156.0
 40
156.0
 40
156.0
 40
157.0
 40
157.0
 40
157.0
 40
158.0
 40
158.0
 40
158.0
 40
159.0
 40
159.0
 40
159.0
 40
160.0
 40
160.0
 40
160.0
 40
161.0
 40
161.0
 40
161.0
 40
162.0
 40
162.0
 40
162.0
 40
163.0
 40
163.0
 40
163.0
 40
164.0
 40
164.0
 40
164.0
 40
165.0
 40
165.0
 40
165.0
 40
166.0
 40
166.0
 40
166.0
 40
167.0
 40
167.0
 40
167.0
 40
168.0
 40
168.0
 40
168.0
 40
169.0
 40
169.0
 40
169.0
 40
170.0
 40
170.0
 40
170.0
 40
171.0
 40
171.0
 40
171.0
 40
172.0
 40
172.0
 40
172.0
 40
173.0
 40
173.0
 40
173.0
 40
174.0
 40
174.0
 40
174.0
 40
175.0
 40
175.0
 40
175.0
 40
176.0
 40
176.0
 40
176.0
 40
177.0
 40
177.0
 40
177.0
 40
178.0
 40
178.0
 40
178.0
 40
179.0
 40
179.0
 40
179.0
 40
180.0
 40
180.0
 40
180.0
 40
181.0
 40
181.0
 40
181.0
 40
182.0
 40
182.0
 40
182.0
 40
183.0
 40
183.0
 40
183.0
 40
184.0
 40
184.0
 40
184.0
 40
185.0
 40
185.0
 40
185.0
 40
186.0
 40
186.0
 40
186.0
 40
187.0
 40
187.0
 40
187.0
 40
188.0
 40
188.0
 40
188.0
 40
189.0
 40
189.0
 40
189.0
 40
190.0
 40
190.0
 40
190.0
 40
191.0
 40
191.0
 40
191.0
 40
192.0
 40
192.0
 40
192.0
 40
193.0
 40
193.0
 40
193.0
 40
194.0
 40
194.0
 40
194.0
 40
195.0
 40
195.0
 40
195.0
 40
196.0
 40
196.0
 40
196.0
 40
197.0
 40
197.0
 40
197.0
 40
198.0
 40
198.0
 40
198.0
 40
199.0
 40
199.0
 40
199.0
 40
200.0
 40
200.0
 40
200.0
 40
201.0
 40
201.0
 40
201.0
 40
202.0
 40
202.0
 40
202.0
 40
202.0
 10
139.4709695592865
 20
-310.8312685890924
 10
138.444669585213
 20
-312.827364517796
 10
138.3137695885198
 20
-316.7824684387524
 10
138.8244695756184
 20
-317.2179684277507
 10
138.9504695724354
 20
-317.3234684250856
 10
139.093069568833
 20
-317.3624684241004
 10
139.2180695656753
 20
-317.3253645177956
 10
141.2185695151384
 20
-318.1261684048077
 10
144.9646694205039
 20
-318.3038684003186
 10
149.6540693020397
 20
-320.0011683574412
 10
149.8523692970302
 20
-320.4992683448581
 10
150.6013692781089
 20
-321.1495683284302
 10
150.9187692700907
 20
-321.260968325616
 10
151.2380692620245
 20
-321.3683645177953
 10
151.3757692585459
 20
-321.6554683156501
 10
151.4324692571136
 20
-321.9015683094331
 10
151.4939692555599
 20
-322.1456683032666
 10
151.7907692480621
 20
-322.3097682991211
 10
152.006669242608
 20
-322.4054682967035
 10
152.2224692371565
 20
-322.5050682941874
 10
152.2497692364668
 20
-322.7042682891552
 10
152.2810692356761
 20
-322.952364517796
 10
152.3152692348121
 20
-323.202364517796
 10
152.7517692237852
 20
-323.7765682620666
 10
153.4363692064908
 20
-324.2179682509159
 10
153.6784692003748
 20
-324.3742682469674
 10
154.2927691848563
 20
-324.3058682486953
 10
153.9314691939835
 20
-324.1261682532349
 10
153.1863692128063
 20
-323.7550682626097
 10
153.4431767639126
 20
-323.1281682784465
 10
153.0622692159413
 20
-322.9249682835798
 10
153.8122691969947
 20
-323.2316682758319
 10
153.2478692112527
 20
-322.3078682991691
 10
152.660969226079
 20
-322.1945683020313
 10
152.4284692319525
 20
-322.1476683032161
 10
152.4324692318514
 20
-321.9953645177957
 10
152.344569234072
 20
-321.7042683144173
 10
152.254669236343
 20
-321.4113645177949
 10
152.2253692370832
 20
-321.3917683223117
 10
151.8083692476175
 20
-321.09296832986
 10
151.3884692582251
 20
-320.7921683374589
 10
151.3640692588415
 20
-320.9660683330658
 10
151.2800692609635
 20
-320.7218683392348
 10
151.1970692630603
 20
-320.4816683453028
 10
151.114069265157
 20
-320.4152683469802
 10
150.6452692769999
 20
-320.1242683543314
 10
150.1755692888655
 20
-319.8312683617332
 10
150.0398692922936
 20
-319.9249683593662
 10
150.1404692897522
 20
-319.46206837106
 10
150.2419692871881
 20
-319.0011683827033
 10
150.1511767639131
 20
-319.1066683800382
 10
148.742969325056
 20
-318.9308683844793
 10
146.2917693869786
 20
-318.6261683921766
 10
141.6081767639134
 20
-316.4855684462527
 10
139.5691767639128
 20
-316.688668441122
 10
139.5740695566819
 20
-316.6203645177957
 10
139.5798695565354
 20
-316.5499684446258
 10
139.5769695566087
 20
-316.4679684466973
 10
139.3855695614438
 20
-314.8312684880439
 10
140.4885695335797
 20
-314.2628685024029
 10
140.4338695349616
 20
-312.0187685590936
 10
140.3933695359847
 20
-311.6730685678267
 10
140.4338695349616
 20
-311.3429685761657
 10
140.4743695339384
 20
-311.05976858332
 10
140.6072695305811
 20
-310.9386685863792
 10
140.7898695259682
 20
-310.6828685928413
 10
140.80206952566
 20
-310.2140686046841
 10
141.1130695178035
 20
-310.1984686050782
 10
141.5041767639123
 20
-310.0226686095193
 10
141.5515695067261
 20
-310.0089686098654
 10
141.6745695036188
 20
-310.3292686017739
 10
142.0246694947746
 20
-310.7824685903252
 10
142.1574694914198
 20
-310.6886685926947
 10
142.9431767639126
 20
-312.5695685451792
 10
145.32306941145
 20
-315.0831684816803
 10
146.1013693917885
 20
-315.0910684814808
 10
146.223469388704
 20
-315.0910684814808
 10
146.3210693862384
 20
-315.0636684821729
 10
146.3904693844852
 20
-315.0128684834563
 10
148.5652693295451
 20
-315.1281684805435
 10
152.1159692398469
 20
-314.3351685005764
 10
156.8894691192581
 20
-314.641768492831
 10
157.2185691109444
 20
-315.0656684821224
 10
157.4304691055913
 20
-315.8097684633249
 10
157.729269098043
 20
-315.9601684595254
 10
158.0320690903936
 20
-316.110568455726
 10
158.1325690878548
 20
-316.4113645177949
 10
158.1570690872359
 20
-316.6613645177949
 10
158.1824690865942
 20
-316.9132684354481
 10
158.4577690796395
 20
-317.1144684303654
 10
158.6579690745821
 20
-317.2394684272076
 10
158.8601767639138
 20
-317.3644684240498
 10
158.8601767639138
 20
-317.5656684189671
 10
158.8601767639138
 20
-317.8156684126516
 10
158.8601767639138
 20
-318.067568406288
 10
159.2175690604454
 20
-318.6925683904992
 10
159.8386690447551
 20
-319.221868377128
 10
160.0593690391797
 20
-319.4074683724393
 10
160.6745690236385
 20
-319.4230683720452
 10
160.3396690320988
 20
-319.1945683778176
 10
159.6521767639133
 20
-318.7316683895115
 10
159.9880690409809
 20
-318.1417684044136
 10
159.6365690498606
 20
-317.8917684107291
 10
160.3396690320988
 20
-318.2921684006142
 10
159.9021767639133
 20
-317.3019684256287
 10
159.3357690574594
 20
-317.1144684303654
 10
159.1111767639122
 20
-317.0382684322904
 10
159.1355690625169
 20
-316.8859684361378
 10
159.0866690637522
 20
-316.5870684436886
 10
159.0349690650582
 20
-316.2843645177945
 10
159.0095690656999
 20
-316.2589684519771
 10
158.6325690752237
 20
-315.9093645177945
 10
158.2566690847198
 20
-315.5597684696404
 10
158.4333690802559
 20
-315.5831684690493
 10
158.3825690815393
 20
-315.3331684753648
 10
158.33186908282
 20
-315.0812684817283
 10
158.2566690847198
 20
-315.0050684836533
 10
157.8318690954511
 20
-314.6554684924849
 10
157.405069106233
 20
-314.3038685013671
 10
157.237069110477
 20
-314.4581684974692
 10
157.2048691112905
 20
-313.98746850936
 10
157.1745691120559
 20
-313.5187685212004
 10
157.2829691093175
 20
-313.6984685166608
 10
155.8816691447173
 20
-313.9269685108884
 10
153.4021767639133
 20
-314.323468500872
 10
148.1784693393165
 20
-313.5460685205107
 10
146.3552693853744
 20
-314.3761684995407
 10
146.303469386683
 20
-314.2941685016121
 10
146.2380693883351
 20
-314.2081685037847
 10
146.1560693904066
 20
-314.1144685061518
 10
144.6394694287192
 20
-312.9718685350163
 10
145.1394694160881
 20
-312.0812685575147
 10
143.0407694691057
 20
-310.1124686072508
 10
143.0398694691285
 20
-310.1105686072988
 10
143.037869469179
 20
-310.1105686072988
 10
143.0368694692042
 20
-310.1085686073493
 10
143.0407694691057
 20
-310.0050686099639
 10
142.9890694704118
 20
-309.8429686140589
 10
142.8152694748023
 20
-309.6105686199298
 10
144.592569429904
 20
-308.9894686356201
 10
144.5241767639127
 20
-308.6906686431685
 10
144.5241767639127
 20
-308.6906686431685
 10
144.5241767639127
 20
-308.6906686431685
 10
144.8601767639138
 20
-308.8605686388764
 10
145.5368694060489
 20
-309.0304686345844
 10
145.9021767639133
 20
-309.1222686322653
 10
146.2204693887797
 20
-309.0597686338442
 10
146.5700693799481
 20
-308.8781686384318
 10
149.7429692997939
 20
-314.3019685014151
 10
155.0671767639124
 20
-313.2980685267758
 10
158.7351767639138
 20
-311.6652685680237
 10
159.5681767639126
 20
-311.2980685773
 10
160.3318690322958
 20
-311.1027685822337
 10
160.8464690192959
 20
-310.5988685949633
 10
160.9187690174695
 20
-310.5265685967897
 10
161.0700690136473
 20
-310.4347685991088
 10
161.1589690114015
 20
-310.3859686003416
 10
161.3493690065916
 20
-310.2765686031053
 10
161.5603690012613
 20
-310.2589686035499
 10
162.1111767639122
 20
-309.9210686120859
 10
162.2224689845352
 20
-309.8507686138619
 10
162.7068689722983
 20
-309.4503645177956
 10
162.8113689696584
 20
-309.3859686256037
 10
163.1267689616907
 20
-309.1945686304389
 10
163.2829689577447
 20
-309.1788686308355
 10
163.5320689514519
 20
-309.0265686346829
 10
163.6638689481224
 20
-308.9445686367544
 10
163.8386689437066
 20
-308.6574686440072
 10
163.9558689407459
 20
-308.602768645389
 10
164.5271767639133
 20
-308.3312686522477
 10
164.7077689217513
 20
-307.8976686632013
 10
165.0700689125988
 20
-307.6007686707017
 10
165.2175689088726
 20
-307.458168674304
 10
165.2146689089459
 20
-307.0714686840729
 10
165.0417689133137
 20
-306.9288686876753
 10
164.6833689223677
 20
-306.6320686951731
 10
164.5222689264374
 20
-306.4757686991215
 10
163.9558689407459
 20
-306.0656687094815
 10
163.8493689434363
 20
-305.987468711457
 10
163.6638689481224
 20
-305.7218687181667
 10
163.5320689514519
 20
-305.6398687202382
 10
163.2829689577447
 20
-305.4855687241361
 10
163.1267689616907
 20
-305.4718687244822
 10
162.8113689696584
 20
-305.2804687293174
 10
162.7068689722983
 20
-305.2160687309442
 10
162.3503689813042
 20
-304.9035687388387
 10
162.2390689841159
 20
-304.8370687405186
 10
161.6872689980555
 20
-304.4953645177957
 10
161.3493690065916
 20
-304.3898687518158
 10
161.1589690114015
 20
-304.2804687545795
 10
161.0700690136473
 20
-304.2296687558628
 10
160.9187690174695
 20
-304.1378687581819
 10
160.8464690192959
 20
-304.0675687599578
 10
160.3318690322958
 20
-303.5636687726874
 10
159.362069056795
 20
-303.2726687800387
 10
158.5300690778131
 20
-302.9035687893629
 10
154.8884691698076
 20
-301.2824688303153
 10
149.0222693180003
 20
-300.2228688570831
 10
146.5427693806378
 20
-305.4894687240376
 10
146.2058693891486
 20
-305.3175687283801
 10
145.893369397043
 20
-305.26096872981
 10
145.5368694060489
 20
-305.3527687274909
 10
144.8601767639138
 20
-305.5187687232974
 10
144.5241767639127
 20
-305.6886687190054
 10
144.5241767639127
 20
-305.6886687190054
 10
144.5241767639127
 20
-305.6886687190054
 10
144.592569429904
 20
-305.4796687242851
 10
142.825969474532
 20
-304.8937687390862
 10
142.90996947241
 20
-304.7335687431332
 10
142.9343694717936
 20
-304.5519687477208
 10
142.9402694716446
 20
-304.4191687510756
 10
143.0310694693508
 20
-304.3781687521114
 10
143.1277694669079
 20
-304.3175687536423
 10
143.2331767639134
 20
-304.2199687561078
 10
145.0124694192964
 20
-302.5460687983941
 10
144.9021767639133
 20
-300.814668842133
 10
146.4187693837703
 20
-299.6691688710707
 10
148.1120693409939
 20
-300.6017688475113
 10
153.5398692038762
 20
-299.7687688685546
 10
156.0788691397356
 20
-300.1788688581946
 10
157.481269104308
 20
-300.4035688525182
 10
156.962669117409
 20
-300.5792688480797
 10
157.1921767639124
 20
-300.1652688585382
 10
157.4197691058616
 20
-299.7531688689487
 10
157.5046691037169
 20
-299.9660688635704
 10
158.0388690902219
 20
-299.8312688669757
 10
158.5759690766536
 20
-299.6945688704291
 10
158.6745690741627
 20
-299.6574688713663
 10
158.8279690702875
 20
-299.4513645177958
 10
158.9802690664401
 20
-299.2453645177957
 10
158.8103690707321
 20
-299.1954688830374
 10
159.3025690582981
 20
-299.0363645177949
 10
159.7907690459651
 20
-298.8790688910303
 10
159.8240690451239
 20
-298.8663645177949
 10
159.9988690407081
 20
-298.6163645177949
 10
160.1726690363175
 20
-298.365468904005
 10
160.212669035307
 20
-298.2199689076806
 10
160.4509690292871
 20
-298.2472689069909
 10
161.0417690143622
 20
-298.317568905215
 10
161.8601767639138
 20
-297.6085689231259
 10
161.0534690140666
 20
-297.671068921547
 10
161.47926900331
 20
-297.5949689234694
 10
161.4245690046919
 20
-296.9181689405668
 10
162.2458689839441
 20
-296.7902689437979
 10
162.6452689738544
 20
-296.7277689453767
 10
162.0818689880871
 20
-296.4777689516923
 10
161.8015689951681
 20
-296.5538689497698
 10
161.0154690150266
 20
-296.7667689443915
 10
160.4236690299767
 20
-297.1808689339305
 10
160.3181767639126
 20
-297.4083645177961
 10
160.2116690353323
 20
-297.6359689224337
 10
160.1247690375276
 20
-297.8156689178941
 10
159.8904690434465
 20
-297.8449689171539
 10
159.6550690493932
 20
-297.8742689164137
 10
159.3181767639126
 20
-297.9367689148348
 10
159.190269061135
 20
-298.153568909358
 10
159.0603690644166
 20
-298.3703645177957
 10
158.8435690698934
 20
-298.5988688981088
 10
158.5046690784548
 20
-298.6066688979117
 10
158.1677690869656
 20
-298.6163645177949
 10
157.5115691035426
 20
-299.0167688875517
 10
157.1843691118083
 20
-299.4386688768936
 10
152.464669231038
 20
-299.7433645177953
 10
148.9431767639126
 20
-298.971868888686
 10
146.7624693750877
 20
-299.0685688862432
 10
146.7165693762472
 20
-299.0050688878473
 10
146.5876693795035
 20
-298.9913645177949
 10
146.3962693843387
 20
-298.9913645177949
 10
145.3689694102904
 20
-298.9992688879938
 10
143.1843694654781
 20
-301.2677688306867
 10
142.2141767639132
 20
-303.7550687678522
 10
142.2077694901491
 20
-303.7726687674076
 10
142.2019694902956
 20
-303.7960687668165
 10
142.1980694903941
 20
-303.8175687662733
 10
142.0017694953531
 20
-303.8703645177957
 10
141.6882695032727
 20
-304.2238687560093
 10
141.5295695072818
 20
-304.4913645177949
 10
141.360176763912
 20
-304.444568750434
 10
141.0823695185791
 20
-304.3488687528516
 10
140.714669527868
 20
-304.2726687547765
 10
140.7551767639125
 20
-303.7335687683953
 10
140.437769534863
 20
-303.5636687726874
 10
140.3396695373413
 20
-303.5285687735741
 10
140.1858695412266
 20
-303.2765687799401
 10
139.9338695475926
 20
-302.9386687884762
 10
139.8430695498864
 20
-302.4660688004151
 10
139.100869568636
 20
-299.7765688683576
 10
138.4861767639122
 20
-300.5831688479811
 10
138.3366695879413
 20
-298.691568895767
 10
138.2927695890503
 20
-298.5304688998367
 10
138.2370695904574
 20
-298.395668903242
 10
138.1760695919984
 20
-298.2785689062002
 10
140.1838695412771
 20
-298.1837689085951
 10
144.8777694226992
 20
-295.8639689671982
 10
147.3523693601855
 20
-295.3771689794958
 10
148.7449693250055
 20
-295.1007689864782
 10
148.2693693370202
 20
-295.0241689884133
 10
148.4529693323821
 20
-294.7345689957292
 10
148.6365693277439
 20
-294.4450690030426
 10
148.6697693269052
 20
-294.7814689945444
 10
149.1345693151634
 20
-294.5900689993796
 10
149.5984693034443
 20
-294.3986690042148
 10
149.6843693012743
 20
-294.353769005349
 10
149.7937692985106
 20
-294.1486690105303
 10
149.9050692956989
 20
-293.9435690157115
 10
149.7449692997434
 20
-293.9196690163153
 10
150.1657692891131
 20
-293.7150690214839
 10
150.585769278503
 20
-293.5089690266905
 10
150.6140692777881
 20
-293.4948690270467
 10
150.7380692746556
 20
-293.2462690333268
 10
150.8620692715231
 20
-292.9982690395918
 10
150.8796692710785
 20
-292.8605690430704
 10
151.0974692655764
 20
-292.8556690431942
 10
151.6374692519348
 20
-292.8414690435529
 10
152.2829692356281
 20
-292.0983645177948
 10
151.5652692537587
 20
-292.2589690582681
 10
151.9372692443612
 20
-292.1359690613754
 10
151.8015692477893
 20
-291.5343645177963
 10
152.5232692295576
 20
-291.3146690821231
 10
152.874769220678
 20
-291.2052690848868
 10
152.3357692342943
 20
-291.0534690887216
 10
152.0935692404128
 20
-291.158869086059
 10
151.4148692575582
 20
-291.4508690786824
 10
150.9353692696714
 20
-291.9005690673221
 10
150.867969271374
 20
-292.1188690618073
 10
150.8025692730262
 20
-292.3375690562825
 10
150.74976927436
 20
-292.5104690519147
 10
150.5417692796145
 20
-292.5661690505076
 10
150.333769284869
 20
-292.6232690490651
 10
150.0398692922936
 20
-292.7223645177946
 10
149.9509692945394
 20
-292.932869041244
 10
149.8620692967852
 20
-293.1452690358783
 10
149.6960693009787
 20
-293.3800690299468
 10
149.3943693086003
 20
-293.4313645177954
 10
149.0925693162244
 20
-293.4821690273675
 10
148.4128693333951
 20
-294.3248690060791
 10
147.9353693454577
 20
-294.5363645177949
 10
144.4802694327409
 20
-295.7619689697749
 10
139.5207695580284
 20
-296.5968689486836
 10
137.7116696037301
 20
-297.8253645177956
 10
137.5940696067009
 20
-297.8048689181669
 10
137.4841767639118
 20
-297.8507689170074
 10
137.4016696115614
 20
-297.9806689137258
 10
137.0744696198271
 20
-298.5021689005516
 10
137.9216695984251
 20
-302.2179688066826
 10
139.3591767639118
 20
-303.6691687700222
 10
139.365969561939
 20
-303.7003645177956
 10
139.3777695616409
 20
-303.7335687683953
 10
139.3894695613453
 20
-303.7648687676046
 10
139.3240695629975
 20
-303.8488687654826
 10
139.2795695641216
 20
-303.9386687632141
 10
139.2536695647759
 20
-304.028568760943
 10
138.5813695817596
 20
-304.0011687616352
 10
138.3415695878175
 20
-304.0929687593161
 10
138.0295695956993
 20
-304.2531687552691
 10
138.1887695916776
 20
-303.3937687769794
 10
137.6902696042707
 20
-303.1495687831484
 10
137.6902696042707
 20
-303.1495687831484
 10
136.973969622366
 20
-301.2579688309343
 10
130.5188697854355
 20
-297.4601689268748
 10
129.5852698090202
 20
-297.4181689279358
 10
129.4831767639134
 20
-296.9992689385181
 10
129.2068698185794
 20
-296.444568952531
 10
128.6853698317536
 20
-295.8810689667662
 10
128.6413698328652
 20
-295.8327689679863
 10
128.6218698333578
 20
-295.9840689641642
 10
128.5730698345906
 20
-295.9308689655081
 10
128.4065698387967
 20
-295.7462689701715
 10
127.9919698492704
 20
-295.0807689869835
 10
127.8279698534134
 20
-294.9171689911163
 10
127.7722698548205
 20
-294.8634689924729
 10
127.762469855068
 20
-295.1442689853793
 10
127.7077698564499
 20
-295.0905689867359
 10
127.1159698714
 20
-294.4957690017618
 10
126.5422698858929
 20
-293.6876690221761
 10
126.8005698793677
 20
-294.2189690087544
 10
126.347469890814
 20
-293.6320690235807
 10
126.8005698793677
 20
-294.2189690087544
 10
126.0710698977964
 20
-293.5983645177948
 10
125.855269903248
 20
-293.4186690289716
 10
125.763469905567
 20
-293.3034690318818
 10
125.7243699065548
 20
-293.2394690334986
 10
125.7307699063931
 20
-293.2711690326978
 10
125.7341767639118
 20
-293.3126690316494
 10
125.7190699066887
 20
-293.3683645177953
 10
124.9328699265498
 20
-293.1320690362118
 10
125.3342699164095
 20
-291.446969078781
 10
124.8923699275729
 20
-292.1129690619564
 10
124.4953699376019
 20
-292.7145690467587
 10
124.6081767639134
 20
-293.5636690253086
 10
125.4656699130901
 20
-293.8151690189552
 10
125.4656699130901
 20
-293.8151690189552
 10
125.0334699240084
 20
-293.8620690177704
 10
125.5012699121908
 20
-294.0841690121597
 10
125.6799699076764
 20
-294.168669010025
 10
126.1325698962428
 20
-294.3629690051166
 10
126.4402698884696
 20
-294.39766900424
 10
126.1291767639123
 20
-294.37866900472
 10
126.8122698790721
 20
-294.5836689995413
 10
127.1916698694877
 20
-294.9498689902903
 10
127.2488698680427
 20
-295.0055689888832
 10
126.9499698755935
 20
-295.051968987711
 10
127.0056698741864
 20
-295.1115689862054
 10
127.2405698682524
 20
-295.3576689799884
 10
127.785469854487
 20
-295.6290689731322
 10
128.0764698471357
 20
-295.9264689656193
 10
128.140469845519
 20
-295.9918689639671
 10
127.8191767639128
 20
-295.8869689666171
 10
127.8728698522791
 20
-295.954268964917
 10
128.1892698442862
 20
-296.3419689551229
 10
128.7268698307053
 20
-296.8703645177957
 10
128.9441767639128
 20
-297.2394689324501
 10
129.3728698143859
 20
-298.2238689075821
 10
129.8845698014593
 20
-298.3087689054373
 10
132.7907697280425
 20
-299.9367688643106
 10
136.2849696397716
 20
-301.8937688148726
 10
137.0212696211711
 20
-302.9542687880821
 10
136.8415696257107
 20
-303.4894687745618
 10
136.6452696306696
 20
-304.0812687596117
 10
137.1618696176192
 20
-304.3312687532962
 10
137.3132696137945
 20
-304.5734687471777
 10
135.9470696483077
 20
-304.9152687385431
 10
134.7414696787637
 20
-306.2374687051415
 10
134.2229696918621
 20
-306.8800686889081
 10
134.1047696948481
 20
-305.4581687248283
 10
133.5490697088862
 20
-304.9074687387401
 10
132.6506697315817
 20
-304.1613645177949
 10
131.2087697680072
 20
-302.9699687876855
 10
128.1252698459029
 20
-304.2335687557643
 10
127.3122698664411
 20
-304.5890687467836
 10
127.2634698676738
 20
-304.6124687461925
 10
127.2126698689572
 20
-304.6359687455988
 10
127.1614698702506
 20
-304.6593645177945
 10
127.0920698720038
 20
-304.5968687465866
 10
126.9499698755935
 20
-304.4913645177949
 10
126.7785698799235
 20
-304.4913645177949
 10
126.5344698860899
 20
-304.4913645177949
 10
126.3948698896165
 20
-304.4894687492997
 10
126.3948698896165
 20
-304.4894687492997
 10
124.5422699364171
 20
-303.6476687705654
 10
122.6765699835487
 20
-303.0128687866018
 10
121.4909700134995
 20
-301.9103645177947
 10
121.4016700157554
 20
-301.827364517796
 10
121.1106700231066
 20
-301.7081688195613
 10
121.1106700231066
 20
-301.7081688195613
 10
121.1106700231066
 20
-301.7081688195613
 10
116.8196701315064
 20
-300.6007688475365
 10
114.812770182205
 20
-301.5343645177945
 10
113.8581767639134
 20
-301.9777688127506
 10
114.5505701888287
 20
-302.7609687929653
 10
115.2087701722012
 20
-302.6222687964691
 10
117.7868701070729
 20
-302.0890688099389
 10
119.9314700528957
 20
-301.8156688168456
 10
120.9084700282147
 20
-302.0890688099389
 10
120.9084700282147
 20
-302.0890688099389
 10
121.3576700168669
 20
-302.3468688034263
 10
121.6179700102912
 20
-302.5460687983941
 10
122.6765699835487
 20
-303.3507687780657
 10
124.1184699471232
 20
-303.9015687641513
 10
126.1081767639134
 20
-304.6730687446616
 10
126.1081767639134
 20
-304.6730687446616
 10
126.0613698980414
 20
-304.9953645177957
 10
126.2107698942673
 20
-305.1613645177949
 10
125.8313699038517
 20
-305.3917687265057
 10
125.4826699126606
 20
-305.6652687195965
 10
125.2282699190873
 20
-305.9992687111589
 10
125.099869922331
 20
-305.987468711457
 10
124.7717699306195
 20
-305.9581687121972
 10
124.6091767639118
 20
-306.0050687110124
 10
124.4079699398098
 20
-306.0617687095801
 10
124.0700699483459
 20
-306.6320686951731
 10
124.0700699483459
 20
-306.6320686951731
 10
124.0700699483459
 20
-306.6320686951731
 10
124.435869939105
 20
-306.4328687002053
 10
124.8747699280175
 20
-306.702364517796
 10
124.8332699290659
 20
-306.8605686894007
 10
124.8113699296191
 20
-307.0245686852577
 10
124.8113699296191
 20
-307.202364517796
 10
124.8113699296191
 20
-307.3761686763755
 10
124.8376699289547
 20
-307.5382686722805
 10
124.8840699277825
 20
-307.6945686683321
 10
124.441176763914
 20
-307.9738686612764
 10
124.0700699483459
 20
-307.7706686664096
 10
124.0700699483459
 20
-307.7706686664096
 10
124.0700699483459
 20
-307.7706686664096
 10
124.4079699398098
 20
-308.3410686520001
 10
124.6091767639118
 20
-308.3976686505703
 10
124.8000699299046
 20
-308.452364517796
 10
125.225869919148
 20
-308.4054686503732
 10
125.2732699179505
 20
-308.3995686505223
 10
125.5134699118826
 20
-308.6847686433175
 10
125.8240699040362
 20
-308.9308686371005
 10
126.160469895538
 20
-309.1417686317727
 10
126.0735698977333
 20
-309.3136686274302
 10
126.1081767639134
 20
-309.5538686213622
 10
126.1081767639134
 20
-309.5538686213622
 10
124.3723699407092
 20
-310.2179686045856
 10
122.5090699877801
 20
-311.1495685810514
 10
121.4485700145706
 20
-311.954268560723
 10
121.1867700211842
 20
-312.1535685556883
 10
120.9084700282147
 20
-312.4113645177949
 10
120.9084700282147
 20
-312.4113645177949
 10
119.9314700528957
 20
-312.6867685422185
 10
117.7868701070729
 20
-312.4113645177949
 10
115.2087701722012
 20
-311.8781685626454
 10
114.5505701888287
 20
-311.7413645177949
 10
113.8581767639134
 20
-312.522668546364
 10
114.812770182205
 20
-312.9679685351148
 10
116.8196701315064
 20
-313.9015685115301
 10
121.1106700231066
 20
-312.7921685395559
 10
121.1106700231066
 20
-312.7921685395559
 10
121.1106700231066
 20
-312.7921685395559
 10
121.4109700155204
 20
-312.682868542317
 10
121.4909700134995
 20
-312.5910685446361
 10
122.6716699836725
 20
-311.2316685789774
 10
124.8386699289294
 20
-310.5128685971358
 10
126.3948698896165
 20
-309.7394686166735
 10
126.3948698896165
 20
-309.7394686166735
 10
126.5344698860899
 20
-309.7374686167241
 10
126.7785698799235
 20
-309.7374686167241
 10
126.934869875975
 20
-309.7374686167241
 10
127.0344698734589
 20
-309.6886686179569
 10
127.091069872029
 20
-309.6535686188436
 10
127.1662698701293
 20
-309.6906686179063
 10
127.2395698682776
 20
-309.7277686169691
 10
127.3122698664411
 20
-309.7628686160824
 10
128.4924698366267
 20
-310.3292686017739
 10
131.425069762543
 20
-311.4542685733541
 10
132.5115697350957
 20
-310.5519685961481
 10
133.5017697100811
 20
-309.7296686169211
 10
134.2082696922334
 20
-309.3859686256037
 10
134.2424696913695
 20
-307.6183645177953
 10
134.7488696785767
 20
-308.2413645177949
 10
135.8562696506015
 20
-309.4464686240754
 10
137.1252696185438
 20
-309.8507686138619
 10
136.9953696218254
 20
-309.9152686122325
 10
136.6853696296566
 20
-310.1281686068542
 10
136.6941767639128
 20
-310.6886685926947
 10
136.7009696292625
 20
-311.2531685784343
 10
135.8811767639127
 20
-312.1691685552942
 10
132.1140697451374
 20
-313.5265685210034
 10
128.9773698243771
 20
-314.6554684924849
 10
128.458769837478
 20
-314.6554684924849
 10
127.8747698522311
 20
-315.5519684698374
 10
127.6008698591504
 20
-315.8820684614984
 10
126.9885698746184
 20
-316.2843645177945
 10
126.6155698840412
 20
-316.6163645177949
 10
126.5500698856958
 20
-316.6710684415666
 10
126.8855698772204
 20
-316.6222684427994
 10
126.8103698791201
 20
-316.6749684414681
 10
126.4743698876082
 20
-316.9210684352511
 10
125.8928699022981
 20
-317.0988684307595
 10
125.6228699091189
 20
-317.3019684256287
 10
125.5559699108089
 20
-317.3546684242974
 10
125.8406699036168
 20
-317.4484684219278
 10
125.7771767639133
 20
-317.4933645177953
 10
125.3425699161999
 20
-317.7921684132452
 10
124.6355699340602
 20
-317.8839684109262
 10
124.9450699262416
 20
-317.9152684101355
 10
124.6355699340602
 20
-317.8976684105801
 10
124.1594699460875
 20
-318.0148684076194
 10
123.9660699509732
 20
-318.0695684062375
 10
123.4690699635285
 20
-318.2120684026377
 10
123.8865699529815
 20
-318.327364517796
 10
123.8865699529815
 20
-318.327364517796
 10
123.0002699753713
 20
-318.4347683970118
 10
122.7492699817121
 20
-319.2550683762893
 10
123.0422699743103
 20
-319.9113645177949
 10
123.3684699660698
 20
-320.6437683412078
 10
122.8489699791935
 20
-318.8390683867983
 10
123.661469958668
 20
-318.7355683894129
 10
123.6833699581148
 20
-319.0226683821602
 10
123.4997699627529
 20
-319.135968379298
 10
124.1550699461986
 20
-318.7453645177957
 10
124.977869925413
 20
-318.2550684015514
 10
124.4333699391682
 20
-318.7589683888218
 10
124.977869925413
 20
-318.2550684015514
 10
124.6355699340602
 20
-318.7355683894129
 10
125.3342699164095
 20
-318.0324684071747
 10
126.0163698991782
 20
-317.5460684194622
 10
126.0774698976347
 20
-317.5011684205965
 10
126.0417698985366
 20
-317.7785684135888
 10
126.1037698969703
 20
-317.7355684146751
 10
126.2932698921832
 20
-317.6007684180804
 10
126.8122698790721
 20
-317.012868432932
 10
127.0075698741384
 20
-316.85856843683
 10
127.0647698726934
 20
-316.8136684379642
 10
127.0574698728778
 20
-316.9660684341143
 10
127.1096698715592
 20
-316.9249684351526
 10
127.7165698562276
 20
-316.4581684469449
 10
128.3650698398451
 20
-315.8097684633249
 10
128.5364698355152
 20
-315.4132684733413
 10
128.9997698238112
 20
-315.8917684612534
 10
137.2932696142998
 20
-312.4288685487336
 10
137.3191767639128
 20
-311.128168581592
 10
137.3191767639128
 20
-311.128168581592
 10
138.0456695952926
 20
-311.3449685761152
 10
137.9890695967224
 20
-310.1320686067556
 10
137.9890695967224
 20
-310.1320686067556
 10
137.9870695967729
 20
-310.1183645177953
 10
137.9870695967729
 20
-310.1105686072988
 10
138.3366695879413
 20
-310.2863645177949
 10
138.5793695818102
 20
-310.5128685971358
 10
139.3718695617899
 20
-310.4660685983181
 10
139.3835695614944
 20
-310.567568595754
 10
139.4143695607163
 20
-310.729668591659
 10
139.4709695592865
 20
-310.8312685890924
 97
        0
 97
        0
 75
     2
 76
     1
 98
        0
  0
ENDSEC
  0
SECTION
  2
OBJECTS
  0
DICTIONARY
  5
C
330
0
100
AcDbDictionary
281
     1
  3
ACAD_GROUP
350
D
  3
ACAD_LAYOUT
350
1A
  3
ACAD_MATERIAL
350
3B
  3
ACAD_MLEADERSTYLE
350
44
  3
ACAD_MLINESTYLE
350
17
  3
ACAD_PLOTSETTINGS
350
19
  3
ACAD_PLOTSTYLENAME
350
E
  3
ACAD_TABLESTYLE
350
43
  3
ACAD_VISUALSTYLE
350
2A
  0
SUN
  5
3F
330
29
100
AcDbSun
 90
        1
290
     0
 63
     7
421
 16777215
 40
1.0
291
     1
 91
  2455826
 92
 54000000
292
     0
 70
     2
 71
   256
280
     1
  0
DICTIONARY
  5
D
102
{ACAD_REACTORS
330
C
102
}
330
C
100
AcDbDictionary
281
     1
  0
DICTIONARY
  5
1A
102
{ACAD_REACTORS
330
C
102
}
330
C
100
AcDbDictionary
281
     1
  3
Layout1
350
1E
  3
Layout2
350
26
  3
Model
350
22
  0
DICTIONARY
  5
3B
102
{ACAD_REACTORS
330
C
102
}
330
C
100
AcDbDictionary
281
     1
  3
ByBlock
350
3D
  3
ByLayer
350
3C
  3
Global
350
3E
  0
DICTIONARY
  5
44
102
{ACAD_REACTORS
330
C
102
}
330
C
100
AcDbDictionary
281
     1
  0
DICTIONARY
  5
17
102
{ACAD_REACTORS
330
C
102
}
330
C
100
AcDbDictionary
281
     1
  3
Standard
350
18
  0
DICTIONARY
  5
19
102
{ACAD_REACTORS
330
C
102
}
330
C
100
AcDbDictionary
281
     1
  0
ACDBDICTIONARYWDFLT
  5
E
102
{ACAD_REACTORS
330
C
102
}
330
C
100
AcDbDictionary
281
     1
  3
Normal
350
F
100
AcDbDictionaryWithDefault
340
F
  0
DICTIONARY
  5
43
102
{ACAD_REACTORS
330
C
102
}
330
C
100
AcDbDictionary
281
     1
  0
DICTIONARY
  5
2A
102
{ACAD_REACTORS
330
C
102
}
330
C
100
AcDbDictionary
281
     1
  3
2dWireframe
350
2F
  3
3D Hidden
350
31
  3
3dWireframe
350
30
  3
Basic
350
32
  3
Brighten
350
36
  3
ColorChange
350
3A
  3
Conceptual
350
34
  3
Dim
350
35
  3
Facepattern
350
39
  3
Flat
350
2B
  3
FlatWithEdges
350
2C
  3
Gouraud
350
2D
  3
GouraudWithEdges
350
2E
  3
Linepattern
350
38
  3
Realistic
350
33
  3
Thicken
350
37
  0
LAYOUT
  5
1E
102
{ACAD_REACTORS
330
1A
102
}
330
1A
100
AcDbPlotSettings
  1

  2
none_device
  4

  6

 40
0.0
 41
0.0
 42
0.0
 43
0.0
 44
0.0
 45
0.0
 46
0.0
 47
0.0
 48
0.0
 49
0.0
140
0.0
141
0.0
142
1.0
143
1.0
 70
   688
 72
     0
 73
     0
 74
     5
  7

 75
    16
 76
     0
 77
     2
 78
   300
147
1.0
148
0.0
149
0.0
100
AcDbLayout
  1
Layout1
 70
     1
 71
     1
 10
0.0
 20
0.0
 11
12.0
 21
9.0
 12
0.0
 22
0.0
 32
0.0
 14
1.000000000000000E+20
 24
1.000000000000000E+20
 34
1.000000000000000E+20
 15
-1.000000000000000E+20
 25
-1.000000000000000E+20
 35
-1.000000000000000E+20
146
0.0
 13
0.0
 23
0.0
 33
0.0
 16
1.0
 26
0.0
 36
0.0
 17
0.0
 27
1.0
 37
0.0
 76
     0
330
1B
  0
LAYOUT
  5
26
102
{ACAD_REACTORS
330
1A
102
}
330
1A
100
AcDbPlotSettings
  1

  2
none_device
  4

  6

 40
0.0
 41
0.0
 42
0.0
 43
0.0
 44
0.0
 45
0.0
 46
0.0
 47
0.0
 48
0.0
 49
0.0
140
0.0
141
0.0
142
1.0
143
1.0
 70
   688
 72
     0
 73
     0
 74
     5
  7

 75
    16
 76
     0
 77
     2
 78
   300
147
1.0
148
0.0
149
0.0
100
AcDbLayout
  1
Layout2
 70
     1
 71
     2
 10
0.0
 20
0.0
 11
0.0
 21
0.0
 12
0.0
 22
0.0
 32
0.0
 14
0.0
 24
0.0
 34
0.0
 15
0.0
 25
0.0
 35
0.0
146
0.0
 13
0.0
 23
0.0
 33
0.0
 16
1.0
 26
0.0
 36
0.0
 17
0.0
 27
1.0
 37
0.0
 76
     0
330
23
  0
LAYOUT
  5
22
102
{ACAD_REACTORS
330
1A
102
}
330
1A
100
AcDbPlotSettings
  1

  2
none_device
  4

  6

 40
0.0
 41
0.0
 42
0.0
 43
0.0
 44
0.0
 45
0.0
 46
0.0
 47
0.0
 48
0.0
 49
0.0
140
0.0
141
0.0
142
1.0
143
1.0
 70
  1712
 72
     0
 73
     0
 74
     0
  7

 75
     0
 76
     0
 77
     2
 78
   300
147
1.0
148
0.0
149
0.0
100
AcDbLayout
  1
Model
 70
     1
 71
     0
 10
0.0
 20
0.0
 11
12.0
 21
9.0
 12
0.0
 22
0.0
 32
0.0
 14
1.000000000000000E+20
 24
1.000000000000000E+20
 34
1.000000000000000E+20
 15
-1.000000000000000E+20
 25
-1.000000000000000E+20
 35
-1.000000000000000E+20
146
0.0
 13
0.0
 23
0.0
 33
0.0
 16
1.0
 26
0.0
 36
0.0
 17
0.0
 27
1.0
 37
0.0
 76
     0
330
1F
331
29
  0
MATERIAL
  5
3D
102
{ACAD_REACTORS
330
3B
102
}
330
3B
100
AcDbMaterial
  1
ByBlock
 72
     1
 94
      127
  0
MATERIAL
  5
3C
102
{ACAD_REACTORS
330
3B
102
}
330
3B
100
AcDbMaterial
  1
ByLayer
 72
     1
 94
      127
  0
MATERIAL
  5
3E
102
{ACAD_REACTORS
330
3B
102
}
330
3B
100
AcDbMaterial
  1
Global
 72
     1
 94
      127
  0
MLINESTYLE
  5
18
102
{ACAD_REACTORS
330
17
102
}
330
17
100
AcDbMlineStyle
  2
Standard
 70
     0
  3

 62
   256
 51
90.0
 52
90.0
 71
     2
 49
0.5
 62
   256
  6
BYLAYER
 49
-0.5
 62
   256
  6
BYLAYER
  0
ACDBPLACEHOLDER
  5
F
102
{ACAD_REACTORS
330
E
102
}
330
E
  0
VISUALSTYLE
  5
2F
102
{ACAD_REACTORS
330
2A
102
}
330
2A
100
AcDbVisualStyle
  2
2dWireframe
 70
     4
177
     2
291
     0
 71
     0
176
     1
 72
     2
176
     1
 73
     0
176
     1
 90
        0
176
     1
 40
-0.6
176
     1
 41
-30.0
176
     1
 62
     5
 63
     7
421
 16777215
176
     1
 74
     1
176
     1
 91
        4
176
     1
 64
     7
176
     1
 65
   257
176
     1
 75
     1
176
     1
175
     1
176
     1
 42
1.0
176
     1
 92
        0
176
     1
 66
   257
176
     1
 43
1.0
176
     1
 76
     1
176
     1
 77
     6
176
     1
 78
     2
176
     1
 67
     7
176
     1
 79
     5
176
     1
170
     0
176
     1
171
     0
176
     1
290
     0
176
     1
 93
        1
176
     1
 44
0.0
176
     1
173
     0
176
     1
  0
VISUALSTYLE
  5
31
102
{ACAD_REACTORS
330
2A
102
}
330
2A
100
AcDbVisualStyle
  2
3D Hidden
 70
     6
177
     2
291
     0
 71
     1
176
     1
 72
     2
176
     1
 73
     2
176
     1
 90
        0
176
     1
 40
-0.6
176
     1
 41
-30.0
176
     1
 62
     5
 63
     7
421
 16777215
176
     1
 74
     2
176
     1
 91
        2
176
     1
 64
     7
176
     1
 65
   257
176
     1
 75
     2
176
     1
175
     1
176
     1
 42
40.0
176
     1
 92
        0
176
     1
 66
   257
176
     1
 43
1.0
176
     1
 76
     1
176
     1
 77
     6
176
     1
 78
     2
176
     1
 67
     7
176
     1
 79
     3
176
     1
170
     0
176
     1
171
     0
176
     1
290
     0
176
     1
 93
        1
176
     1
 44
0.0
176
     1
173
     0
176
     1
  0
VISUALSTYLE
  5
30
102
{ACAD_REACTORS
330
2A
102
}
330
2A
100
AcDbVisualStyle
  2
3dWireframe
 70
     5
177
     2
291
     0
 71
     0
176
     1
 72
     2
176
     1
 73
     0
176
     1
 90
        0
176
     1
 40
-0.6
176
     1
 41
-30.0
176
     1
 62
     5
 63
     7
421
 16777215
176
     1
 74
     1
176
     1
 91
        4
176
     1
 64
     7
176
     1
 65
   257
176
     1
 75
     1
176
     1
175
     1
176
     1
 42
1.0
176
     1
 92
        0
176
     1
 66
   257
176
     1
 43
1.0
176
     1
 76
     1
176
     1
 77
     6
176
     1
 78
     2
176
     1
 67
     7
176
     1
 79
     5
176
     1
170
     0
176
     1
171
     0
176
     1
290
     0
176
     1
 93
        1
176
     1
 44
0.0
176
     1
173
     0
176
     1
  0
VISUALSTYLE
  5
32
102
{ACAD_REACTORS
330
2A
102
}
330
2A
100
AcDbVisualStyle
  2
Basic
 70
     7
177
     2
291
     1
 71
     1
176
     1
 72
     0
176
     1
 73
     1
176
     1
 90
        0
176
     1
 40
-0.6
176
     1
 41
-30.0
176
     1
 62
     5
 63
     7
421
 16777215
176
     1
 74
     0
176
     1
 91
        4
176
     1
 64
     7
176
     1
 65
   257
176
     1
 75
     1
176
     1
175
     1
176
     1
 42
1.0
176
     1
 92
        8
176
     1
 66
     7
176
     1
 43
1.0
176
     1
 76
     1
176
     1
 77
     6
176
     1
 78
     2
176
     1
 67
     7
176
     1
 79
     5
176
     1
170
     0
176
     1
171
     0
176
     1
290
     0
176
     1
 93
        1
176
     1
 44
0.0
176
     1
173
     0
176
     1
  0
VISUALSTYLE
  5
36
102
{ACAD_REACTORS
330
2A
102
}
330
2A
100
AcDbVisualStyle
  2
Brighten
 70
    12
177
     2
291
     1
 71
     2
176
     1
 72
     2
176
     1
 73
     0
176
     1
 90
        0
176
     1
 40
-0.6
176
     1
 41
-30.0
176
     1
 62
     5
 63
     7
421
 16777215
176
     1
 74
     1
176
     1
 91
        4
176
     1
 64
     7
176
     1
 65
   257
176
     1
 75
     1
176
     1
175
     1
176
     1
 42
1.0
176
     1
 92
        8
176
     1
 66
     7
176
     1
 43
1.0
176
     1
 76
     1
176
     1
 77
     6
176
     1
 78
     2
176
     1
 67
     7
176
     1
 79
     5
176
     1
170
     0
176
     1
171
     0
176
     1
290
     0
176
     1
 93
        1
176
     1
 44
50.0
176
     1
173
     0
176
     1
  0
VISUALSTYLE
  5
3A
102
{ACAD_REACTORS
330
2A
102
}
330
2A
100
AcDbVisualStyle
  2
ColorChange
 70
    16
177
     2
291
     1
 71
     2
176
     1
 72
     2
176
     1
 73
     3
176
     1
 90
        0
176
     1
 40
-0.6
176
     1
 41
-30.0
176
     1
 62
     5
 63
     8
421
  8421504
176
     1
 74
     1
176
     1
 91
        4
176
     1
 64
     7
176
     1
 65
   257
176
     1
 75
     1
176
     1
175
     1
176
     1
 42
1.0
176
     1
 92
        8
176
     1
 66
     8
424
  8421504
176
     1
 43
1.0
176
     1
 76
     1
176
     1
 77
     6
176
     1
 78
     2
176
     1
 67
     7
176
     1
 79
     5
176
     1
170
     0
176
     1
171
     0
176
     1
290
     0
176
     1
 93
        1
176
     1
 44
0.0
176
     1
173
     0
176
     1
  0
VISUALSTYLE
  5
34
102
{ACAD_REACTORS
330
2A
102
}
330
2A
100
AcDbVisualStyle
  2
Conceptual
 70
     9
177
     2
291
     0
 71
     3
176
     1
 72
     2
176
     1
 73
     0
176
     1
 90
        0
176
     1
 40
-0.6
176
     1
 41
-30.0
176
     1
 62
     5
 63
     7
421
 16777215
176
     1
 74
     2
176
     1
 91
        2
176
     1
 64
     7
176
     1
 65
   257
176
     1
 75
     1
176
     1
175
     1
176
     1
 42
40.0
176
     1
 92
        8
176
     1
 66
     7
176
     1
 43
1.0
176
     1
 76
     1
176
     1
 77
     6
176
     1
 78
     2
176
     1
 67
     7
176
     1
 79
     3
176
     1
170
     0
176
     1
171
     0
176
     1
290
     0
176
     1
 93
        1
176
     1
 44
0.0
176
     1
173
     0
176
     1
  0
VISUALSTYLE
  5
35
102
{ACAD_REACTORS
330
2A
102
}
330
2A
100
AcDbVisualStyle
  2
Dim
 70
    11
177
     2
291
     1
 71
     2
176
     1
 72
     2
176
     1
 73
     0
176
     1
 90
        0
176
     1
 40
-0.6
176
     1
 41
-30.0
176
     1
 62
     5
 63
     7
421
 16777215
176
     1
 74
     1
176
     1
 91
        4
176
     1
 64
     7
176
     1
 65
   257
176
     1
 75
     1
176
     1
175
     1
176
     1
 42
1.0
176
     1
 92
        8
176
     1
 66
     7
176
     1
 43
1.0
176
     1
 76
     1
176
     1
 77
     6
176
     1
 78
     2
176
     1
 67
     7
176
     1
 79
     5
176
     1
170
     0
176
     1
171
     0
176
     1
290
     0
176
     1
 93
        1
176
     1
 44
-50.0
176
     1
173
     0
176
     1
  0
VISUALSTYLE
  5
39
102
{ACAD_REACTORS
330
2A
102
}
330
2A
100
AcDbVisualStyle
  2
Facepattern
 70
    15
177
     2
291
     1
 71
     2
176
     1
 72
     2
176
     1
 73
     0
176
     1
 90
        0
176
     1
 40
-0.6
176
     1
 41
-30.0
176
     1
 62
     5
 63
     7
421
 16777215
176
     1
 74
     1
176
     1
 91
        4
176
     1
 64
     7
176
     1
 65
   257
176
     1
 75
     1
176
     1
175
     1
176
     1
 42
1.0
176
     1
 92
        8
176
     1
 66
     7
176
     1
 43
1.0
176
     1
 76
     1
176
     1
 77
     6
176
     1
 78
     2
176
     1
 67
     7
176
     1
 79
     5
176
     1
170
     0
176
     1
171
     0
176
     1
290
     0
176
     1
 93
        1
176
     1
 44
0.0
176
     1
173
     0
176
     1
  0
VISUALSTYLE
  5
2B
102
{ACAD_REACTORS
330
2A
102
}
330
2A
100
AcDbVisualStyle
  2
Flat
 70
     0
177
     2
291
     1
 71
     2
176
     1
 72
     1
176
     1
 73
     1
176
     1
 90
        2
176
     1
 40
-0.6
176
     1
 41
30.0
176
     1
 62
     5
 63
     7
421
 16777215
176
     1
 74
     0
176
     1
 91
        4
176
     1
 64
     7
176
     1
 65
   257
176
     1
 75
     1
176
     1
175
     1
176
     1
 42
1.0
176
     1
 92
        8
176
     1
 66
     7
176
     1
 43
1.0
176
     1
 76
     1
176
     1
 77
     6
176
     1
 78
     2
176
     1
 67
     7
176
     1
 79
     5
176
     1
170
     0
176
     1
171
     0
176
     1
290
     0
176
     1
 93
       13
176
     1
 44
0.0
176
     1
173
     0
176
     1
  0
VISUALSTYLE
  5
2C
102
{ACAD_REACTORS
330
2A
102
}
330
2A
100
AcDbVisualStyle
  2
FlatWithEdges
 70
     1
177
     2
291
     1
 71
     2
176
     1
 72
     1
176
     1
 73
     1
176
     1
 90
        2
176
     1
 40
-0.6
176
     1
 41
30.0
176
     1
 62
     5
 63
     7
421
 16777215
176
     1
 74
     1
176
     1
 91
        4
176
     1
 64
     7
176
     1
 65
   257
176
     1
 75
     1
176
     1
175
     1
176
     1
 42
1.0
176
     1
 92
        0
176
     1
 66
   257
176
     1
 43
1.0
176
     1
 76
     1
176
     1
 77
     6
176
     1
 78
     2
176
     1
 67
     7
176
     1
 79
     5
176
     1
170
     0
176
     1
171
     0
176
     1
290
     0
176
     1
 93
       13
176
     1
 44
0.0
176
     1
173
     0
176
     1
  0
VISUALSTYLE
  5
2D
102
{ACAD_REACTORS
330
2A
102
}
330
2A
100
AcDbVisualStyle
  2
Gouraud
 70
     2
177
     2
291
     1
 71
     2
176
     1
 72
     2
176
     1
 73
     1
176
     1
 90
        2
176
     1
 40
-0.6
176
     1
 41
30.0
176
     1
 62
     5
 63
     7
421
 16777215
176
     1
 74
     0
176
     1
 91
        4
176
     1
 64
     7
176
     1
 65
   257
176
     1
 75
     1
176
     1
175
     1
176
     1
 42
1.0
176
     1
 92
        0
176
     1
 66
     7
176
     1
 43
1.0
176
     1
 76
     1
176
     1
 77
     6
176
     1
 78
     2
176
     1
 67
     7
176
     1
 79
     5
176
     1
170
     0
176
     1
171
     0
176
     1
290
     0
176
     1
 93
       13
176
     1
 44
0.0
176
     1
173
     0
176
     1
  0
VISUALSTYLE
  5
2E
102
{ACAD_REACTORS
330
2A
102
}
330
2A
100
AcDbVisualStyle
  2
GouraudWithEdges
 70
     3
177
     2
291
     1
 71
     2
176
     1
 72
     2
176
     1
 73
     1
176
     1
 90
        2
176
     1
 40
-0.6
176
     1
 41
30.0
176
     1
 62
     5
 63
     7
421
 16777215
176
     1
 74
     1
176
     1
 91
        4
176
     1
 64
     7
176
     1
 65
   257
176
     1
 75
     1
176
     1
175
     1
176
     1
 42
1.0
176
     1
 92
        0
176
     1
 66
   257
176
     1
 43
1.0
176
     1
 76
     1
176
     1
 77
     6
176
     1
 78
     2
176
     1
 67
     7
176
     1
 79
     5
176
     1
170
     0
176
     1
171
     0
176
     1
290
     0
176
     1
 93
       13
176
     1
 44
0.0
176
     1
173
     0
176
     1
  0
VISUALSTYLE
  5
38
102
{ACAD_REACTORS
330
2A
102
}
330
2A
100
AcDbVisualStyle
  2
Linepattern
 70
    14
177
     2
291
     1
 71
     2
176
     1
 72
     2
176
     1
 73
     0
176
     1
 90
        0
176
     1
 40
-0.6
176
     1
 41
-30.0
176
     1
 62
     5
 63
     7
421
 16777215
176
     1
 74
     1
176
     1
 91
        4
176
     1
 64
     7
176
     1
 65
   257
176
     1
 75
     7
176
     1
175
     7
176
     1
 42
1.0
176
     1
 92
        8
176
     1
 66
     7
176
     1
 43
1.0
176
     1
 76
     1
176
     1
 77
     6
176
     1
 78
     2
176
     1
 67
     7
176
     1
 79
     5
176
     1
170
     0
176
     1
171
     0
176
     1
290
     0
176
     1
 93
        1
176
     1
 44
0.0
176
     1
173
     0
176
     1
  0
VISUALSTYLE
  5
33
102
{ACAD_REACTORS
330
2A
102
}
330
2A
100
AcDbVisualStyle
  2
Realistic
 70
     8
177
     2
291
     0
 71
     2
176
     1
 72
     2
176
     1
 73
     0
176
     1
 90
        0
176
     1
 40
-0.6
176
     1
 41
-30.0
176
     1
 62
     5
 63
     7
421
 16777215
176
     1
 74
     1
176
     1
 91
        0
176
     1
 64
     7
176
     1
 65
   257
176
     1
 75
     1
176
     1
175
     1
176
     1
 42
1.0
176
     1
 92
        8
176
     1
 66
     8
424
  7895160
176
     1
 43
1.0
176
     1
 76
     1
176
     1
 77
     6
176
     1
 78
     2
176
     1
 67
     7
176
     1
 79
     5
176
     1
170
     0
176
     1
171
     0
176
     1
290
     0
176
     1
 93
       13
176
     1
 44
0.0
176
     1
173
     0
176
     1
  0
VISUALSTYLE
  5
37
102
{ACAD_REACTORS
330
2A
102
}
330
2A
100
AcDbVisualStyle
  2
Thicken
 70
    13
177
     2
291
     1
 71
     2
176
     1
 72
     2
176
     1
 73
     0
176
     1
 90
        0
176
     1
 40
-0.6
176
     1
 41
-30.0
176
     1
 62
     5
 63
     7
421
 16777215
176
     1
 74
     1
176
     1
 91
        4
176
     1
 64
     7
176
     1
 65
   257
176
     1
 75
     1
176
     1
175
     1
176
     1
 42
1.0
176
     1
 92
       12
176
     1
 66
     7
176
     1
 43
1.0
176
     1
 76
     1
176
     1
 77
     6
176
     1
 78
     2
176
     1
 67
     7
176
     1
 79
     5
176
     1
170
     0
176
     1
171
     0
176
     1
290
     0
176
     1
 93
        1
176
     1
 44
0.0
176
     1
173
     0
176
     1
  0
ENDSEC
  0
EOF
