  0
SECTION
  2
HEADER
  9
$ACADVER
  1
AC1024
  9
$ACADMAINTVER
 70
     6
  9
$DWGCODEPAGE
  3
ANSI_1252
  9
$INSBASE
 10
0.0
 20
0.0
 30
0.0
  9
$EXTMIN
 10
1.000000000000000E+20
 20
1.000000000000000E+20
 30
1.000000000000000E+20
  9
$EXTMAX
 10
-1.000000000000000E+20
 20
-1.000000000000000E+20
 30
-1.000000000000000E+20
  9
$LIMMIN
 10
0.0
 20
0.0
  9
$LIMMAX
 10
12.0
 20
9.0
  9
$ORTHOMODE
 70
     0
  9
$REGENMODE
 70
     1
  9
$FILLMODE
 70
     1
  9
$QTEXTMODE
 70
     0
  9
$MIRRTEXT
 70
     1
  9
$LTSCALE
 40
1.0
  9
$ATTMODE
 70
     1
  9
$TEXTSIZE
 40
0.2
  9
$TRACEWID
 40
0.05
  9
$TEXTSTYLE
  7
Standard
  9
$CLAYER
  8
0
  9
$CELTYPE
  6
ByLayer
  9
$CECOLOR
 62
   256
  9
$CELTSCALE
 40
1.0
  9
$DISPSILH
 70
     0
  9
$DIMSCALE
 40
1.0
  9
$DIMASZ
 40
0.18
  9
$DIMEXO
 40
0.0625
  9
$DIMDLI
 40
0.38
  9
$DIMRND
 40
0.0
  9
$DIMDLE
 40
0.0
  9
$DIMEXE
 40
0.18
  9
$DIMTP
 40
0.0
  9
$DIMTM
 40
0.0
  9
$DIMTXT
 40
0.18
  9
$DIMCEN
 40
0.09
  9
$DIMTSZ
 40
0.0
  9
$DIMTOL
 70
     0
  9
$DIMLIM
 70
     0
  9
$DIMTIH
 70
     1
  9
$DIMTOH
 70
     1
  9
$DIMSE1
 70
     0
  9
$DIMSE2
 70
     0
  9
$DIMTAD
 70
     0
  9
$DIMZIN
 70
     0
  9
$DIMBLK
  1

  9
$DIMASO
 70
     1
  9
$DIMSHO
 70
     1
  9
$DIMPOST
  1

  9
$DIMAPOST
  1

  9
$DIMALT
 70
     0
  9
$DIMALTD
 70
     2
  9
$DIMALTF
 40
25.4
  9
$DIMLFAC
 40
1.0
  9
$DIMTOFL
 70
     0
  9
$DIMTVP
 40
0.0
  9
$DIMTIX
 70
     0
  9
$DIMSOXD
 70
     0
  9
$DIMSAH
 70
     0
  9
$DIMBLK1
  1

  9
$DIMBLK2
  1

  9
$DIMSTYLE
  2
Standard
  9
$DIMCLRD
 70
     0
  9
$DIMCLRE
 70
     0
  9
$DIMCLRT
 70
     0
  9
$DIMTFAC
 40
1.0
  9
$DIMGAP
 40
0.09
  9
$DIMJUST
 70
     0
  9
$DIMSD1
 70
     0
  9
$DIMSD2
 70
     0
  9
$DIMTOLJ
 70
     1
  9
$DIMTZIN
 70
     0
  9
$DIMALTZ
 70
     0
  9
$DIMALTTZ
 70
     0
  9
$DIMUPT
 70
     0
  9
$DIMDEC
 70
     4
  9
$DIMTDEC
 70
     4
  9
$DIMALTU
 70
     2
  9
$DIMALTTD
 70
     2
  9
$DIMTXSTY
  7
Standard
  9
$DIMAUNIT
 70
     0
  9
$DIMADEC
 70
     0
  9
$DIMALTRND
 40
0.0
  9
$DIMAZIN
 70
     0
  9
$DIMDSEP
 70
    46
  9
$DIMATFIT
 70
     3
  9
$DIMFRAC
 70
     0
  9
$DIMLDRBLK
  1

  9
$DIMLUNIT
 70
     2
  9
$DIMLWD
 70
    -2
  9
$DIMLWE
 70
    -2
  9
$DIMTMOVE
 70
     0
  9
$DIMFXL
 40
1.0
  9
$DIMFXLON
 70
     0
  9
$DIMJOGANG
 40
0.7853981633974483
  9
$DIMTFILL
 70
     0
  9
$DIMTFILLCLR
 70
     0
  9
$DIMARCSYM
 70
     0
  9
$DIMLTYPE
  6

  9
$DIMLTEX1
  6

  9
$DIMLTEX2
  6

  9
$DIMTXTDIRECTION
 70
     0
  9
$LUNITS
 70
     2
  9
$LUPREC
 70
     4
  9
$SKETCHINC
 40
0.1
  9
$FILLETRAD
 40
0.5
  9
$AUNITS
 70
     0
  9
$AUPREC
 70
     0
  9
$MENU
  1
.
  9
$ELEVATION
 40
0.0
  9
$PELEVATION
 40
0.0
  9
$THICKNESS
 40
0.0
  9
$LIMCHECK
 70
     0
  9
$CHAMFERA
 40
0.5
  9
$CHAMFERB
 40
0.5
  9
$CHAMFERC
 40
1.0
  9
$CHAMFERD
 40
0.0
  9
$SKPOLY
 70
     0
  9
$TDCREATE
 40
2457930.671989919
  9
$TDUCREATE
 40
2457930.963656586
  9
$TDUPDATE
 40
2457930.671990011
  9
$TDUUPDATE
 40
2457930.963656678
  9
$TDINDWG
 40
0.0000000116
  9
$TDUSRTIMER
 40
0.0000000116
  9
$USRTIMER
 70
     1
  9
$ANGBASE
 50
0.0
  9
$ANGDIR
 70
     0
  9
$PDMODE
 70
     0
  9
$PDSIZE
 40
0.0
  9
$PLINEWID
 40
0.0
  9
$SPLFRAME
 70
     0
  9
$SPLINETYPE
 70
     6
  9
$SPLINESEGS
 70
     8
  9
$HANDSEED
  5
45
  9
$SURFTAB1
 70
     6
  9
$SURFTAB2
 70
     6
  9
$SURFTYPE
 70
     6
  9
$SURFU
 70
     6
  9
$SURFV
 70
     6
  9
$UCSBASE
  2

  9
$UCSNAME
  2

  9
$UCSORG
 10
0.0
 20
0.0
 30
0.0
  9
$UCSXDIR
 10
1.0
 20
0.0
 30
0.0
  9
$UCSYDIR
 10
0.0
 20
1.0
 30
0.0
  9
$UCSORTHOREF
  2

  9
$UCSORTHOVIEW
 70
     0
  9
$UCSORGTOP
 10
0.0
 20
0.0
 30
0.0
  9
$UCSORGBOTTOM
 10
0.0
 20
0.0
 30
0.0
  9
$UCSORGLEFT
 10
0.0
 20
0.0
 30
0.0
  9
$UCSORGRIGHT
 10
0.0
 20
0.0
 30
0.0
  9
$UCSORGFRONT
 10
0.0
 20
0.0
 30
0.0
  9
$UCSORGBACK
 10
0.0
 20
0.0
 30
0.0
  9
$PUCSBASE
  2

  9
$PUCSNAME
  2

  9
$PUCSORG
 10
0.0
 20
0.0
 30
0.0
  9
$PUCSXDIR
 10
1.0
 20
0.0
 30
0.0
  9
$PUCSYDIR
 10
0.0
 20
1.0
 30
0.0
  9
$PUCSORTHOREF
  2

  9
$PUCSORTHOVIEW
 70
     0
  9
$PUCSORGTOP
 10
0.0
 20
0.0
 30
0.0
  9
$PUCSORGBOTTOM
 10
0.0
 20
0.0
 30
0.0
  9
$PUCSORGLEFT
 10
0.0
 20
0.0
 30
0.0
  9
$PUCSORGRIGHT
 10
0.0
 20
0.0
 30
0.0
  9
$PUCSORGFRONT
 10
0.0
 20
0.0
 30
0.0
  9
$PUCSORGBACK
 10
0.0
 20
0.0
 30
0.0
  9
$USERI1
 70
     0
  9
$USERI2
 70
     0
  9
$USERI3
 70
     0
  9
$USERI4
 70
     0
  9
$USERI5
 70
     0
  9
$USERR1
 40
0.0
  9
$USERR2
 40
0.0
  9
$USERR3
 40
0.0
  9
$USERR4
 40
0.0
  9
$USERR5
 40
0.0
  9
$WORLDVIEW
 70
     1
  9
$SHADEDGE
 70
     3
  9
$SHADEDIF
 70
    70
  9
$TILEMODE
 70
     1
  9
$MAXACTVP
 70
    64
  9
$PINSBASE
 10
0.0
 20
0.0
 30
0.0
  9
$PLIMCHECK
 70
     0
  9
$PEXTMIN
 10
1.000000000000000E+20
 20
1.000000000000000E+20
 30
1.000000000000000E+20
  9
$PEXTMAX
 10
-1.000000000000000E+20
 20
-1.000000000000000E+20
 30
-1.000000000000000E+20
  9
$PLIMMIN
 10
0.0
 20
0.0
  9
$PLIMMAX
 10
12.0
 20
9.0
  9
$UNITMODE
 70
     0
  9
$VISRETAIN
 70
     1
  9
$PLINEGEN
 70
     0
  9
$PSLTSCALE
 70
     1
  9
$TREEDEPTH
 70
  3020
  9
$CMLSTYLE
  2
Standard
  9
$CMLJUST
 70
     0
  9
$CMLSCALE
 40
1.0
  9
$PROXYGRAPHICS
 70
     1
  9
$MEASUREMENT
 70
     0
  9
$CELWEIGHT
370
    -1
  9
$ENDCAPS
280
     0
  9
$JOINSTYLE
280
     0
  9
$LWDISPLAY
290
     1
  9
$INSUNITS
 70
     1
  9
$HYPERLINKBASE
  1

  9
$STYLESHEET
  1

  9
$XEDIT
290
     1
  9
$CEPSNTYPE
380
     0
  9
$PSTYLEMODE
290
     1
  9
$FINGERPRINTGUID
  2
{3CCC0DFA-FDE8-4426-A148-8A457C830BAB}
  9
$VERSIONGUID
  2
{FAEB1C32-E019-11D5-929B-00C0DF256EC4}
  9
$EXTNAMES
290
     1
  9
$PSVPSCALE
 40
0.0
  9
$OLESTARTUP
290
     0
  9
$SORTENTS
280
   127
  9
$INDEXCTL
280
     0
  9
$HIDETEXT
280
     1
  9
$XCLIPFRAME
280
     2
  9
$HALOGAP
280
     0
  9
$OBSCOLOR
 70
   257
  9
$OBSLTYPE
280
     0
  9
$INTERSECTIONDISPLAY
280
     0
  9
$INTERSECTIONCOLOR
 70
   257
  9
$DIMASSOC
280
     2
  9
$PROJECTNAME
  1

  9
$CAMERADISPLAY
290
     0
  9
$LENSLENGTH
 40
50.0
  9
$CAMERAHEIGHT
 40
0.0
  9
$STEPSPERSEC
 40
2.0
  9
$STEPSIZE
 40
6.0
  9
$3DDWFPREC
 40
2.0
  9
$PSOLWIDTH
 40
0.25
  9
$PSOLHEIGHT
 40
4.0
  9
$LOFTANG1
 40
1.570796326794897
  9
$LOFTANG2
 40
1.570796326794897
  9
$LOFTMAG1
 40
0.0
  9
$LOFTMAG2
 40
0.0
  9
$LOFTPARAM
 70
     7
  9
$LOFTNORMALS
280
     1
  9
$LATITUDE
 40
37.795
  9
$LONGITUDE
 40
-122.394
  9
$NORTHDIRECTION
 40
0.0
  9
$TIMEZONE
 70
 -8000
  9
$LIGHTGLYPHDISPLAY
280
     1
  9
$TILEMODELIGHTSYNCH
280
     1
  9
$CMATERIAL
347
3C
  9
$SOLIDHIST
280
     1
  9
$SHOWHIST
280
     1
  9
$DWFFRAME
280
     2
  9
$DGNFRAME
280
     2
  9
$REALWORLDSCALE
290
     1
  9
$INTERFERECOLOR
 62
   256
  9
$CSHADOW
280
     0
  9
$SHADOWPLANELOCATION
 40
0.0
  0
ENDSEC
  0
SECTION
  2
CLASSES
  0
CLASS
  1
ACDBDICTIONARYWDFLT
  2
AcDbDictionaryWithDefault
  3
ObjectDBX Classes
 90
        0
 91
        4
280
     0
281
     0
  0
CLASS
  1
VISUALSTYLE
  2
AcDbVisualStyle
  3
ObjectDBX Classes
 90
     4095
 91
        4
280
     0
281
     0
  0
CLASS
  1
MATERIAL
  2
AcDbMaterial
  3
ObjectDBX Classes
 90
     1153
 91
        4
280
     0
281
     0
  0
CLASS
  1
SUN
  2
AcDbSun
  3
SCENEOE
 90
     1024
 91
        4
280
     0
281
     0
  0
ENDSEC
  0
SECTION
  2
TABLES
  0
TABLE
  2
VPORT
  5
8
330
0
100
AcDbSymbolTable
 70
     1
  0
VPORT
  5
29
330
8
100
AcDbSymbolTableRecord
100
AcDbViewportTableRecord
  2
*Active
 70
     0
 10
0.0
 20
0.0
 11
1.0
 21
1.0
 12
0.0
 22
0.0
 13
0.0
 23
0.0
 14
0.5
 24
0.5
 15
0.5
 25
0.5
 16
0.0
 26
0.0
 36
1.0
 17
144.0
 27
-280.0
 37
0.0
 40
560.0
 41
0.5142857142857142
 42
50.0
 43
0.0
 44
0.0
 50
0.0
 51
0.0
 71
     0
 72
   100
 73
     1
 74
     3
 75
     0
 76
     0
 77
     0
 78
     0
281
     0
 65
     1
110
0.0
120
0.0
130
0.0
111
1.0
121
0.0
131
0.0
112
0.0
122
1.0
132
0.0
 79
     0
146
0.0
 60
     3
 61
     5
292
     1
282
     1
141
0.0
142
0.0
 63
   250
361
3F
  0
ENDTAB
  0
TABLE
  2
LTYPE
  5
5
330
0
100
AcDbSymbolTable
 70
     1
  0
LTYPE
  5
14
330
5
100
AcDbSymbolTableRecord
100
AcDbLinetypeTableRecord
  2
ByBlock
 70
     0
  3

 72
    65
 73
     0
 40
0.0
  0
LTYPE
  5
15
330
5
100
AcDbSymbolTableRecord
100
AcDbLinetypeTableRecord
  2
ByLayer
 70
     0
  3

 72
    65
 73
     0
 40
0.0
  0
LTYPE
  5
16
330
5
100
AcDbSymbolTableRecord
100
AcDbLinetypeTableRecord
  2
Continuous
 70
     0
  3
Solid line
 72
    65
 73
     0
 40
0.0
  0
ENDTAB
  0
TABLE
  2
LAYER
  5
2
330
0
100
AcDbSymbolTable
 70
     2
  0
LAYER
  5
10
330
2
100
AcDbSymbolTableRecord
100
AcDbLayerTableRecord
  2
0
 70
     0
 62
     7
  6
Continuous
370
    -3
390
F
347
3E
  0
LAYER
  5
40
330
2
100
AcDbSymbolTableRecord
100
AcDbLayerTableRecord
  2
Layer 1
 70
     0
 62
     7
  6
Continuous
370
    -3
390
F
347
3E
  0
ENDTAB
  0
TABLE
  2
STYLE
  5
3
330
0
100
AcDbSymbolTable
 70
     1
  0
STYLE
  5
11
330
3
100
AcDbSymbolTableRecord
100
AcDbTextStyleTableRecord
  2
Standard
 70
     0
 40
0.0
 41
1.0
 50
0.0
 71
     0
 42
0.2
  3
txt
  4

  0
ENDTAB
  0
TABLE
  2
VIEW
  5
6
330
0
100
AcDbSymbolTable
 70
     0
  0
ENDTAB
  0
TABLE
  2
UCS
  5
7
330
0
100
AcDbSymbolTable
 70
     0
  0
ENDTAB
  0
TABLE
  2
APPID
  5
9
330
0
100
AcDbSymbolTable
 70
     1
  0
APPID
  5
12
330
9
100
AcDbSymbolTableRecord
100
AcDbRegAppTableRecord
  2
ACAD
 70
     0
  0
ENDTAB
  0
TABLE
  2
DIMSTYLE
  5
A
330
0
100
AcDbSymbolTable
 70
     1
100
AcDbDimStyleTable
  0
DIMSTYLE
105
27
330
A
100
AcDbSymbolTableRecord
100
AcDbDimStyleTableRecord
  2
Standard
 70
     0
178
     0
340
11
  0
ENDTAB
  0
TABLE
  2
BLOCK_RECORD
  5
1
330
0
100
AcDbSymbolTable
 70
     1
  0
BLOCK_RECORD
  5
1F
330
1
100
AcDbSymbolTableRecord
100
AcDbBlockTableRecord
  2
*Model_Space
340
22
 70
     0
280
     1
281
     0
  0
BLOCK_RECORD
  5
1B
330
1
100
AcDbSymbolTableRecord
100
AcDbBlockTableRecord
  2
*Paper_Space
340
1E
 70
     0
280
     1
281
     0
  0
BLOCK_RECORD
  5
23
330
1
100
AcDbSymbolTableRecord
100
AcDbBlockTableRecord
  2
*Paper_Space0
340
26
 70
     0
280
     1
281
     0
  0
ENDTAB
  0
ENDSEC
  0
SECTION
  2
BLOCKS
  0
BLOCK
  5
20
330
1F
100
AcDbEntity
  8
0
100
AcDbBlockBegin
  2
*Model_Space
 70
     0
 10
0.0
 20
0.0
 30
0.0
  3
*Model_Space
  1

  0
ENDBLK
  5
21
330
1F
100
AcDbEntity
  8
0
100
AcDbBlockEnd
  0
BLOCK
  5
1C
330
1B
100
AcDbEntity
 67
     1
  8
0
100
AcDbBlockBegin
  2
*Paper_Space
 70
     0
 10
0.0
 20
0.0
 30
0.0
  3
*Paper_Space
  1

  0
ENDBLK
  5
1D
330
1B
100
AcDbEntity
 67
     1
  8
0
100
AcDbBlockEnd
  0
BLOCK
  5
24
330
23
100
AcDbEntity
  8
0
100
AcDbBlockBegin
  2
*Paper_Space0
 70
     0
 10
0.0
 20
0.0
 30
0.0
  3
*Paper_Space0
  1

  0
ENDBLK
  5
25
330
23
100
AcDbEntity
  8
0
100
AcDbBlockEnd
  0
ENDSEC
  0
SECTION
  2
ENTITIES
  0
SPLINE
  5
41
330
1F
100
AcDbEntity
  8
Layer 1
370
     0
100
AcDbSpline
210
0.0
220
0.0
230
1.0
 70
    11
 71
     3
 72
   965
 73
   961
 74
     0
 42
0.0000000001
 43
0.0000000001
 12
1.0
 22
0.0
 32
0.0
 13
1.0
 23
0.0
 33
0.0
 40
0.0
 40
0.0
 40
0.0
 40
0.0
 40
1.0
 40
1.0
 40
1.0
 40
2.0
 40
2.0
 40
2.0
 40
3.0
 40
3.0
 40
3.0
 40
4.0
 40
4.0
 40
4.0
 40
5.0
 40
5.0
 40
5.0
 40
6.0
 40
6.0
 40
6.0
 40
7.0
 40
7.0
 40
7.0
 40
8.0
 40
8.0
 40
8.0
 40
9.0
 40
9.0
 40
9.0
 40
10.0
 40
10.0
 40
10.0
 40
11.0
 40
11.0
 40
11.0
 40
12.0
 40
12.0
 40
12.0
 40
13.0
 40
13.0
 40
13.0
 40
14.0
 40
14.0
 40
14.0
 40
15.0
 40
15.0
 40
15.0
 40
16.0
 40
16.0
 40
16.0
 40
17.0
 40
17.0
 40
17.0
 40
18.0
 40
18.0
 40
18.0
 40
19.0
 40
19.0
 40
19.0
 40
20.0
 40
20.0
 40
20.0
 40
21.0
 40
21.0
 40
21.0
 40
22.0
 40
22.0
 40
22.0
 40
23.0
 40
23.0
 40
23.0
 40
24.0
 40
24.0
 40
24.0
 40
25.0
 40
25.0
 40
25.0
 40
26.0
 40
26.0
 40
26.0
 40
27.0
 40
27.0
 40
27.0
 40
28.0
 40
28.0
 40
28.0
 40
29.0
 40
29.0
 40
29.0
 40
30.0
 40
30.0
 40
30.0
 40
31.0
 40
31.0
 40
31.0
 40
32.0
 40
32.0
 40
32.0
 40
33.0
 40
33.0
 40
33.0
 40
34.0
 40
34.0
 40
34.0
 40
35.0
 40
35.0
 40
35.0
 40
36.0
 40
36.0
 40
36.0
 40
37.0
 40
37.0
 40
37.0
 40
38.0
 40
38.0
 40
38.0
 40
39.0
 40
39.0
 40
39.0
 40
40.0
 40
40.0
 40
40.0
 40
41.0
 40
41.0
 40
41.0
 40
42.0
 40
42.0
 40
42.0
 40
43.0
 40
43.0
 40
43.0
 40
44.0
 40
44.0
 40
44.0
 40
45.0
 40
45.0
 40
45.0
 40
46.0
 40
46.0
 40
46.0
 40
47.0
 40
47.0
 40
47.0
 40
48.0
 40
48.0
 40
48.0
 40
49.0
 40
49.0
 40
49.0
 40
50.0
 40
50.0
 40
50.0
 40
51.0
 40
51.0
 40
51.0
 40
52.0
 40
52.0
 40
52.0
 40
53.0
 40
53.0
 40
53.0
 40
54.0
 40
54.0
 40
54.0
 40
55.0
 40
55.0
 40
55.0
 40
56.0
 40
56.0
 40
56.0
 40
57.0
 40
57.0
 40
57.0
 40
58.0
 40
58.0
 40
58.0
 40
59.0
 40
59.0
 40
59.0
 40
60.0
 40
60.0
 40
60.0
 40
61.0
 40
61.0
 40
61.0
 40
62.0
 40
62.0
 40
62.0
 40
63.0
 40
63.0
 40
63.0
 40
64.0
 40
64.0
 40
64.0
 40
65.0
 40
65.0
 40
65.0
 40
66.0
 40
66.0
 40
66.0
 40
67.0
 40
67.0
 40
67.0
 40
68.0
 40
68.0
 40
68.0
 40
69.0
 40
69.0
 40
69.0
 40
70.0
 40
70.0
 40
70.0
 40
71.0
 40
71.0
 40
71.0
 40
72.0
 40
72.0
 40
72.0
 40
73.0
 40
73.0
 40
73.0
 40
74.0
 40
74.0
 40
74.0
 40
75.0
 40
75.0
 40
75.0
 40
76.0
 40
76.0
 40
76.0
 40
77.0
 40
77.0
 40
77.0
 40
78.0
 40
78.0
 40
78.0
 40
79.0
 40
79.0
 40
79.0
 40
80.0
 40
80.0
 40
80.0
 40
81.0
 40
81.0
 40
81.0
 40
82.0
 40
82.0
 40
82.0
 40
83.0
 40
83.0
 40
83.0
 40
84.0
 40
84.0
 40
84.0
 40
85.0
 40
85.0
 40
85.0
 40
86.0
 40
86.0
 40
86.0
 40
87.0
 40
87.0
 40
87.0
 40
88.0
 40
88.0
 40
88.0
 40
89.0
 40
89.0
 40
89.0
 40
90.0
 40
90.0
 40
90.0
 40
91.0
 40
91.0
 40
91.0
 40
92.0
 40
92.0
 40
92.0
 40
93.0
 40
93.0
 40
93.0
 40
94.0
 40
94.0
 40
94.0
 40
95.0
 40
95.0
 40
95.0
 40
96.0
 40
96.0
 40
96.0
 40
97.0
 40
97.0
 40
97.0
 40
98.0
 40
98.0
 40
98.0
 40
99.0
 40
99.0
 40
99.0
 40
100.0
 40
100.0
 40
100.0
 40
101.0
 40
101.0
 40
101.0
 40
102.0
 40
102.0
 40
102.0
 40
103.0
 40
103.0
 40
103.0
 40
104.0
 40
104.0
 40
104.0
 40
105.0
 40
105.0
 40
105.0
 40
106.0
 40
106.0
 40
106.0
 40
107.0
 40
107.0
 40
107.0
 40
108.0
 40
108.0
 40
108.0
 40
109.0
 40
109.0
 40
109.0
 40
110.0
 40
110.0
 40
110.0
 40
111.0
 40
111.0
 40
111.0
 40
112.0
 40
112.0
 40
112.0
 40
113.0
 40
113.0
 40
113.0
 40
114.0
 40
114.0
 40
114.0
 40
115.0
 40
115.0
 40
115.0
 40
116.0
 40
116.0
 40
116.0
 40
117.0
 40
117.0
 40
117.0
 40
118.0
 40
118.0
 40
118.0
 40
119.0
 40
119.0
 40
119.0
 40
120.0
 40
120.0
 40
120.0
 40
121.0
 40
121.0
 40
121.0
 40
122.0
 40
122.0
 40
122.0
 40
123.0
 40
123.0
 40
123.0
 40
124.0
 40
124.0
 40
124.0
 40
125.0
 40
125.0
 40
125.0
 40
126.0
 40
126.0
 40
126.0
 40
127.0
 40
127.0
 40
127.0
 40
128.0
 40
128.0
 40
128.0
 40
129.0
 40
129.0
 40
129.0
 40
130.0
 40
130.0
 40
130.0
 40
131.0
 40
131.0
 40
131.0
 40
132.0
 40
132.0
 40
132.0
 40
133.0
 40
133.0
 40
133.0
 40
134.0
 40
134.0
 40
134.0
 40
135.0
 40
135.0
 40
135.0
 40
136.0
 40
136.0
 40
136.0
 40
137.0
 40
137.0
 40
137.0
 40
138.0
 40
138.0
 40
138.0
 40
139.0
 40
139.0
 40
139.0
 40
140.0
 40
140.0
 40
140.0
 40
141.0
 40
141.0
 40
141.0
 40
142.0
 40
142.0
 40
142.0
 40
143.0
 40
143.0
 40
143.0
 40
144.0
 40
144.0
 40
144.0
 40
145.0
 40
145.0
 40
145.0
 40
146.0
 40
146.0
 40
146.0
 40
147.0
 40
147.0
 40
147.0
 40
148.0
 40
148.0
 40
148.0
 40
149.0
 40
149.0
 40
149.0
 40
150.0
 40
150.0
 40
150.0
 40
151.0
 40
151.0
 40
151.0
 40
152.0
 40
152.0
 40
152.0
 40
153.0
 40
153.0
 40
153.0
 40
154.0
 40
154.0
 40
154.0
 40
155.0
 40
155.0
 40
155.0
 40
156.0
 40
156.0
 40
156.0
 40
157.0
 40
157.0
 40
157.0
 40
158.0
 40
158.0
 40
158.0
 40
159.0
 40
159.0
 40
159.0
 40
160.0
 40
160.0
 40
160.0
 40
161.0
 40
161.0
 40
161.0
 40
162.0
 40
162.0
 40
162.0
 40
163.0
 40
163.0
 40
163.0
 40
164.0
 40
164.0
 40
164.0
 40
165.0
 40
165.0
 40
165.0
 40
166.0
 40
166.0
 40
166.0
 40
167.0
 40
167.0
 40
167.0
 40
168.0
 40
168.0
 40
168.0
 40
169.0
 40
169.0
 40
169.0
 40
170.0
 40
170.0
 40
170.0
 40
171.0
 40
171.0
 40
171.0
 40
172.0
 40
172.0
 40
172.0
 40
173.0
 40
173.0
 40
173.0
 40
174.0
 40
174.0
 40
174.0
 40
175.0
 40
175.0
 40
175.0
 40
176.0
 40
176.0
 40
176.0
 40
177.0
 40
177.0
 40
177.0
 40
178.0
 40
178.0
 40
178.0
 40
179.0
 40
179.0
 40
179.0
 40
180.0
 40
180.0
 40
180.0
 40
181.0
 40
181.0
 40
181.0
 40
182.0
 40
182.0
 40
182.0
 40
183.0
 40
183.0
 40
183.0
 40
184.0
 40
184.0
 40
184.0
 40
185.0
 40
185.0
 40
185.0
 40
186.0
 40
186.0
 40
186.0
 40
187.0
 40
187.0
 40
187.0
 40
188.0
 40
188.0
 40
188.0
 40
189.0
 40
189.0
 40
189.0
 40
190.0
 40
190.0
 40
190.0
 40
191.0
 40
191.0
 40
191.0
 40
192.0
 40
192.0
 40
192.0
 40
193.0
 40
193.0
 40
193.0
 40
194.0
 40
194.0
 40
194.0
 40
195.0
 40
195.0
 40
195.0
 40
196.0
 40
196.0
 40
196.0
 40
197.0
 40
197.0
 40
197.0
 40
198.0
 40
198.0
 40
198.0
 40
199.0
 40
199.0
 40
199.0
 40
200.0
 40
200.0
 40
200.0
 40
201.0
 40
201.0
 40
201.0
 40
202.0
 40
202.0
 40
202.0
 40
203.0
 40
203.0
 40
203.0
 40
204.0
 40
204.0
 40
204.0
 40
205.0
 40
205.0
 40
205.0
 40
206.0
 40
206.0
 40
206.0
 40
207.0
 40
207.0
 40
207.0
 40
208.0
 40
208.0
 40
208.0
 40
209.0
 40
209.0
 40
209.0
 40
210.0
 40
210.0
 40
210.0
 40
211.0
 40
211.0
 40
211.0
 40
212.0
 40
212.0
 40
212.0
 40
213.0
 40
213.0
 40
213.0
 40
214.0
 40
214.0
 40
214.0
 40
215.0
 40
215.0
 40
215.0
 40
216.0
 40
216.0
 40
216.0
 40
217.0
 40
217.0
 40
217.0
 40
218.0
 40
218.0
 40
218.0
 40
219.0
 40
219.0
 40
219.0
 40
220.0
 40
220.0
 40
220.0
 40
221.0
 40
221.0
 40
221.0
 40
222.0
 40
222.0
 40
222.0
 40
223.0
 40
223.0
 40
223.0
 40
224.0
 40
224.0
 40
224.0
 40
225.0
 40
225.0
 40
225.0
 40
226.0
 40
226.0
 40
226.0
 40
227.0
 40
227.0
 40
227.0
 40
228.0
 40
228.0
 40
228.0
 40
229.0
 40
229.0
 40
229.0
 40
230.0
 40
230.0
 40
230.0
 40
231.0
 40
231.0
 40
231.0
 40
232.0
 40
232.0
 40
232.0
 40
233.0
 40
233.0
 40
233.0
 40
234.0
 40
234.0
 40
234.0
 40
235.0
 40
235.0
 40
235.0
 40
236.0
 40
236.0
 40
236.0
 40
237.0
 40
237.0
 40
237.0
 40
238.0
 40
238.0
 40
238.0
 40
239.0
 40
239.0
 40
239.0
 40
240.0
 40
240.0
 40
240.0
 40
241.0
 40
241.0
 40
241.0
 40
242.0
 40
242.0
 40
242.0
 40
243.0
 40
243.0
 40
243.0
 40
244.0
 40
244.0
 40
244.0
 40
245.0
 40
245.0
 40
245.0
 40
246.0
 40
246.0
 40
246.0
 40
247.0
 40
247.0
 40
247.0
 40
248.0
 40
248.0
 40
248.0
 40
249.0
 40
249.0
 40
249.0
 40
250.0
 40
250.0
 40
250.0
 40
251.0
 40
251.0
 40
251.0
 40
252.0
 40
252.0
 40
252.0
 40
253.0
 40
253.0
 40
253.0
 40
254.0
 40
254.0
 40
254.0
 40
255.0
 40
255.0
 40
255.0
 40
256.0
 40
256.0
 40
256.0
 40
257.0
 40
257.0
 40
257.0
 40
258.0
 40
258.0
 40
258.0
 40
259.0
 40
259.0
 40
259.0
 40
260.0
 40
260.0
 40
260.0
 40
261.0
 40
261.0
 40
261.0
 40
262.0
 40
262.0
 40
262.0
 40
263.0
 40
263.0
 40
263.0
 40
264.0
 40
264.0
 40
264.0
 40
265.0
 40
265.0
 40
265.0
 40
266.0
 40
266.0
 40
266.0
 40
267.0
 40
267.0
 40
267.0
 40
268.0
 40
268.0
 40
268.0
 40
269.0
 40
269.0
 40
269.0
 40
270.0
 40
270.0
 40
270.0
 40
271.0
 40
271.0
 40
271.0
 40
272.0
 40
272.0
 40
272.0
 40
273.0
 40
273.0
 40
273.0
 40
274.0
 40
274.0
 40
274.0
 40
275.0
 40
275.0
 40
275.0
 40
276.0
 40
276.0
 40
276.0
 40
277.0
 40
277.0
 40
277.0
 40
278.0
 40
278.0
 40
278.0
 40
279.0
 40
279.0
 40
279.0
 40
280.0
 40
280.0
 40
280.0
 40
281.0
 40
281.0
 40
281.0
 40
282.0
 40
282.0
 40
282.0
 40
283.0
 40
283.0
 40
283.0
 40
284.0
 40
284.0
 40
284.0
 40
285.0
 40
285.0
 40
285.0
 40
286.0
 40
286.0
 40
286.0
 40
287.0
 40
287.0
 40
287.0
 40
288.0
 40
288.0
 40
288.0
 40
289.0
 40
289.0
 40
289.0
 40
290.0
 40
290.0
 40
290.0
 40
291.0
 40
291.0
 40
291.0
 40
292.0
 40
292.0
 40
292.0
 40
293.0
 40
293.0
 40
293.0
 40
294.0
 40
294.0
 40
294.0
 40
295.0
 40
295.0
 40
295.0
 40
296.0
 40
296.0
 40
296.0
 40
297.0
 40
297.0
 40
297.0
 40
298.0
 40
298.0
 40
298.0
 40
299.0
 40
299.0
 40
299.0
 40
300.0
 40
300.0
 40
300.0
 40
301.0
 40
301.0
 40
301.0
 40
302.0
 40
302.0
 40
302.0
 40
303.0
 40
303.0
 40
303.0
 40
304.0
 40
304.0
 40
304.0
 40
305.0
 40
305.0
 40
305.0
 40
306.0
 40
306.0
 40
306.0
 40
307.0
 40
307.0
 40
307.0
 40
308.0
 40
308.0
 40
308.0
 40
309.0
 40
309.0
 40
309.0
 40
310.0
 40
310.0
 40
310.0
 40
311.0
 40
311.0
 40
311.0
 40
312.0
 40
312.0
 40
312.0
 40
313.0
 40
313.0
 40
313.0
 40
314.0
 40
314.0
 40
314.0
 40
315.0
 40
315.0
 40
315.0
 40
316.0
 40
316.0
 40
316.0
 40
317.0
 40
317.0
 40
317.0
 40
318.0
 40
318.0
 40
318.0
 40
319.0
 40
319.0
 40
319.0
 40
320.0
 40
320.0
 40
320.0
 40
320.0
 10
170.9452920438125
 20
-284.3516082013084
 30
0.0
 10
170.3222920595508
 20
-284.0829999999987
 30
0.0
 10
168.746092099369
 20
-283.4976082228823
 30
0.0
 10
166.9706921442194
 20
-283.323208227288
 30
0.0
 10
165.6776921768833
 20
-283.1948082305316
 30
0.0
 10
163.9550922203998
 20
-283.1709082311354
 30
0.0
 10
162.6503922533593
 20
-283.296408227965
 30
0.0
 10
161.1591922910302
 20
-283.4409082243146
 30
0.0
 10
156.8515923998493
 20
-284.213908204787
 30
0.0
 10
154.6679999999997
 20
-284.5928081952152
 30
0.0
 10
151.4091925373359
 20
-285.1577081809446
 30
0.0
 10
149.9208925749335
 20
-285.5459081711379
 30
0.0
 10
148.8505926019716
 20
-285.5518081709888
 30
0.0
 10
148.1229999999996
 20
-285.5552081709029
 30
0.0
 10
147.2284926429493
 20
-285.5552081709029
 30
0.0
 10
146.9423926501768
 20
-285.5537081709408
 30
0.0
 10
146.9276926505481
 20
-285.4849081726788
 30
0.0
 10
146.9120926509422
 20
-285.415508174432
 30
0.0
 10
146.8944926513868
 20
-285.3501081760842
 30
0.0
 10
147.4608926370784
 20
-285.038108183966
 30
0.0
 10
147.7958926286155
 20
-284.6049999999996
 30
0.0
 10
147.6190926330819
 20
-284.0991082076871
 30
0.0
 10
148.0302926226941
 20
-283.5278082221193
 30
0.0
 10
148.9442925996045
 20
-282.4751082487128
 30
0.0
 10
149.3261925899569
 20
-281.7388082673133
 30
0.0
 10
149.6395925820398
 20
-281.1309082826701
 30
0.0
 10
149.5917925832473
 20
-280.8306082902564
 30
0.0
 10
149.5917925832473
 20
-280.8306082902564
 30
0.0
 10
149.5917925832473
 20
-280.8306082902564
 30
0.0
 10
150.7128925549259
 20
-280.9067082883339
 30
0.0
 10
151.3456925389401
 20
-280.9746082866186
 30
0.0
 10
151.8310925266778
 20
-281.0269082852974
 30
0.0
 10
152.2353925164643
 20
-280.5483082973878
 30
0.0
 10
152.2353925164643
 20
-280.5483082973878
 30
0.0
 10
152.2353925164643
 20
-280.5483082973878
 30
0.0
 10
152.5702925080041
 20
-280.6704082943033
 30
0.0
 10
152.8007925021811
 20
-280.6558082946722
 30
0.0
 10
152.9892924974192
 20
-280.6459999999997
 30
0.0
 10
153.2255924914498
 20
-280.4463082999646
 30
0.0
 10
153.2255924914498
 20
-280.4463082999646
 30
0.0
 10
153.2255924914498
 20
-280.4463082999646
 30
0.0
 10
153.8036924768458
 20
-280.618208295622
 30
0.0
 10
154.0292924711466
 20
-280.3535083023089
 30
0.0
 10
154.2421924657683
 20
-280.3633083020613
 30
0.0
 10
154.581092457207
 20
-280.4038083010382
 30
0.0
 10
154.8770000000004
 20
-280.5435082975091
 30
0.0
 10
154.8770000000004
 20
-280.5435082975091
 30
0.0
 10
154.8261924510152
 20
-280.2383083052191
 30
0.0
 10
154.2890924645835
 20
-280.1626083071314
 30
0.0
 10
154.2890924645835
 20
-280.1626083071314
 30
0.0
 10
154.7284924534833
 20
-280.1704083069344
 30
0.0
 10
154.9765924472158
 20
-280.3101083034053
 30
0.0
 10
154.9765924472158
 20
-280.3101083034053
 30
0.0
 10
154.9345924482768
 20
-279.9902083114866
 30
0.0
 10
154.0653924702347
 20
-279.9570000000003
 30
0.0
 10
154.0302924711214
 20
-279.9185083132979
 30
0.0
 10
153.9872924722076
 20
-279.8931083139396
 30
0.0
 10
153.9296924736627
 20
-279.9004083137552
 30
0.0
 10
153.7558924780533
 20
-279.9185083132979
 30
0.0
 10
153.3983924870845
 20
-280.0103083109789
 30
0.0
 10
153.1513924933242
 20
-280.0449083101048
 30
0.0
 10
152.906292499516
 20
-280.0791083092408
 30
0.0
 10
152.6513925059553
 20
-279.9004083137552
 30
0.0
 10
152.2080000000005
 20
-280.211908305886
 30
0.0
 10
151.8202925269507
 20
-280.141608307662
 30
0.0
 10
151.1874925429365
 20
-280.3549999999996
 30
0.0
 10
150.6747925558884
 20
-280.2832083040848
 30
0.0
 10
150.1650000000009
 20
-280.2109083059113
 30
0.0
 10
149.4032925880092
 20
-280.2612083046406
 30
0.0
 10
149.3427925895376
 20
-280.5527082972767
 30
0.0
 10
148.8036926031564
 20
-280.5703082968321
 30
0.0
 10
148.6093926080648
 20
-280.7354082926613
 30
0.0
 10
148.4423926122836
 20
-281.0298082852241
 30
0.0
 10
148.0985926209687
 20
-281.6382082698547
 30
0.0
 10
147.3173926407035
 20
-283.1670000000013
 30
0.0
 10
147.1210926456624
 20
-283.7422082167031
 30
0.0
 10
146.8261926531122
 20
-283.8867082130528
 30
0.0
 10
146.5614926597991
 20
-284.0425082091169
 30
0.0
 10
146.3476926652002
 20
-284.1792082056636
 30
0.0
 10
145.9130926761791
 20
-283.5815082207628
 30
0.0
 10
145.3983926891815
 20
-283.3062082277174
 30
0.0
 10
145.1757926948048
 20
-283.2510000000002
 30
0.0
 10
144.7245927062031
 20
-283.1382082319615
 30
0.0
 10
144.5565927104471
 20
-282.9868082357862
 30
0.0
 10
144.5565927104471
 20
-282.9868082357862
 30
0.0
 10
144.5565927104471
 20
-282.9868082357862
 30
0.0
 10
144.5
 20
-282.7988082405354
 30
0.0
 10
144.6298927085954
 20
-282.8179082400529
 30
0.0
 10
144.9853926996147
 20
-282.8682082387822
 30
0.0
 10
145.3573926902172
 20
-282.785208240879
 30
0.0
 10
145.6737926822243
 20
-282.516108247677
 30
0.0
 10
146.2694926671757
 20
-282.0078082605178
 30
0.0
 10
146.1435926703562
 20
-281.2178082804749
 30
0.0
 10
146.1435926703562
 20
-281.2178082804749
 30
0.0
 10
146.1435926703562
 20
-281.2178082804749
 30
0.0
 10
146.6884926565908
 20
-281.0420000000013
 30
0.0
 10
146.4335926630301
 20
-280.1636083071062
 30
0.0
 10
146.1962926690248
 20
-279.3545083275458
 30
0.0
 10
145.5282926858999
 20
-279.4111083261159
 30
0.0
 10
145.274392692314
 20
-279.5239083232664
 30
0.0
 10
145.1220926961614
 20
-279.3647083272881
 30
0.0
 10
144.8515927029948
 20
-279.2319083306429
 30
0.0
 10
144.5312927110863
 20
-279.1357083330731
 30
0.0
 10
144.6796927073374
 20
-278.9961083365997
 30
0.0
 10
144.9315927009739
 20
-278.7334083432361
 30
0.0
 10
145.0077926990489
 20
-278.4644083500316
 30
0.0
 10
145.1151926963357
 20
-278.0801083597398
 30
0.0
 10
144.9354927008753
 20
-277.9219083637363
 30
0.0
 10
144.9354927008753
 20
-277.9219083637363
 30
0.0
 10
144.9354927008753
 20
-277.9219083637363
 30
0.0
 10
145.5741926847404
 20
-277.2700000000004
 30
0.0
 10
145.6737926822243
 20
-277.0625083854466
 30
0.0
 10
145.7548926801755
 20
-276.8887083898371
 30
0.0
 10
145.7040926814589
 20
-276.6469999999999
 30
0.0
 10
145.7040926814589
 20
-276.6469999999999
 30
0.0
 10
145.7040926814589
 20
-276.6469999999999
 30
0.0
 10
146.2880926667058
 20
-276.1509084084755
 30
0.0
 10
146.4452926627346
 20
-275.8809084152963
 30
0.0
 10
146.6210926582935
 20
-275.5811084228699
 30
0.0
 10
146.506792661181
 20
-275.4229084268663
 30
0.0
 10
146.506792661181
 20
-275.4229084268663
 30
0.0
 10
146.506792661181
 20
-275.4229084268663
 30
0.0
 10
146.865192652127
 20
-275.2485084312721
 30
0.0
 10
147.0087926484994
 20
-275.0298084367969
 30
0.0
 10
147.125
 20
-274.8501084413365
 30
0.0
 10
147.0683926469937
 20
-274.6304084468866
 30
0.0
 10
147.0683926469937
 20
-274.6304084468866
 30
0.0
 10
147.0683926469937
 20
-274.6304084468866
 30
0.0
 10
147.5761926341656
 20
-274.1963084578529
 30
0.0
 10
147.763692629429
 20
-273.9321084645271
 30
0.0
 10
147.9150000000009
 20
-273.7197084698928
 30
0.0
 10
147.8378926275545
 20
-273.5083084752332
 30
0.0
 10
147.8378926275545
 20
-273.5083084752332
 30
0.0
 10
147.8378926275545
 20
-273.5083084752332
 30
0.0
 10
148.3075926156889
 20
-273.1675084838425
 30
0.0
 10
148.4667926116672
 20
-272.9722084887762
 30
0.0
 10
148.6483926070796
 20
-272.7495084944021
 30
0.0
 10
148.6063926081406
 20
-272.5654084990529
 30
0.0
 10
148.6063926081406
 20
-272.5654084990529
 30
0.0
 10
148.6063926081406
 20
-272.5654084990529
 30
0.0
 10
148.9374925997763
 20
-272.2939085059115
 30
0.0
 10
149.0429999999997
 20
-272.1558085094002
 30
0.0
 10
149.1229999999996
 20
-272.0493085120906
 30
0.0
 10
149.0858925960274
 20
-271.8818085163221
 30
0.0
 10
149.0858925960274
 20
-271.8818085163221
 30
0.0
 10
149.0858925960274
 20
-271.8818085163221
 30
0.0
 10
149.5185925850965
 20
-271.6929085210941
 30
0.0
 10
149.6962925806074
 20
-271.5718085241533
 30
0.0
 10
149.8729999999996
 20
-271.4512085271999
 30
0.0
 10
149.8583925765124
 20
-271.2969085310979
 30
0.0
 10
149.8583925765124
 20
-271.2969085310979
 30
0.0
 10
149.8583925765124
 20
-271.2969085310979
 30
0.0
 10
150.3798925633382
 20
-271.0757085366859
 30
0.0
 10
150.6708925559869
 20
-270.8774085416953
 30
0.0
 10
150.8476925515206
 20
-270.7554085447773
 30
0.0
 10
150.8515925514221
 20
-270.596208548799
 30
0.0
 10
150.8515925514221
 20
-270.596208548799
 30
0.0
 10
150.8515925514221
 20
-270.596208548799
 30
0.0
 10
151.3925925377553
 20
-270.4624085521791
 30
0.0
 10
151.7860925278146
 20
-270.5317085504284
 30
0.0
 10
152.1679999999997
 20
-270.5986085487384
 30
0.0
 10
152.5058925096309
 20
-270.9995085386108
 30
0.0
 10
152.6913925049448
 20
-271.1348085351929
 30
0.0
 10
152.9784924976921
 20
-271.342308529951
 30
0.0
 10
153.1933924922632
 20
-270.9809999999998
 30
0.0
 10
152.9413924986293
 20
-270.5903085489481
 30
0.0
 10
152.6395925062534
 20
-270.1167085609122
 30
0.0
 10
152.2274925166639
 20
-270.0205085633424
 30
0.0
 10
151.7929999999997
 20
-270.0303085630949
 30
0.0
 10
151.2567925411859
 20
-270.0444085627387
 30
0.0
 10
150.7304925544813
 20
-270.2993085562994
 30
0.0
 10
150.7304925544813
 20
-270.2993085562994
 30
0.0
 10
150.7304925544813
 20
-270.2993085562994
 30
0.0
 10
150.4306925620549
 20
-270.1831085592348
 30
0.0
 10
150.2362925669659
 20
-270.3096085560392
 30
0.0
 10
150.1083925701969
 20
-270.3936085539171
 30
0.0
 10
149.5331925847277
 20
-270.8711085418545
 30
0.0
 10
149.5331925847277
 20
-270.8711085418545
 30
0.0
 10
149.5331925847277
 20
-270.8711085418545
 30
0.0
 10
149.3915925883048
 20
-270.8608085421147
 30
0.0
 10
149.25
 20
-270.9697085393636
 30
0.0
 10
149.1288925949411
 20
-271.0619999999999
 30
0.0
 10
148.7724926039446
 20
-271.4927085261515
 30
0.0
 10
148.7724926039446
 20
-271.4927085261515
 30
0.0
 10
148.7724926039446
 20
-271.4927085261515
 30
0.0
 10
148.5888926085827
 20
-271.4771085265456
 30
0.0
 10
148.4647926117177
 20
-271.6987085209475
 30
0.0
 10
148.3935926135164
 20
-271.8271085177039
 30
0.0
 10
148.215792618008
 20
-272.301808505712
 30
0.0
 10
148.215792618008
 20
-272.301808505712
 30
0.0
 10
148.215792618008
 20
-272.301808505712
 30
0.0
 10
147.9706926241997
 20
-272.3467085045777
 30
0.0
 10
147.8720926266906
 20
-272.4609085016928
 30
0.0
 10
147.7226926304647
 20
-272.6323084973628
 30
0.0
 10
147.6044926334507
 20
-273.0117084877784
 30
0.0
 10
147.3856926389781
 20
-273.2461084818569
 30
0.0
 10
147.3856926389781
 20
-273.2461084818569
 30
0.0
 10
147.0741926468472
 20
-273.3408084794646
 30
0.0
 10
146.9843926491158
 20
-273.5244084748265
 30
0.0
 10
146.8925926514348
 20
-273.7148084700166
 30
0.0
 10
146.6913926565176
 20
-274.342808454152
 30
0.0
 10
146.6913926565176
 20
-274.342808454152
 30
0.0
 10
146.6913926565176
 20
-274.342808454152
 30
0.0
 10
146.4530926625375
 20
-274.4048084525857
 30
0.0
 10
146.3407926653745
 20
-274.5425084491071
 30
0.0
 10
146.2294926681861
 20
-274.6802084456285
 30
0.0
 10
146.1044926713439
 20
-275.0635084359456
 30
0.0
 10
146.1044926713439
 20
-275.0635084359456
 30
0.0
 10
146.1044926713439
 20
-275.0635084359456
 30
0.0
 10
146.1220926708993
 20
-275.2246084318758
 30
0.0
 10
145.9520926751939
 20
-275.517608424474
 30
0.0
 10
145.7821926794859
 20
-275.8096084170975
 30
0.0
 10
145.2353926932992
 20
-276.4307084014072
 30
0.0
 10
145.2353926932992
 20
-276.4307084014072
 30
0.0
 10
145.2353926932992
 20
-276.4307084014072
 30
0.0
 10
144.9804926997385
 20
-276.5601083981383
 30
0.0
 10
144.9120927014665
 20
-276.6782083951548
 30
0.0
 10
144.7128927064987
 20
-277.0234083864343
 30
0.0
 10
144.5468927106922
 20
-277.7573083678944
 30
0.0
 10
144.5468927106922
 20
-277.7573083678944
 30
0.0
 10
144.5468927106922
 20
-277.7573083678944
 30
0.0
 10
144.28809271723
 20
-277.8301083660554
 30
0.0
 10
144.2255927188089
 20
-278.0229083611848
 30
0.0
 10
144.1503927207086
 20
-278.2466083555337
 30
0.0
 10
144.1991927194758
 20
-278.5146083487634
 30
0.0
 10
143.9706927252482
 20
-278.773908342213
 30
0.0
 10
143.9140927266781
 20
-278.8379083405962
 30
0.0
 10
143.8178927291083
 20
-278.9224083384615
 30
0.0
 10
143.742692731008
 20
-278.9829083369332
 30
0.0
 10
143.6005927345977
 20
-278.968308337302
 30
0.0
 10
143.4560927382481
 20
-278.9585083375496
 30
0.0
 10
143.3140000000003
 20
-278.9585083375496
 30
0.0
 10
143.1850927450942
 20
-278.9585083375496
 30
0.0
 10
143.0561927483504
 20
-278.9668083373399
 30
0.0
 10
142.9271927516093
 20
-278.9785083370443
 30
0.0
 10
142.9242927516825
 20
-278.9438083379209
 30
0.0
 10
142.9213927517558
 20
-278.9072083388455
 30
0.0
 10
142.9115927520033
 20
-278.8739999999998
 30
0.0
 10
142.8637927532109
 20
-278.6768083446659
 30
0.0
 10
142.6107927596022
 20
-278.5845083469976
 30
0.0
 10
142.6107927596022
 20
-278.5845083469976
 30
0.0
 10
142.6107927596022
 20
-278.5845083469976
 30
0.0
 10
142.5038927623027
 20
-277.8403083657977
 30
0.0
 10
142.3300927666933
 20
-277.4799999999996
 30
0.0
 10
142.2709999999997
 20
-277.3574083779968
 30
0.0
 10
142.0248927744033
 20
-277.2085083817583
 30
0.0
 10
142.0248927744033
 20
-277.2085083817583
 30
0.0
 10
142.0248927744033
 20
-277.2085083817583
 30
0.0
 10
141.8422927790161
 20
-276.4023084021246
 30
0.0
 10
141.8305927793117
 20
-276.0659084106228
 30
0.0
 10
141.8207927795593
 20
-275.7261084192069
 30
0.0
 10
141.5248927870343
 20
-275.5619999999999
 30
0.0
 10
141.5248927870343
 20
-275.5619999999999
 30
0.0
 10
141.5248927870343
 20
-275.5619999999999
 30
0.0
 10
141.4882927879589
 20
-275.1616084334673
 30
0.0
 10
141.4091927899572
 20
-275.0024084374891
 30
0.0
 10
141.3324927918948
 20
-274.8423084415335
 30
0.0
 10
141.114292797407
 20
-274.7280000000001
 30
0.0
 10
141.114292797407
 20
-274.7280000000001
 30
0.0
 10
141.114292797407
 20
-274.7280000000001
 30
0.0
 10
141.0600927987762
 20
-274.0728084609727
 30
0.0
 10
141.0092928000595
 20
-273.8638084662525
 30
0.0
 10
140.9657928011584
 20
-273.6660000000002
 30
0.0
 10
140.6820928083253
 20
-273.5024084753823
 30
0.0
 10
140.6820928083253
 20
-273.5024084753823
 30
0.0
 10
140.5233928123344
 20
-273.2246084824001
 30
0.0
 10
140.4936928130846
 20
-272.8296084923786
 30
0.0
 10
140.3856928158129
 20
-272.6294084974361
 30
0.0
 10
140.3134928176369
 20
-272.4946085008414
 30
0.0
 10
140.085
 20
-272.3969999999999
 30
0.0
 10
140.085
 20
-272.3969999999999
 30
0.0
 10
140.085
 20
-272.3969999999999
 30
0.0
 10
140.0185928250867
 20
-271.893608516024
 30
0.0
 10
139.9780000000001
 20
-271.7529085195783
 30
0.0
 10
139.908692827863
 20
-271.5093085257322
 30
0.0
 10
139.7255928324885
 20
-271.4829085263991
 30
0.0
 10
139.7255928324885
 20
-271.4829085263991
 30
0.0
 10
139.7255928324885
 20
-271.4829085263991
 30
0.0
 10
139.4750928388166
 20
-270.9834085390175
 30
0.0
 10
139.3788928412469
 20
-270.8667085419656
 30
0.0
 10
139.2645928441343
 20
-270.7280000000001
 30
0.0
 10
139.1239999999998
 20
-270.7075085459874
 30
0.0
 10
139.1239999999998
 20
-270.7075085459874
 30
0.0
 10
139.1239999999998
 20
-270.7075085459874
 30
0.0
 10
138.6693928591703
 20
-270.1123085610234
 30
0.0
 10
138.5653928617976
 20
-270.0020000000004
 30
0.0
 10
138.4032928658926
 20
-269.8339999999998
 30
0.0
 10
138.0863928738981
 20
-269.8804085668817
 30
0.0
 10
138.0863928738981
 20
-269.8804085668817
 30
0.0
 10
138.0863928738981
 20
-269.8804085668817
 30
0.0
 10
137.6293928854429
 20
-269.5137085761453
 30
0.0
 10
137.1112928985312
 20
-269.38130857949
 30
0.0
 10
136.6894929091868
 20
-269.2729085822284
 30
0.0
 10
136.2680929198323
 20
-269.2744085821905
 30
0.0
 10
135.8666929299725
 20
-269.66750857226
 30
0.0
 10
135.5331929383974
 20
-269.9927085640447
 30
0.0
 10
135.6601929351891
 20
-270.3926085539424
 30
0.0
 10
135.9882929269006
 20
-270.2529085574715
 30
0.0
 10
136.1991929215728
 20
-270.1641085597148
 30
0.0
 10
136.618192910988
 20
-269.8496085676597
 30
0.0
 10
137.0062929011838
 20
-269.8687085671772
 30
0.0
 10
137.4037928911421
 20
-269.8901085666366
 30
0.0
 10
137.901892878559
 20
-270.1416085602832
 30
0.0
 10
137.901892878559
 20
-270.1416085602832
 30
0.0
 10
137.901892878559
 20
-270.1416085602832
 30
0.0
 10
137.869592879375
 20
-270.2993085562994
 30
0.0
 10
138.0141928757221
 20
-270.4570000000003
 30
0.0
 10
138.2523928697046
 20
-270.7153085457903
 30
0.0
 10
138.71
 20
-271.0479085373881
 30
0.0
 10
138.71
 20
-271.0479085373881
 30
0.0
 10
138.71
 20
-271.0479085373881
 30
0.0
 10
138.6615928593674
 20
-271.1943085336898
 30
0.0
 10
138.8080928556665
 20
-271.353508529668
 30
0.0
 10
138.9530928520035
 20
-271.5107085256968
 30
0.0
 10
139.332492842419
 20
-271.792508518578
 30
0.0
 10
139.332492842419
 20
-271.792508518578
 30
0.0
 10
139.332492842419
 20
-271.792508518578
 30
0.0
 10
139.2577928443061
 20
-271.9453085147179
 30
0.0
 10
139.3144928428737
 20
-272.0693085115854
 30
0.0
 10
139.3852928410852
 20
-272.2280000000001
 30
0.0
 10
139.6474928344614
 20
-272.5664084990276
 30
0.0
 10
139.6474928344614
 20
-272.5664084990276
 30
0.0
 10
139.6474928344614
 20
-272.5664084990276
 30
0.0
 10
139.561492836634
 20
-272.7363084947356
 30
0.0
 10
139.6894928334004
 20
-272.9937084882331
 30
0.0
 10
139.8026928305408
 20
-273.2202084825112
 30
0.0
 10
140.1854928208704
 20
-273.6582084714464
 30
0.0
 10
140.1854928208704
 20
-273.6582084714464
 30
0.0
 10
140.1854928208704
 20
-273.6582084714464
 30
0.0
 10
140.0604928240282
 20
-273.8457084667098
 30
0.0
 10
140.1605928214994
 20
-274.0879084605913
 30
0.0
 10
140.2846928183644
 20
-274.386708453043
 30
0.0
 10
140.6801928083732
 20
-274.9233084394873
 30
0.0
 10
140.6801928083732
 20
-274.9233084394873
 30
0.0
 10
140.6801928083732
 20
-274.9233084394873
 30
0.0
 10
140.5761928110005
 20
-275.1245084344046
 30
0.0
 10
140.6513928091008
 20
-275.3271084292865
 30
0.0
 10
140.7406928068449
 20
-275.5723084230922
 30
0.0
 10
141.0512927989985
 20
-275.8218084167893
 30
0.0
 10
141.0512927989985
 20
-275.8218084167893
 30
0.0
 10
141.0512927989985
 20
-275.8218084167893
 30
0.0
 10
140.9032928027373
 20
-275.9512084135204
 30
0.0
 10
141.00729280011
 20
-276.282708405146
 30
0.0
 10
141.1005927977531
 20
-276.5815083975976
 30
0.0
 10
141.5131927873299
 20
-277.1768083825591
 30
0.0
 10
141.5131927873299
 20
-277.1768083825591
 30
0.0
 10
141.5131927873299
 20
-277.1768083825591
 30
0.0
 10
141.472692788353
 20
-277.625508371224
 30
0.0
 10
141.5420000000004
 20
-277.8062083666591
 30
0.0
 10
141.625
 20
-278.0209999999997
 30
0.0
 10
142.2123927696666
 20
-278.7183083436175
 30
0.0
 10
142.2123927696666
 20
-278.7183083436175
 30
0.0
 10
142.2123927696666
 20
-278.7183083436175
 30
0.0
 10
142.0741927731578
 20
-278.8403083405356
 30
0.0
 10
142.0922927727006
 20
-279.132308333159
 30
0.0
 10
141.7611927810649
 20
-279.2305083306783
 30
0.0
 10
141.4853927880322
 20
-279.3638083273108
 30
0.0
 10
141.33149279192
 20
-279.5239083232664
 30
0.0
 10
141.0785927983088
 20
-279.4111083261159
 30
0.0
 10
140.4071928152698
 20
-279.3545083275458
 30
0.0
 10
140.1732928211786
 20
-280.1636083071062
 30
0.0
 10
139.9184928276154
 20
-281.0420000000013
 30
0.0
 10
140.4628928138627
 20
-281.2178082804749
 30
0.0
 10
140.4628928138627
 20
-281.2178082804749
 30
0.0
 10
140.4628928138627
 20
-281.2178082804749
 30
0.0
 10
140.335892817071
 20
-282.0078082605178
 30
0.0
 10
140.9320928020097
 20
-282.516108247677
 30
0.0
 10
141.2475927940395
 20
-282.785208240879
 30
0.0
 10
141.6420927840736
 20
-282.8682082387822
 30
0.0
 10
141.9960927751308
 20
-282.8179082400529
 30
0.0
 10
142.128892771776
 20
-282.7988082405354
 30
0.0
 10
142.0712927732311
 20
-282.9868082357862
 30
0.0
 10
142.0712927732311
 20
-282.9868082357862
 30
0.0
 10
142.0712927732311
 20
-282.9868082357862
 30
0.0
 10
141.9018927775105
 20
-283.1382082319615
 30
0.0
 10
141.449692788934
 20
-283.2510000000002
 30
0.0
 10
141.22659279457
 20
-283.3062082277174
 30
0.0
 10
140.7050928077442
 20
-283.5849999999991
 30
0.0
 10
140.2704928187231
 20
-284.190908205368
 30
0.0
 10
140.0531928242126
 20
-284.0522082088719
 30
0.0
 10
139.7841928310081
 20
-283.8921082129164
 30
0.0
 10
139.4794928387055
 20
-283.7422082167031
 30
0.0
 10
139.2816928437023
 20
-283.1670000000013
 30
0.0
 10
138.5004928634371
 20
-281.6382082698547
 30
0.0
 10
138.1571928721096
 20
-281.0298082852241
 30
0.0
 10
137.9892928763511
 20
-280.7354082926613
 30
0.0
 10
137.7953928812494
 20
-280.5703082968321
 30
0.0
 10
137.255392894891
 20
-280.5527082972767
 30
0.0
 10
137.1942928964345
 20
-280.2612083046406
 30
0.0
 10
136.4364929155781
 20
-280.2109083059113
 30
0.0
 10
135.92379292853
 20
-280.2832083040848
 30
0.0
 10
135.4130929414314
 20
-280.3549999999996
 30
0.0
 10
134.7787929574552
 20
-280.141608307662
 30
0.0
 10
134.3925929672114
 20
-280.211908305886
 30
0.0
 10
133.9486929784252
 20
-279.9004083137552
 30
0.0
 10
133.6952929848267
 20
-280.0791083092408
 30
0.0
 10
133.449692991031
 20
-280.0449083101048
 30
0.0
 10
133.201692997296
 20
-280.0103083109789
 30
0.0
 10
132.8446930063146
 20
-279.9185083132979
 30
0.0
 10
132.6718930106799
 20
-279.9004083137552
 30
0.0
 10
132.5585930135421
 20
-279.8862083141139
 30
0.0
 10
132.4403930165281
 20
-279.9448083126335
 30
0.0
 10
132.4403930165281
 20
-279.9448083126335
 30
0.0
 10
131.4130930424799
 20
-279.9976083112997
 30
0.0
 10
131.397493042874
 20
-280.3618083020992
 30
0.0
 10
131.397493042874
 20
-280.3618083020992
 30
0.0
 10
131.6371930368186
 20
-280.2085083059719
 30
0.0
 10
132.0761930257286
 20
-280.17770830675
 30
0.0
 10
132.0761930257286
 20
-280.17770830675
 30
0.0
 10
131.5438930391756
 20
-280.2827083040975
 30
0.0
 10
131.5092930400497
 20
-280.5889082963622
 30
0.0
 10
131.5092930400497
 20
-280.5889082963622
 30
0.0
 10
131.9701930284064
 20
-280.3413083026171
 30
0.0
 10
132.5565930135926
 20
-280.3413083026171
 30
0.0
 10
132.5565930135926
 20
-280.3413083026171
 30
0.0
 10
132.7724930081386
 20
-280.627908295377
 30
0.0
 10
133.375
 20
-280.4463082999646
 30
0.0
 10
133.375
 20
-280.4463082999646
 30
0.0
 10
133.375
 20
-280.4463082999646
 30
0.0
 10
133.6093929869967
 20
-280.6459999999997
 30
0.0
 10
133.7973929822474
 20
-280.6558082946722
 30
0.0
 10
134.0287929764017
 20
-280.6704082943033
 30
0.0
 10
134.3632929679516
 20
-280.5483082973878
 30
0.0
 10
134.3632929679516
 20
-280.5483082973878
 30
0.0
 10
134.3632929679516
 20
-280.5483082973878
 30
0.0
 10
134.7685929577128
 20
-281.0269082852974
 30
0.0
 10
135.2567929453799
 20
-280.9746082866186
 30
0.0
 10
135.8866929294672
 20
-280.9067082883339
 30
0.0
 10
137.009292901108
 20
-280.8306082902564
 30
0.0
 10
137.009292901108
 20
-280.8306082902564
 30
0.0
 10
137.009292901108
 20
-280.8306082902564
 30
0.0
 10
136.9608929023307
 20
-281.1309082826701
 30
0.0
 10
137.2733928944363
 20
-281.7388082673133
 30
0.0
 10
137.6537928848265
 20
-282.4751082487128
 30
0.0
 10
138.5692928616991
 20
-283.5278082221193
 30
0.0
 10
138.9813928512885
 20
-284.0991082076871
 30
0.0
 10
138.8002928558635
 20
-284.6128081947099
 30
0.0
 10
139.1478928470824
 20
-285.0513081836325
 30
0.0
 10
139.7274928324405
 20
-285.3638081757381
 30
0.0
 10
139.6771928337112
 20
-285.5474081711
 30
0.0
 10
139.6425928345852
 20
-285.7489999999998
 30
0.0
 10
139.6166928352395
 20
-285.9614081606414
 30
0.0
 10
139.2274928450715
 20
-285.9614081606414
 30
0.0
 10
138.497092863523
 20
-285.9614081606414
 30
0.0
 10
137.8852928789784
 20
-285.9585081607147
 30
0.0
 10
136.8140000000003
 20
-285.9536081608385
 30
0.0
 10
135.326692943614
 20
-285.564508170668
 30
0.0
 10
132.0683930259256
 20
-284.9995081849411
 30
0.0
 10
129.8837930811133
 20
-284.6201081945255
 30
0.0
 10
125.5785931898718
 20
-283.8472082140506
 30
0.0
 10
124.0834932276412
 20
-283.7041082176656
 30
0.0
 10
122.7797932605754
 20
-283.5791082208234
 30
0.0
 10
121.0585933040566
 20
-283.601608220255
 30
0.0
 10
119.7636933367685
 20
-283.7305082169987
 30
0.0
 10
117.9887933816062
 20
-283.9067082125475
 30
0.0
 10
116.4140934213865
 20
-284.4907081977944
 30
0.0
 10
115.79049343714
 20
-284.7583081910343
 30
0.0
 10
115.0170934566777
 20
-285.0908081826346
 30
0.0
 10
114.0697934806085
 20
-285.8481081635036
 30
0.0
 10
114.24509347618
 20
-286.7744081401033
 30
0.0
 10
114.4877934700489
 20
-288.0698081073788
 30
0.0
 10
115.748493438201
 20
-289.425308073136
 30
0.0
 10
117.0185934061155
 20
-290.115708055695
 30
0.0
 10
117.7709999999997
 20
-290.5225080454184
 30
0.0
 10
118.2270933755863
 20
-291.4985080207625
 30
0.0
 10
119.8935933334869
 20
-292.1982080030866
 30
0.0
 10
121.1386933020331
 20
-292.7197079899124
 30
0.0
 10
122.1903932754649
 20
-292.2920000000013
 30
0.0
 10
122.1903932754649
 20
-292.2920000000013
 30
0.0
 10
122.1903932754649
 20
-292.2920000000013
 30
0.0
 10
122.0121932799666
 20
-293.0688079810934
 30
0.0
 10
122.5185932671739
 20
-293.7217079645998
 30
0.0
 10
123.1786932504983
 20
-294.5757079430259
 30
0.0
 10
124.3627932205854
 20
-294.8413079363163
 30
0.0
 10
125.2831931973342
 20
-294.9775079328756
 30
0.0
 10
125.9320931809416
 20
-295.0737079304454
 30
0.0
 10
126.4901931668428
 20
-295.5005079196635
 30
0.0
 10
128.7997931084974
 20
-295.3291079239934
 30
0.0
 10
131.04
 20
-295.1616079282248
 30
0.0
 10
133.1937929974956
 20
-294.7827079377967
 30
0.0
 10
135.6723929348809
 20
-293.1328079794766
 30
0.0
 10
138.9081928531377
 20
-290.9789999999994
 30
0.0
 10
138.1225928729837
 20
-289.8179080632181
 30
0.0
 10
139.193392845933
 20
-289.1191080808712
 30
0.0
 10
139.4330928398776
 20
-288.9629080848172
 30
0.0
 10
139.6596928341532
 20
-288.8701080871615
 30
0.0
 10
139.8690928288634
 20
-288.8091080887025
 30
0.0
 10
140.0829999999996
 20
-289.6162080683134
 30
0.0
 10
140.3183928175131
 20
-289.7690000000002
 30
0.0
 10
140.3964928155401
 20
-290.0264080579509
 30
0.0
 10
140.4511928141583
 20
-290.2114080532774
 30
0.0
 10
140.4491928142088
 20
-290.6895080411996
 30
0.0
 10
140.4857928132842
 20
-291.2666080266208
 30
0.0
 10
140.2704928187231
 20
-291.3223080252137
 30
0.0
 10
139.9989999999998
 20
-291.4248080226243
 30
0.0
 10
139.8300928298486
 20
-291.6177080177513
 30
0.0
 10
139.5185928377177
 20
-291.9731080087731
 30
0.0
 10
138.7084928581826
 20
-292.5957079930449
 30
0.0
 10
138.1923928712204
 20
-292.7900000000009
 30
0.0
 10
137.5092928884769
 20
-293.047407981634
 30
0.0
 10
137.3530000000001
 20
-293.2251079771449
 30
0.0
 10
137.40229289118
 20
-293.6558079662645
 30
0.0
 10
136.5668929122839
 20
-294.535207944049
 30
0.0
 10
136.3192929185388
 20
-295.376507922796
 30
0.0
 10
136.0590929251121
 20
-296.0757079051327
 30
0.0
 10
135.7382929332161
 20
-296.9326078834856
 30
0.0
 10
135.776892932241
 20
-297.4961078692504
 30
0.0
 10
135.946792927949
 20
-297.70750786391
 30
0.0
 10
135.3637929426768
 20
-298.0391078555331
 30
0.0
 10
134.5526929631669
 20
-298.3906078466534
 30
0.0
 10
134.4364929661024
 20
-298.6304078405956
 30
0.0
 10
134.3505929682724
 20
-298.8076078361191
 30
0.0
 10
134.4457929658674
 20
-299.0449078301244
 30
0.0
 10
134.4457929658674
 20
-299.0449078301244
 30
0.0
 10
134.4457929658674
 20
-299.0449078301244
 30
0.0
 10
133.8114929818912
 20
-299.2954078237963
 30
0.0
 10
133.564492988131
 20
-299.4409078201206
 30
0.0
 10
133.318392994348
 20
-299.5869078164324
 30
0.0
 10
133.4179999999997
 20
-299.9492078072799
 30
0.0
 10
133.4179999999997
 20
-299.9492078072799
 30
0.0
 10
133.4179999999997
 20
-299.9492078072799
 30
0.0
 10
132.7738930081032
 20
-300.3721077965965
 30
0.0
 10
132.3832930179706
 20
-300.5454077922186
 30
0.0
 10
131.9188930297023
 20
-300.7495077870626
 30
0.0
 10
132.1024930250642
 20
-301.0371077797972
 30
0.0
 10
132.1024930250642
 20
-301.0371077797972
 30
0.0
 10
132.1024930250642
 20
-301.0371077797972
 30
0.0
 10
131.1679999999997
 20
-301.5947077657111
 30
0.0
 10
131.0360930520037
 20
-301.8618077589636
 30
0.0
 10
130.1068930754773
 20
-302.1001077529436
 30
0.0
 10
130.149893074391
 20
-302.4443077442484
 30
0.0
 10
130.149893074391
 20
-302.4443077442484
 30
0.0
 10
130.3578930691365
 20
-302.2505077491442
 30
0.0
 10
130.7826930584051
 20
-302.1401077519331
 30
0.0
 10
130.7826930584051
 20
-302.1401077519331
 30
0.0
 10
130.2787930711347
 20
-302.3398077468883
 30
0.0
 10
130.2992930706168
 20
-302.647907739105
 30
0.0
 10
130.2992930706168
 20
-302.647907739105
 30
0.0
 10
130.6522930616993
 20
-302.363807746282
 30
0.0
 10
131.1288930496594
 20
-302.2456077492679
 30
0.0
 10
131.2523930465395
 20
-302.2187077499475
 30
0.0
 10
131.4071930426289
 20
-302.2842077482928
 30
0.0
 10
131.6044930376447
 20
-302.281707748356
 30
0.0
 10
131.7470930340423
 20
-302.1226077523752
 30
0.0
 10
132.026893026974
 20
-301.812507760209
 30
0.0
 10
132.2372930216588
 20
-301.3389077721731
 30
0.0
 10
132.2372930216588
 20
-301.3389077721731
 30
0.0
 10
132.2372930216588
 20
-301.3389077721731
 30
0.0
 10
132.5375930140726
 20
-301.3701077713849
 30
0.0
 10
132.9008930048949
 20
-301.1055077780693
 30
0.0
 10
133.4110929920062
 20
-300.7354077874188
 30
0.0
 10
133.6068929870598
 20
-300.2231078003606
 30
0.0
 10
133.6068929870598
 20
-300.2231078003606
 30
0.0
 10
133.6068929870598
 20
-300.2231078003606
 30
0.0
 10
133.9047929795342
 20
-300.2607077994107
 30
0.0
 10
134.1845929724659
 20
-300.0005078059839
 30
0.0
 10
134.5429999999997
 20
-299.668507814371
 30
0.0
 10
134.6825929598854
 20
-299.3442078225635
 30
0.0
 10
134.6825929598854
 20
-299.3442078225635
 30
0.0
 10
134.6825929598854
 20
-299.3442078225635
 30
0.0
 10
135.1361929484265
 20
-299.3525078223538
 30
0.0
 10
135.5224929386677
 20
-298.9419078327264
 30
0.0
 10
135.8770000000004
 20
-298.5664078422124
 30
0.0
 10
136.4091929162678
 20
-297.8569078601358
 30
0.0
 10
136.4091929162678
 20
-297.8569078601358
 30
0.0
 10
136.4091929162678
 20
-297.8569078601358
 30
0.0
 10
136.9428929027854
 20
-297.8022078615177
 30
0.0
 10
137.0805928993068
 20
-297.2114078764425
 30
0.0
 10
137.2167928958661
 20
-296.6191078914053
 30
0.0
 10
137.2700000000004
 20
-294.6123079421013
 30
0.0
 10
137.7050928835306
 20
-294.1406079540175
 30
0.0
 10
138.5277928627474
 20
-293.999507957582
 30
0.0
 10
139.307592843048
 20
-293.4517079714205
 30
0.0
 10
139.7719999999999
 20
-293.0771079808837
 30
0.0
 10
140.0453928244096
 20
-292.8549999999996
 30
0.0
 10
140.35889281649
 20
-292.5513079941666
 30
0.0
 10
140.606892810225
 20
-292.3003080005074
 30
0.0
 10
140.6610928088558
 20
-292.6055079927974
 30
0.0
 10
140.7357928069687
 20
-292.9111079850773
 30
0.0
 10
140.8476928041418
 20
-293.1890000000003
 30
0.0
 10
140.9994928003071
 20
-293.5708079684118
 30
0.0
 10
141.1342927969017
 20
-293.8442079615052
 30
0.0
 10
141.2572927937945
 20
-294.0576079561142
 30
0.0
 10
141.0756927983821
 20
-294.1646079534112
 30
0.0
 10
140.7245928072516
 20
-294.3843079478611
 30
0.0
 10
140.2895928182406
 20
-294.73190793908
 30
0.0
 10
139.5375928372378
 20
-295.3354079238343
 30
0.0
 10
138.2074928708389
 20
-296.814907886459
 30
0.0
 10
138.0326928752547
 20
-297.1660000000011
 30
0.0
 10
137.8495928798802
 20
-297.5288078684243
 30
0.0
 10
137.9809999999998
 20
-298.0200000000004
 30
0.0
 10
137.9809999999998
 20
-298.0200000000004
 30
0.0
 10
137.9809999999998
 20
-298.0200000000004
 30
0.0
 10
137.7636928820502
 20
-298.197807851524
 30
0.0
 10
137.6161928857764
 20
-298.6099078411135
 30
0.0
 10
137.5102928884517
 20
-298.9019078337369
 30
0.0
 10
137.3017928937188
 20
-299.5605078170993
 30
0.0
 10
137.1034928987283
 20
-300.4507077946109
 30
0.0
 10
136.875
 20
-301.4873077684242
 30
0.0
 10
136.4726929146636
 20
-302.9858077305689
 30
0.0
 10
136.8192929059078
 20
-303.5503077163085
 30
0.0
 10
136.8192929059078
 20
-303.5503077163085
 30
0.0
 10
136.8140000000003
 20
-303.8433077089067
 30
0.0
 10
136.665
 20
-304.3408076963387
 30
0.0
 10
136.4364929155781
 20
-305.1035076770713
 30
0.0
 10
136.492192914171
 20
-305.4888076673378
 30
0.0
 10
136.7797929069056
 20
-305.951707655644
 30
0.0
 10
136.6660000000002
 20
-306.3286076461227
 30
0.0
 10
136.4867929143074
 20
-307.0469076279769
 30
0.0
 10
136.5380929130115
 20
-307.4966076166165
 30
0.0
 10
136.5741929120995
 20
-307.7949076090808
 30
0.0
 10
136.6270000000004
 20
-308.1431076002846
 30
0.0
 10
136.6270000000004
 20
-308.1431076002846
 30
0.0
 10
136.6270000000004
 20
-308.1431076002846
 30
0.0
 10
136.2650929199081
 20
-308.7012075861858
 30
0.0
 10
136.1664929223989
 20
-309.0137075782914
 30
0.0
 10
136.0844929244704
 20
-309.276407571655
 30
0.0
 10
136.2865929193649
 20
-309.7056075608125
 30
0.0
 10
136.2865929193649
 20
-309.7056075608125
 30
0.0
 10
136.2865929193649
 20
-309.7056075608125
 30
0.0
 10
136.0209999999997
 20
-309.930707555126
 30
0.0
 10
135.9545929277519
 20
-310.4258075426187
 30
0.0
 10
135.9081929289241
 20
-310.76420753407
 30
0.0
 10
135.5380929382736
 20
-311.0898075258447
 30
0.0
 10
135.4780000000001
 20
-311.3501075192689
 30
0.0
 10
135.4691929400142
 20
-311.3833075184302
 30
0.0
 10
135.4691929400142
 20
-311.4160000000011
 30
0.0
 10
135.473592939903
 20
-311.4463075168387
 30
0.0
 10
134.5687929627602
 20
-312.135707499423
 30
0.0
 10
134.7714929576396
 20
-312.4932074903918
 30
0.0
 10
134.7714929576396
 20
-312.4932074903918
 30
0.0
 10
134.9120929540877
 20
-312.1816074982635
 30
0.0
 10
135.3320000000003
 20
-311.862807506317
 30
0.0
 10
135.3320000000003
 20
-311.862807506317
 30
0.0
 10
134.8656929552599
 20
-312.3179074948202
 30
0.0
 10
135.0341929510032
 20
-312.650907486408
 30
0.0
 10
135.0341929510032
 20
-312.650907486408
 30
0.0
 10
135.2787929448241
 20
-312.1953074979174
 30
0.0
 10
135.7147929338098
 20
-311.8584075064282
 30
0.0
 10
135.8642929300331
 20
-311.75
 30
0.0
 10
135.9203929286159
 20
-311.7549075090428
 30
0.0
 10
135.9770929271835
 20
-311.7534075090807
 30
0.0
 10
136.0297929258522
 20
-311.7373075094874
 30
0.0
 10
136.2978929190795
 20
-311.664607511324
 30
0.0
 10
136.4799999999996
 20
-311.2515075217598
 30
0.0
 10
136.6137929110992
 20
-310.8462075319985
 30
0.0
 10
136.7470929077317
 20
-310.4404075422499
 30
0.0
 10
136.6630929098537
 20
-309.8184075579629
 30
0.0
 10
136.6630929098537
 20
-309.8184075579629
 30
0.0
 10
136.6630929098537
 20
-309.8184075579629
 30
0.0
 10
136.8554929049933
 20
-309.726607560282
 30
0.0
 10
136.9823929017875
 20
-309.4570000000003
 30
0.0
 10
137.0893928990845
 20
-309.2305075728145
 30
0.0
 10
136.9496929026136
 20
-308.8784075817093
 30
0.0
 10
137.125
 20
-308.2344075979781
 30
0.0
 10
137.3388928927816
 20
-307.9937076040587
 30
0.0
 10
137.247592895088
 20
-307.576707614593
 30
0.0
 10
137.2147928959166
 20
-307.2764076221792
 30
0.0
 10
137.1703928970383
 20
-306.8779076322462
 30
0.0
 10
137.289592894027
 20
-306.397907644372
 30
0.0
 10
137.308592893547
 20
-306.0625076528449
 30
0.0
 10
137.4315928904398
 20
-305.8892076572229
 30
0.0
 10
137.493692888871
 20
-305.5210000000006
 30
0.0
 10
137.4433928901417
 20
-305.2246076740121
 30
0.0
 10
137.3900928914882
 20
-304.9277076815124
 30
0.0
 10
137.3573928923142
 20
-304.2089999999989
 30
0.0
 10
137.4354928903413
 20
-303.6875077128425
 30
0.0
 10
137.6260000000002
 20
-303.555707716172
 30
0.0
 10
137.79
 20
-303.4194077196153
 30
0.0
 10
137.7636928820502
 20
-302.9375077317891
 30
0.0
 10
137.749492882409
 20
-302.6763077383875
 30
0.0
 10
137.800792881113
 20
-301.5542077667342
 30
0.0
 10
137.9301928778441
 20
-300.7603077867898
 30
0.0
 10
138.0531928747369
 20
-300.0142078056379
 30
0.0
 10
138.5092928632148
 20
-298.2197078509707
 30
0.0
 10
138.5092928632148
 20
-298.2197078509707
 30
0.0
 10
138.5092928632148
 20
-298.2197078509707
 30
0.0
 10
138.8593928543705
 20
-298.2964078490331
 30
0.0
 10
139.3373928422952
 20
-297.7944078617147
 30
0.0
 10
139.6937928332918
 20
-297.4179999999997
 30
0.0
 10
140.3407928169472
 20
-296.4136078965967
 30
0.0
 10
140.8676928036366
 20
-295.5107079194058
 30
0.0
 10
141.1728927959266
 20
-294.9858079326659
 30
0.0
 10
141.5092927874284
 20
-294.7446079387591
 30
0.0
 10
141.7392927816181
 20
-294.6313079416213
 30
0.0
 10
141.8583927786094
 20
-294.7139079395347
 30
0.0
 10
141.9770927756108
 20
-294.7686079381529
 30
0.0
 10
142.1083927722939
 20
-294.8257079367104
 30
0.0
 10
142.128892771776
 20
-295.3159079243269
 30
0.0
 10
141.243692794138
 20
-295.8984079096117
 30
0.0
 10
141.1093927975307
 20
-297.2920000000013
 30
0.0
 10
140.131792822227
 20
-298.1963078515619
 30
0.0
 10
139.6771928337112
 20
-299.4375078202065
 30
0.0
 10
139.6430928345726
 20
-300.7549077869262
 30
0.0
 10
139.6063928354997
 20
-302.1489077517108
 30
0.0
 10
140.0702928237806
 20
-302.9385077317638
 30
0.0
 10
140.0702928237806
 20
-302.9385077317638
 30
0.0
 10
140.0702928237806
 20
-302.9385077317638
 30
0.0
 10
139.9818928260138
 20
-303.5786077155935
 30
0.0
 10
140.131792822227
 20
-304.4819076927743
 30
0.0
 10
140.2645928188722
 20
-305.2764076727035
 30
0.0
 10
140.6215928098536
 20
-305.9873076547447
 30
0.0
 10
140.6215928098536
 20
-305.9873076547447
 30
0.0
 10
140.6215928098536
 20
-305.9873076547447
 30
0.0
 10
140.6244928097803
 20
-306.8618076326529
 30
0.0
 10
140.885292803192
 20
-307.8706076071685
 30
0.0
 10
141.3764927907832
 20
-309.751507559653
 30
0.0
 10
142.5595927608956
 20
-310.9687075289039
 30
0.0
 10
143.3140000000003
 20
-310.9687075289039
 30
0.0
 10
144.0663927228306
 20
-310.9687075289039
 30
0.0
 10
145.026392698579
 20
-309.6772075615299
 30
0.0
 10
145.5917926842958
 20
-308.095707601482
 30
0.0
 10
146.130892670677
 20
-306.5815076397339
 30
0.0
 10
146.0077926737868
 20
-305.9873076547447
 30
0.0
 10
146.0077926737868
 20
-305.9873076547447
 30
0.0
 10
146.0077926737868
 20
-305.9873076547447
 30
0.0
 10
146.2987926664355
 20
-305.3091076718774
 30
0.0
 10
146.4570000000003
 20
-304.5200000000004
 30
0.0
 10
146.6435926577251
 20
-303.5786077155935
 30
0.0
 10
146.5604926598244
 20
-302.9385077317638
 30
0.0
 10
146.5604926598244
 20
-302.9385077317638
 30
0.0
 10
146.5604926598244
 20
-302.9385077317638
 30
0.0
 10
147.0214926481785
 20
-302.1489077517108
 30
0.0
 10
146.9843926491158
 20
-300.7549077869262
 30
0.0
 10
146.9481926500303
 20
-299.4375078202065
 30
0.0
 10
146.4950926614765
 20
-298.1963078515619
 30
0.0
 10
145.5155926862208
 20
-297.2920000000013
 30
0.0
 10
145.1015926966793
 20
-295.6543079157782
 30
0.0
 10
144.8183927038335
 20
-295.6157079167533
 30
0.0
 10
144.3290927161943
 20
-294.8257079367104
 30
0.0
 10
144.5020000000004
 20
-294.7812079378346
 30
0.0
 10
144.6640927077315
 20
-294.7070000000003
 30
0.0
 10
144.816392703884
 20
-294.6084079421998
 30
0.0
 10
145.0448926981117
 20
-294.71290793956
 30
0.0
 10
145.4081926889339
 20
-294.9536079334794
 30
0.0
 10
145.7323926807439
 20
-295.5107079194058
 30
0.0
 10
146.2597926674207
 20
-296.4136078965967
 30
0.0
 10
146.9062926510887
 20
-297.4179999999997
 30
0.0
 10
147.2645926420373
 20
-297.7944078617147
 30
0.0
 10
147.7392926300454
 20
-298.2964078490331
 30
0.0
 10
148.0907926211657
 20
-298.2197078509707
 30
0.0
 10
148.0907926211657
 20
-298.2197078509707
 30
0.0
 10
148.0907926211657
 20
-298.2197078509707
 30
0.0
 10
148.5468926096437
 20
-300.0142078056379
 30
0.0
 10
148.6698926065365
 20
-300.7603077867898
 30
0.0
 10
148.7997926032549
 20
-301.5542077667342
 30
0.0
 10
148.8524926019236
 20
-302.6763077383875
 30
0.0
 10
148.8358926023429
 20
-302.9375077317891
 30
0.0
 10
148.8104926029846
 20
-303.4194077196153
 30
0.0
 10
148.9726925988871
 20
-303.555707716172
 30
0.0
 10
149.1640925940519
 20
-303.6875077128425
 30
0.0
 10
149.2411925921042
 20
-304.2089999999989
 30
0.0
 10
149.2090000000007
 20
-304.9277076815124
 30
0.0
 10
149.158192594201
 20
-305.2246076740121
 30
0.0
 10
149.1054925955323
 20
-305.5210000000006
 30
0.0
 10
149.1698925939054
 20
-305.8892076572229
 30
0.0
 10
149.2919999999995
 20
-306.0625076528449
 30
0.0
 10
149.3114925903283
 20
-306.397907644372
 30
0.0
 10
149.430692587317
 20
-306.8779076322462
 30
0.0
 10
149.3856925884538
 20
-307.2764076221792
 30
0.0
 10
149.3524925892925
 20
-307.576707614593
 30
0.0
 10
149.2597925916343
 20
-307.9937076040587
 30
0.0
 10
149.4735925862333
 20
-308.2344075979781
 30
0.0
 10
149.6493925817922
 20
-308.8784075817093
 30
0.0
 10
149.5087925853441
 20
-309.2305075728145
 30
0.0
 10
149.6181925825804
 20
-309.4570000000003
 30
0.0
 10
149.7450925793746
 20
-309.726607560282
 30
0.0
 10
149.9374925745142
 20
-309.8184075579629
 30
0.0
 10
149.9374925745142
 20
-309.8184075579629
 30
0.0
 10
149.9374925745142
 20
-309.8184075579629
 30
0.0
 10
149.8524925766615
 20
-310.4404075422499
 30
0.0
 10
149.9862925732814
 20
-310.8462075319985
 30
0.0
 10
150.1200925699013
 20
-311.2515075217598
 30
0.0
 10
150.3017925653112
 20
-311.664607511324
 30
0.0
 10
150.5692925585536
 20
-311.7373075094874
 30
0.0
 10
150.6239999999998
 20
-311.7534075090807
 30
0.0
 10
150.6806925557394
 20
-311.7549075090428
 30
0.0
 10
150.7362925543348
 20
-311.75
 30
0.0
 10
150.8856925505606
 20
-311.8584075064282
 30
0.0
 10
151.3202925395817
 20
-312.1953074979174
 30
0.0
 10
151.5663925333647
 20
-312.650907486408
 30
0.0
 10
151.5663925333647
 20
-312.650907486408
 30
0.0
 10
151.7333925291459
 20
-312.3179074948202
 30
0.0
 10
151.2685925408878
 20
-311.862807506317
 30
0.0
 10
151.2685925408878
 20
-311.862807506317
 30
0.0
 10
151.6894925302549
 20
-312.1816074982635
 30
0.0
 10
151.8280925267536
 20
-312.4932074903918
 30
0.0
 10
151.8280925267536
 20
-312.4932074903918
 30
0.0
 10
152.0321925215976
 20
-312.135707499423
 30
0.0
 10
151.1278925444421
 20
-311.4463075168387
 30
0.0
 10
151.1298925443916
 20
-311.4160000000011
 30
0.0
 10
151.1288925444169
 20
-311.3833075184302
 30
0.0
 10
151.1210925446139
 20
-311.3501075192689
 30
0.0
 10
151.0614925461196
 20
-311.0898075258447
 30
0.0
 10
150.6903925554943
 20
-310.76420753407
 30
0.0
 10
150.6454925566286
 20
-310.4258075426187
 30
0.0
 10
150.5780925583313
 20
-309.930707555126
 30
0.0
 10
150.3134925650156
 20
-309.7056075608125
 30
0.0
 10
150.3134925650156
 20
-309.7056075608125
 30
0.0
 10
150.3134925650156
 20
-309.7056075608125
 30
0.0
 10
150.5155925599101
 20
-309.276407571655
 30
0.0
 10
150.4325925620069
 20
-309.0137075782914
 30
0.0
 10
150.3368925644245
 20
-308.7012075861858
 30
0.0
 10
149.972692573625
 20
-308.1431076002846
 30
0.0
 10
149.972692573625
 20
-308.1431076002846
 30
0.0
 10
149.972692573625
 20
-308.1431076002846
 30
0.0
 10
150.0263925722684
 20
-307.7949076090808
 30
0.0
 10
150.0604925714069
 20
-307.4966076166165
 30
0.0
 10
150.1132925700731
 20
-307.0469076279769
 30
0.0
 10
149.9335925746127
 20
-306.3286076461227
 30
0.0
 10
149.8212925774496
 20
-305.951707655644
 30
0.0
 10
150.1073925702221
 20
-305.4888076673378
 30
0.0
 10
150.1650000000009
 20
-305.1035076770713
 30
0.0
 10
149.9345925745874
 20
-304.3408076963387
 30
0.0
 10
149.7851925783616
 20
-303.8433077089067
 30
0.0
 10
149.7792925785106
 20
-303.5503077163085
 30
0.0
 10
149.7792925785106
 20
-303.5503077163085
 30
0.0
 10
150.128892569679
 20
-302.9858077305689
 30
0.0
 10
149.7255925798672
 20
-301.4873077684242
 30
0.0
 10
149.4970925856396
 20
-300.4507077946109
 30
0.0
 10
149.2997925906238
 20
-299.5605078170993
 30
0.0
 10
149.0888925959516
 20
-298.9019078337369
 30
0.0
 10
148.9843925985915
 20
-298.6099078411135
 30
0.0
 10
148.8358926023429
 20
-298.197807851524
 30
0.0
 10
148.6190926078198
 20
-298.0200000000004
 30
0.0
 10
148.6190926078198
 20
-298.0200000000004
 30
0.0
 10
148.6190926078198
 20
-298.0200000000004
 30
0.0
 10
148.75
 20
-297.5288078684243
 30
0.0
 10
148.5683926091006
 20
-297.1660000000011
 30
0.0
 10
148.3925926135416
 20
-296.814907886459
 30
0.0
 10
147.0624926471428
 20
-295.3354079238343
 30
0.0
 10
146.3095926661626
 20
-294.73190793908
 30
0.0
 10
145.8886926767955
 20
-294.3965079475529
 30
0.0
 10
145.5497926853568
 20
-294.1797079530297
 30
0.0
 10
145.3603926901415
 20
-294.0684079558414
 30
0.0
 10
145.5272926859252
 20
-293.8311079618361
 30
0.0
 10
145.6688926823481
 20
-293.5381079692379
 30
0.0
 10
145.7792926795591
 20
-293.1890000000003
 30
0.0
 10
145.8700926772653
 20
-292.9038079852617
 30
0.0
 10
145.9354926756132
 20
-292.5986079929717
 30
0.0
 10
145.9862926743299
 20
-292.2929999999997
 30
0.0
 10
146.2333926680876
 20
-292.5444079943409
 30
0.0
 10
146.5526926600214
 20
-292.8521079865677
 30
0.0
 10
146.829092653039
 20
-293.0771079808837
 30
0.0
 10
147.2919999999995
 20
-293.4517079714205
 30
0.0
 10
148.0722926216331
 20
-293.999507957582
 30
0.0
 10
148.8935926008853
 20
-294.1406079540175
 30
0.0
 10
149.3290925898837
 20
-294.6123079421013
 30
0.0
 10
149.3827925885271
 20
-296.6191078914053
 30
0.0
 10
149.5185925850965
 20
-297.2114078764425
 30
0.0
 10
149.6571925815952
 20
-297.8022078615177
 30
0.0
 10
150.1903925681254
 20
-297.8569078601358
 30
0.0
 10
150.1903925681254
 20
-297.8569078601358
 30
0.0
 10
150.1903925681254
 20
-297.8569078601358
 30
0.0
 10
150.7206925547289
 20
-298.5664078422124
 30
0.0
 10
151.0780925457002
 20
-298.9419078327264
 30
0.0
 10
151.4647925359313
 20
-299.3525078223538
 30
0.0
 10
151.9179999999997
 20
-299.3442078225635
 30
0.0
 10
151.9179999999997
 20
-299.3442078225635
 30
0.0
 10
151.9179999999997
 20
-299.3442078225635
 30
0.0
 10
152.057592520956
 20
-299.668507814371
 30
0.0
 10
152.4130925119753
 20
-300.0005078059839
 30
0.0
 10
152.6942925048716
 20
-300.2607077994107
 30
0.0
 10
152.9911924973712
 20
-300.2231078003606
 30
0.0
 10
152.9911924973712
 20
-300.2231078003606
 30
0.0
 10
152.9911924973712
 20
-300.2231078003606
 30
0.0
 10
153.190392492339
 20
-300.7354077874188
 30
0.0
 10
153.6991924794856
 20
-301.1055077780693
 30
0.0
 10
154.0634924702827
 20
-301.3701077713849
 30
0.0
 10
154.3642924626838
 20
-301.3389077721731
 30
0.0
 10
154.3642924626838
 20
-301.3389077721731
 30
0.0
 10
154.3642924626838
 20
-301.3389077721731
 30
0.0
 10
154.5741924573813
 20
-301.812507760209
 30
0.0
 10
154.8515924503736
 20
-302.1226077523752
 30
0.0
 10
154.9940924467737
 20
-302.281707748356
 30
0.0
 10
155.1923924417642
 20
-302.2842077482928
 30
0.0
 10
155.3446924379168
 20
-302.2187077499475
 30
0.0
 10
155.4716924347085
 20
-302.2456077492679
 30
0.0
 10
155.9472924226939
 20
-302.363807746282
 30
0.0
 10
156.3007924137637
 20
-302.647907739105
 30
0.0
 10
156.3007924137637
 20
-302.647907739105
 30
0.0
 10
156.3212924132458
 20
-302.3398077468883
 30
0.0
 10
155.8173924259754
 20
-302.1401077519331
 30
0.0
 10
155.8173924259754
 20
-302.1401077519331
 30
0.0
 10
156.2421924152441
 20
-302.2505077491442
 30
0.0
 10
156.4501924099895
 20
-302.4443077442484
 30
0.0
 10
156.4501924099895
 20
-302.4443077442484
 30
0.0
 10
156.4921924089285
 20
-302.1001077529436
 30
0.0
 10
155.5624924324147
 20
-301.8618077589636
 30
0.0
 10
155.4306924357443
 20
-301.5947077657111
 30
0.0
 10
154.4989999999998
 20
-301.0371077797972
 30
0.0
 10
154.4989999999998
 20
-301.0371077797972
 30
0.0
 10
154.4989999999998
 20
-301.0371077797972
 30
0.0
 10
154.6815924546681
 20
-300.7495077870626
 30
0.0
 10
154.2177924663847
 20
-300.5454077922186
 30
0.0
 10
153.8261924762774
 20
-300.3721077965965
 30
0.0
 10
153.1815924925613
 20
-299.9492078072799
 30
0.0
 10
153.1815924925613
 20
-299.9492078072799
 30
0.0
 10
153.1815924925613
 20
-299.9492078072799
 30
0.0
 10
153.2812924900427
 20
-299.5869078164324
 30
0.0
 10
153.034192496285
 20
-299.4409078201206
 30
0.0
 10
152.7890925024767
 20
-299.2954078237963
 30
0.0
 10
152.1542925185131
 20
-299.0449078301244
 30
0.0
 10
152.1542925185131
 20
-299.0449078301244
 30
0.0
 10
152.1542925185131
 20
-299.0449078301244
 30
0.0
 10
152.2489999999998
 20
-298.8076078361191
 30
0.0
 10
152.1640925182655
 20
-298.6304078405956
 30
0.0
 10
152.0487925211783
 20
-298.3906078466534
 30
0.0
 10
151.2343925417517
 20
-298.0391078555331
 30
0.0
 10
150.6542925564063
 20
-297.70750786391
 30
0.0
 10
150.8222925521623
 20
-297.4961078692504
 30
0.0
 10
150.861292551177
 20
-296.9326078834856
 30
0.0
 10
150.5390925593165
 20
-296.0757079051327
 30
0.0
 10
150.2802925658543
 20
-295.376507922796
 30
0.0
 10
150.0321925721219
 20
-294.535207944049
 30
0.0
 10
149.1972925932132
 20
-293.6558079662645
 30
0.0
 10
149.2479999999996
 20
-293.2251079771449
 30
0.0
 10
149.0888925959516
 20
-293.047407981634
 30
0.0
 10
148.4062926131955
 20
-292.7900000000009
 30
0.0
 10
147.891592626198
 20
-292.5957079930449
 30
0.0
 10
147.0810926466729
 20
-291.9731080087731
 30
0.0
 10
146.7685926545673
 20
-291.6177080177513
 30
0.0
 10
146.5976926588846
 20
-291.4233080226622
 30
0.0
 10
146.3251926657686
 20
-291.321308025239
 30
0.0
 10
146.1112926711721
 20
-291.2666080266208
 30
0.0
 10
146.1581926699873
 20
-290.6880000000001
 30
0.0
 10
146.1767926695175
 20
-290.2119080532648
 30
0.0
 10
146.2304926681609
 20
-290.0264080579509
 30
0.0
 10
146.3202926658923
 20
-289.730508065426
 30
0.0
 10
146.6181926583668
 20
-289.570308069473
 30
0.0
 10
146.8515926524706
 20
-288.3970000000008
 30
0.0
 10
147.0653926470695
 20
-288.4565080976099
 30
0.0
 10
147.2958926412466
 20
-288.5503080952403
 30
0.0
 10
147.5419999999995
 20
-288.7114080911706
 30
0.0
 10
148.6132926079663
 20
-289.4111080734947
 30
0.0
 10
147.8270926278274
 20
-290.5713080441856
 30
0.0
 10
151.063492546069
 20
-292.7261079897507
 30
0.0
 10
153.5409999999993
 20
-294.3765079480581
 30
0.0
 10
155.6952924290599
 20
-294.7549079384989
 30
0.0
 10
157.9354923724677
 20
-294.9204079343181
 30
0.0
 10
160.2450923141223
 20
-295.0928079299629
 30
0.0
 10
160.8026923000361
 20
-294.6665079407321
 30
0.0
 10
161.4540922835804
 20
-294.569807943175
 30
0.0
 10
162.3729999999996
 20
-294.4331079466283
 30
0.0
 10
163.5585922304163
 20
-294.1679999999997
 30
0.0
 10
164.2177922137635
 20
-293.3159079748511
 30
0.0
 10
164.7216922010339
 20
-292.6611079913928
 30
0.0
 10
164.545892205475
 20
-291.883808011029
 30
0.0
 10
164.545892205475
 20
-291.883808011029
 30
0.0
 10
164.545892205475
 20
-291.883808011029
 30
0.0
 10
165.5976921789043
 20
-292.3115080002244
 30
0.0
 10
166.8427921474504
 20
-291.7896080134087
 30
0.0
 10
168.5087921053637
 20
-291.0913080310493
 30
0.0
 10
168.9657920938189
 20
-290.115708055695
 30
0.0
 10
169.7157920748723
 20
-289.707508066007
 30
0.0
 10
170.9872920427515
 20
-289.0181080834227
 30
0.0
 10
172.2460920109515
 20
-287.6616081176908
 30
0.0
 10
172.4911920047598
 20
-286.3672081503901
 30
0.0
 10
172.6650000000009
 20
-285.4414081737777
 30
0.0
 10
171.7187920242723
 20
-284.6821081929593
 30
0.0
 10
170.9452920438125
 20
-284.3516082013084
 30
0.0
  0
HATCH
  5
42
330
1F
100
AcDbEntity
  8
Layer 1
 62
     7
420
 16777215
100
AcDbHatch
 10
0.0
 20
0.0
 30
0.0
210
0.0
220
0.0
230
1.0
  2
SOLID
 70
     1
 71
     0
 91
        1
 92
        1
 93
        1
 72
     4
 94
        3
 73
     0
 74
     1
 95
      965
 96
      961
 40
0.0
 40
0.0
 40
0.0
 40
0.0
 40
1.0
 40
1.0
 40
1.0
 40
2.0
 40
2.0
 40
2.0
 40
3.0
 40
3.0
 40
3.0
 40
4.0
 40
4.0
 40
4.0
 40
5.0
 40
5.0
 40
5.0
 40
6.0
 40
6.0
 40
6.0
 40
7.0
 40
7.0
 40
7.0
 40
8.0
 40
8.0
 40
8.0
 40
9.0
 40
9.0
 40
9.0
 40
10.0
 40
10.0
 40
10.0
 40
11.0
 40
11.0
 40
11.0
 40
12.0
 40
12.0
 40
12.0
 40
13.0
 40
13.0
 40
13.0
 40
14.0
 40
14.0
 40
14.0
 40
15.0
 40
15.0
 40
15.0
 40
16.0
 40
16.0
 40
16.0
 40
17.0
 40
17.0
 40
17.0
 40
18.0
 40
18.0
 40
18.0
 40
19.0
 40
19.0
 40
19.0
 40
20.0
 40
20.0
 40
20.0
 40
21.0
 40
21.0
 40
21.0
 40
22.0
 40
22.0
 40
22.0
 40
23.0
 40
23.0
 40
23.0
 40
24.0
 40
24.0
 40
24.0
 40
25.0
 40
25.0
 40
25.0
 40
26.0
 40
26.0
 40
26.0
 40
27.0
 40
27.0
 40
27.0
 40
28.0
 40
28.0
 40
28.0
 40
29.0
 40
29.0
 40
29.0
 40
30.0
 40
30.0
 40
30.0
 40
31.0
 40
31.0
 40
31.0
 40
32.0
 40
32.0
 40
32.0
 40
33.0
 40
33.0
 40
33.0
 40
34.0
 40
34.0
 40
34.0
 40
35.0
 40
35.0
 40
35.0
 40
36.0
 40
36.0
 40
36.0
 40
37.0
 40
37.0
 40
37.0
 40
38.0
 40
38.0
 40
38.0
 40
39.0
 40
39.0
 40
39.0
 40
40.0
 40
40.0
 40
40.0
 40
41.0
 40
41.0
 40
41.0
 40
42.0
 40
42.0
 40
42.0
 40
43.0
 40
43.0
 40
43.0
 40
44.0
 40
44.0
 40
44.0
 40
45.0
 40
45.0
 40
45.0
 40
46.0
 40
46.0
 40
46.0
 40
47.0
 40
47.0
 40
47.0
 40
48.0
 40
48.0
 40
48.0
 40
49.0
 40
49.0
 40
49.0
 40
50.0
 40
50.0
 40
50.0
 40
51.0
 40
51.0
 40
51.0
 40
52.0
 40
52.0
 40
52.0
 40
53.0
 40
53.0
 40
53.0
 40
54.0
 40
54.0
 40
54.0
 40
55.0
 40
55.0
 40
55.0
 40
56.0
 40
56.0
 40
56.0
 40
57.0
 40
57.0
 40
57.0
 40
58.0
 40
58.0
 40
58.0
 40
59.0
 40
59.0
 40
59.0
 40
60.0
 40
60.0
 40
60.0
 40
61.0
 40
61.0
 40
61.0
 40
62.0
 40
62.0
 40
62.0
 40
63.0
 40
63.0
 40
63.0
 40
64.0
 40
64.0
 40
64.0
 40
65.0
 40
65.0
 40
65.0
 40
66.0
 40
66.0
 40
66.0
 40
67.0
 40
67.0
 40
67.0
 40
68.0
 40
68.0
 40
68.0
 40
69.0
 40
69.0
 40
69.0
 40
70.0
 40
70.0
 40
70.0
 40
71.0
 40
71.0
 40
71.0
 40
72.0
 40
72.0
 40
72.0
 40
73.0
 40
73.0
 40
73.0
 40
74.0
 40
74.0
 40
74.0
 40
75.0
 40
75.0
 40
75.0
 40
76.0
 40
76.0
 40
76.0
 40
77.0
 40
77.0
 40
77.0
 40
78.0
 40
78.0
 40
78.0
 40
79.0
 40
79.0
 40
79.0
 40
80.0
 40
80.0
 40
80.0
 40
81.0
 40
81.0
 40
81.0
 40
82.0
 40
82.0
 40
82.0
 40
83.0
 40
83.0
 40
83.0
 40
84.0
 40
84.0
 40
84.0
 40
85.0
 40
85.0
 40
85.0
 40
86.0
 40
86.0
 40
86.0
 40
87.0
 40
87.0
 40
87.0
 40
88.0
 40
88.0
 40
88.0
 40
89.0
 40
89.0
 40
89.0
 40
90.0
 40
90.0
 40
90.0
 40
91.0
 40
91.0
 40
91.0
 40
92.0
 40
92.0
 40
92.0
 40
93.0
 40
93.0
 40
93.0
 40
94.0
 40
94.0
 40
94.0
 40
95.0
 40
95.0
 40
95.0
 40
96.0
 40
96.0
 40
96.0
 40
97.0
 40
97.0
 40
97.0
 40
98.0
 40
98.0
 40
98.0
 40
99.0
 40
99.0
 40
99.0
 40
100.0
 40
100.0
 40
100.0
 40
101.0
 40
101.0
 40
101.0
 40
102.0
 40
102.0
 40
102.0
 40
103.0
 40
103.0
 40
103.0
 40
104.0
 40
104.0
 40
104.0
 40
105.0
 40
105.0
 40
105.0
 40
106.0
 40
106.0
 40
106.0
 40
107.0
 40
107.0
 40
107.0
 40
108.0
 40
108.0
 40
108.0
 40
109.0
 40
109.0
 40
109.0
 40
110.0
 40
110.0
 40
110.0
 40
111.0
 40
111.0
 40
111.0
 40
112.0
 40
112.0
 40
112.0
 40
113.0
 40
113.0
 40
113.0
 40
114.0
 40
114.0
 40
114.0
 40
115.0
 40
115.0
 40
115.0
 40
116.0
 40
116.0
 40
116.0
 40
117.0
 40
117.0
 40
117.0
 40
118.0
 40
118.0
 40
118.0
 40
119.0
 40
119.0
 40
119.0
 40
120.0
 40
120.0
 40
120.0
 40
121.0
 40
121.0
 40
121.0
 40
122.0
 40
122.0
 40
122.0
 40
123.0
 40
123.0
 40
123.0
 40
124.0
 40
124.0
 40
124.0
 40
125.0
 40
125.0
 40
125.0
 40
126.0
 40
126.0
 40
126.0
 40
127.0
 40
127.0
 40
127.0
 40
128.0
 40
128.0
 40
128.0
 40
129.0
 40
129.0
 40
129.0
 40
130.0
 40
130.0
 40
130.0
 40
131.0
 40
131.0
 40
131.0
 40
132.0
 40
132.0
 40
132.0
 40
133.0
 40
133.0
 40
133.0
 40
134.0
 40
134.0
 40
134.0
 40
135.0
 40
135.0
 40
135.0
 40
136.0
 40
136.0
 40
136.0
 40
137.0
 40
137.0
 40
137.0
 40
138.0
 40
138.0
 40
138.0
 40
139.0
 40
139.0
 40
139.0
 40
140.0
 40
140.0
 40
140.0
 40
141.0
 40
141.0
 40
141.0
 40
142.0
 40
142.0
 40
142.0
 40
143.0
 40
143.0
 40
143.0
 40
144.0
 40
144.0
 40
144.0
 40
145.0
 40
145.0
 40
145.0
 40
146.0
 40
146.0
 40
146.0
 40
147.0
 40
147.0
 40
147.0
 40
148.0
 40
148.0
 40
148.0
 40
149.0
 40
149.0
 40
149.0
 40
150.0
 40
150.0
 40
150.0
 40
151.0
 40
151.0
 40
151.0
 40
152.0
 40
152.0
 40
152.0
 40
153.0
 40
153.0
 40
153.0
 40
154.0
 40
154.0
 40
154.0
 40
155.0
 40
155.0
 40
155.0
 40
156.0
 40
156.0
 40
156.0
 40
157.0
 40
157.0
 40
157.0
 40
158.0
 40
158.0
 40
158.0
 40
159.0
 40
159.0
 40
159.0
 40
160.0
 40
160.0
 40
160.0
 40
161.0
 40
161.0
 40
161.0
 40
162.0
 40
162.0
 40
162.0
 40
163.0
 40
163.0
 40
163.0
 40
164.0
 40
164.0
 40
164.0
 40
165.0
 40
165.0
 40
165.0
 40
166.0
 40
166.0
 40
166.0
 40
167.0
 40
167.0
 40
167.0
 40
168.0
 40
168.0
 40
168.0
 40
169.0
 40
169.0
 40
169.0
 40
170.0
 40
170.0
 40
170.0
 40
171.0
 40
171.0
 40
171.0
 40
172.0
 40
172.0
 40
172.0
 40
173.0
 40
173.0
 40
173.0
 40
174.0
 40
174.0
 40
174.0
 40
175.0
 40
175.0
 40
175.0
 40
176.0
 40
176.0
 40
176.0
 40
177.0
 40
177.0
 40
177.0
 40
178.0
 40
178.0
 40
178.0
 40
179.0
 40
179.0
 40
179.0
 40
180.0
 40
180.0
 40
180.0
 40
181.0
 40
181.0
 40
181.0
 40
182.0
 40
182.0
 40
182.0
 40
183.0
 40
183.0
 40
183.0
 40
184.0
 40
184.0
 40
184.0
 40
185.0
 40
185.0
 40
185.0
 40
186.0
 40
186.0
 40
186.0
 40
187.0
 40
187.0
 40
187.0
 40
188.0
 40
188.0
 40
188.0
 40
189.0
 40
189.0
 40
189.0
 40
190.0
 40
190.0
 40
190.0
 40
191.0
 40
191.0
 40
191.0
 40
192.0
 40
192.0
 40
192.0
 40
193.0
 40
193.0
 40
193.0
 40
194.0
 40
194.0
 40
194.0
 40
195.0
 40
195.0
 40
195.0
 40
196.0
 40
196.0
 40
196.0
 40
197.0
 40
197.0
 40
197.0
 40
198.0
 40
198.0
 40
198.0
 40
199.0
 40
199.0
 40
199.0
 40
200.0
 40
200.0
 40
200.0
 40
201.0
 40
201.0
 40
201.0
 40
202.0
 40
202.0
 40
202.0
 40
203.0
 40
203.0
 40
203.0
 40
204.0
 40
204.0
 40
204.0
 40
205.0
 40
205.0
 40
205.0
 40
206.0
 40
206.0
 40
206.0
 40
207.0
 40
207.0
 40
207.0
 40
208.0
 40
208.0
 40
208.0
 40
209.0
 40
209.0
 40
209.0
 40
210.0
 40
210.0
 40
210.0
 40
211.0
 40
211.0
 40
211.0
 40
212.0
 40
212.0
 40
212.0
 40
213.0
 40
213.0
 40
213.0
 40
214.0
 40
214.0
 40
214.0
 40
215.0
 40
215.0
 40
215.0
 40
216.0
 40
216.0
 40
216.0
 40
217.0
 40
217.0
 40
217.0
 40
218.0
 40
218.0
 40
218.0
 40
219.0
 40
219.0
 40
219.0
 40
220.0
 40
220.0
 40
220.0
 40
221.0
 40
221.0
 40
221.0
 40
222.0
 40
222.0
 40
222.0
 40
223.0
 40
223.0
 40
223.0
 40
224.0
 40
224.0
 40
224.0
 40
225.0
 40
225.0
 40
225.0
 40
226.0
 40
226.0
 40
226.0
 40
227.0
 40
227.0
 40
227.0
 40
228.0
 40
228.0
 40
228.0
 40
229.0
 40
229.0
 40
229.0
 40
230.0
 40
230.0
 40
230.0
 40
231.0
 40
231.0
 40
231.0
 40
232.0
 40
232.0
 40
232.0
 40
233.0
 40
233.0
 40
233.0
 40
234.0
 40
234.0
 40
234.0
 40
235.0
 40
235.0
 40
235.0
 40
236.0
 40
236.0
 40
236.0
 40
237.0
 40
237.0
 40
237.0
 40
238.0
 40
238.0
 40
238.0
 40
239.0
 40
239.0
 40
239.0
 40
240.0
 40
240.0
 40
240.0
 40
241.0
 40
241.0
 40
241.0
 40
242.0
 40
242.0
 40
242.0
 40
243.0
 40
243.0
 40
243.0
 40
244.0
 40
244.0
 40
244.0
 40
245.0
 40
245.0
 40
245.0
 40
246.0
 40
246.0
 40
246.0
 40
247.0
 40
247.0
 40
247.0
 40
248.0
 40
248.0
 40
248.0
 40
249.0
 40
249.0
 40
249.0
 40
250.0
 40
250.0
 40
250.0
 40
251.0
 40
251.0
 40
251.0
 40
252.0
 40
252.0
 40
252.0
 40
253.0
 40
253.0
 40
253.0
 40
254.0
 40
254.0
 40
254.0
 40
255.0
 40
255.0
 40
255.0
 40
256.0
 40
256.0
 40
256.0
 40
257.0
 40
257.0
 40
257.0
 40
258.0
 40
258.0
 40
258.0
 40
259.0
 40
259.0
 40
259.0
 40
260.0
 40
260.0
 40
260.0
 40
261.0
 40
261.0
 40
261.0
 40
262.0
 40
262.0
 40
262.0
 40
263.0
 40
263.0
 40
263.0
 40
264.0
 40
264.0
 40
264.0
 40
265.0
 40
265.0
 40
265.0
 40
266.0
 40
266.0
 40
266.0
 40
267.0
 40
267.0
 40
267.0
 40
268.0
 40
268.0
 40
268.0
 40
269.0
 40
269.0
 40
269.0
 40
270.0
 40
270.0
 40
270.0
 40
271.0
 40
271.0
 40
271.0
 40
272.0
 40
272.0
 40
272.0
 40
273.0
 40
273.0
 40
273.0
 40
274.0
 40
274.0
 40
274.0
 40
275.0
 40
275.0
 40
275.0
 40
276.0
 40
276.0
 40
276.0
 40
277.0
 40
277.0
 40
277.0
 40
278.0
 40
278.0
 40
278.0
 40
279.0
 40
279.0
 40
279.0
 40
280.0
 40
280.0
 40
280.0
 40
281.0
 40
281.0
 40
281.0
 40
282.0
 40
282.0
 40
282.0
 40
283.0
 40
283.0
 40
283.0
 40
284.0
 40
284.0
 40
284.0
 40
285.0
 40
285.0
 40
285.0
 40
286.0
 40
286.0
 40
286.0
 40
287.0
 40
287.0
 40
287.0
 40
288.0
 40
288.0
 40
288.0
 40
289.0
 40
289.0
 40
289.0
 40
290.0
 40
290.0
 40
290.0
 40
291.0
 40
291.0
 40
291.0
 40
292.0
 40
292.0
 40
292.0
 40
293.0
 40
293.0
 40
293.0
 40
294.0
 40
294.0
 40
294.0
 40
295.0
 40
295.0
 40
295.0
 40
296.0
 40
296.0
 40
296.0
 40
297.0
 40
297.0
 40
297.0
 40
298.0
 40
298.0
 40
298.0
 40
299.0
 40
299.0
 40
299.0
 40
300.0
 40
300.0
 40
300.0
 40
301.0
 40
301.0
 40
301.0
 40
302.0
 40
302.0
 40
302.0
 40
303.0
 40
303.0
 40
303.0
 40
304.0
 40
304.0
 40
304.0
 40
305.0
 40
305.0
 40
305.0
 40
306.0
 40
306.0
 40
306.0
 40
307.0
 40
307.0
 40
307.0
 40
308.0
 40
308.0
 40
308.0
 40
309.0
 40
309.0
 40
309.0
 40
310.0
 40
310.0
 40
310.0
 40
311.0
 40
311.0
 40
311.0
 40
312.0
 40
312.0
 40
312.0
 40
313.0
 40
313.0
 40
313.0
 40
314.0
 40
314.0
 40
314.0
 40
315.0
 40
315.0
 40
315.0
 40
316.0
 40
316.0
 40
316.0
 40
317.0
 40
317.0
 40
317.0
 40
318.0
 40
318.0
 40
318.0
 40
319.0
 40
319.0
 40
319.0
 40
320.0
 40
320.0
 40
320.0
 40
320.0
 10
170.9452920438125
 20
-284.3516082013084
 10
170.3222920595508
 20
-284.0829999999987
 10
168.746092099369
 20
-283.4976082228823
 10
166.9706921442194
 20
-283.323208227288
 10
165.6776921768833
 20
-283.1948082305316
 10
163.9550922203998
 20
-283.1709082311354
 10
162.6503922533593
 20
-283.296408227965
 10
161.1591922910302
 20
-283.4409082243146
 10
156.8515923998493
 20
-284.213908204787
 10
154.6679999999997
 20
-284.5928081952152
 10
151.4091925373359
 20
-285.1577081809446
 10
149.9208925749335
 20
-285.5459081711379
 10
148.8505926019716
 20
-285.5518081709888
 10
148.1229999999996
 20
-285.5552081709029
 10
147.2284926429493
 20
-285.5552081709029
 10
146.9423926501768
 20
-285.5537081709408
 10
146.9276926505481
 20
-285.4849081726788
 10
146.9120926509422
 20
-285.415508174432
 10
146.8944926513868
 20
-285.3501081760842
 10
147.4608926370784
 20
-285.038108183966
 10
147.7958926286155
 20
-284.6049999999996
 10
147.6190926330819
 20
-284.0991082076871
 10
148.0302926226941
 20
-283.5278082221193
 10
148.9442925996045
 20
-282.4751082487128
 10
149.3261925899569
 20
-281.7388082673133
 10
149.6395925820398
 20
-281.1309082826701
 10
149.5917925832473
 20
-280.8306082902564
 10
149.5917925832473
 20
-280.8306082902564
 10
149.5917925832473
 20
-280.8306082902564
 10
150.7128925549259
 20
-280.9067082883339
 10
151.3456925389401
 20
-280.9746082866186
 10
151.8310925266778
 20
-281.0269082852974
 10
152.2353925164643
 20
-280.5483082973878
 10
152.2353925164643
 20
-280.5483082973878
 10
152.2353925164643
 20
-280.5483082973878
 10
152.5702925080041
 20
-280.6704082943033
 10
152.8007925021811
 20
-280.6558082946722
 10
152.9892924974192
 20
-280.6459999999997
 10
153.2255924914498
 20
-280.4463082999646
 10
153.2255924914498
 20
-280.4463082999646
 10
153.2255924914498
 20
-280.4463082999646
 10
153.8036924768458
 20
-280.618208295622
 10
154.0292924711466
 20
-280.3535083023089
 10
154.2421924657683
 20
-280.3633083020613
 10
154.581092457207
 20
-280.4038083010382
 10
154.8770000000004
 20
-280.5435082975091
 10
154.8770000000004
 20
-280.5435082975091
 10
154.8261924510152
 20
-280.2383083052191
 10
154.2890924645835
 20
-280.1626083071314
 10
154.2890924645835
 20
-280.1626083071314
 10
154.7284924534833
 20
-280.1704083069344
 10
154.9765924472158
 20
-280.3101083034053
 10
154.9765924472158
 20
-280.3101083034053
 10
154.9345924482768
 20
-279.9902083114866
 10
154.0653924702347
 20
-279.9570000000003
 10
154.0302924711214
 20
-279.9185083132979
 10
153.9872924722076
 20
-279.8931083139396
 10
153.9296924736627
 20
-279.9004083137552
 10
153.7558924780533
 20
-279.9185083132979
 10
153.3983924870845
 20
-280.0103083109789
 10
153.1513924933242
 20
-280.0449083101048
 10
152.906292499516
 20
-280.0791083092408
 10
152.6513925059553
 20
-279.9004083137552
 10
152.2080000000005
 20
-280.211908305886
 10
151.8202925269507
 20
-280.141608307662
 10
151.1874925429365
 20
-280.3549999999996
 10
150.6747925558884
 20
-280.2832083040848
 10
150.1650000000009
 20
-280.2109083059113
 10
149.4032925880092
 20
-280.2612083046406
 10
149.3427925895376
 20
-280.5527082972767
 10
148.8036926031564
 20
-280.5703082968321
 10
148.6093926080648
 20
-280.7354082926613
 10
148.4423926122836
 20
-281.0298082852241
 10
148.0985926209687
 20
-281.6382082698547
 10
147.3173926407035
 20
-283.1670000000013
 10
147.1210926456624
 20
-283.7422082167031
 10
146.8261926531122
 20
-283.8867082130528
 10
146.5614926597991
 20
-284.0425082091169
 10
146.3476926652002
 20
-284.1792082056636
 10
145.9130926761791
 20
-283.5815082207628
 10
145.3983926891815
 20
-283.3062082277174
 10
145.1757926948048
 20
-283.2510000000002
 10
144.7245927062031
 20
-283.1382082319615
 10
144.5565927104471
 20
-282.9868082357862
 10
144.5565927104471
 20
-282.9868082357862
 10
144.5565927104471
 20
-282.9868082357862
 10
144.5
 20
-282.7988082405354
 10
144.6298927085954
 20
-282.8179082400529
 10
144.9853926996147
 20
-282.8682082387822
 10
145.3573926902172
 20
-282.785208240879
 10
145.6737926822243
 20
-282.516108247677
 10
146.2694926671757
 20
-282.0078082605178
 10
146.1435926703562
 20
-281.2178082804749
 10
146.1435926703562
 20
-281.2178082804749
 10
146.1435926703562
 20
-281.2178082804749
 10
146.6884926565908
 20
-281.0420000000013
 10
146.4335926630301
 20
-280.1636083071062
 10
146.1962926690248
 20
-279.3545083275458
 10
145.5282926858999
 20
-279.4111083261159
 10
145.274392692314
 20
-279.5239083232664
 10
145.1220926961614
 20
-279.3647083272881
 10
144.8515927029948
 20
-279.2319083306429
 10
144.5312927110863
 20
-279.1357083330731
 10
144.6796927073374
 20
-278.9961083365997
 10
144.9315927009739
 20
-278.7334083432361
 10
145.0077926990489
 20
-278.4644083500316
 10
145.1151926963357
 20
-278.0801083597398
 10
144.9354927008753
 20
-277.9219083637363
 10
144.9354927008753
 20
-277.9219083637363
 10
144.9354927008753
 20
-277.9219083637363
 10
145.5741926847404
 20
-277.2700000000004
 10
145.6737926822243
 20
-277.0625083854466
 10
145.7548926801755
 20
-276.8887083898371
 10
145.7040926814589
 20
-276.6469999999999
 10
145.7040926814589
 20
-276.6469999999999
 10
145.7040926814589
 20
-276.6469999999999
 10
146.2880926667058
 20
-276.1509084084755
 10
146.4452926627346
 20
-275.8809084152963
 10
146.6210926582935
 20
-275.5811084228699
 10
146.506792661181
 20
-275.4229084268663
 10
146.506792661181
 20
-275.4229084268663
 10
146.506792661181
 20
-275.4229084268663
 10
146.865192652127
 20
-275.2485084312721
 10
147.0087926484994
 20
-275.0298084367969
 10
147.125
 20
-274.8501084413365
 10
147.0683926469937
 20
-274.6304084468866
 10
147.0683926469937
 20
-274.6304084468866
 10
147.0683926469937
 20
-274.6304084468866
 10
147.5761926341656
 20
-274.1963084578529
 10
147.763692629429
 20
-273.9321084645271
 10
147.9150000000009
 20
-273.7197084698928
 10
147.8378926275545
 20
-273.5083084752332
 10
147.8378926275545
 20
-273.5083084752332
 10
147.8378926275545
 20
-273.5083084752332
 10
148.3075926156889
 20
-273.1675084838425
 10
148.4667926116672
 20
-272.9722084887762
 10
148.6483926070796
 20
-272.7495084944021
 10
148.6063926081406
 20
-272.5654084990529
 10
148.6063926081406
 20
-272.5654084990529
 10
148.6063926081406
 20
-272.5654084990529
 10
148.9374925997763
 20
-272.2939085059115
 10
149.0429999999997
 20
-272.1558085094002
 10
149.1229999999996
 20
-272.0493085120906
 10
149.0858925960274
 20
-271.8818085163221
 10
149.0858925960274
 20
-271.8818085163221
 10
149.0858925960274
 20
-271.8818085163221
 10
149.5185925850965
 20
-271.6929085210941
 10
149.6962925806074
 20
-271.5718085241533
 10
149.8729999999996
 20
-271.4512085271999
 10
149.8583925765124
 20
-271.2969085310979
 10
149.8583925765124
 20
-271.2969085310979
 10
149.8583925765124
 20
-271.2969085310979
 10
150.3798925633382
 20
-271.0757085366859
 10
150.6708925559869
 20
-270.8774085416953
 10
150.8476925515206
 20
-270.7554085447773
 10
150.8515925514221
 20
-270.596208548799
 10
150.8515925514221
 20
-270.596208548799
 10
150.8515925514221
 20
-270.596208548799
 10
151.3925925377553
 20
-270.4624085521791
 10
151.7860925278146
 20
-270.5317085504284
 10
152.1679999999997
 20
-270.5986085487384
 10
152.5058925096309
 20
-270.9995085386108
 10
152.6913925049448
 20
-271.1348085351929
 10
152.9784924976921
 20
-271.342308529951
 10
153.1933924922632
 20
-270.9809999999998
 10
152.9413924986293
 20
-270.5903085489481
 10
152.6395925062534
 20
-270.1167085609122
 10
152.2274925166639
 20
-270.0205085633424
 10
151.7929999999997
 20
-270.0303085630949
 10
151.2567925411859
 20
-270.0444085627387
 10
150.7304925544813
 20
-270.2993085562994
 10
150.7304925544813
 20
-270.2993085562994
 10
150.7304925544813
 20
-270.2993085562994
 10
150.4306925620549
 20
-270.1831085592348
 10
150.2362925669659
 20
-270.3096085560392
 10
150.1083925701969
 20
-270.3936085539171
 10
149.5331925847277
 20
-270.8711085418545
 10
149.5331925847277
 20
-270.8711085418545
 10
149.5331925847277
 20
-270.8711085418545
 10
149.3915925883048
 20
-270.8608085421147
 10
149.25
 20
-270.9697085393636
 10
149.1288925949411
 20
-271.0619999999999
 10
148.7724926039446
 20
-271.4927085261515
 10
148.7724926039446
 20
-271.4927085261515
 10
148.7724926039446
 20
-271.4927085261515
 10
148.5888926085827
 20
-271.4771085265456
 10
148.4647926117177
 20
-271.6987085209475
 10
148.3935926135164
 20
-271.8271085177039
 10
148.215792618008
 20
-272.301808505712
 10
148.215792618008
 20
-272.301808505712
 10
148.215792618008
 20
-272.301808505712
 10
147.9706926241997
 20
-272.3467085045777
 10
147.8720926266906
 20
-272.4609085016928
 10
147.7226926304647
 20
-272.6323084973628
 10
147.6044926334507
 20
-273.0117084877784
 10
147.3856926389781
 20
-273.2461084818569
 10
147.3856926389781
 20
-273.2461084818569
 10
147.0741926468472
 20
-273.3408084794646
 10
146.9843926491158
 20
-273.5244084748265
 10
146.8925926514348
 20
-273.7148084700166
 10
146.6913926565176
 20
-274.342808454152
 10
146.6913926565176
 20
-274.342808454152
 10
146.6913926565176
 20
-274.342808454152
 10
146.4530926625375
 20
-274.4048084525857
 10
146.3407926653745
 20
-274.5425084491071
 10
146.2294926681861
 20
-274.6802084456285
 10
146.1044926713439
 20
-275.0635084359456
 10
146.1044926713439
 20
-275.0635084359456
 10
146.1044926713439
 20
-275.0635084359456
 10
146.1220926708993
 20
-275.2246084318758
 10
145.9520926751939
 20
-275.517608424474
 10
145.7821926794859
 20
-275.8096084170975
 10
145.2353926932992
 20
-276.4307084014072
 10
145.2353926932992
 20
-276.4307084014072
 10
145.2353926932992
 20
-276.4307084014072
 10
144.9804926997385
 20
-276.5601083981383
 10
144.9120927014665
 20
-276.6782083951548
 10
144.7128927064987
 20
-277.0234083864343
 10
144.5468927106922
 20
-277.7573083678944
 10
144.5468927106922
 20
-277.7573083678944
 10
144.5468927106922
 20
-277.7573083678944
 10
144.28809271723
 20
-277.8301083660554
 10
144.2255927188089
 20
-278.0229083611848
 10
144.1503927207086
 20
-278.2466083555337
 10
144.1991927194758
 20
-278.5146083487634
 10
143.9706927252482
 20
-278.773908342213
 10
143.9140927266781
 20
-278.8379083405962
 10
143.8178927291083
 20
-278.9224083384615
 10
143.742692731008
 20
-278.9829083369332
 10
143.6005927345977
 20
-278.968308337302
 10
143.4560927382481
 20
-278.9585083375496
 10
143.3140000000003
 20
-278.9585083375496
 10
143.1850927450942
 20
-278.9585083375496
 10
143.0561927483504
 20
-278.9668083373399
 10
142.9271927516093
 20
-278.9785083370443
 10
142.9242927516825
 20
-278.9438083379209
 10
142.9213927517558
 20
-278.9072083388455
 10
142.9115927520033
 20
-278.8739999999998
 10
142.8637927532109
 20
-278.6768083446659
 10
142.6107927596022
 20
-278.5845083469976
 10
142.6107927596022
 20
-278.5845083469976
 10
142.6107927596022
 20
-278.5845083469976
 10
142.5038927623027
 20
-277.8403083657977
 10
142.3300927666933
 20
-277.4799999999996
 10
142.2709999999997
 20
-277.3574083779968
 10
142.0248927744033
 20
-277.2085083817583
 10
142.0248927744033
 20
-277.2085083817583
 10
142.0248927744033
 20
-277.2085083817583
 10
141.8422927790161
 20
-276.4023084021246
 10
141.8305927793117
 20
-276.0659084106228
 10
141.8207927795593
 20
-275.7261084192069
 10
141.5248927870343
 20
-275.5619999999999
 10
141.5248927870343
 20
-275.5619999999999
 10
141.5248927870343
 20
-275.5619999999999
 10
141.4882927879589
 20
-275.1616084334673
 10
141.4091927899572
 20
-275.0024084374891
 10
141.3324927918948
 20
-274.8423084415335
 10
141.114292797407
 20
-274.7280000000001
 10
141.114292797407
 20
-274.7280000000001
 10
141.114292797407
 20
-274.7280000000001
 10
141.0600927987762
 20
-274.0728084609727
 10
141.0092928000595
 20
-273.8638084662525
 10
140.9657928011584
 20
-273.6660000000002
 10
140.6820928083253
 20
-273.5024084753823
 10
140.6820928083253
 20
-273.5024084753823
 10
140.5233928123344
 20
-273.2246084824001
 10
140.4936928130846
 20
-272.8296084923786
 10
140.3856928158129
 20
-272.6294084974361
 10
140.3134928176369
 20
-272.4946085008414
 10
140.085
 20
-272.3969999999999
 10
140.085
 20
-272.3969999999999
 10
140.085
 20
-272.3969999999999
 10
140.0185928250867
 20
-271.893608516024
 10
139.9780000000001
 20
-271.7529085195783
 10
139.908692827863
 20
-271.5093085257322
 10
139.7255928324885
 20
-271.4829085263991
 10
139.7255928324885
 20
-271.4829085263991
 10
139.7255928324885
 20
-271.4829085263991
 10
139.4750928388166
 20
-270.9834085390175
 10
139.3788928412469
 20
-270.8667085419656
 10
139.2645928441343
 20
-270.7280000000001
 10
139.1239999999998
 20
-270.7075085459874
 10
139.1239999999998
 20
-270.7075085459874
 10
139.1239999999998
 20
-270.7075085459874
 10
138.6693928591703
 20
-270.1123085610234
 10
138.5653928617976
 20
-270.0020000000004
 10
138.4032928658926
 20
-269.8339999999998
 10
138.0863928738981
 20
-269.8804085668817
 10
138.0863928738981
 20
-269.8804085668817
 10
138.0863928738981
 20
-269.8804085668817
 10
137.6293928854429
 20
-269.5137085761453
 10
137.1112928985312
 20
-269.38130857949
 10
136.6894929091868
 20
-269.2729085822284
 10
136.2680929198323
 20
-269.2744085821905
 10
135.8666929299725
 20
-269.66750857226
 10
135.5331929383974
 20
-269.9927085640447
 10
135.6601929351891
 20
-270.3926085539424
 10
135.9882929269006
 20
-270.2529085574715
 10
136.1991929215728
 20
-270.1641085597148
 10
136.618192910988
 20
-269.8496085676597
 10
137.0062929011838
 20
-269.8687085671772
 10
137.4037928911421
 20
-269.8901085666366
 10
137.901892878559
 20
-270.1416085602832
 10
137.901892878559
 20
-270.1416085602832
 10
137.901892878559
 20
-270.1416085602832
 10
137.869592879375
 20
-270.2993085562994
 10
138.0141928757221
 20
-270.4570000000003
 10
138.2523928697046
 20
-270.7153085457903
 10
138.71
 20
-271.0479085373881
 10
138.71
 20
-271.0479085373881
 10
138.71
 20
-271.0479085373881
 10
138.6615928593674
 20
-271.1943085336898
 10
138.8080928556665
 20
-271.353508529668
 10
138.9530928520035
 20
-271.5107085256968
 10
139.332492842419
 20
-271.792508518578
 10
139.332492842419
 20
-271.792508518578
 10
139.332492842419
 20
-271.792508518578
 10
139.2577928443061
 20
-271.9453085147179
 10
139.3144928428737
 20
-272.0693085115854
 10
139.3852928410852
 20
-272.2280000000001
 10
139.6474928344614
 20
-272.5664084990276
 10
139.6474928344614
 20
-272.5664084990276
 10
139.6474928344614
 20
-272.5664084990276
 10
139.561492836634
 20
-272.7363084947356
 10
139.6894928334004
 20
-272.9937084882331
 10
139.8026928305408
 20
-273.2202084825112
 10
140.1854928208704
 20
-273.6582084714464
 10
140.1854928208704
 20
-273.6582084714464
 10
140.1854928208704
 20
-273.6582084714464
 10
140.0604928240282
 20
-273.8457084667098
 10
140.1605928214994
 20
-274.0879084605913
 10
140.2846928183644
 20
-274.386708453043
 10
140.6801928083732
 20
-274.9233084394873
 10
140.6801928083732
 20
-274.9233084394873
 10
140.6801928083732
 20
-274.9233084394873
 10
140.5761928110005
 20
-275.1245084344046
 10
140.6513928091008
 20
-275.3271084292865
 10
140.7406928068449
 20
-275.5723084230922
 10
141.0512927989985
 20
-275.8218084167893
 10
141.0512927989985
 20
-275.8218084167893
 10
141.0512927989985
 20
-275.8218084167893
 10
140.9032928027373
 20
-275.9512084135204
 10
141.00729280011
 20
-276.282708405146
 10
141.1005927977531
 20
-276.5815083975976
 10
141.5131927873299
 20
-277.1768083825591
 10
141.5131927873299
 20
-277.1768083825591
 10
141.5131927873299
 20
-277.1768083825591
 10
141.472692788353
 20
-277.625508371224
 10
141.5420000000004
 20
-277.8062083666591
 10
141.625
 20
-278.0209999999997
 10
142.2123927696666
 20
-278.7183083436175
 10
142.2123927696666
 20
-278.7183083436175
 10
142.2123927696666
 20
-278.7183083436175
 10
142.0741927731578
 20
-278.8403083405356
 10
142.0922927727006
 20
-279.132308333159
 10
141.7611927810649
 20
-279.2305083306783
 10
141.4853927880322
 20
-279.3638083273108
 10
141.33149279192
 20
-279.5239083232664
 10
141.0785927983088
 20
-279.4111083261159
 10
140.4071928152698
 20
-279.3545083275458
 10
140.1732928211786
 20
-280.1636083071062
 10
139.9184928276154
 20
-281.0420000000013
 10
140.4628928138627
 20
-281.2178082804749
 10
140.4628928138627
 20
-281.2178082804749
 10
140.4628928138627
 20
-281.2178082804749
 10
140.335892817071
 20
-282.0078082605178
 10
140.9320928020097
 20
-282.516108247677
 10
141.2475927940395
 20
-282.785208240879
 10
141.6420927840736
 20
-282.8682082387822
 10
141.9960927751308
 20
-282.8179082400529
 10
142.128892771776
 20
-282.7988082405354
 10
142.0712927732311
 20
-282.9868082357862
 10
142.0712927732311
 20
-282.9868082357862
 10
142.0712927732311
 20
-282.9868082357862
 10
141.9018927775105
 20
-283.1382082319615
 10
141.449692788934
 20
-283.2510000000002
 10
141.22659279457
 20
-283.3062082277174
 10
140.7050928077442
 20
-283.5849999999991
 10
140.2704928187231
 20
-284.190908205368
 10
140.0531928242126
 20
-284.0522082088719
 10
139.7841928310081
 20
-283.8921082129164
 10
139.4794928387055
 20
-283.7422082167031
 10
139.2816928437023
 20
-283.1670000000013
 10
138.5004928634371
 20
-281.6382082698547
 10
138.1571928721096
 20
-281.0298082852241
 10
137.9892928763511
 20
-280.7354082926613
 10
137.7953928812494
 20
-280.5703082968321
 10
137.255392894891
 20
-280.5527082972767
 10
137.1942928964345
 20
-280.2612083046406
 10
136.4364929155781
 20
-280.2109083059113
 10
135.92379292853
 20
-280.2832083040848
 10
135.4130929414314
 20
-280.3549999999996
 10
134.7787929574552
 20
-280.141608307662
 10
134.3925929672114
 20
-280.211908305886
 10
133.9486929784252
 20
-279.9004083137552
 10
133.6952929848267
 20
-280.0791083092408
 10
133.449692991031
 20
-280.0449083101048
 10
133.201692997296
 20
-280.0103083109789
 10
132.8446930063146
 20
-279.9185083132979
 10
132.6718930106799
 20
-279.9004083137552
 10
132.5585930135421
 20
-279.8862083141139
 10
132.4403930165281
 20
-279.9448083126335
 10
132.4403930165281
 20
-279.9448083126335
 10
131.4130930424799
 20
-279.9976083112997
 10
131.397493042874
 20
-280.3618083020992
 10
131.397493042874
 20
-280.3618083020992
 10
131.6371930368186
 20
-280.2085083059719
 10
132.0761930257286
 20
-280.17770830675
 10
132.0761930257286
 20
-280.17770830675
 10
131.5438930391756
 20
-280.2827083040975
 10
131.5092930400497
 20
-280.5889082963622
 10
131.5092930400497
 20
-280.5889082963622
 10
131.9701930284064
 20
-280.3413083026171
 10
132.5565930135926
 20
-280.3413083026171
 10
132.5565930135926
 20
-280.3413083026171
 10
132.7724930081386
 20
-280.627908295377
 10
133.375
 20
-280.4463082999646
 10
133.375
 20
-280.4463082999646
 10
133.375
 20
-280.4463082999646
 10
133.6093929869967
 20
-280.6459999999997
 10
133.7973929822474
 20
-280.6558082946722
 10
134.0287929764017
 20
-280.6704082943033
 10
134.3632929679516
 20
-280.5483082973878
 10
134.3632929679516
 20
-280.5483082973878
 10
134.3632929679516
 20
-280.5483082973878
 10
134.7685929577128
 20
-281.0269082852974
 10
135.2567929453799
 20
-280.9746082866186
 10
135.8866929294672
 20
-280.9067082883339
 10
137.009292901108
 20
-280.8306082902564
 10
137.009292901108
 20
-280.8306082902564
 10
137.009292901108
 20
-280.8306082902564
 10
136.9608929023307
 20
-281.1309082826701
 10
137.2733928944363
 20
-281.7388082673133
 10
137.6537928848265
 20
-282.4751082487128
 10
138.5692928616991
 20
-283.5278082221193
 10
138.9813928512885
 20
-284.0991082076871
 10
138.8002928558635
 20
-284.6128081947099
 10
139.1478928470824
 20
-285.0513081836325
 10
139.7274928324405
 20
-285.3638081757381
 10
139.6771928337112
 20
-285.5474081711
 10
139.6425928345852
 20
-285.7489999999998
 10
139.6166928352395
 20
-285.9614081606414
 10
139.2274928450715
 20
-285.9614081606414
 10
138.497092863523
 20
-285.9614081606414
 10
137.8852928789784
 20
-285.9585081607147
 10
136.8140000000003
 20
-285.9536081608385
 10
135.326692943614
 20
-285.564508170668
 10
132.0683930259256
 20
-284.9995081849411
 10
129.8837930811133
 20
-284.6201081945255
 10
125.5785931898718
 20
-283.8472082140506
 10
124.0834932276412
 20
-283.7041082176656
 10
122.7797932605754
 20
-283.5791082208234
 10
121.0585933040566
 20
-283.601608220255
 10
119.7636933367685
 20
-283.7305082169987
 10
117.9887933816062
 20
-283.9067082125475
 10
116.4140934213865
 20
-284.4907081977944
 10
115.79049343714
 20
-284.7583081910343
 10
115.0170934566777
 20
-285.0908081826346
 10
114.0697934806085
 20
-285.8481081635036
 10
114.24509347618
 20
-286.7744081401033
 10
114.4877934700489
 20
-288.0698081073788
 10
115.748493438201
 20
-289.425308073136
 10
117.0185934061155
 20
-290.115708055695
 10
117.7709999999997
 20
-290.5225080454184
 10
118.2270933755863
 20
-291.4985080207625
 10
119.8935933334869
 20
-292.1982080030866
 10
121.1386933020331
 20
-292.7197079899124
 10
122.1903932754649
 20
-292.2920000000013
 10
122.1903932754649
 20
-292.2920000000013
 10
122.1903932754649
 20
-292.2920000000013
 10
122.0121932799666
 20
-293.0688079810934
 10
122.5185932671739
 20
-293.7217079645998
 10
123.1786932504983
 20
-294.5757079430259
 10
124.3627932205854
 20
-294.8413079363163
 10
125.2831931973342
 20
-294.9775079328756
 10
125.9320931809416
 20
-295.0737079304454
 10
126.4901931668428
 20
-295.5005079196635
 10
128.7997931084974
 20
-295.3291079239934
 10
131.04
 20
-295.1616079282248
 10
133.1937929974956
 20
-294.7827079377967
 10
135.6723929348809
 20
-293.1328079794766
 10
138.9081928531377
 20
-290.9789999999994
 10
138.1225928729837
 20
-289.8179080632181
 10
139.193392845933
 20
-289.1191080808712
 10
139.4330928398776
 20
-288.9629080848172
 10
139.6596928341532
 20
-288.8701080871615
 10
139.8690928288634
 20
-288.8091080887025
 10
140.0829999999996
 20
-289.6162080683134
 10
140.3183928175131
 20
-289.7690000000002
 10
140.3964928155401
 20
-290.0264080579509
 10
140.4511928141583
 20
-290.2114080532774
 10
140.4491928142088
 20
-290.6895080411996
 10
140.4857928132842
 20
-291.2666080266208
 10
140.2704928187231
 20
-291.3223080252137
 10
139.9989999999998
 20
-291.4248080226243
 10
139.8300928298486
 20
-291.6177080177513
 10
139.5185928377177
 20
-291.9731080087731
 10
138.7084928581826
 20
-292.5957079930449
 10
138.1923928712204
 20
-292.7900000000009
 10
137.5092928884769
 20
-293.047407981634
 10
137.3530000000001
 20
-293.2251079771449
 10
137.40229289118
 20
-293.6558079662645
 10
136.5668929122839
 20
-294.535207944049
 10
136.3192929185388
 20
-295.376507922796
 10
136.0590929251121
 20
-296.0757079051327
 10
135.7382929332161
 20
-296.9326078834856
 10
135.776892932241
 20
-297.4961078692504
 10
135.946792927949
 20
-297.70750786391
 10
135.3637929426768
 20
-298.0391078555331
 10
134.5526929631669
 20
-298.3906078466534
 10
134.4364929661024
 20
-298.6304078405956
 10
134.3505929682724
 20
-298.8076078361191
 10
134.4457929658674
 20
-299.0449078301244
 10
134.4457929658674
 20
-299.0449078301244
 10
134.4457929658674
 20
-299.0449078301244
 10
133.8114929818912
 20
-299.2954078237963
 10
133.564492988131
 20
-299.4409078201206
 10
133.318392994348
 20
-299.5869078164324
 10
133.4179999999997
 20
-299.9492078072799
 10
133.4179999999997
 20
-299.9492078072799
 10
133.4179999999997
 20
-299.9492078072799
 10
132.7738930081032
 20
-300.3721077965965
 10
132.3832930179706
 20
-300.5454077922186
 10
131.9188930297023
 20
-300.7495077870626
 10
132.1024930250642
 20
-301.0371077797972
 10
132.1024930250642
 20
-301.0371077797972
 10
132.1024930250642
 20
-301.0371077797972
 10
131.1679999999997
 20
-301.5947077657111
 10
131.0360930520037
 20
-301.8618077589636
 10
130.1068930754773
 20
-302.1001077529436
 10
130.149893074391
 20
-302.4443077442484
 10
130.149893074391
 20
-302.4443077442484
 10
130.3578930691365
 20
-302.2505077491442
 10
130.7826930584051
 20
-302.1401077519331
 10
130.7826930584051
 20
-302.1401077519331
 10
130.2787930711347
 20
-302.3398077468883
 10
130.2992930706168
 20
-302.647907739105
 10
130.2992930706168
 20
-302.647907739105
 10
130.6522930616993
 20
-302.363807746282
 10
131.1288930496594
 20
-302.2456077492679
 10
131.2523930465395
 20
-302.2187077499475
 10
131.4071930426289
 20
-302.2842077482928
 10
131.6044930376447
 20
-302.281707748356
 10
131.7470930340423
 20
-302.1226077523752
 10
132.026893026974
 20
-301.812507760209
 10
132.2372930216588
 20
-301.3389077721731
 10
132.2372930216588
 20
-301.3389077721731
 10
132.2372930216588
 20
-301.3389077721731
 10
132.5375930140726
 20
-301.3701077713849
 10
132.9008930048949
 20
-301.1055077780693
 10
133.4110929920062
 20
-300.7354077874188
 10
133.6068929870598
 20
-300.2231078003606
 10
133.6068929870598
 20
-300.2231078003606
 10
133.6068929870598
 20
-300.2231078003606
 10
133.9047929795342
 20
-300.2607077994107
 10
134.1845929724659
 20
-300.0005078059839
 10
134.5429999999997
 20
-299.668507814371
 10
134.6825929598854
 20
-299.3442078225635
 10
134.6825929598854
 20
-299.3442078225635
 10
134.6825929598854
 20
-299.3442078225635
 10
135.1361929484265
 20
-299.3525078223538
 10
135.5224929386677
 20
-298.9419078327264
 10
135.8770000000004
 20
-298.5664078422124
 10
136.4091929162678
 20
-297.8569078601358
 10
136.4091929162678
 20
-297.8569078601358
 10
136.4091929162678
 20
-297.8569078601358
 10
136.9428929027854
 20
-297.8022078615177
 10
137.0805928993068
 20
-297.2114078764425
 10
137.2167928958661
 20
-296.6191078914053
 10
137.2700000000004
 20
-294.6123079421013
 10
137.7050928835306
 20
-294.1406079540175
 10
138.5277928627474
 20
-293.999507957582
 10
139.307592843048
 20
-293.4517079714205
 10
139.7719999999999
 20
-293.0771079808837
 10
140.0453928244096
 20
-292.8549999999996
 10
140.35889281649
 20
-292.5513079941666
 10
140.606892810225
 20
-292.3003080005074
 10
140.6610928088558
 20
-292.6055079927974
 10
140.7357928069687
 20
-292.9111079850773
 10
140.8476928041418
 20
-293.1890000000003
 10
140.9994928003071
 20
-293.5708079684118
 10
141.1342927969017
 20
-293.8442079615052
 10
141.2572927937945
 20
-294.0576079561142
 10
141.0756927983821
 20
-294.1646079534112
 10
140.7245928072516
 20
-294.3843079478611
 10
140.2895928182406
 20
-294.73190793908
 10
139.5375928372378
 20
-295.3354079238343
 10
138.2074928708389
 20
-296.814907886459
 10
138.0326928752547
 20
-297.1660000000011
 10
137.8495928798802
 20
-297.5288078684243
 10
137.9809999999998
 20
-298.0200000000004
 10
137.9809999999998
 20
-298.0200000000004
 10
137.9809999999998
 20
-298.0200000000004
 10
137.7636928820502
 20
-298.197807851524
 10
137.6161928857764
 20
-298.6099078411135
 10
137.5102928884517
 20
-298.9019078337369
 10
137.3017928937188
 20
-299.5605078170993
 10
137.1034928987283
 20
-300.4507077946109
 10
136.875
 20
-301.4873077684242
 10
136.4726929146636
 20
-302.9858077305689
 10
136.8192929059078
 20
-303.5503077163085
 10
136.8192929059078
 20
-303.5503077163085
 10
136.8140000000003
 20
-303.8433077089067
 10
136.665
 20
-304.3408076963387
 10
136.4364929155781
 20
-305.1035076770713
 10
136.492192914171
 20
-305.4888076673378
 10
136.7797929069056
 20
-305.951707655644
 10
136.6660000000002
 20
-306.3286076461227
 10
136.4867929143074
 20
-307.0469076279769
 10
136.5380929130115
 20
-307.4966076166165
 10
136.5741929120995
 20
-307.7949076090808
 10
136.6270000000004
 20
-308.1431076002846
 10
136.6270000000004
 20
-308.1431076002846
 10
136.6270000000004
 20
-308.1431076002846
 10
136.2650929199081
 20
-308.7012075861858
 10
136.1664929223989
 20
-309.0137075782914
 10
136.0844929244704
 20
-309.276407571655
 10
136.2865929193649
 20
-309.7056075608125
 10
136.2865929193649
 20
-309.7056075608125
 10
136.2865929193649
 20
-309.7056075608125
 10
136.0209999999997
 20
-309.930707555126
 10
135.9545929277519
 20
-310.4258075426187
 10
135.9081929289241
 20
-310.76420753407
 10
135.5380929382736
 20
-311.0898075258447
 10
135.4780000000001
 20
-311.3501075192689
 10
135.4691929400142
 20
-311.3833075184302
 10
135.4691929400142
 20
-311.4160000000011
 10
135.473592939903
 20
-311.4463075168387
 10
134.5687929627602
 20
-312.135707499423
 10
134.7714929576396
 20
-312.4932074903918
 10
134.7714929576396
 20
-312.4932074903918
 10
134.9120929540877
 20
-312.1816074982635
 10
135.3320000000003
 20
-311.862807506317
 10
135.3320000000003
 20
-311.862807506317
 10
134.8656929552599
 20
-312.3179074948202
 10
135.0341929510032
 20
-312.650907486408
 10
135.0341929510032
 20
-312.650907486408
 10
135.2787929448241
 20
-312.1953074979174
 10
135.7147929338098
 20
-311.8584075064282
 10
135.8642929300331
 20
-311.75
 10
135.9203929286159
 20
-311.7549075090428
 10
135.9770929271835
 20
-311.7534075090807
 10
136.0297929258522
 20
-311.7373075094874
 10
136.2978929190795
 20
-311.664607511324
 10
136.4799999999996
 20
-311.2515075217598
 10
136.6137929110992
 20
-310.8462075319985
 10
136.7470929077317
 20
-310.4404075422499
 10
136.6630929098537
 20
-309.8184075579629
 10
136.6630929098537
 20
-309.8184075579629
 10
136.6630929098537
 20
-309.8184075579629
 10
136.8554929049933
 20
-309.726607560282
 10
136.9823929017875
 20
-309.4570000000003
 10
137.0893928990845
 20
-309.2305075728145
 10
136.9496929026136
 20
-308.8784075817093
 10
137.125
 20
-308.2344075979781
 10
137.3388928927816
 20
-307.9937076040587
 10
137.247592895088
 20
-307.576707614593
 10
137.2147928959166
 20
-307.2764076221792
 10
137.1703928970383
 20
-306.8779076322462
 10
137.289592894027
 20
-306.397907644372
 10
137.308592893547
 20
-306.0625076528449
 10
137.4315928904398
 20
-305.8892076572229
 10
137.493692888871
 20
-305.5210000000006
 10
137.4433928901417
 20
-305.2246076740121
 10
137.3900928914882
 20
-304.9277076815124
 10
137.3573928923142
 20
-304.2089999999989
 10
137.4354928903413
 20
-303.6875077128425
 10
137.6260000000002
 20
-303.555707716172
 10
137.79
 20
-303.4194077196153
 10
137.7636928820502
 20
-302.9375077317891
 10
137.749492882409
 20
-302.6763077383875
 10
137.800792881113
 20
-301.5542077667342
 10
137.9301928778441
 20
-300.7603077867898
 10
138.0531928747369
 20
-300.0142078056379
 10
138.5092928632148
 20
-298.2197078509707
 10
138.5092928632148
 20
-298.2197078509707
 10
138.5092928632148
 20
-298.2197078509707
 10
138.8593928543705
 20
-298.2964078490331
 10
139.3373928422952
 20
-297.7944078617147
 10
139.6937928332918
 20
-297.4179999999997
 10
140.3407928169472
 20
-296.4136078965967
 10
140.8676928036366
 20
-295.5107079194058
 10
141.1728927959266
 20
-294.9858079326659
 10
141.5092927874284
 20
-294.7446079387591
 10
141.7392927816181
 20
-294.6313079416213
 10
141.8583927786094
 20
-294.7139079395347
 10
141.9770927756108
 20
-294.7686079381529
 10
142.1083927722939
 20
-294.8257079367104
 10
142.128892771776
 20
-295.3159079243269
 10
141.243692794138
 20
-295.8984079096117
 10
141.1093927975307
 20
-297.2920000000013
 10
140.131792822227
 20
-298.1963078515619
 10
139.6771928337112
 20
-299.4375078202065
 10
139.6430928345726
 20
-300.7549077869262
 10
139.6063928354997
 20
-302.1489077517108
 10
140.0702928237806
 20
-302.9385077317638
 10
140.0702928237806
 20
-302.9385077317638
 10
140.0702928237806
 20
-302.9385077317638
 10
139.9818928260138
 20
-303.5786077155935
 10
140.131792822227
 20
-304.4819076927743
 10
140.2645928188722
 20
-305.2764076727035
 10
140.6215928098536
 20
-305.9873076547447
 10
140.6215928098536
 20
-305.9873076547447
 10
140.6215928098536
 20
-305.9873076547447
 10
140.6244928097803
 20
-306.8618076326529
 10
140.885292803192
 20
-307.8706076071685
 10
141.3764927907832
 20
-309.751507559653
 10
142.5595927608956
 20
-310.9687075289039
 10
143.3140000000003
 20
-310.9687075289039
 10
144.0663927228306
 20
-310.9687075289039
 10
145.026392698579
 20
-309.6772075615299
 10
145.5917926842958
 20
-308.095707601482
 10
146.130892670677
 20
-306.5815076397339
 10
146.0077926737868
 20
-305.9873076547447
 10
146.0077926737868
 20
-305.9873076547447
 10
146.0077926737868
 20
-305.9873076547447
 10
146.2987926664355
 20
-305.3091076718774
 10
146.4570000000003
 20
-304.5200000000004
 10
146.6435926577251
 20
-303.5786077155935
 10
146.5604926598244
 20
-302.9385077317638
 10
146.5604926598244
 20
-302.9385077317638
 10
146.5604926598244
 20
-302.9385077317638
 10
147.0214926481785
 20
-302.1489077517108
 10
146.9843926491158
 20
-300.7549077869262
 10
146.9481926500303
 20
-299.4375078202065
 10
146.4950926614765
 20
-298.1963078515619
 10
145.5155926862208
 20
-297.2920000000013
 10
145.1015926966793
 20
-295.6543079157782
 10
144.8183927038335
 20
-295.6157079167533
 10
144.3290927161943
 20
-294.8257079367104
 10
144.5020000000004
 20
-294.7812079378346
 10
144.6640927077315
 20
-294.7070000000003
 10
144.816392703884
 20
-294.6084079421998
 10
145.0448926981117
 20
-294.71290793956
 10
145.4081926889339
 20
-294.9536079334794
 10
145.7323926807439
 20
-295.5107079194058
 10
146.2597926674207
 20
-296.4136078965967
 10
146.9062926510887
 20
-297.4179999999997
 10
147.2645926420373
 20
-297.7944078617147
 10
147.7392926300454
 20
-298.2964078490331
 10
148.0907926211657
 20
-298.2197078509707
 10
148.0907926211657
 20
-298.2197078509707
 10
148.0907926211657
 20
-298.2197078509707
 10
148.5468926096437
 20
-300.0142078056379
 10
148.6698926065365
 20
-300.7603077867898
 10
148.7997926032549
 20
-301.5542077667342
 10
148.8524926019236
 20
-302.6763077383875
 10
148.8358926023429
 20
-302.9375077317891
 10
148.8104926029846
 20
-303.4194077196153
 10
148.9726925988871
 20
-303.555707716172
 10
149.1640925940519
 20
-303.6875077128425
 10
149.2411925921042
 20
-304.2089999999989
 10
149.2090000000007
 20
-304.9277076815124
 10
149.158192594201
 20
-305.2246076740121
 10
149.1054925955323
 20
-305.5210000000006
 10
149.1698925939054
 20
-305.8892076572229
 10
149.2919999999995
 20
-306.0625076528449
 10
149.3114925903283
 20
-306.397907644372
 10
149.430692587317
 20
-306.8779076322462
 10
149.3856925884538
 20
-307.2764076221792
 10
149.3524925892925
 20
-307.576707614593
 10
149.2597925916343
 20
-307.9937076040587
 10
149.4735925862333
 20
-308.2344075979781
 10
149.6493925817922
 20
-308.8784075817093
 10
149.5087925853441
 20
-309.2305075728145
 10
149.6181925825804
 20
-309.4570000000003
 10
149.7450925793746
 20
-309.726607560282
 10
149.9374925745142
 20
-309.8184075579629
 10
149.9374925745142
 20
-309.8184075579629
 10
149.9374925745142
 20
-309.8184075579629
 10
149.8524925766615
 20
-310.4404075422499
 10
149.9862925732814
 20
-310.8462075319985
 10
150.1200925699013
 20
-311.2515075217598
 10
150.3017925653112
 20
-311.664607511324
 10
150.5692925585536
 20
-311.7373075094874
 10
150.6239999999998
 20
-311.7534075090807
 10
150.6806925557394
 20
-311.7549075090428
 10
150.7362925543348
 20
-311.75
 10
150.8856925505606
 20
-311.8584075064282
 10
151.3202925395817
 20
-312.1953074979174
 10
151.5663925333647
 20
-312.650907486408
 10
151.5663925333647
 20
-312.650907486408
 10
151.7333925291459
 20
-312.3179074948202
 10
151.2685925408878
 20
-311.862807506317
 10
151.2685925408878
 20
-311.862807506317
 10
151.6894925302549
 20
-312.1816074982635
 10
151.8280925267536
 20
-312.4932074903918
 10
151.8280925267536
 20
-312.4932074903918
 10
152.0321925215976
 20
-312.135707499423
 10
151.1278925444421
 20
-311.4463075168387
 10
151.1298925443916
 20
-311.4160000000011
 10
151.1288925444169
 20
-311.3833075184302
 10
151.1210925446139
 20
-311.3501075192689
 10
151.0614925461196
 20
-311.0898075258447
 10
150.6903925554943
 20
-310.76420753407
 10
150.6454925566286
 20
-310.4258075426187
 10
150.5780925583313
 20
-309.930707555126
 10
150.3134925650156
 20
-309.7056075608125
 10
150.3134925650156
 20
-309.7056075608125
 10
150.3134925650156
 20
-309.7056075608125
 10
150.5155925599101
 20
-309.276407571655
 10
150.4325925620069
 20
-309.0137075782914
 10
150.3368925644245
 20
-308.7012075861858
 10
149.972692573625
 20
-308.1431076002846
 10
149.972692573625
 20
-308.1431076002846
 10
149.972692573625
 20
-308.1431076002846
 10
150.0263925722684
 20
-307.7949076090808
 10
150.0604925714069
 20
-307.4966076166165
 10
150.1132925700731
 20
-307.0469076279769
 10
149.9335925746127
 20
-306.3286076461227
 10
149.8212925774496
 20
-305.951707655644
 10
150.1073925702221
 20
-305.4888076673378
 10
150.1650000000009
 20
-305.1035076770713
 10
149.9345925745874
 20
-304.3408076963387
 10
149.7851925783616
 20
-303.8433077089067
 10
149.7792925785106
 20
-303.5503077163085
 10
149.7792925785106
 20
-303.5503077163085
 10
150.128892569679
 20
-302.9858077305689
 10
149.7255925798672
 20
-301.4873077684242
 10
149.4970925856396
 20
-300.4507077946109
 10
149.2997925906238
 20
-299.5605078170993
 10
149.0888925959516
 20
-298.9019078337369
 10
148.9843925985915
 20
-298.6099078411135
 10
148.8358926023429
 20
-298.197807851524
 10
148.6190926078198
 20
-298.0200000000004
 10
148.6190926078198
 20
-298.0200000000004
 10
148.6190926078198
 20
-298.0200000000004
 10
148.75
 20
-297.5288078684243
 10
148.5683926091006
 20
-297.1660000000011
 10
148.3925926135416
 20
-296.814907886459
 10
147.0624926471428
 20
-295.3354079238343
 10
146.3095926661626
 20
-294.73190793908
 10
145.8886926767955
 20
-294.3965079475529
 10
145.5497926853568
 20
-294.1797079530297
 10
145.3603926901415
 20
-294.0684079558414
 10
145.5272926859252
 20
-293.8311079618361
 10
145.6688926823481
 20
-293.5381079692379
 10
145.7792926795591
 20
-293.1890000000003
 10
145.8700926772653
 20
-292.9038079852617
 10
145.9354926756132
 20
-292.5986079929717
 10
145.9862926743299
 20
-292.2929999999997
 10
146.2333926680876
 20
-292.5444079943409
 10
146.5526926600214
 20
-292.8521079865677
 10
146.829092653039
 20
-293.0771079808837
 10
147.2919999999995
 20
-293.4517079714205
 10
148.0722926216331
 20
-293.999507957582
 10
148.8935926008853
 20
-294.1406079540175
 10
149.3290925898837
 20
-294.6123079421013
 10
149.3827925885271
 20
-296.6191078914053
 10
149.5185925850965
 20
-297.2114078764425
 10
149.6571925815952
 20
-297.8022078615177
 10
150.1903925681254
 20
-297.8569078601358
 10
150.1903925681254
 20
-297.8569078601358
 10
150.1903925681254
 20
-297.8569078601358
 10
150.7206925547289
 20
-298.5664078422124
 10
151.0780925457002
 20
-298.9419078327264
 10
151.4647925359313
 20
-299.3525078223538
 10
151.9179999999997
 20
-299.3442078225635
 10
151.9179999999997
 20
-299.3442078225635
 10
151.9179999999997
 20
-299.3442078225635
 10
152.057592520956
 20
-299.668507814371
 10
152.4130925119753
 20
-300.0005078059839
 10
152.6942925048716
 20
-300.2607077994107
 10
152.9911924973712
 20
-300.2231078003606
 10
152.9911924973712
 20
-300.2231078003606
 10
152.9911924973712
 20
-300.2231078003606
 10
153.190392492339
 20
-300.7354077874188
 10
153.6991924794856
 20
-301.1055077780693
 10
154.0634924702827
 20
-301.3701077713849
 10
154.3642924626838
 20
-301.3389077721731
 10
154.3642924626838
 20
-301.3389077721731
 10
154.3642924626838
 20
-301.3389077721731
 10
154.5741924573813
 20
-301.812507760209
 10
154.8515924503736
 20
-302.1226077523752
 10
154.9940924467737
 20
-302.281707748356
 10
155.1923924417642
 20
-302.2842077482928
 10
155.3446924379168
 20
-302.2187077499475
 10
155.4716924347085
 20
-302.2456077492679
 10
155.9472924226939
 20
-302.363807746282
 10
156.3007924137637
 20
-302.647907739105
 10
156.3007924137637
 20
-302.647907739105
 10
156.3212924132458
 20
-302.3398077468883
 10
155.8173924259754
 20
-302.1401077519331
 10
155.8173924259754
 20
-302.1401077519331
 10
156.2421924152441
 20
-302.2505077491442
 10
156.4501924099895
 20
-302.4443077442484
 10
156.4501924099895
 20
-302.4443077442484
 10
156.4921924089285
 20
-302.1001077529436
 10
155.5624924324147
 20
-301.8618077589636
 10
155.4306924357443
 20
-301.5947077657111
 10
154.4989999999998
 20
-301.0371077797972
 10
154.4989999999998
 20
-301.0371077797972
 10
154.4989999999998
 20
-301.0371077797972
 10
154.6815924546681
 20
-300.7495077870626
 10
154.2177924663847
 20
-300.5454077922186
 10
153.8261924762774
 20
-300.3721077965965
 10
153.1815924925613
 20
-299.9492078072799
 10
153.1815924925613
 20
-299.9492078072799
 10
153.1815924925613
 20
-299.9492078072799
 10
153.2812924900427
 20
-299.5869078164324
 10
153.034192496285
 20
-299.4409078201206
 10
152.7890925024767
 20
-299.2954078237963
 10
152.1542925185131
 20
-299.0449078301244
 10
152.1542925185131
 20
-299.0449078301244
 10
152.1542925185131
 20
-299.0449078301244
 10
152.2489999999998
 20
-298.8076078361191
 10
152.1640925182655
 20
-298.6304078405956
 10
152.0487925211783
 20
-298.3906078466534
 10
151.2343925417517
 20
-298.0391078555331
 10
150.6542925564063
 20
-297.70750786391
 10
150.8222925521623
 20
-297.4961078692504
 10
150.861292551177
 20
-296.9326078834856
 10
150.5390925593165
 20
-296.0757079051327
 10
150.2802925658543
 20
-295.376507922796
 10
150.0321925721219
 20
-294.535207944049
 10
149.1972925932132
 20
-293.6558079662645
 10
149.2479999999996
 20
-293.2251079771449
 10
149.0888925959516
 20
-293.047407981634
 10
148.4062926131955
 20
-292.7900000000009
 10
147.891592626198
 20
-292.5957079930449
 10
147.0810926466729
 20
-291.9731080087731
 10
146.7685926545673
 20
-291.6177080177513
 10
146.5976926588846
 20
-291.4233080226622
 10
146.3251926657686
 20
-291.321308025239
 10
146.1112926711721
 20
-291.2666080266208
 10
146.1581926699873
 20
-290.6880000000001
 10
146.1767926695175
 20
-290.2119080532648
 10
146.2304926681609
 20
-290.0264080579509
 10
146.3202926658923
 20
-289.730508065426
 10
146.6181926583668
 20
-289.570308069473
 10
146.8515926524706
 20
-288.3970000000008
 10
147.0653926470695
 20
-288.4565080976099
 10
147.2958926412466
 20
-288.5503080952403
 10
147.5419999999995
 20
-288.7114080911706
 10
148.6132926079663
 20
-289.4111080734947
 10
147.8270926278274
 20
-290.5713080441856
 10
151.063492546069
 20
-292.7261079897507
 10
153.5409999999993
 20
-294.3765079480581
 10
155.6952924290599
 20
-294.7549079384989
 10
157.9354923724677
 20
-294.9204079343181
 10
160.2450923141223
 20
-295.0928079299629
 10
160.8026923000361
 20
-294.6665079407321
 10
161.4540922835804
 20
-294.569807943175
 10
162.3729999999996
 20
-294.4331079466283
 10
163.5585922304163
 20
-294.1679999999997
 10
164.2177922137635
 20
-293.3159079748511
 10
164.7216922010339
 20
-292.6611079913928
 10
164.545892205475
 20
-291.883808011029
 10
164.545892205475
 20
-291.883808011029
 10
164.545892205475
 20
-291.883808011029
 10
165.5976921789043
 20
-292.3115080002244
 10
166.8427921474504
 20
-291.7896080134087
 10
168.5087921053637
 20
-291.0913080310493
 10
168.9657920938189
 20
-290.115708055695
 10
169.7157920748723
 20
-289.707508066007
 10
170.9872920427515
 20
-289.0181080834227
 10
172.2460920109515
 20
-287.6616081176908
 10
172.4911920047598
 20
-286.3672081503901
 10
172.6650000000009
 20
-285.4414081737777
 10
171.7187920242723
 20
-284.6821081929593
 10
170.9452920438125
 20
-284.3516082013084
 97
        0
 97
        0
 75
     2
 76
     1
 98
        0
  0
ENDSEC
  0
SECTION
  2
OBJECTS
  0
DICTIONARY
  5
C
330
0
100
AcDbDictionary
281
     1
  3
ACAD_GROUP
350
D
  3
ACAD_LAYOUT
350
1A
  3
ACAD_MATERIAL
350
3B
  3
ACAD_MLEADERSTYLE
350
44
  3
ACAD_MLINESTYLE
350
17
  3
ACAD_PLOTSETTINGS
350
19
  3
ACAD_PLOTSTYLENAME
350
E
  3
ACAD_TABLESTYLE
350
43
  3
ACAD_VISUALSTYLE
350
2A
  0
SUN
  5
3F
330
29
100
AcDbSun
 90
        1
290
     0
 63
     7
421
 16777215
 40
1.0
291
     1
 91
  2455826
 92
 54000000
292
     0
 70
     2
 71
   256
280
     1
  0
DICTIONARY
  5
D
102
{ACAD_REACTORS
330
C
102
}
330
C
100
AcDbDictionary
281
     1
  0
DICTIONARY
  5
1A
102
{ACAD_REACTORS
330
C
102
}
330
C
100
AcDbDictionary
281
     1
  3
Layout1
350
1E
  3
Layout2
350
26
  3
Model
350
22
  0
DICTIONARY
  5
3B
102
{ACAD_REACTORS
330
C
102
}
330
C
100
AcDbDictionary
281
     1
  3
ByBlock
350
3D
  3
ByLayer
350
3C
  3
Global
350
3E
  0
DICTIONARY
  5
44
102
{ACAD_REACTORS
330
C
102
}
330
C
100
AcDbDictionary
281
     1
  0
DICTIONARY
  5
17
102
{ACAD_REACTORS
330
C
102
}
330
C
100
AcDbDictionary
281
     1
  3
Standard
350
18
  0
DICTIONARY
  5
19
102
{ACAD_REACTORS
330
C
102
}
330
C
100
AcDbDictionary
281
     1
  0
ACDBDICTIONARYWDFLT
  5
E
102
{ACAD_REACTORS
330
C
102
}
330
C
100
AcDbDictionary
281
     1
  3
Normal
350
F
100
AcDbDictionaryWithDefault
340
F
  0
DICTIONARY
  5
43
102
{ACAD_REACTORS
330
C
102
}
330
C
100
AcDbDictionary
281
     1
  0
DICTIONARY
  5
2A
102
{ACAD_REACTORS
330
C
102
}
330
C
100
AcDbDictionary
281
     1
  3
2dWireframe
350
2F
  3
3D Hidden
350
31
  3
3dWireframe
350
30
  3
Basic
350
32
  3
Brighten
350
36
  3
ColorChange
350
3A
  3
Conceptual
350
34
  3
Dim
350
35
  3
Facepattern
350
39
  3
Flat
350
2B
  3
FlatWithEdges
350
2C
  3
Gouraud
350
2D
  3
GouraudWithEdges
350
2E
  3
Linepattern
350
38
  3
Realistic
350
33
  3
Thicken
350
37
  0
LAYOUT
  5
1E
102
{ACAD_REACTORS
330
1A
102
}
330
1A
100
AcDbPlotSettings
  1

  2
none_device
  4

  6

 40
0.0
 41
0.0
 42
0.0
 43
0.0
 44
0.0
 45
0.0
 46
0.0
 47
0.0
 48
0.0
 49
0.0
140
0.0
141
0.0
142
1.0
143
1.0
 70
   688
 72
     0
 73
     0
 74
     5
  7

 75
    16
 76
     0
 77
     2
 78
   300
147
1.0
148
0.0
149
0.0
100
AcDbLayout
  1
Layout1
 70
     1
 71
     1
 10
0.0
 20
0.0
 11
12.0
 21
9.0
 12
0.0
 22
0.0
 32
0.0
 14
1.000000000000000E+20
 24
1.000000000000000E+20
 34
1.000000000000000E+20
 15
-1.000000000000000E+20
 25
-1.000000000000000E+20
 35
-1.000000000000000E+20
146
0.0
 13
0.0
 23
0.0
 33
0.0
 16
1.0
 26
0.0
 36
0.0
 17
0.0
 27
1.0
 37
0.0
 76
     0
330
1B
  0
LAYOUT
  5
26
102
{ACAD_REACTORS
330
1A
102
}
330
1A
100
AcDbPlotSettings
  1

  2
none_device
  4

  6

 40
0.0
 41
0.0
 42
0.0
 43
0.0
 44
0.0
 45
0.0
 46
0.0
 47
0.0
 48
0.0
 49
0.0
140
0.0
141
0.0
142
1.0
143
1.0
 70
   688
 72
     0
 73
     0
 74
     5
  7

 75
    16
 76
     0
 77
     2
 78
   300
147
1.0
148
0.0
149
0.0
100
AcDbLayout
  1
Layout2
 70
     1
 71
     2
 10
0.0
 20
0.0
 11
0.0
 21
0.0
 12
0.0
 22
0.0
 32
0.0
 14
0.0
 24
0.0
 34
0.0
 15
0.0
 25
0.0
 35
0.0
146
0.0
 13
0.0
 23
0.0
 33
0.0
 16
1.0
 26
0.0
 36
0.0
 17
0.0
 27
1.0
 37
0.0
 76
     0
330
23
  0
LAYOUT
  5
22
102
{ACAD_REACTORS
330
1A
102
}
330
1A
100
AcDbPlotSettings
  1

  2
none_device
  4

  6

 40
0.0
 41
0.0
 42
0.0
 43
0.0
 44
0.0
 45
0.0
 46
0.0
 47
0.0
 48
0.0
 49
0.0
140
0.0
141
0.0
142
1.0
143
1.0
 70
  1712
 72
     0
 73
     0
 74
     0
  7

 75
     0
 76
     0
 77
     2
 78
   300
147
1.0
148
0.0
149
0.0
100
AcDbLayout
  1
Model
 70
     1
 71
     0
 10
0.0
 20
0.0
 11
12.0
 21
9.0
 12
0.0
 22
0.0
 32
0.0
 14
1.000000000000000E+20
 24
1.000000000000000E+20
 34
1.000000000000000E+20
 15
-1.000000000000000E+20
 25
-1.000000000000000E+20
 35
-1.000000000000000E+20
146
0.0
 13
0.0
 23
0.0
 33
0.0
 16
1.0
 26
0.0
 36
0.0
 17
0.0
 27
1.0
 37
0.0
 76
     0
330
1F
331
29
  0
MATERIAL
  5
3D
102
{ACAD_REACTORS
330
3B
102
}
330
3B
100
AcDbMaterial
  1
ByBlock
 72
     1
 94
      127
  0
MATERIAL
  5
3C
102
{ACAD_REACTORS
330
3B
102
}
330
3B
100
AcDbMaterial
  1
ByLayer
 72
     1
 94
      127
  0
MATERIAL
  5
3E
102
{ACAD_REACTORS
330
3B
102
}
330
3B
100
AcDbMaterial
  1
Global
 72
     1
 94
      127
  0
MLINESTYLE
  5
18
102
{ACAD_REACTORS
330
17
102
}
330
17
100
AcDbMlineStyle
  2
Standard
 70
     0
  3

 62
   256
 51
90.0
 52
90.0
 71
     2
 49
0.5
 62
   256
  6
BYLAYER
 49
-0.5
 62
   256
  6
BYLAYER
  0
ACDBPLACEHOLDER
  5
F
102
{ACAD_REACTORS
330
E
102
}
330
E
  0
VISUALSTYLE
  5
2F
102
{ACAD_REACTORS
330
2A
102
}
330
2A
100
AcDbVisualStyle
  2
2dWireframe
 70
     4
177
     2
291
     0
 71
     0
176
     1
 72
     2
176
     1
 73
     0
176
     1
 90
        0
176
     1
 40
-0.6
176
     1
 41
-30.0
176
     1
 62
     5
 63
     7
421
 16777215
176
     1
 74
     1
176
     1
 91
        4
176
     1
 64
     7
176
     1
 65
   257
176
     1
 75
     1
176
     1
175
     1
176
     1
 42
1.0
176
     1
 92
        0
176
     1
 66
   257
176
     1
 43
1.0
176
     1
 76
     1
176
     1
 77
     6
176
     1
 78
     2
176
     1
 67
     7
176
     1
 79
     5
176
     1
170
     0
176
     1
171
     0
176
     1
290
     0
176
     1
 93
        1
176
     1
 44
0.0
176
     1
173
     0
176
     1
  0
VISUALSTYLE
  5
31
102
{ACAD_REACTORS
330
2A
102
}
330
2A
100
AcDbVisualStyle
  2
3D Hidden
 70
     6
177
     2
291
     0
 71
     1
176
     1
 72
     2
176
     1
 73
     2
176
     1
 90
        0
176
     1
 40
-0.6
176
     1
 41
-30.0
176
     1
 62
     5
 63
     7
421
 16777215
176
     1
 74
     2
176
     1
 91
        2
176
     1
 64
     7
176
     1
 65
   257
176
     1
 75
     2
176
     1
175
     1
176
     1
 42
40.0
176
     1
 92
        0
176
     1
 66
   257
176
     1
 43
1.0
176
     1
 76
     1
176
     1
 77
     6
176
     1
 78
     2
176
     1
 67
     7
176
     1
 79
     3
176
     1
170
     0
176
     1
171
     0
176
     1
290
     0
176
     1
 93
        1
176
     1
 44
0.0
176
     1
173
     0
176
     1
  0
VISUALSTYLE
  5
30
102
{ACAD_REACTORS
330
2A
102
}
330
2A
100
AcDbVisualStyle
  2
3dWireframe
 70
     5
177
     2
291
     0
 71
     0
176
     1
 72
     2
176
     1
 73
     0
176
     1
 90
        0
176
     1
 40
-0.6
176
     1
 41
-30.0
176
     1
 62
     5
 63
     7
421
 16777215
176
     1
 74
     1
176
     1
 91
        4
176
     1
 64
     7
176
     1
 65
   257
176
     1
 75
     1
176
     1
175
     1
176
     1
 42
1.0
176
     1
 92
        0
176
     1
 66
   257
176
     1
 43
1.0
176
     1
 76
     1
176
     1
 77
     6
176
     1
 78
     2
176
     1
 67
     7
176
     1
 79
     5
176
     1
170
     0
176
     1
171
     0
176
     1
290
     0
176
     1
 93
        1
176
     1
 44
0.0
176
     1
173
     0
176
     1
  0
VISUALSTYLE
  5
32
102
{ACAD_REACTORS
330
2A
102
}
330
2A
100
AcDbVisualStyle
  2
Basic
 70
     7
177
     2
291
     1
 71
     1
176
     1
 72
     0
176
     1
 73
     1
176
     1
 90
        0
176
     1
 40
-0.6
176
     1
 41
-30.0
176
     1
 62
     5
 63
     7
421
 16777215
176
     1
 74
     0
176
     1
 91
        4
176
     1
 64
     7
176
     1
 65
   257
176
     1
 75
     1
176
     1
175
     1
176
     1
 42
1.0
176
     1
 92
        8
176
     1
 66
     7
176
     1
 43
1.0
176
     1
 76
     1
176
     1
 77
     6
176
     1
 78
     2
176
     1
 67
     7
176
     1
 79
     5
176
     1
170
     0
176
     1
171
     0
176
     1
290
     0
176
     1
 93
        1
176
     1
 44
0.0
176
     1
173
     0
176
     1
  0
VISUALSTYLE
  5
36
102
{ACAD_REACTORS
330
2A
102
}
330
2A
100
AcDbVisualStyle
  2
Brighten
 70
    12
177
     2
291
     1
 71
     2
176
     1
 72
     2
176
     1
 73
     0
176
     1
 90
        0
176
     1
 40
-0.6
176
     1
 41
-30.0
176
     1
 62
     5
 63
     7
421
 16777215
176
     1
 74
     1
176
     1
 91
        4
176
     1
 64
     7
176
     1
 65
   257
176
     1
 75
     1
176
     1
175
     1
176
     1
 42
1.0
176
     1
 92
        8
176
     1
 66
     7
176
     1
 43
1.0
176
     1
 76
     1
176
     1
 77
     6
176
     1
 78
     2
176
     1
 67
     7
176
     1
 79
     5
176
     1
170
     0
176
     1
171
     0
176
     1
290
     0
176
     1
 93
        1
176
     1
 44
50.0
176
     1
173
     0
176
     1
  0
VISUALSTYLE
  5
3A
102
{ACAD_REACTORS
330
2A
102
}
330
2A
100
AcDbVisualStyle
  2
ColorChange
 70
    16
177
     2
291
     1
 71
     2
176
     1
 72
     2
176
     1
 73
     3
176
     1
 90
        0
176
     1
 40
-0.6
176
     1
 41
-30.0
176
     1
 62
     5
 63
     8
421
  8421504
176
     1
 74
     1
176
     1
 91
        4
176
     1
 64
     7
176
     1
 65
   257
176
     1
 75
     1
176
     1
175
     1
176
     1
 42
1.0
176
     1
 92
        8
176
     1
 66
     8
424
  8421504
176
     1
 43
1.0
176
     1
 76
     1
176
     1
 77
     6
176
     1
 78
     2
176
     1
 67
     7
176
     1
 79
     5
176
     1
170
     0
176
     1
171
     0
176
     1
290
     0
176
     1
 93
        1
176
     1
 44
0.0
176
     1
173
     0
176
     1
  0
VISUALSTYLE
  5
34
102
{ACAD_REACTORS
330
2A
102
}
330
2A
100
AcDbVisualStyle
  2
Conceptual
 70
     9
177
     2
291
     0
 71
     3
176
     1
 72
     2
176
     1
 73
     0
176
     1
 90
        0
176
     1
 40
-0.6
176
     1
 41
-30.0
176
     1
 62
     5
 63
     7
421
 16777215
176
     1
 74
     2
176
     1
 91
        2
176
     1
 64
     7
176
     1
 65
   257
176
     1
 75
     1
176
     1
175
     1
176
     1
 42
40.0
176
     1
 92
        8
176
     1
 66
     7
176
     1
 43
1.0
176
     1
 76
     1
176
     1
 77
     6
176
     1
 78
     2
176
     1
 67
     7
176
     1
 79
     3
176
     1
170
     0
176
     1
171
     0
176
     1
290
     0
176
     1
 93
        1
176
     1
 44
0.0
176
     1
173
     0
176
     1
  0
VISUALSTYLE
  5
35
102
{ACAD_REACTORS
330
2A
102
}
330
2A
100
AcDbVisualStyle
  2
Dim
 70
    11
177
     2
291
     1
 71
     2
176
     1
 72
     2
176
     1
 73
     0
176
     1
 90
        0
176
     1
 40
-0.6
176
     1
 41
-30.0
176
     1
 62
     5
 63
     7
421
 16777215
176
     1
 74
     1
176
     1
 91
        4
176
     1
 64
     7
176
     1
 65
   257
176
     1
 75
     1
176
     1
175
     1
176
     1
 42
1.0
176
     1
 92
        8
176
     1
 66
     7
176
     1
 43
1.0
176
     1
 76
     1
176
     1
 77
     6
176
     1
 78
     2
176
     1
 67
     7
176
     1
 79
     5
176
     1
170
     0
176
     1
171
     0
176
     1
290
     0
176
     1
 93
        1
176
     1
 44
-50.0
176
     1
173
     0
176
     1
  0
VISUALSTYLE
  5
39
102
{ACAD_REACTORS
330
2A
102
}
330
2A
100
AcDbVisualStyle
  2
Facepattern
 70
    15
177
     2
291
     1
 71
     2
176
     1
 72
     2
176
     1
 73
     0
176
     1
 90
        0
176
     1
 40
-0.6
176
     1
 41
-30.0
176
     1
 62
     5
 63
     7
421
 16777215
176
     1
 74
     1
176
     1
 91
        4
176
     1
 64
     7
176
     1
 65
   257
176
     1
 75
     1
176
     1
175
     1
176
     1
 42
1.0
176
     1
 92
        8
176
     1
 66
     7
176
     1
 43
1.0
176
     1
 76
     1
176
     1
 77
     6
176
     1
 78
     2
176
     1
 67
     7
176
     1
 79
     5
176
     1
170
     0
176
     1
171
     0
176
     1
290
     0
176
     1
 93
        1
176
     1
 44
0.0
176
     1
173
     0
176
     1
  0
VISUALSTYLE
  5
2B
102
{ACAD_REACTORS
330
2A
102
}
330
2A
100
AcDbVisualStyle
  2
Flat
 70
     0
177
     2
291
     1
 71
     2
176
     1
 72
     1
176
     1
 73
     1
176
     1
 90
        2
176
     1
 40
-0.6
176
     1
 41
30.0
176
     1
 62
     5
 63
     7
421
 16777215
176
     1
 74
     0
176
     1
 91
        4
176
     1
 64
     7
176
     1
 65
   257
176
     1
 75
     1
176
     1
175
     1
176
     1
 42
1.0
176
     1
 92
        8
176
     1
 66
     7
176
     1
 43
1.0
176
     1
 76
     1
176
     1
 77
     6
176
     1
 78
     2
176
     1
 67
     7
176
     1
 79
     5
176
     1
170
     0
176
     1
171
     0
176
     1
290
     0
176
     1
 93
       13
176
     1
 44
0.0
176
     1
173
     0
176
     1
  0
VISUALSTYLE
  5
2C
102
{ACAD_REACTORS
330
2A
102
}
330
2A
100
AcDbVisualStyle
  2
FlatWithEdges
 70
     1
177
     2
291
     1
 71
     2
176
     1
 72
     1
176
     1
 73
     1
176
     1
 90
        2
176
     1
 40
-0.6
176
     1
 41
30.0
176
     1
 62
     5
 63
     7
421
 16777215
176
     1
 74
     1
176
     1
 91
        4
176
     1
 64
     7
176
     1
 65
   257
176
     1
 75
     1
176
     1
175
     1
176
     1
 42
1.0
176
     1
 92
        0
176
     1
 66
   257
176
     1
 43
1.0
176
     1
 76
     1
176
     1
 77
     6
176
     1
 78
     2
176
     1
 67
     7
176
     1
 79
     5
176
     1
170
     0
176
     1
171
     0
176
     1
290
     0
176
     1
 93
       13
176
     1
 44
0.0
176
     1
173
     0
176
     1
  0
VISUALSTYLE
  5
2D
102
{ACAD_REACTORS
330
2A
102
}
330
2A
100
AcDbVisualStyle
  2
Gouraud
 70
     2
177
     2
291
     1
 71
     2
176
     1
 72
     2
176
     1
 73
     1
176
     1
 90
        2
176
     1
 40
-0.6
176
     1
 41
30.0
176
     1
 62
     5
 63
     7
421
 16777215
176
     1
 74
     0
176
     1
 91
        4
176
     1
 64
     7
176
     1
 65
   257
176
     1
 75
     1
176
     1
175
     1
176
     1
 42
1.0
176
     1
 92
        0
176
     1
 66
     7
176
     1
 43
1.0
176
     1
 76
     1
176
     1
 77
     6
176
     1
 78
     2
176
     1
 67
     7
176
     1
 79
     5
176
     1
170
     0
176
     1
171
     0
176
     1
290
     0
176
     1
 93
       13
176
     1
 44
0.0
176
     1
173
     0
176
     1
  0
VISUALSTYLE
  5
2E
102
{ACAD_REACTORS
330
2A
102
}
330
2A
100
AcDbVisualStyle
  2
GouraudWithEdges
 70
     3
177
     2
291
     1
 71
     2
176
     1
 72
     2
176
     1
 73
     1
176
     1
 90
        2
176
     1
 40
-0.6
176
     1
 41
30.0
176
     1
 62
     5
 63
     7
421
 16777215
176
     1
 74
     1
176
     1
 91
        4
176
     1
 64
     7
176
     1
 65
   257
176
     1
 75
     1
176
     1
175
     1
176
     1
 42
1.0
176
     1
 92
        0
176
     1
 66
   257
176
     1
 43
1.0
176
     1
 76
     1
176
     1
 77
     6
176
     1
 78
     2
176
     1
 67
     7
176
     1
 79
     5
176
     1
170
     0
176
     1
171
     0
176
     1
290
     0
176
     1
 93
       13
176
     1
 44
0.0
176
     1
173
     0
176
     1
  0
VISUALSTYLE
  5
38
102
{ACAD_REACTORS
330
2A
102
}
330
2A
100
AcDbVisualStyle
  2
Linepattern
 70
    14
177
     2
291
     1
 71
     2
176
     1
 72
     2
176
     1
 73
     0
176
     1
 90
        0
176
     1
 40
-0.6
176
     1
 41
-30.0
176
     1
 62
     5
 63
     7
421
 16777215
176
     1
 74
     1
176
     1
 91
        4
176
     1
 64
     7
176
     1
 65
   257
176
     1
 75
     7
176
     1
175
     7
176
     1
 42
1.0
176
     1
 92
        8
176
     1
 66
     7
176
     1
 43
1.0
176
     1
 76
     1
176
     1
 77
     6
176
     1
 78
     2
176
     1
 67
     7
176
     1
 79
     5
176
     1
170
     0
176
     1
171
     0
176
     1
290
     0
176
     1
 93
        1
176
     1
 44
0.0
176
     1
173
     0
176
     1
  0
VISUALSTYLE
  5
33
102
{ACAD_REACTORS
330
2A
102
}
330
2A
100
AcDbVisualStyle
  2
Realistic
 70
     8
177
     2
291
     0
 71
     2
176
     1
 72
     2
176
     1
 73
     0
176
     1
 90
        0
176
     1
 40
-0.6
176
     1
 41
-30.0
176
     1
 62
     5
 63
     7
421
 16777215
176
     1
 74
     1
176
     1
 91
        0
176
     1
 64
     7
176
     1
 65
   257
176
     1
 75
     1
176
     1
175
     1
176
     1
 42
1.0
176
     1
 92
        8
176
     1
 66
     8
424
  7895160
176
     1
 43
1.0
176
     1
 76
     1
176
     1
 77
     6
176
     1
 78
     2
176
     1
 67
     7
176
     1
 79
     5
176
     1
170
     0
176
     1
171
     0
176
     1
290
     0
176
     1
 93
       13
176
     1
 44
0.0
176
     1
173
     0
176
     1
  0
VISUALSTYLE
  5
37
102
{ACAD_REACTORS
330
2A
102
}
330
2A
100
AcDbVisualStyle
  2
Thicken
 70
    13
177
     2
291
     1
 71
     2
176
     1
 72
     2
176
     1
 73
     0
176
     1
 90
        0
176
     1
 40
-0.6
176
     1
 41
-30.0
176
     1
 62
     5
 63
     7
421
 16777215
176
     1
 74
     1
176
     1
 91
        4
176
     1
 64
     7
176
     1
 65
   257
176
     1
 75
     1
176
     1
175
     1
176
     1
 42
1.0
176
     1
 92
       12
176
     1
 66
     7
176
     1
 43
1.0
176
     1
 76
     1
176
     1
 77
     6
176
     1
 78
     2
176
     1
 67
     7
176
     1
 79
     5
176
     1
170
     0
176
     1
171
     0
176
     1
290
     0
176
     1
 93
        1
176
     1
 44
0.0
176
     1
173
     0
176
     1
  0
ENDSEC
  0
EOF
